<svg width="199" height="200" viewBox="0 0 199 200" fill="none" xmlns="http://www.w3.org/2000/svg">
<g clip-path="url(#clip0_3_14272)">
<rect x="0.290039" y="0.772461" width="198.663" height="198.663" rx="99.3317" fill="#D9B7F3"/>
<path d="M187.777 170.418L187.735 277.016C187.735 279.026 187.363 281.067 186.565 282.931C186.078 284.071 185.446 285.158 184.669 286.132C184.193 286.743 183.654 287.313 183.064 287.841C181.562 289.177 179.739 290.182 177.791 290.741C175.844 291.311 173.783 291.456 171.784 291.218L35.7986 275.059C33.644 274.8 31.5309 274.106 29.6043 273.049C27.688 272.013 25.9685 270.625 24.5183 268.989C23.0681 267.362 21.8976 265.477 21.1 263.447C20.2921 261.417 19.8467 259.221 19.8467 257.056V159.739C23.41 154.539 29.2625 149.722 37.1763 145.713C44.9451 141.767 54.6923 138.597 66.2005 136.588C75.0258 135.044 84.8974 134.185 95.7012 134.185C109.271 134.185 124.984 136.857 139.641 141.29C151.833 144.978 163.29 149.878 172.146 155.471C179.469 160.081 185.022 165.167 187.777 170.418Z" fill="url(#paint0_linear_3_14272)"/>
<path d="M131.447 176.28C136.345 181.819 139.793 187.17 141.885 190.821C143.321 193.326 142.325 196.516 139.721 197.762L87.9525 222.51C83.5709 224.602 78.692 220.676 79.8418 215.963C80.7327 212.286 82.1 207.873 84.1613 203.026L46.8286 177.162C45.0874 175.956 44.9537 173.428 46.5655 172.053C49.6823 169.394 54.8585 165.185 60.8653 161.115C53.0841 156.958 46.3055 152.396 41.983 149.298C39.7259 147.68 40.1506 144.231 42.7164 143.171C49.4182 140.398 57.2802 138.144 66.1998 136.586C66.1998 136.814 66.2206 137.052 66.262 137.301C67.1217 143.775 68.7791 149.762 70.9336 155.241C71.3894 156.433 71.8762 157.593 72.3838 158.722C72.4356 158.836 72.4874 158.939 72.5392 159.053C73.0467 160.193 73.5854 161.301 74.1344 162.399C74.1862 162.492 74.2379 162.585 74.2794 162.679C74.8491 163.777 75.4292 164.854 76.0196 165.9C76.061 165.983 76.1128 166.056 76.1542 166.138C81.2091 174.974 87.3102 182.059 92.7277 187.332C98.1969 179.242 105.707 170.789 116.044 162.855C124.994 154.61 133.716 147.286 139.641 141.289C149.888 144.388 159.616 148.344 167.717 152.849C169.784 153.997 169.856 156.945 167.851 158.197C158.416 164.086 142.561 173.325 131.458 176.279H131.447V176.28Z" fill="#616F93"/>
<path d="M187.777 170.418L187.735 277.016C187.735 279.026 187.363 281.067 186.565 282.931C186.078 284.071 185.446 285.158 184.669 286.132C184.193 286.743 183.654 287.313 183.064 287.841C181.562 289.177 179.739 290.182 177.791 290.741C175.844 291.311 173.783 291.456 171.784 291.218L35.7986 275.059C33.644 274.8 31.5309 274.106 29.6043 273.049C27.688 272.013 25.9685 270.625 24.5183 268.989C23.0681 267.362 21.8976 265.477 21.1 263.447C20.2921 261.417 19.8467 259.221 19.8467 257.056V159.739C23.41 154.539 29.2625 149.722 37.1763 145.713C44.9451 141.767 54.6923 138.597 66.2005 136.588C75.0258 135.044 84.8974 134.185 95.7012 134.185C109.271 134.185 124.984 136.857 139.641 141.29C151.833 144.978 163.29 149.878 172.146 155.471C179.469 160.081 185.022 165.167 187.777 170.418Z" stroke="#871C20" stroke-width="1.51375" stroke-miterlimit="10"/>
<path d="M132.586 151.129C132.586 171.114 117.174 187.315 98.1634 187.315C79.1526 187.315 61.3486 167.147 61.3486 147.161C61.3486 127.177 79.1516 114.943 98.1634 114.943C117.174 114.943 132.586 131.145 132.586 151.129Z" fill="#F5B2A0"/>
<path d="M172.077 147.643C172.077 147.643 144.493 166.392 127.74 170.853C116.501 173.846 108.962 160.53 112.331 157.427C126.24 144.619 139.606 134.013 142.769 127.221L172.077 147.643Z" fill="#747FA3" stroke="#871C20" stroke-width="1.51375" stroke-miterlimit="10" stroke-linecap="round" stroke-linejoin="round"/>
<path d="M79.8555 164.691C59.5665 158.056 39.3843 141.872 39.3843 141.872C39.3843 141.872 55.359 134.289 69.8193 125.497C70.3911 128.495 68.1609 130.054 68.6322 133.595C70.2533 145.69 74.5955 156.087 79.8555 164.691Z" fill="#747FA3" stroke="#871C20" stroke-width="1.51375" stroke-miterlimit="10" stroke-linecap="round" stroke-linejoin="round"/>
<path d="M104.409 191.655C99.4027 198.188 94.729 205.006 94.729 205.006L45.8105 171.111C45.8105 171.111 59.0672 158.842 73.2302 151.362C81.3429 172.213 96.75 185.857 104.409 191.655Z" fill="#747FA3" stroke="#871C20" stroke-width="1.51375" stroke-miterlimit="10" stroke-linecap="round" stroke-linejoin="round"/>
<path d="M140.637 190.121L84.2378 217.081C79.8562 219.175 74.9774 215.254 76.1272 210.534C79.2502 197.719 87.974 176.132 112.332 157.426C131.78 170.038 140.637 190.121 140.637 190.121Z" fill="#747FA3" stroke="#871C20" stroke-width="1.51375" stroke-miterlimit="10" stroke-linecap="round" stroke-linejoin="round"/>
<path d="M164.54 137.201C161.77 138.431 158.995 139.67 156.226 140.901C156.226 140.901 156.224 140.901 156.224 140.902C156.224 140.902 156.224 140.902 156.223 140.902C155.338 141.25 154.782 142.266 154.889 143.176C154.888 143.158 154.889 143.142 154.889 143.123C154.894 143.17 154.894 143.216 154.9 143.264C154.898 143.243 154.893 143.223 154.891 143.202C154.9 143.32 154.915 143.431 154.935 143.545V143.544C154.941 143.576 154.946 143.608 154.954 143.638C154.976 143.748 154.997 143.834 155.038 143.971C155.987 146.896 159.932 149.52 162.985 148.85C163.868 148.657 164.66 147.905 164.757 146.975C164.762 146.94 164.764 146.904 164.767 146.869C164.763 146.904 164.762 146.94 164.757 146.974C164.771 146.874 164.777 146.791 164.782 146.73C164.866 144.762 165.171 137.635 165.171 137.635C165.172 137.34 164.818 137.094 164.54 137.201Z" fill="url(#paint1_linear_3_14272)" stroke="#871C20" stroke-width="1.51375" stroke-miterlimit="10" stroke-linecap="round" stroke-linejoin="round"/>
<path d="M45.3838 132.568C45.3838 132.569 45.3838 132.569 45.3838 132.568C45.3838 132.568 45.4718 139.701 45.4967 141.671C45.4988 141.731 45.5029 141.815 45.5143 141.916C45.5102 141.881 45.5091 141.845 45.5071 141.81C45.5102 141.845 45.5102 141.883 45.5143 141.917C45.5827 142.848 46.3513 143.624 47.2286 143.845C50.2605 144.607 54.2827 142.103 55.3196 139.209C55.3652 139.072 55.3879 138.987 55.4138 138.878C55.4211 138.848 55.4283 138.816 55.4356 138.783C55.4356 138.785 55.4356 138.784 55.4356 138.784C55.4584 138.672 55.477 138.562 55.4895 138.443C55.4874 138.462 55.4822 138.484 55.4801 138.505C55.4863 138.457 55.4874 138.412 55.4946 138.365C55.4936 138.383 55.4946 138.399 55.4926 138.417C55.6272 137.51 55.1021 136.478 54.2278 136.103C54.2278 136.103 54.2278 136.103 54.2268 136.103C54.2268 136.103 54.2257 136.103 54.2257 136.102C51.4942 134.786 48.7586 133.463 46.027 132.151C45.7515 132.038 45.39 132.272 45.3838 132.568Z" fill="url(#paint2_linear_3_14272)" stroke="#871C20" stroke-width="1.51375" stroke-miterlimit="10" stroke-linecap="round" stroke-linejoin="round"/>
<path d="M132.151 189.843C132.157 189.835 132.164 189.828 132.17 189.82C134.051 187.681 133.403 183.893 130.64 182.257C130.635 182.254 130.628 182.25 130.622 182.247C130.626 182.249 130.631 182.252 130.636 182.255C130.523 182.189 130.409 182.121 130.294 182.058C130.182 182 130.052 181.937 129.933 181.882L129.924 181.877C129.923 181.877 129.923 181.877 129.922 181.876C129.921 181.876 129.921 181.875 129.919 181.875C129.863 181.853 129.798 181.825 129.74 181.8H129.739C129.633 181.759 129.5 181.708 129.39 181.673C129.319 181.653 129.25 181.63 129.179 181.61L129.157 181.602C129.155 181.602 129.153 181.601 129.151 181.601C129.149 181.6 129.147 181.6 129.145 181.599L129.12 181.593C128.935 181.545 128.751 181.503 128.564 181.475C128.56 181.475 128.557 181.474 128.554 181.473C128.31 181.433 128.063 181.411 127.816 181.408C127.817 181.408 127.817 181.408 127.818 181.408C127.711 181.407 127.605 181.404 127.499 181.41C127.494 181.41 127.488 181.41 127.483 181.41C127.331 181.421 127.178 181.429 127.025 181.45C127.036 181.449 127.048 181.446 127.057 181.445C126.939 181.459 126.816 181.485 126.699 181.502C126.69 181.504 126.677 181.507 126.668 181.509C126.658 181.511 126.644 181.513 126.634 181.515C126.462 181.556 126.291 181.598 126.128 181.649L126.138 181.646L126.128 181.649C126.124 181.65 126.121 181.651 126.118 181.653L125.971 181.704L125.918 181.721C125.913 181.723 125.907 181.727 125.901 181.729L125.882 181.736C125.879 181.737 125.877 181.739 125.874 181.74C125.869 181.741 125.866 181.743 125.862 181.744L125.841 181.751L125.839 181.752C124.767 182.253 124.123 182.579 123.286 184.09C123.197 184.271 123.141 184.407 123.065 184.626C123.053 184.653 122.988 184.862 122.963 184.974L122.94 185.056C122.937 185.07 122.934 185.088 122.931 185.103C122.927 185.119 122.922 185.137 122.918 185.151L122.916 185.16C122.916 185.161 122.915 185.162 122.915 185.163C122.905 185.211 122.897 185.269 122.886 185.32C122.87 185.391 122.859 185.469 122.849 185.543C122.85 185.534 122.852 185.524 122.853 185.515C122.852 185.52 122.852 185.525 122.852 185.53C122.838 185.618 122.828 185.715 122.821 185.823L122.819 185.844C122.819 185.858 122.818 185.874 122.818 185.889C122.817 185.902 122.815 185.919 122.814 185.932V185.971C122.808 186.063 122.807 186.187 122.808 186.282C122.808 186.267 122.81 186.247 122.81 186.23C122.808 186.398 122.818 186.54 122.831 186.667C122.831 186.668 122.831 186.67 122.832 186.672C122.833 186.679 122.834 186.688 122.835 186.697C122.834 186.688 122.833 186.679 122.832 186.672C122.833 186.678 122.833 186.684 122.834 186.689L122.838 186.718C122.838 186.741 122.844 186.763 122.848 186.786C122.861 186.894 122.877 187.009 122.893 187.104L122.885 187.047C122.891 187.089 122.898 187.132 122.907 187.172C122.907 187.173 122.907 187.173 122.907 187.175C122.907 187.177 122.908 187.179 122.909 187.181C122.944 187.358 122.968 187.462 123.008 187.594C123.045 187.731 123.109 187.914 123.174 188.077C123.176 188.084 123.178 188.089 123.18 188.096C123.188 188.116 123.199 188.142 123.206 188.16C123.202 188.15 123.198 188.137 123.193 188.126C123.21 188.168 123.229 188.212 123.248 188.254L123.265 188.299C123.267 188.304 123.27 188.309 123.273 188.315C123.275 188.32 123.277 188.326 123.279 188.33L123.305 188.382C123.413 188.622 123.535 188.822 123.67 189.042L123.682 189.057C124.266 189.954 125.114 190.671 126.093 191.1C126.099 191.103 126.109 191.107 126.115 191.11C126.116 191.11 126.116 191.11 126.116 191.111C126.117 191.111 126.117 191.112 126.118 191.112C126.24 191.164 126.354 191.208 126.474 191.254C126.471 191.253 126.467 191.252 126.464 191.251L126.476 191.255C128.396 191.956 130.592 191.6 132.006 190.006C132.056 189.956 132.103 189.899 132.151 189.843Z" fill="url(#paint3_radial_3_14272)" stroke="#871C20" stroke-width="1.51375" stroke-miterlimit="10" stroke-linecap="round" stroke-linejoin="round"/>
<path d="M54.2371 171.519C54.7954 173.401 56.489 174.555 58.3639 174.721L58.3753 174.723C58.3722 174.723 58.3691 174.722 58.366 174.722C58.4851 174.73 58.597 174.738 58.7192 174.742C58.7202 174.742 58.7202 174.742 58.7213 174.742C58.7223 174.742 58.7223 174.742 58.7223 174.742C58.7296 174.742 58.7378 174.742 58.7451 174.742C59.7302 174.766 60.7173 174.5 61.5553 173.979L61.5709 173.97C61.7697 173.84 61.9489 173.72 62.1333 173.563L62.1758 173.53C62.1789 173.526 62.1841 173.522 62.1872 173.519C62.1913 173.516 62.1955 173.512 62.1996 173.509L62.2317 173.479C62.2649 173.45 62.297 173.422 62.328 173.393C62.3198 173.4 62.3115 173.409 62.3042 173.416C62.3187 173.402 62.3374 173.386 62.3508 173.372C62.356 173.367 62.3591 173.364 62.3633 173.36C62.4813 173.249 62.6057 173.121 62.6906 173.021C62.7755 172.928 62.8356 172.849 62.934 172.715C62.9351 172.713 62.9371 172.712 62.9382 172.71C62.9392 172.709 62.9382 172.709 62.9392 172.708C62.962 172.678 62.9848 172.646 63.0065 172.612L62.9775 172.655C63.0283 172.583 63.0863 172.493 63.1401 172.408C63.1526 172.39 63.165 172.374 63.1743 172.355L63.1889 172.332C63.192 172.328 63.194 172.323 63.1971 172.318C63.193 172.324 63.1888 172.331 63.1847 172.337C63.1888 172.331 63.193 172.324 63.1971 172.318C63.1982 172.317 63.1992 172.314 63.1992 172.314C63.2603 172.214 63.3235 172.099 63.3877 171.958C63.3815 171.972 63.3742 171.988 63.368 172.002C63.4064 171.923 63.454 171.818 63.4851 171.741L63.4996 171.707C63.5037 171.696 63.5089 171.682 63.5131 171.67C63.5182 171.658 63.5244 171.643 63.5296 171.632L63.5359 171.614C63.5721 171.52 63.6011 171.436 63.6239 171.357C63.6249 171.353 63.627 171.348 63.628 171.344C63.626 171.352 63.6229 171.362 63.6208 171.369C63.6405 171.304 63.6622 171.235 63.6767 171.169C63.6881 171.123 63.7037 171.07 63.714 171.027C63.714 171.026 63.714 171.025 63.714 171.024L63.7161 171.014C63.7181 171.001 63.7213 170.984 63.7244 170.97C63.7275 170.955 63.7316 170.939 63.7347 170.926L63.7482 170.849C63.771 170.745 63.799 170.544 63.799 170.517C63.8217 170.307 63.828 170.169 63.8248 169.985C63.7171 168.397 63.3069 167.873 62.6077 167.037L62.6067 167.036L62.5922 167.021C62.5901 167.018 62.587 167.016 62.585 167.014C62.5829 167.012 62.5818 167.01 62.5798 167.008L62.5663 166.994C62.5632 166.99 62.558 166.986 62.5549 166.982L62.5176 166.947L62.4151 166.846C62.413 166.844 62.4099 166.841 62.4078 166.839L62.4006 166.833L62.4068 166.839C62.2908 166.732 62.1644 166.631 62.037 166.529C62.0287 166.524 62.0194 166.517 62.0111 166.511C62.0038 166.504 61.9945 166.498 61.9873 166.492C61.8961 166.432 61.8029 166.363 61.7107 166.305C61.718 166.31 61.7273 166.316 61.7356 166.321C61.6175 166.244 61.4932 166.178 61.3699 166.109C61.3658 166.107 61.3616 166.105 61.3575 166.103C61.2705 166.057 61.1814 166.017 61.0923 165.976L61.0933 165.977C60.8862 165.883 60.6707 165.805 60.4511 165.743C60.4491 165.742 60.446 165.742 60.4428 165.741C60.275 165.691 60.1041 165.655 59.9322 165.623L59.9094 165.618C59.9073 165.618 59.9052 165.617 59.9031 165.617C59.9011 165.617 59.899 165.616 59.898 165.616L59.8773 165.613C59.8099 165.602 59.7436 165.594 59.6763 165.583C59.5706 165.569 59.4402 165.56 59.3355 165.552H59.3345C59.2765 165.549 59.2123 165.548 59.1563 165.544C59.1553 165.544 59.1553 165.544 59.1542 165.544C59.1532 165.544 59.1532 165.544 59.1522 165.544H59.1429C59.0227 165.543 58.8901 165.545 58.772 165.549C58.6519 165.558 58.5296 165.569 58.4095 165.58C58.4136 165.58 58.4198 165.579 58.424 165.579C58.4178 165.579 58.4105 165.58 58.4043 165.582C55.4604 165.867 53.4405 168.775 54.175 171.295C54.177 171.305 54.1802 171.314 54.1822 171.322C54.1988 171.388 54.2164 171.454 54.2371 171.519Z" fill="url(#paint4_radial_3_14272)" stroke="#871C20" stroke-width="1.51375" stroke-miterlimit="10" stroke-linecap="round" stroke-linejoin="round"/>
<path d="M153.852 152.828C153.868 152.491 153.835 152.167 153.773 151.839C153.501 150.659 153.347 149.431 153.014 148.275C152.955 148.183 152.847 148.129 152.739 148.116C151.373 148.06 150.002 147.886 148.637 147.908C148.605 147.909 148.572 147.911 148.54 147.916C148.51 147.92 148.48 147.923 148.452 147.926C148.464 147.924 148.477 147.925 148.488 147.923C148.474 147.925 148.458 147.925 148.443 147.927H148.445H148.443C148.172 147.967 147.926 148.017 147.666 148.116C147.467 148.182 147.212 148.305 147.015 148.43C146.965 148.461 146.918 148.492 146.871 148.525C146.098 149.048 145.572 149.954 145.471 150.873C145.44 151.111 145.439 151.364 145.447 151.581C145.506 152.357 145.69 152.904 146.047 153.546C146.088 153.617 146.129 153.686 146.173 153.755C146.231 153.855 146.303 153.954 146.378 154.055C146.376 154.052 146.374 154.05 146.372 154.047C146.375 154.051 146.378 154.055 146.381 154.059C146.38 154.058 146.379 154.057 146.378 154.055C146.754 154.562 147.232 155.003 147.763 155.347C147.777 155.355 147.79 155.362 147.803 155.37C147.945 155.455 148.089 155.54 148.235 155.614C148.234 155.613 148.232 155.612 148.231 155.612C148.251 155.621 148.272 155.63 148.291 155.64C148.28 155.634 148.267 155.63 148.256 155.624C149.477 156.237 151.052 156.337 152.242 155.608C152.436 155.508 152.852 155.171 153.02 154.958C153.078 154.893 153.07 154.907 153.167 154.78C153.168 154.778 153.17 154.777 153.171 154.775C153.176 154.767 153.181 154.759 153.188 154.753C153.596 154.221 153.828 153.503 153.852 152.828Z" fill="url(#paint5_linear_3_14272)" stroke="#871C20" stroke-width="1.51375" stroke-miterlimit="10" stroke-linecap="round" stroke-linejoin="round"/>
<path d="M58.4969 150.604C58.5021 150.61 58.5083 150.616 58.5135 150.621C58.5145 150.622 58.5166 150.624 58.5176 150.625C58.6192 150.728 58.6098 150.716 58.6689 150.768C58.8429 150.939 59.252 151.194 59.4354 151.26C60.5789 151.778 61.9721 151.514 62.9935 150.83C62.9842 150.837 62.9728 150.842 62.9635 150.848C62.98 150.837 62.9977 150.826 63.0142 150.816C63.0132 150.817 63.0121 150.818 63.0101 150.819C63.1323 150.737 63.2514 150.645 63.3685 150.553C63.3799 150.543 63.3902 150.536 63.4027 150.527C63.8377 150.16 64.2147 149.715 64.4934 149.22C64.4923 149.221 64.4924 149.222 64.4913 149.223C64.4934 149.219 64.4955 149.214 64.4986 149.211C64.4965 149.214 64.4955 149.217 64.4944 149.22C64.5504 149.122 64.6042 149.025 64.6446 148.93C64.6757 148.863 64.7047 148.796 64.7337 148.729C64.9802 148.115 65.0838 147.607 65.0496 146.909C65.032 146.713 65.0041 146.488 64.9492 146.279C64.7565 145.47 64.1858 144.721 63.4379 144.341C63.3933 144.317 63.3467 144.294 63.2991 144.272C63.1095 144.183 62.8692 144.102 62.6838 144.065C62.4404 144.005 62.2145 143.989 61.968 143.982H61.967C61.967 143.982 61.967 143.982 61.968 143.982C61.9546 143.982 61.9411 143.984 61.9287 143.983C61.939 143.983 61.9504 143.982 61.9618 143.982C61.9359 143.982 61.909 143.983 61.882 143.983C61.853 143.982 61.824 143.985 61.794 143.987C60.5727 144.119 59.3701 144.428 58.1571 144.631C58.0629 144.655 57.9728 144.714 57.9303 144.803C57.7625 145.871 57.7615 146.984 57.6517 148.067C57.633 148.365 57.6392 148.659 57.691 148.959C57.7863 149.559 58.0732 150.173 58.4969 150.604Z" fill="url(#paint6_linear_3_14272)" stroke="#871C20" stroke-width="1.51375" stroke-miterlimit="10" stroke-linecap="round" stroke-linejoin="round"/>
<path d="M40.7204 85.2222C41.9603 93.5793 46.1938 101.474 52.6056 102.488C59.0174 103.501 64.437 97.4036 64.7104 88.8694C64.9839 80.3351 60.0512 72.3363 53.5959 71.5833C44.1035 70.476 39.465 76.7573 40.7204 85.2222Z" fill="#FBD5BE"/>
<path d="M63.5917 81.414C61.7977 76.2223 58.0117 72.427 53.5969 71.5839C45.2035 69.9825 38.7855 76.2793 40.9991 86.8428C42.7579 95.2362 46.1948 101.475 52.6067 102.488C56.1171 103.042 59.3303 101.466 61.5646 98.5239" stroke="#871C20" stroke-width="1.51375" stroke-miterlimit="10" stroke-linecap="round" stroke-linejoin="round"/>
<path d="M157.848 100.609C157.478 128.829 140.699 147.804 99.3438 147.145C68.9771 146.662 47.5104 127.076 47.8802 98.8568C48.25 70.6374 70.3175 44.4711 100.684 44.9559C137.271 45.539 158.218 72.391 157.848 100.609Z" fill="#FBD5BE"/>
<path d="M157.848 100.609C157.478 128.829 140.699 147.804 99.3438 147.145C68.9771 146.662 47.5104 127.076 47.8802 98.8568C48.25 70.6374 70.3175 44.4711 100.684 44.9559C137.271 45.539 158.218 72.391 157.848 100.609Z" stroke="#871C20" stroke-width="1.51375" stroke-miterlimit="10" stroke-linecap="round" stroke-linejoin="round"/>
<path d="M76.7256 95.019C77.2228 96.4278 78.2296 98.1266 79.1826 99.2049C79.193 99.2152 79.2033 99.2256 79.2137 99.2256C81.1921 101.463 84.0407 102.851 87.2725 102.83C89.8207 102.81 92.2756 101.888 94.3059 100.355C96.0357 99.0702 97.4548 97.3611 98.3663 95.4137" stroke="#871C20" stroke-width="1.51375" stroke-miterlimit="10" stroke-linecap="round" stroke-linejoin="round"/>
<path d="M94.3089 100.355C94.2674 101.857 93.9463 103.317 93.4388 104.819C92.8794 106.363 92.1336 107.948 90.383 108.818C88.7257 109.657 86.0118 109.512 83.5465 107.948C81.1641 106.466 79.0095 103.597 79.1235 100.231C79.1235 99.8784 79.1442 99.5365 79.1856 99.2051C79.196 99.2154 79.2063 99.2258 79.2167 99.2258C81.1951 101.463 84.0437 102.851 87.2755 102.831C89.8237 102.81 92.2786 101.888 94.3089 100.355Z" fill="white" stroke="#871C20" stroke-width="1.51375" stroke-miterlimit="10"/>
<path d="M117.387 76.3952C128.757 76.4387 143.439 81.1932 150.738 75.3086" stroke="#871C20" stroke-width="6.055" stroke-miterlimit="10" stroke-linecap="round" stroke-linejoin="round"/>
<path d="M103.078 97.0528C102.281 97.0476 101.5 96.9813 100.738 96.858C99.5671 96.6705 98.438 96.3494 97.3659 95.9123C94.508 94.747 92.0427 92.7478 90.2155 90.2028C89.5039 89.2115 88.8897 88.1373 88.3842 86.9958C88.0859 86.3194 87.8051 85.2463 86.7714 85.2287C85.9541 85.2152 85.4589 86.2593 85.1389 86.9067C84.6344 87.9301 83.8638 89.428 83.3386 90.1344C80.8474 93.4843 77.2655 95.558 73.3065 95.5373C72.1018 95.5301 70.9375 95.3301 69.8323 94.9624C68.8762 94.6434 67.9647 94.199 67.1091 93.6438C66.1996 93.0544 65.3533 92.3418 64.5868 91.5224C63.4101 90.2701 62.4157 88.7681 61.6564 87.088C60.632 84.8174 60.0364 82.2144 60.0012 79.4363C59.9898 78.5392 60.0374 77.6588 60.14 76.799C60.3513 75.0277 61.7538 73.8013 63.3749 73.7246C65.5719 73.62 116.564 74.2198 116.797 74.2736C118.41 74.6476 119.647 75.9952 119.771 77.7468C119.796 78.1083 119.812 78.4729 119.818 78.8406C119.968 88.9608 112.348 97.117 103.078 97.0528Z" fill="#871C20"/>
<path d="M64.6919 78.0859L74.9395 78.2496" stroke="white" stroke-width="4.54125" stroke-miterlimit="10" stroke-linecap="round" stroke-linejoin="round"/>
<path d="M112.493 78.7515L114.022 78.7763" stroke="white" stroke-width="4.54125" stroke-miterlimit="10" stroke-linecap="round" stroke-linejoin="round"/>
<path d="M95.6992 78.5811L106.403 78.7519" stroke="white" stroke-width="4.54125" stroke-miterlimit="10" stroke-linecap="round" stroke-linejoin="round"/>
<path d="M123.72 19.6312C119.154 18.1033 114.007 18.0815 108.428 19.3929C106.18 19.9212 104.326 20.2672 102.589 22.082C100.714 23.7093 100.888 43.6523 100.746 54.484C97.4367 54.9284 92.4999 54.4871 90.4531 54.2437C89.3292 54.1101 88.4674 53.6077 87.9951 52.9323C84.987 48.616 80.6634 30.2785 79.9611 25.089C79.7632 23.6253 79.8834 22.4808 80.4997 21.8054C82.9422 19.134 90.2128 18.2701 95.2874 18.0733C100.412 17.8733 110.749 18.3187 115.889 18.2908V18.2918C118.561 18.24 121.217 18.7238 123.72 19.6312Z" fill="#871C20" stroke="#871C20" stroke-width="1.51375" stroke-miterlimit="10" stroke-linecap="round" stroke-linejoin="round"/>
<path d="M132.771 28.4301C131.761 31.9167 127.851 50.3546 127.545 51.0165C127.537 51.0424 127.529 51.059 127.529 51.059C118.273 47.8779 112.173 48.5139 103.435 53.6465C102.866 54.0712 101.908 54.3333 100.746 54.4866C100.89 43.6527 100.712 23.7139 102.595 22.0845C104.326 20.2687 106.184 19.9207 108.432 19.3955C108.669 19.3364 108.916 19.2857 109.153 19.2339C109.153 19.2339 111.801 22.1446 111.801 27.9412C111.801 27.9412 113.709 20.855 113.725 18.5471C117.288 18.2592 120.639 18.6062 123.719 19.6327C126.578 20.6675 129.234 22.2544 131.49 24.2391C131.506 24.2474 131.516 24.2556 131.524 24.265C131.55 24.2909 131.583 24.3157 131.617 24.3416C131.702 24.4266 131.795 24.5115 131.872 24.5964C132.933 25.7069 133.119 27.0638 132.771 28.4301Z" fill="#F4736C" stroke="#871C20" stroke-width="1.51375" stroke-miterlimit="10" stroke-linecap="round" stroke-linejoin="round"/>
<path d="M131.872 24.5955C131.791 24.5105 131.704 24.4266 131.613 24.3437C131.612 24.3437 131.612 24.3427 131.612 24.3427C131.582 24.3158 131.551 24.2889 131.519 24.2619C131.51 24.2536 131.501 24.2453 131.492 24.237C129.229 22.2555 126.572 20.6676 123.719 19.6328C121.215 18.7243 118.56 18.2406 115.889 18.2934V18.2924C110.749 18.3203 100.412 17.876 95.2874 18.0748C90.2138 18.2716 82.9422 19.1356 80.4997 21.807C79.8834 22.4824 79.7632 23.6269 79.9611 25.0906C80.6634 30.2801 84.988 48.6176 87.9951 52.9339C88.4664 53.6093 89.3292 54.1117 90.4531 54.2453C92.4989 54.4887 97.4367 54.9289 100.746 54.4856C101.905 54.3302 102.865 54.0661 103.431 53.6487C112.169 48.5171 118.269 47.8749 127.528 51.056C127.528 51.056 127.535 51.0425 127.546 51.0156C127.85 50.3526 131.759 31.9167 132.768 28.4332C133.121 27.0618 132.933 25.7111 131.872 24.5955Z" stroke="#871C20" stroke-width="1.51375" stroke-miterlimit="10" stroke-linecap="round" stroke-linejoin="round"/>
<path d="M165.157 84.9845C163.652 93.2981 159.17 101.054 152.729 101.862C146.288 102.671 141.066 96.4046 141.063 87.8662C141.061 79.3278 146.246 71.4896 152.723 70.9426C162.245 70.1378 166.682 76.5641 165.157 84.9845Z" fill="#FBD5BE"/>
<path d="M142.422 80.4498C144.381 75.3173 148.285 71.6442 152.725 70.9429C161.165 69.6087 167.379 76.1076 164.831 86.5944C162.806 94.9278 159.172 101.055 152.731 101.863C149.204 102.305 146.043 100.627 143.904 97.6158" stroke="#871C20" stroke-width="1.51375" stroke-miterlimit="10" stroke-linecap="round" stroke-linejoin="round"/>
<path d="M155.244 76.604C148.864 81.2497 146.552 87.3726 149.025 93.0738" stroke="#871C20" stroke-width="1.51375" stroke-miterlimit="10" stroke-linecap="round" stroke-linejoin="round"/>
<path d="M154.21 87.014C153.955 89.5818 151.596 91.6856 148.672 92.1652C147.477 88.6765 148.032 85.0687 150.182 81.7695C152.742 82.4998 154.45 84.5901 154.21 87.014Z" fill="#871C20" stroke="#871C20" stroke-width="1.51375" stroke-miterlimit="10" stroke-linecap="round" stroke-linejoin="round"/>
<path d="M84.9699 95.0868L80.1501 94.0231C77.0239 93.4098 74.8818 90.8099 75.3655 88.2162C75.8493 85.6224 78.7755 84.0169 81.9006 84.6301L87.8536 85.8637" fill="#FBD5BE"/>
<path d="M84.9699 95.0868L80.1501 94.0231C77.0239 93.4098 74.8818 90.8099 75.3655 88.2162C75.8493 85.6224 78.7755 84.0169 81.9006 84.6301L87.8536 85.8637" stroke="#871C20" stroke-width="1.51375" stroke-miterlimit="10" stroke-linecap="round" stroke-linejoin="round"/>
<path d="M109.15 19.2331C109.15 19.2331 112.252 23.2429 111.798 27.9404C111.798 27.9404 113.48 21.0966 113.723 18.5464L109.15 19.2331Z" fill="#871C20" stroke="#871C20" stroke-width="1.51375" stroke-miterlimit="10" stroke-linecap="round" stroke-linejoin="round"/>
<path d="M124.935 20.1118C124.935 20.1118 126.668 22.0685 126.188 25.7727C126.188 25.7727 128.221 23.3302 128.401 21.9308L124.935 20.1118Z" fill="#871C20" stroke="#871C20" stroke-width="1.51375" stroke-miterlimit="10" stroke-linecap="round" stroke-linejoin="round"/>
<path d="M99.9624 68.502H109.68" stroke="#871C20" stroke-width="1.51375" stroke-miterlimit="10" stroke-linecap="round" stroke-linejoin="round"/>
<path d="M69.0093 68.502H78.7265" stroke="#871C20" stroke-width="1.51375" stroke-miterlimit="10" stroke-linecap="round" stroke-linejoin="round"/>
</g>
<defs>
<linearGradient id="paint0_linear_3_14272" x1="183.41" y1="172.675" x2="27.9881" y2="266.259" gradientUnits="userSpaceOnUse">
<stop offset="0.4183" stop-color="#8D95B7"/>
<stop offset="0.7685" stop-color="#A6ACC5"/>
<stop offset="1" stop-color="#B2B6CC"/>
</linearGradient>
<linearGradient id="paint1_linear_3_14272" x1="155.586" y1="145.489" x2="167.344" y2="141.951" gradientUnits="userSpaceOnUse">
<stop offset="0.0598" stop-color="#898CAA"/>
<stop offset="0.2066" stop-color="#9497B2"/>
<stop offset="0.4634" stop-color="#B1B3C7"/>
<stop offset="0.7972" stop-color="#DFE0E8"/>
<stop offset="1" stop-color="white"/>
</linearGradient>
<linearGradient id="paint2_linear_3_14272" x1="54.7242" y1="140.709" x2="43.0796" y2="136.815" gradientUnits="userSpaceOnUse">
<stop offset="0.0598" stop-color="#898CAA"/>
<stop offset="0.2066" stop-color="#9497B2"/>
<stop offset="0.4634" stop-color="#B1B3C7"/>
<stop offset="0.7972" stop-color="#DFE0E8"/>
<stop offset="1" stop-color="white"/>
</linearGradient>
<radialGradient id="paint3_radial_3_14272" cx="0" cy="0" r="1" gradientUnits="userSpaceOnUse" gradientTransform="translate(128.024 186.504) scale(5.15734)">
<stop offset="0.0921" stop-color="white"/>
<stop offset="0.2182" stop-color="#F8F8FA"/>
<stop offset="0.3985" stop-color="#E5E6ED"/>
<stop offset="0.6115" stop-color="#C6C8D6"/>
<stop offset="0.8477" stop-color="#9C9EB8"/>
<stop offset="0.9402" stop-color="#898CAA"/>
</radialGradient>
<radialGradient id="paint4_radial_3_14272" cx="0" cy="0" r="1" gradientUnits="userSpaceOnUse" gradientTransform="translate(58.9292 170.148) rotate(-154.919) scale(4.75146)">
<stop offset="0.0921" stop-color="white"/>
<stop offset="0.2182" stop-color="#F8F8FA"/>
<stop offset="0.3985" stop-color="#E5E6ED"/>
<stop offset="0.6115" stop-color="#C6C8D6"/>
<stop offset="0.8477" stop-color="#9C9EB8"/>
<stop offset="0.9402" stop-color="#898CAA"/>
</radialGradient>
<linearGradient id="paint5_linear_3_14272" x1="145.864" y1="153.147" x2="154.33" y2="150.6" gradientUnits="userSpaceOnUse">
<stop offset="0.0598" stop-color="#898CAA"/>
<stop offset="0.2066" stop-color="#9497B2"/>
<stop offset="0.4634" stop-color="#B1B3C7"/>
<stop offset="0.7972" stop-color="#DFE0E8"/>
<stop offset="1" stop-color="white"/>
</linearGradient>
<linearGradient id="paint6_linear_3_14272" x1="64.8523" y1="148.352" x2="57.0141" y2="147.025" gradientUnits="userSpaceOnUse">
<stop offset="0.0598" stop-color="#898CAA"/>
<stop offset="0.2066" stop-color="#9497B2"/>
<stop offset="0.4634" stop-color="#B1B3C7"/>
<stop offset="0.7972" stop-color="#DFE0E8"/>
<stop offset="1" stop-color="white"/>
</linearGradient>
<clipPath id="clip0_3_14272">
<rect x="0.290039" y="0.772461" width="198.663" height="198.663" rx="99.3317" fill="white"/>
</clipPath>
</defs>
</svg>
