<svg width="199" height="200" viewBox="0 0 199 200" fill="none" xmlns="http://www.w3.org/2000/svg">
<g clip-path="url(#clip0_3_13442)">
<rect x="0.157715" y="0.583984" width="198.663" height="198.663" rx="99.3317" fill="#C870FF"/>
<path d="M95.9084 37.0059C75.5054 37.0059 58.9575 56.5634 58.9575 80.6976C58.9575 90.0085 61.4262 98.6545 65.6308 105.745H126.186C130.391 98.6545 132.859 90.0198 132.859 80.6976C132.848 56.5634 116.311 37.0059 95.9084 37.0059Z" fill="black"/>
<path d="M168.763 132.9C159.136 112.576 138.541 108.383 129.445 108.834C129.445 108.834 113.877 109.116 109.459 116.837C106.9 121.312 106.652 122.451 106.652 122.451L36.7856 123.781C16.4728 126.768 6.18116 144.883 -0.616077 159.458L-29.417 223.519C-41.6137 266.354 9.35997 265.339 9.35997 265.339H77.5804H105.107H151.809H165.031C216.636 265.339 214.979 238.489 205.263 206.261C205.274 204.3 175.346 146.788 168.763 132.9Z" fill="#6983FF" stroke="black" stroke-width="1.08215"/>
<path d="M185.997 210.363L139.86 129.811L107.485 136.698L138.079 237.135C140.029 245.804 147.818 263.591 163.317 265.429" stroke="white" stroke-width="1.08215" stroke-linecap="round"/>
<path d="M45.2637 173.435L16.2373 224.488H77.435V264.358" stroke="white" stroke-width="1.08215" stroke-linecap="round"/>
<path d="M130.211 112.959L136.253 130.364L113.066 135.29L108.072 114.492C113.212 102.814 121.813 83.6172 122.332 82.0391C122.862 80.4497 125.206 79.7959 126.255 80.8104C126.773 78.9505 130.73 79.5817 130.73 82.0391C133.976 80.8104 134.653 83.5834 134.585 84.6205C137.268 83.3467 138.959 85.6575 138.35 87.4386C138.034 88.3629 136.772 102.149 136.772 102.149C134.878 108.067 130.211 112.959 130.211 112.959Z" fill="#FF85D2"/>
<path d="M133.671 86.3789L132.036 99.3759" stroke="#FF01A1" stroke-width="1.08215" stroke-linecap="round"/>
<path d="M132.026 99.376C129.275 99.5451 123.154 101.766 120.618 109.284" stroke="#FF01A1" stroke-width="1.08215" stroke-linecap="round"/>
<path d="M129.669 83.8086L128.035 96.8056" stroke="#FF01A1" stroke-width="1.08215" stroke-linecap="round"/>
<path d="M126.322 82.2871L124.688 95.2842" stroke="#FF01A1" stroke-width="1.08215" stroke-linecap="round"/>
<path d="M118.15 76.876L119.953 64.0593C119.762 62.7405 107.881 51.5019 78.0991 61.7147C81.0412 71.2286 76.6787 81.9148 76.6787 81.9148C70.5804 76.876 62.577 80.2014 62.3516 86.3786C62.7236 96.9634 71.2567 96.0278 75.0781 93.4689V124.062C75.0781 124.062 77.1296 129.653 81.0411 131.603C94.1847 138.897 102.921 128.774 106.122 124.062V108.439C110.011 108.439 118.161 108.923 121.577 102.092C125.071 95.0809 121.453 82.8391 118.15 76.876Z" fill="#FF85D2"/>
<path d="M121.609 85.3188C123.368 92.1837 128.925 107.582 112.343 108.461" stroke="#FF01A1" stroke-width="1.08215" stroke-linecap="round"/>
<path d="M106.132 116.341L91.8276 106.906C91.8276 106.906 96.2577 107.662 99.0983 107.943C101.849 108.225 106.132 108.36 106.132 108.36V116.341Z" fill="black"/>
<path d="M105.648 69.2783C106.775 75.0949 102.322 78.5104 102.322 78.5104L107.643 87.9003H101.375" stroke="black" stroke-width="1.08215" stroke-linecap="round"/>
<path d="M94.9283 67.4298C92.64 67.0353 90.3292 67.0804 88.7285 67.5313" stroke="black" stroke-width="1.08215" stroke-linecap="round"/>
<path d="M115.748 67.9484C113.459 67.5538 111.149 67.5989 109.537 68.0498" stroke="black" stroke-width="1.08215" stroke-linecap="round"/>
<path d="M101.005 97.2224C98.9533 96.1403 97.1497 94.6861 96.1577 93.3447" stroke="black" stroke-width="1.08215" stroke-linecap="round"/>
<path d="M75.9364 88.7121L68.3501 82.501" stroke="black" stroke-width="1.08215" stroke-linecap="round"/>
<path d="M70.5458 84.3945L66.7695 87.9679" stroke="black" stroke-width="1.08215" stroke-linecap="round"/>
<path d="M91.5017 78.105C92.2675 78.105 92.8882 77.4843 92.8882 76.7185C92.8882 75.9528 92.2675 75.332 91.5017 75.332C90.736 75.332 90.1152 75.9528 90.1152 76.7185C90.1152 77.4843 90.736 78.105 91.5017 78.105Z" fill="black"/>
<path d="M112.312 78.6236C113.078 78.6236 113.699 78.0028 113.699 77.2371C113.699 76.4713 113.078 75.8506 112.312 75.8506C111.547 75.8506 110.926 76.4713 110.926 77.2371C110.926 78.0028 111.547 78.6236 112.312 78.6236Z" fill="black"/>
</g>
<defs>
<clipPath id="clip0_3_13442">
<rect x="0.157715" y="0.583984" width="198.663" height="198.663" rx="99.3317" fill="white"/>
</clipPath>
</defs>
</svg>
