<svg width="200" height="200" viewBox="0 0 200 200" fill="none" xmlns="http://www.w3.org/2000/svg">
<g clip-path="url(#clip0_3_13467)">
<rect x="0.579102" y="0.583984" width="198.663" height="198.663" rx="99.3317" fill="#FFB800"/>
<path d="M100.017 46.8618C79.8451 46.8618 63.4848 66.1977 63.4848 90.0584C63.4848 99.2639 51.3371 107.812 55.4941 114.822H146.668C150.825 107.812 136.538 99.275 136.538 90.0584C136.538 66.1977 120.189 46.8618 100.017 46.8618Z" fill="black"/>
<path d="M149.879 120.004L55.9186 121.799C40.3942 121.799 30.7095 129.221 9.4678 156.035C9.4678 156.035 -32.6923 212.717 -37.518 217.943C-55.2156 242.071 -31.6224 263.804 -10.3251 262.132C-0.150016 261.341 53.5002 244.568 53.5002 244.568V257.161C53.5002 257.161 68.6123 244.991 79.3446 246.797C87.1904 248.112 94.557 255.724 94.557 255.724C102.447 245.081 127.189 234.393 124.837 255.724C124.837 255.724 131.602 248.569 154.493 248.569C177.395 248.569 179.813 255.724 179.813 255.724L180.014 242.294C180.014 242.294 189.955 247.031 193.187 247.722C219.834 257.161 233.831 229.668 224.492 212.126C221.639 203.366 187.258 142.438 187.526 143.051C178.298 123.593 158.583 119.581 149.879 120.004Z" fill="#FF85D2"/>
<path d="M119.877 171.147C119.676 168.651 119.911 163.769 122.474 164.226C125.672 164.795 129.807 171.147 133.362 168.773C135.134 167.347 133.206 161.373 134.577 159.668" stroke="white" stroke-width="1.06988" stroke-linecap="round"/>
<path d="M54.6935 151.365C54.4929 148.868 54.7269 143.987 57.2902 144.444C60.4887 145.012 64.6234 151.365 68.1785 148.991C69.9505 147.564 68.0225 141.591 69.3933 139.886" stroke="white" stroke-width="1.06988" stroke-linecap="round"/>
<path d="M8.1188 203.299C7.91819 200.803 8.15224 195.922 10.7155 196.378C13.914 196.947 18.0487 203.299 21.6038 200.925C23.3758 199.499 21.4478 193.525 22.8186 191.82" stroke="white" stroke-width="1.06988" stroke-linecap="round"/>
<path d="M175.601 182.637C175.401 180.14 175.635 175.259 178.198 175.716C181.396 176.284 185.531 182.637 189.086 180.263C190.858 178.836 188.93 172.863 190.301 171.158" stroke="white" stroke-width="1.06988" stroke-linecap="round"/>
<path d="M148.396 136.81C148.196 134.313 148.43 129.432 150.993 129.889C154.191 130.457 158.326 136.81 161.881 134.436C163.653 133.009 161.725 127.036 163.096 125.331" stroke="white" stroke-width="1.06988" stroke-linecap="round"/>
<path d="M77.841 83.7172L74.8989 78.5349C78.5209 77.3982 92.8974 65.4066 93.4881 59.8677C95.2713 65.6406 111.42 80.2178 117.159 82.2795L118.419 88.0524C123.668 83.7172 130.845 84.4862 132.583 89.6907C134.935 98.9296 127.435 101.649 119.288 101.303V109.751V124.306C119.288 124.306 116.301 128.039 112.936 129.722C101.624 135.997 90.9583 128.363 88.2056 124.306V110.865C84.8622 110.865 77.8522 111.289 74.91 105.405C71.8787 99.3754 74.988 88.8437 77.841 83.7172Z" fill="#6983FF"/>
<path d="M88.1371 116.705L98.5908 109.806C98.5908 109.806 95.3477 110.363 93.2748 110.564C91.2576 110.765 88.126 110.865 88.126 110.865V116.705H88.1371Z" fill="black"/>
<path d="M88.7961 78.8354C87.7708 84.118 91.8163 87.2162 91.8163 87.2162L86.9907 95.7418H92.6856" stroke="black" stroke-width="1.06988" stroke-linecap="round"/>
<path d="M98.8042 78.7687C100.476 78.4789 102.17 78.5123 103.34 78.8467" stroke="black" stroke-width="1.06988" stroke-linecap="round"/>
<path d="M80.8496 77.7657C82.5213 77.476 84.2153 77.5094 85.3855 77.8438" stroke="black" stroke-width="1.06988" stroke-linecap="round"/>
<path d="M96.1943 100.958C97.6989 100.166 99.0139 99.0965 99.7383 98.127" stroke="black" stroke-width="1.06988" stroke-linecap="round"/>
<path d="M122.096 93.4688L128.158 88.5317" stroke="black" stroke-width="1.06988" stroke-linecap="round"/>
<path d="M126.532 90.3149L129.753 93.4689" stroke="black" stroke-width="1.06988" stroke-linecap="round"/>
<path d="M101.311 86.5703C101.871 86.5703 102.325 86.1163 102.325 85.5562C102.325 84.9961 101.871 84.542 101.311 84.542C100.751 84.542 100.297 84.9961 100.297 85.5562C100.297 86.1163 100.751 86.5703 101.311 86.5703Z" fill="black"/>
<path d="M83.3564 85.5674C83.9165 85.5674 84.3706 85.1133 84.3706 84.5532C84.3706 83.9931 83.9165 83.5391 83.3564 83.5391C82.7963 83.5391 82.3423 83.9931 82.3423 84.5532C82.3423 85.1133 82.7963 85.5674 83.3564 85.5674Z" fill="black"/>
<path d="M136.978 54.5498C141.851 48.4148 141.419 39.9591 136.011 35.6637C130.604 31.3682 122.27 32.8595 117.396 38.9945C112.523 45.1296 112.955 53.5852 118.363 57.8807C123.77 62.1762 132.104 60.6849 136.978 54.5498Z" fill="black"/>
<path d="M78.0519 93.847C83.4314 93.847 87.7923 89.4861 87.7923 84.1066C87.7923 78.7271 83.4314 74.3662 78.0519 74.3662C72.6725 74.3662 68.3115 78.7271 68.3115 84.1066C68.3115 89.4861 72.6725 93.847 78.0519 93.847Z" stroke="black" stroke-width="1.06988"/>
<path d="M102.748 93.847C108.127 93.847 112.488 89.4861 112.488 84.1066C112.488 78.7271 108.127 74.3662 102.748 74.3662C97.3682 74.3662 93.0073 78.7271 93.0073 84.1066C93.0073 89.4861 97.3682 93.847 102.748 93.847Z" stroke="black" stroke-width="1.06988"/>
<path d="M86.812 88.832H94.1675" stroke="black" stroke-width="1.06988"/>
<path d="M112.556 85.4668H119.198" stroke="black" stroke-width="1.06988"/>
</g>
<defs>
<clipPath id="clip0_3_13467">
<rect x="0.579102" y="0.583984" width="198.663" height="198.663" rx="99.3317" fill="white"/>
</clipPath>
</defs>
</svg>
