<svg width="199" height="200" viewBox="0 0 199 200" fill="none" xmlns="http://www.w3.org/2000/svg">
<g clip-path="url(#clip0_3_13495)">
<path d="M0.000976562 100.312C0.000976562 45.4528 44.4733 0.980469 99.3327 0.980469V0.980469C154.192 0.980469 198.664 45.4528 198.664 100.312V100.312C198.664 155.172 154.192 199.644 99.3327 199.644V199.644C44.4733 199.644 0.000976562 155.172 0.000976562 100.312V100.312Z" fill="#A28676"/>
<path d="M106.436 39.1C105.526 42.3887 98.039 71.2877 114.273 86.8917C116.232 88.781 118.821 90.6702 122.11 92.2796C120.011 94.5187 117.212 98.1574 115.812 103.265C114.413 108.303 115.532 111.032 115.182 118.729C114.763 129.505 112.593 128.176 113.293 133.914C114.483 144.13 120.36 150.777 124.699 155.535C125.818 156.795 126.658 157.635 126.868 157.845C141.492 172.539 147.86 197.099 161.225 201.928C174.24 206.686 196.911 193.671 201.739 174.778C203.908 166.381 202.999 154.906 196.561 146.789C188.654 136.853 177.738 138.392 175.919 131.045C173.82 122.438 188.025 116.42 185.576 108.024C183.616 101.516 175.01 102.916 165.983 91.5799C162.764 87.5214 159.615 83.6029 159.685 78.285C159.755 72.0573 164.234 69.7482 164.374 62.611C164.514 57.9228 162.624 54.4241 161.225 51.6252C154.437 38.0504 139.113 34.1319 136.944 33.6421C121.34 29.9335 108.815 37.5606 106.436 39.1Z" fill="url(#paint0_linear_3_13495)"/>
<path d="M84.4646 104.315C97.1997 96.3383 75.2981 47.2871 75.2981 47.2871C49.1281 59.6724 43.3203 68.419 43.9501 74.4367C44.5099 80.3145 51.0174 81.644 52.067 89.271C53.5364 99.9769 41.9209 103.895 41.781 115.651C41.711 127.336 53.3265 132.584 50.9474 137.832C48.2884 143.71 33.9439 136.993 18.5498 142.171C-0.0630342 148.398 -16.4368 170.58 -14.6874 192.901C-14.5475 194.581 -12.5883 216.272 2.17609 223.69C15.6809 230.477 22.6782 216.622 41.9209 222.71C51.3672 225.649 61.7233 232.786 74.1085 228.728C74.1085 228.728 74.2485 228.658 74.3884 228.588C99.9287 220.121 110.495 189.823 111.194 168.761C112.104 140.212 95.0305 120.199 90.1324 114.881C88.523 111.383 86.5638 107.744 84.4646 104.315Z" fill="url(#paint1_linear_3_13495)"/>
<path d="M159.686 177.647C159.196 180.445 158.566 182.825 158.216 184.434C158.216 184.504 158.146 184.644 158.146 184.714C158.006 185.414 157.797 186.183 157.587 186.953C155.767 194.16 148.7 218.371 119.731 310.036C104.897 309.336 90.1324 308.636 75.2981 307.867C68.9306 307.447 62.633 307.027 56.2654 306.607C56.8952 293.942 54.656 286.035 52.3469 281.067C52.3469 281.067 48.7083 269.241 44.9997 256.576C44.9997 256.506 44.9997 256.506 44.9997 256.436C41.571 244.541 38.0024 231.946 37.3726 227.328C37.3027 226.978 37.3027 226.698 37.2327 226.488C37.0928 225.088 37.0928 223.759 37.0928 222.569C37.0928 222.429 37.0928 222.289 37.0928 222.15C37.0928 221.94 37.0928 221.73 37.0928 221.52C37.0928 221.24 37.0928 221.03 37.1627 220.75C37.1627 220.54 37.2327 220.26 37.2327 220.05C37.2327 219.84 37.3027 219.561 37.3027 219.351C37.3027 219.141 37.3726 218.861 37.3726 218.651C37.6525 216.972 38.0724 215.502 38.5622 214.103C38.6322 213.893 38.7022 213.613 38.8421 213.403C39.2619 212.283 39.7517 211.094 40.3115 209.974C40.3815 209.834 40.4515 209.694 40.4515 209.554C40.8713 208.505 41.3611 207.455 41.8509 206.266C41.9209 206.126 41.9909 205.986 41.9909 205.846C42.4107 204.796 42.7606 203.677 43.1804 202.487C43.2504 202.277 43.3204 202.067 43.3204 201.927C43.4603 201.577 43.5303 201.158 43.6003 200.808C43.6702 200.598 43.6703 200.388 43.7402 200.248C43.7402 200.178 43.8102 200.038 43.8102 199.968C43.8802 199.828 43.8802 199.618 43.9501 199.478C44.4399 197.309 44.9298 194.86 45.2096 191.991C47.0289 178.976 45.2796 173.028 45.6995 168.97C45.6995 168.83 45.6995 168.76 45.6995 168.62C45.6995 168.41 45.7694 168.2 45.7694 167.99C45.7694 167.85 45.8394 167.71 45.9094 167.5C45.9094 167.43 45.9794 167.291 45.9794 167.221C46.0494 167.081 46.0493 166.941 46.1193 166.801C46.1193 166.731 46.1893 166.591 46.2592 166.521C46.3292 166.311 46.4692 166.101 46.5392 165.961C46.819 165.471 47.0989 165.051 47.5188 164.562C49.548 162.322 53.2566 160.643 60.3239 157.844C61.2335 157.494 62.1432 157.074 63.1928 156.725C63.1928 156.725 63.9625 156.445 66.3416 155.535C66.9713 155.325 67.6011 155.045 68.2308 154.765C74.4585 152.176 80.5461 148.538 84.1847 145.599C84.3946 145.459 84.6046 145.249 84.8145 145.109C85.2343 144.759 85.5842 144.479 85.8641 144.199C87.9633 142.24 89.5726 139.791 90.6922 137.202C94.5407 128.455 93.841 117.4 93.2812 112.362L117.772 103.755C117.772 104.525 117.772 105.294 117.772 106.064C117.842 125.936 121.201 137.132 125.749 143.36C125.889 143.57 126.099 143.78 126.239 143.989C128.058 146.299 130.017 147.838 132.116 148.888C132.536 149.098 132.886 149.237 133.306 149.447C141.213 152.736 149.54 149.167 155.627 155.185C161.435 160.573 160.945 170.369 159.686 177.647Z" fill="#E2C8C0"/>
<path opacity="0.06" d="M108.536 98.6468C113.014 100.116 113.924 110.962 111.335 118.799C107.066 131.604 93.2818 136.292 90.9727 137.062C94.8212 128.315 94.1215 117.26 93.5617 112.222C98.3898 102.985 104.757 97.3873 108.536 98.6468Z" fill="#253041"/>
<path opacity="0.06" d="M82.9256 201.508C83.4154 197.519 84.0452 188.003 79.147 177.507C73.4792 165.401 63.9629 159.594 60.5342 157.704C61.024 157.494 61.4438 157.354 61.9336 157.145C62.4235 156.935 62.9133 156.795 63.4031 156.585C63.4031 156.585 64.1728 156.305 66.5519 155.395C67.1816 155.185 67.8114 154.905 68.4411 154.625C75.0186 158.054 78.4473 162.043 80.3366 165.051C85.6546 173.378 87.5438 181.145 87.5438 181.145C88.1036 183.524 88.5934 186.393 91.0425 188.283C93.6315 190.242 95.8706 189.192 96.8502 190.732C98.5296 193.531 93.9813 201.857 87.7537 202.487C85.7245 202.697 83.9752 201.997 82.9256 201.508Z" fill="#253041"/>
<path d="M161.296 154.976C160.806 162.533 160.247 170.09 159.757 177.577C159.757 177.577 159.757 177.577 159.757 177.647C159.617 178.277 159.477 178.837 159.407 179.466C159.057 181.146 158.637 182.825 158.287 184.434C158.287 184.504 158.217 184.644 158.217 184.714C157.937 185.974 157.728 186.883 157.658 186.953C157.518 187.583 157.658 189.263 158.987 193.391C157.518 201.578 155.838 209.905 154.019 218.441C152.27 226.908 150.31 235.515 148.211 244.261C146.672 250.699 145.062 257.276 143.313 263.854C142.124 268.332 140.934 272.811 139.744 277.149C138.765 280.648 137.785 284.076 136.806 287.505C134.566 295.202 132.327 302.689 130.018 310.036C116.443 309.756 105.388 309.337 97.6206 308.987C92.2327 308.777 86.4949 308.427 75.4391 307.867C72.2903 307.727 69.1415 307.517 66.0627 307.377C62.8439 307.237 59.6252 307.027 56.4764 306.887C56.4764 306.817 56.4764 306.678 56.4764 306.608C56.4764 306.328 56.4764 305.978 56.4764 305.628C56.4064 302.759 55.7066 298.281 54.5171 292.893C53.3276 287.505 51.7882 281.137 50.0388 274.56C48.4994 268.612 46.8201 262.454 45.2107 256.577C45.2107 256.507 45.2107 256.507 45.2107 256.437C41.5721 243.142 38.2134 231.456 37.5836 227.328C37.5136 226.978 37.5136 226.698 37.4437 226.488C37.3037 225.089 37.3037 223.759 37.3037 222.57C37.3037 222.43 37.3037 222.29 37.3037 222.15C37.3037 221.94 37.3037 221.73 37.3037 221.52C37.3037 221.24 37.3037 221.03 37.3737 220.75C37.3737 220.541 37.4437 220.261 37.4437 220.051C37.4437 219.841 37.5136 219.561 37.5136 219.351C37.5136 219.141 37.5836 218.861 37.5836 218.651C37.8635 216.972 38.2833 215.502 38.7731 214.103C38.8431 213.893 38.9131 213.613 39.053 213.403C39.4729 212.284 39.9627 211.094 40.5225 209.975C40.5924 209.835 40.6624 209.695 40.6624 209.555C41.0823 208.505 41.5721 207.456 42.0619 206.266C42.1319 206.126 42.2018 205.986 42.2018 205.846C42.6217 204.797 42.9715 203.677 43.3914 202.487C43.4614 202.278 43.5313 202.068 43.5313 201.928C43.6713 201.578 43.7412 201.158 43.8112 200.808C43.8812 200.598 43.8812 200.388 43.9512 200.248C43.9512 200.178 44.0211 200.038 44.0211 199.968C44.0911 199.828 44.0911 199.619 44.1611 199.479C44.6509 197.309 45.0007 195.14 45.4206 191.991C47.2399 178.976 45.4906 173.029 45.9104 168.97C45.9104 168.83 45.9104 168.76 45.9104 168.62C45.9104 168.411 45.9804 168.201 45.9804 167.991C45.9804 167.851 46.0503 167.711 46.1203 167.501C46.1203 167.431 46.1903 167.291 46.1903 167.221C46.2603 167.081 46.2603 166.941 46.3303 166.801C46.3303 166.731 46.4002 166.661 46.4002 166.521C46.4702 166.311 46.6102 166.101 46.6801 165.961C47.03 165.402 47.3798 164.982 47.6597 164.562C48.7793 163.023 52.068 158.544 57.8058 156.445C58.2957 156.235 58.8554 156.095 59.4152 155.955C60.8847 155.605 63.3337 155.116 66.4825 155.535C72.4303 160.014 80.2673 167.431 84.4657 178.627C87.2646 186.044 86.9847 191.012 89.9236 191.922C94.8916 193.391 100.769 181.146 114.974 166.101C122.181 158.474 128.829 152.946 133.377 149.448C135.056 148.888 138.275 148.048 142.403 148.048C144.503 148.048 146.882 148.258 149.401 148.958C151.57 149.518 153.599 150.427 153.809 150.497C153.879 150.567 153.949 150.567 154.089 150.637C154.229 150.707 154.299 150.777 154.439 150.777C154.509 150.777 154.579 150.847 154.649 150.847C157.658 152.037 159.827 153.716 161.296 154.976Z" fill="#8376A2"/>
<path d="M199.223 263.924C199.083 273.16 196.634 279.948 191.037 284.216C177.322 294.572 153.041 284.496 139.676 277.149C136.947 275.68 134.708 274.28 133.099 273.23C129.74 271.061 127.291 269.032 125.542 266.933C123.582 264.624 122.533 262.385 122.113 259.936C121.763 257.836 121.973 255.597 122.533 253.498C123.862 248.25 127.641 243.562 132.329 241.952C135.758 240.763 139.116 241.673 145.624 243.492C146.534 243.772 147.373 243.982 148.143 244.262C157.449 247.27 160.808 250.489 162.837 248.95C165.426 246.991 162.767 239.783 159.689 230.967C157.799 225.509 155.77 221.45 153.951 218.441C150.942 213.473 148.283 211.444 147.163 210.604C144.224 208.505 143.105 208.575 141.705 207.456C137.577 204.167 136.457 194.581 146.044 169.25C148.143 163.722 150.732 157.425 153.881 150.288C153.951 150.358 154.021 150.358 154.161 150.428C154.301 150.498 154.371 150.567 154.511 150.567C154.58 150.567 154.65 150.637 154.72 150.637C155.98 151.267 157.799 152.177 159.689 153.436C170.324 160.434 175.363 171.28 178.091 178.977C178.511 180.236 178.931 181.356 179.211 182.405C190.547 217.672 199.433 245.521 199.223 263.924Z" fill="#8376A2"/>
<path opacity="0.21" d="M178.16 178.976C170.323 180.726 164.165 180.726 159.337 179.466C152.76 177.857 148.561 173.938 146.042 169.25C142.474 162.603 142.124 154.206 142.474 147.838C144.573 147.838 146.952 148.048 149.471 148.748C151.64 149.308 153.669 150.217 153.879 150.287C153.949 150.357 154.019 150.357 154.159 150.427C154.299 150.497 154.369 150.567 154.509 150.567C154.579 150.567 154.649 150.637 154.719 150.637C155.978 151.267 157.798 152.177 159.687 153.436C170.393 160.434 175.431 171.279 178.16 178.976Z" fill="url(#paint2_linear_3_13495)"/>
<path d="M126.449 143.78C116.863 152.387 108.326 156.725 100.979 156.725C99.4393 156.725 97.9698 156.515 96.5004 156.165C90.2728 154.486 86.4942 149.378 84.395 145.459C84.6049 145.32 84.8149 145.11 85.0248 144.97C86.984 148.748 90.6926 153.786 96.7103 155.396C104.687 157.565 114.484 153.436 125.959 143.15C126.099 143.36 126.309 143.57 126.449 143.78Z" fill="#31445A"/>
<path d="M99.2295 159.734C100.891 159.734 102.238 158.386 102.238 156.725C102.238 155.063 100.891 153.716 99.2295 153.716C97.5678 153.716 96.2207 155.063 96.2207 156.725C96.2207 158.386 97.5678 159.734 99.2295 159.734Z" fill="#DF8744"/>
<path d="M126.799 90.0406C126.029 91.4401 124.979 93.3294 123.65 95.4985C116.023 107.744 96.92 131.325 81.3859 126.847C74.4586 124.817 70.4001 117.82 68.8607 115.091C67.3913 112.572 65.2221 107.884 64.9422 96.2682C64.7323 88.2913 64.5224 78.1452 68.8607 65.7599C69.2106 64.7803 70.82 60.302 73.339 54.9141C75.5082 50.4358 78.3771 45.3278 81.8058 41.1993C85.7243 36.5111 90.3425 33.0824 95.4505 33.2224C101.678 33.4323 106.156 38.8203 109.095 42.3889C109.165 42.5288 109.585 43.0186 110.145 43.7184C111.824 46.0975 115.113 51.2055 116.163 57.0133C116.652 59.8122 116.652 62.7511 115.743 65.69C114.903 68.3489 113.224 71.2878 112.594 76.6758C112.314 79.2648 112.314 81.4339 113.364 83.743C113.504 84.0929 114.483 86.0522 116.512 87.6616C120.711 90.8803 125.749 90.1806 126.799 90.0406Z" fill="#E2C8C0"/>
<path opacity="0.06" d="M116.303 57.0836C111.195 55.6142 100.909 52.9552 94.4711 53.515C88.1735 54.0748 78.5872 54.6346 73.4092 54.9145C75.5783 50.4362 78.4473 45.3281 81.876 41.1997L110.285 43.7887C111.964 46.1678 115.253 51.2759 116.303 57.0836Z" fill="#253041"/>
<path d="M96.7818 87.3809C98.057 87.3809 99.0909 86.3471 99.0909 85.0718C99.0909 83.7965 98.057 82.7627 96.7818 82.7627C95.5065 82.7627 94.4727 83.7965 94.4727 85.0718C94.4727 86.3471 95.5065 87.3809 96.7818 87.3809Z" fill="#000105"/>
<path d="M74.5303 85.4923C75.8056 85.4923 76.8394 84.4584 76.8394 83.1831C76.8394 81.9078 75.8056 80.874 74.5303 80.874C73.255 80.874 72.2212 81.9078 72.2212 83.1831C72.2212 84.4584 73.255 85.4923 74.5303 85.4923Z" fill="#000105"/>
<path d="M83.9753 113.481C80.8265 113.481 78.3774 112.222 77.3978 111.662C77.1879 111.522 77.1179 111.242 77.2579 111.032C77.3978 110.822 77.6777 110.752 77.8876 110.892C79.0072 111.592 82.0161 113.061 85.8646 112.432C90.2729 111.732 92.7919 108.583 93.4217 107.673C93.5616 107.463 93.8415 107.463 94.0514 107.603C94.2614 107.743 94.2614 108.023 94.1214 108.233C93.4217 109.213 90.6927 112.571 85.9346 113.341C85.2348 113.411 84.6051 113.481 83.9753 113.481Z" fill="#000105"/>
<path d="M84.0438 78.355C83.0641 79.7544 81.7346 81.7837 80.3352 84.3027C76.7666 90.6703 74.9472 93.959 76.2068 96.0582C77.8161 98.8571 83.9038 98.1574 85.3033 97.9475C84.8135 91.44 84.4636 84.8625 84.0438 78.355Z" fill="#C0846F"/>
<path d="M131.698 85.0722C126.94 63.5904 118.683 55.5435 111.545 52.3947C95.8714 45.3974 79.0079 58.9022 68.7918 49.5258C63.9636 45.0475 62.5642 37.2805 64.5234 31.8926C68.302 21.3266 85.1655 18.1778 96.3612 19.6473C116.094 22.2363 132.327 41.339 134.916 61.2813C136.246 71.4974 133.657 80.0341 131.698 85.0722Z" fill="#2A303D"/>
<path d="M103.288 74.6462L89.7127 71.0776C89.4328 71.0076 89.2229 70.7277 89.2929 70.3778L89.6427 69.1883C89.7127 68.9084 89.9926 68.6985 90.3425 68.7684L103.917 72.3371C104.197 72.407 104.407 72.6869 104.337 73.0368L103.987 74.2264C103.847 74.5762 103.567 74.7162 103.288 74.6462Z" fill="#2A303D"/>
<path d="M75.5087 71.5677L62.7737 74.0167C62.4938 74.0867 62.2139 73.8768 62.1439 73.5969L61.934 72.4073C61.864 72.1274 62.0739 71.8475 62.3538 71.7776L75.0889 69.3285C75.3688 69.2585 75.6487 69.4685 75.7187 69.7483L75.9286 70.9379C75.9986 71.2178 75.7886 71.4977 75.5087 71.5677Z" fill="#2A303D"/>
<path d="M133.098 95.4286C132.958 100.816 128.41 105.085 123.022 104.875C117.634 104.735 113.365 100.187 113.575 94.7988C113.575 94.5889 113.575 94.4489 113.575 94.239C113.995 89.061 118.403 85.1425 123.651 85.2824C126.31 85.3524 128.689 86.542 130.439 88.2913C132.118 90.1806 133.168 92.6996 133.098 95.4286Z" fill="#E2C8C0"/>
<path opacity="0.28" d="M130.37 88.3611L113.577 94.3088C113.996 89.1308 118.405 85.2123 123.653 85.3523C126.242 85.4222 128.621 86.5418 130.37 88.3611Z" fill="url(#paint3_linear_3_13495)"/>
<path d="M2.31562 143.15C2.31562 143.64 2.10571 144.13 1.75584 144.48C1.40597 144.829 0.916144 145.039 0.426332 145.039H-35.33C-36.3796 145.039 -37.2192 144.2 -37.2192 143.15C-37.2192 142.66 -37.0093 142.17 -36.6595 141.821C-36.3096 141.471 -35.8198 141.261 -35.33 141.261H0.426332C1.47593 141.331 2.31562 142.17 2.31562 143.15Z" fill="#BACFDA"/>
<path opacity="0.09" d="M2.31493 143.15C2.31493 143.64 2.10502 144.129 1.75515 144.479C1.40528 144.829 0.915455 145.039 0.425643 145.039H-1.46362C-3.21295 161.693 -4.96228 178.276 -6.64163 194.93H-19.3068C-27.7036 185.833 -28.3333 182.195 -27.3537 180.586C-25.8143 178.066 -20.1465 179.886 -12.7993 175.967C-11.8896 175.477 -9.02073 173.798 -7.48132 170.579C-7.2714 170.16 -6.57166 168.55 -6.9915 168.27C-7.69123 167.71 -10.6301 172.189 -15.4583 174.638C-21.6859 177.787 -28.6832 176.317 -28.7532 175.617C-28.8231 175.058 -23.6451 175.058 -16.5079 171.909C-10.4902 169.25 -5.94192 165.541 -6.22181 165.051C-6.5017 164.562 -10.4202 166.871 -17.8373 169.04C-23.1553 170.579 -30.1526 172.049 -30.5025 171.139C-30.7124 170.439 -27.0738 168.62 -26.584 168.34C-21.7558 165.891 -14.5486 164.072 -12.0996 163.512C-11.1899 163.302 -9.3706 162.812 -8.95076 161.553C-8.74084 160.923 -8.88079 160.083 -9.3706 159.594C-10.6301 158.334 -13.639 160.013 -18.3971 161.623C-23.2953 163.302 -28.9631 164.492 -29.243 163.862C-29.4529 163.302 -25.9542 161.343 -23.925 160.223C-16.018 155.885 -13.2191 156.095 -12.5894 153.716C-11.9596 151.267 -14.1988 147.558 -13.9189 145.039C-13.9189 144.969 -13.8489 144.269 -13.7089 143.29C-13.639 142.59 -13.569 141.96 -13.499 141.331H0.425643C1.47524 141.331 2.31493 142.17 2.31493 143.15Z" fill="#2A303D"/>
<path d="M64.9422 208.995C63.5428 216.062 61.2336 225.578 57.1052 236.424C52.9768 247.27 31.9849 302.339 3.08592 302.199C-9.71917 302.129 -19.1655 291.213 -32.7403 274.63C-33.3001 273.93 -33.9299 273.16 -34.5596 272.46C-36.4489 270.151 -52.2628 250.279 -58.0706 220.82C-58.5604 218.511 -58.8403 216.342 -59.1202 214.453C-60.7296 201.858 -57.9307 197.729 -55.7615 195.77C-52.1229 192.551 -46.2452 191.781 -41.6969 193.391C-33.3701 196.33 -31.5508 206.476 -26.7926 217.671C-22.1744 228.517 -13.1478 244.261 -4.54113 251.468C-1.39233 254.127 1.75643 255.597 4.48539 255.247C14.9814 253.988 22.6084 226.768 31.0752 196.54C32.0548 193.041 34.9238 182.335 42.8307 170.719C44.3701 168.48 45.7696 166.591 46.8892 165.262C47.0991 164.982 47.379 164.702 47.5889 164.422C53.4666 179.256 59.2044 194.16 64.9422 208.995Z" fill="#8376A2"/>
<path opacity="0.4" d="M47.0992 165.191C47.0293 182.755 45.14 250.559 19.8797 265.463C-0.0627069 277.219 -3.91122 262.104 -4.33105 251.398C-1.18226 254.057 1.96655 255.527 4.6955 255.177C15.1915 253.917 22.8186 226.698 31.2853 196.469C32.2649 192.971 35.1338 182.265 43.0408 170.649C44.5802 168.41 45.9797 166.521 47.0992 165.191Z" fill="url(#paint4_linear_3_13495)"/>
<path d="M63.0552 177.367H62.9852L52.6992 176.458C52.0694 176.388 51.6495 175.898 51.7195 175.268C51.7895 174.638 52.2793 174.218 52.9091 174.288L63.1951 175.198C63.8249 175.268 64.2447 175.758 64.1748 176.388C64.1048 176.947 63.615 177.367 63.0552 177.367Z" fill="#BACFDA"/>
<path d="M172.141 170.44C171.931 170.44 171.721 170.37 171.511 170.23L163.184 164.142C162.694 163.793 162.554 163.093 162.974 162.603C163.324 162.113 164.024 161.973 164.514 162.393L172.84 168.481C173.33 168.831 173.47 169.53 173.05 170.02C172.77 170.3 172.421 170.44 172.141 170.44Z" fill="#BACFDA"/>
<path d="M85.2344 199.338C84.8146 199.338 84.4647 199.128 84.2548 198.708C83.9749 198.149 84.1848 197.519 84.7446 197.239L93.9111 192.481C94.4709 192.201 95.1006 192.411 95.3805 192.971C95.6604 193.53 95.4505 194.16 94.8907 194.44L85.7242 199.198C85.5843 199.338 85.4443 199.338 85.2344 199.338Z" fill="#BACFDA"/>
<path d="M182.146 191.502L176.479 194.44C176.339 194.51 176.129 194.58 175.989 194.58C175.569 194.58 175.219 194.37 175.009 194.021C174.729 193.461 174.939 192.831 175.499 192.551L181.517 189.402C181.727 190.032 181.937 190.802 182.146 191.502Z" fill="#BACFDA"/>
<path d="M118.123 165.051C117.703 165.051 117.353 164.842 117.143 164.492C116.863 163.932 117.073 163.302 117.633 163.022L126.799 158.264C127.359 157.984 127.989 158.194 128.269 158.754C128.549 159.314 128.339 159.943 127.779 160.223L118.612 164.981C118.472 164.981 118.263 165.051 118.123 165.051Z" fill="#BACFDA"/>
<path d="M152.27 177.787H152.2L141.914 177.017C141.284 176.947 140.864 176.457 140.864 175.827C140.934 175.198 141.424 174.778 142.054 174.778L152.34 175.548C152.97 175.618 153.389 176.107 153.389 176.737C153.32 177.367 152.83 177.787 152.27 177.787Z" fill="#BACFDA"/>
<path d="M148.21 148.398C148.07 148.888 147.651 149.238 147.161 149.238H147.091L136.805 148.468C136.735 148.468 136.665 148.468 136.525 148.398C139.324 147.838 143.452 147.419 148.21 148.398Z" fill="#BACFDA"/>
<path d="M119.872 186.533C119.662 186.533 119.522 186.463 119.312 186.393L110.356 181.215C109.796 180.936 109.656 180.236 109.936 179.676C110.216 179.116 110.915 178.976 111.475 179.256L120.432 184.434C120.992 184.714 121.132 185.414 120.852 185.974C120.642 186.323 120.222 186.533 119.872 186.533Z" fill="#BACFDA"/>
</g>
<defs>
<linearGradient id="paint0_linear_3_13495" x1="103.955" y1="117.792" x2="202.802" y2="117.792" gradientUnits="userSpaceOnUse">
<stop offset="0.3245" stop-color="#2A303D"/>
<stop offset="1" stop-color="#31445A"/>
</linearGradient>
<linearGradient id="paint1_linear_3_13495" x1="-14.9158" y1="138.573" x2="111.218" y2="138.573" gradientUnits="userSpaceOnUse">
<stop offset="0.3245" stop-color="#2A303D"/>
<stop offset="1" stop-color="#31445A"/>
</linearGradient>
<linearGradient id="paint2_linear_3_13495" x1="142.374" y1="164.082" x2="178.131" y2="164.082" gradientUnits="userSpaceOnUse">
<stop stop-color="white"/>
<stop offset="1" stop-color="#9375A1"/>
</linearGradient>
<linearGradient id="paint3_linear_3_13495" x1="113.559" y1="89.7925" x2="130.368" y2="89.7925" gradientUnits="userSpaceOnUse">
<stop stop-color="#E2C8C0"/>
<stop offset="1" stop-color="#DD8093" stop-opacity="0.4"/>
</linearGradient>
<linearGradient id="paint4_linear_3_13495" x1="-4.36611" y1="217.457" x2="47.0869" y2="217.457" gradientUnits="userSpaceOnUse">
<stop stop-color="#302E40"/>
<stop offset="1" stop-color="#9375A1"/>
</linearGradient>
<clipPath id="clip0_3_13495">
<path d="M0.000976562 100.312C0.000976562 45.4528 44.4733 0.980469 99.3327 0.980469V0.980469C154.192 0.980469 198.664 45.4528 198.664 100.312V100.312C198.664 155.172 154.192 199.644 99.3327 199.644V199.644C44.4733 199.644 0.000976562 155.172 0.000976562 100.312V100.312Z" fill="white"/>
</clipPath>
</defs>
</svg>
