<svg width="199" height="200" viewBox="0 0 199 200" fill="none" xmlns="http://www.w3.org/2000/svg">
<g clip-path="url(#clip0_3_13497)">
<path d="M0.290039 100.312C0.290039 45.4528 44.7623 0.980469 99.6217 0.980469V0.980469C154.481 0.980469 198.953 45.4528 198.953 100.312V100.312C198.953 155.172 154.481 199.644 99.6217 199.644V199.644C44.7623 199.644 0.290039 155.172 0.290039 100.312V100.312Z" fill="#7F87CD"/>
<path d="M117.06 201.037C109.972 211.875 100.163 219.878 86.3987 219.793C45.7262 219.476 75.3056 141.839 76.598 138.5C77.0747 138.473 77.6009 138.525 77.8712 138.518L78.0631 138.562L128.58 145.004L131.516 145.399C132.426 145.538 133.286 145.598 134.196 145.736C134.211 145.672 131.437 179.07 117.06 201.037Z" fill="#CD907F"/>
<path opacity="0.08" d="M117.056 201.035L80.9154 217.276C76.2668 204.525 71.6181 191.773 66.9695 179.021C70.5742 179.432 76.1639 179.687 82.7278 178.01C91.285 175.843 96.8198 171.579 99.9297 169.122C102.055 167.45 109.317 161.493 115.489 150.246C116.849 147.796 118.154 144.997 119.374 141.978C125.181 127.286 125.071 114.081 125.138 109.321C125.157 108.048 125.238 107.394 125.38 107.359C125.522 107.324 125.727 107.908 125.935 109.367C126.213 111.111 126.536 114.143 126.888 119.132C126.96 120.896 127.047 122.597 127.183 124.376C127.563 131.321 128.036 138.153 128.524 144.921L128.51 144.985C128.516 145.255 128.537 145.462 128.543 145.732C128.561 146.543 128.643 147.369 128.647 148.244C128.862 147.889 130.4 145.547 132.847 145.427C133.181 145.436 133.643 145.473 134.155 145.588C134.205 145.667 131.432 179.067 117.056 201.035Z" fill="url(#paint0_linear_3_13497)"/>
<path d="M232.273 286.105C227.955 287.953 223.638 289.801 219.291 291.778C216.597 292.984 213.904 294.191 211.288 295.348C205.131 298.192 199.053 300.987 193.088 303.875C186.384 294.561 179.324 283.553 172.654 270.818C167.863 261.667 163.925 252.911 160.668 244.712C154.834 272.304 149.015 299.833 143.182 327.425C143.153 327.553 143.124 327.681 143.109 327.745L42.4715 299.961C38.0185 295.862 33.4871 291.813 29.0341 287.714L32.5667 258.997L35.9381 231.587C32.3683 239.051 28.72 246.563 24.9789 254.189C23.4882 257.214 21.9976 260.239 20.5069 263.264C20.2922 263.619 20.127 264.052 19.9123 264.407C15.3 272.912 10.7023 281.353 6.02603 289.843C5.70397 290.375 5.44585 290.922 5.12379 291.455C2.70933 290.237 0.117413 288.911 -2.46006 287.522C-4.90958 286.162 -7.47259 284.709 -10.0707 283.113C-12.1363 281.84 -14.2515 280.488 -16.3522 279.072C-21.4905 275.624 -26.1521 272.151 -30.3018 268.793C-28.4124 263.706 -25.1643 254.692 -21.2387 243.275L-21.2243 243.211C-20.6481 241.257 -19.855 238.343 -18.6904 234.976C-16.1297 227.217 -12.4254 217.969 -5.17665 204.345C5.06574 185.212 13.1155 170.425 28.0375 157.66C29.1934 156.711 30.5351 155.536 32.4754 154.091C44.309 145.47 56.8518 141.447 67.4232 139.6C69.8792 139.146 73.8501 138.833 75.4022 138.512C75.4661 138.526 76.0853 138.464 76.754 138.481C77.2307 138.454 77.757 138.506 78.0274 138.5L78.2193 138.543C78.5515 139.156 78.8836 139.769 79.1663 140.304C82.6776 147.081 87.7359 158.914 88.868 174.432C89.8231 187.758 87.6354 198.626 85.5971 205.561C89.7064 204.338 112.726 197.102 123.53 173.995C128.872 162.562 129.138 151.864 128.712 145.717C128.706 145.447 128.685 145.24 128.679 144.97C129.732 145.074 130.72 145.162 131.694 145.315C132.604 145.454 133.465 145.514 134.375 145.652C141.543 146.667 147.847 148.226 153.283 150.059C156.026 151.015 158.626 152.006 160.941 153.067C168.946 156.624 174.673 160.742 178.744 164.15C184.34 168.843 196.379 180.438 221.704 253.731C226.209 267.12 229.854 278.365 232.273 286.105Z" fill="#BDD3DE"/>
<path opacity="0.5" d="M13.4543 173.278L13.1737 174.223L4.95719 201.688L4.60432 202.953L-2.93534 228.016L-3.28817 229.281L-10.7845 254.151L-11.1374 255.417L-17.9363 278.091C-18.3551 277.862 -18.6955 277.583 -19.036 277.304L-12.3237 255.014L-11.9709 253.749L-4.47458 228.878L-4.12172 227.613L3.41794 202.551L3.77077 201.285L11.1743 176.528C11.7603 175.719 12.2823 174.896 12.8538 174.151C13.0684 173.796 13.2686 173.505 13.4543 173.278Z" fill="white"/>
<path opacity="0.5" d="M48.8322 144.949L46.9978 150.991L46.645 152.256L38.1913 180.474L37.8384 181.74L29.6076 209.269L29.2547 210.534L21.7151 235.596L21.3622 236.862L13.9588 261.619L13.6059 262.884L5.54837 289.645L5.19554 290.91L4.98715 291.536C4.61782 291.385 4.19897 291.156 3.78011 290.927L3.86678 290.543L4.21961 289.278L12.2772 262.516L12.63 261.251L20.0334 236.494L20.3863 235.229L27.9259 210.167L28.2788 208.901L36.5096 181.372L36.8625 180.107L45.3162 151.889L45.669 150.623L47.1299 145.64C47.7922 145.387 48.3122 145.168 48.8322 144.949Z" fill="white"/>
<path opacity="0.5" d="M81.0938 144.429L76.4532 159.924L76.1004 161.189L67.6467 189.408L67.2938 190.673L59.0485 218.266L58.6957 219.531L51.1561 244.594L50.8032 245.859L43.4431 270.424L43.0903 271.689L36.3059 294.3C35.9799 293.957 35.5754 293.664 35.2494 293.321L41.8255 271.336L42.1783 270.071L49.5384 245.506L49.8912 244.241L57.4309 219.178L57.7837 217.913L66.029 190.32L66.3818 189.055L74.8356 160.836L75.1884 159.571L80.2747 142.697C80.5573 143.231 80.8256 143.83 81.0938 144.429Z" fill="white"/>
<path opacity="0.5" d="M96.1535 201.357L88.3621 227.236L88.0093 228.502L80.4696 253.564L80.1168 254.829L72.8 279.202L72.4471 280.468L64.3318 307.485L63.979 308.75L61.4678 317.194C61.1418 316.852 60.7374 316.559 60.4114 316.216L62.7925 308.348L63.1454 307.082L71.2607 280.065L71.6136 278.8L78.9304 254.427L79.2832 253.162L86.8229 228.099L87.1757 226.834L94.5792 202.077C95.0847 201.922 95.6191 201.639 96.1535 201.357Z" fill="white"/>
<path opacity="0.5" d="M144.343 147.542L135.157 177.814L134.804 179.08L126.237 207.205L125.82 208.456L117.403 236.212L116.986 237.463L109.383 262.511L109.03 263.776L101.707 287.879L101.354 289.144L93.0819 316.26L92.6651 317.511L86.9825 336.133C86.5347 336.032 86.1654 335.882 85.7177 335.78L91.4003 317.158L91.7531 315.893L100.025 288.777L100.378 287.511L107.716 263.345L108.068 262.079L115.672 237.031L116.089 235.781L124.505 208.025L124.858 206.759L133.426 178.634L133.778 177.368L142.95 147.16C143.511 147.354 143.959 147.455 144.343 147.542Z" fill="white"/>
<path opacity="0.5" d="M87.2064 163.225C87.2972 163.716 87.388 164.207 87.4788 164.698L76.021 161.238L74.7557 160.885L46.5664 152.303L45.3011 151.95L38.826 149.951C39.3606 149.668 39.8313 149.371 40.3803 149.024L45.6685 150.621L46.9338 150.974L75.1232 159.556L76.3885 159.909L87.2064 163.225Z" fill="white"/>
<path opacity="0.5" d="M200.559 199.097L190.046 195.917L188.795 195.5L163.378 187.746L162.113 187.393L134.741 179.063L133.475 178.71L122.771 175.487C123 175.068 123.151 174.699 123.38 174.28L133.892 177.46L135.158 177.813L162.53 186.143L163.795 186.496L189.212 194.25L190.478 194.603L199.853 197.459C200.072 197.979 200.354 198.513 200.559 199.097Z" fill="white"/>
<path opacity="0.5" d="M87.8542 195.516C87.7531 195.963 87.7159 196.425 87.6292 196.809L67.2441 190.594L65.9788 190.241L37.7894 181.66L36.5241 181.307L13.111 174.206L12.7911 174.134C12.9913 173.843 13.1915 173.552 13.3918 173.261L13.464 172.942L13.592 172.971L36.8771 180.042L38.1424 180.395L66.3318 188.977L67.5971 189.329L87.8542 195.516Z" fill="white"/>
<path opacity="0.5" d="M215.244 235.632L206.43 232.97L205.165 232.617L180.565 225.114L179.314 224.698L154.458 217.137L153.193 216.784L125.82 208.454L124.555 208.102L98.4339 200.188C98.9686 199.906 99.4392 199.609 99.9882 199.262L124.908 206.837L126.173 207.19L153.546 215.52L154.811 215.872L179.667 223.433L180.932 223.786L205.468 231.274L206.733 231.627L214.602 234.008C214.885 234.542 215.039 235.048 215.244 235.632Z" fill="white"/>
<path opacity="0.5" d="M159.794 249.209C159.693 249.657 159.606 250.041 159.505 250.489L145.61 246.209L144.359 245.792L117.001 237.398L115.75 236.982L88.0234 228.437L86.7581 228.084L58.5831 219.439L57.3322 219.022L29.2212 210.39L27.9704 209.974L4.57168 202.809L3.32084 202.393L-3.09027 200.408C-2.86115 199.989 -2.64645 199.634 -2.41732 199.215L3.75228 201.078L5.00312 201.495L28.4018 208.659L29.6526 209.076L57.7636 217.707L59.0145 218.124L87.1895 226.77L88.4548 227.123L116.246 235.682L117.497 236.099L144.854 244.493L146.105 244.909L159.794 249.209Z" fill="white"/>
<path opacity="0.5" d="M172.111 159.189L163.795 186.497L163.379 187.748L154.811 215.873L154.459 217.139L146.028 244.959L145.675 246.224L138.071 271.272L137.654 272.523L130.375 296.433L130.022 297.699L121.721 324.943L121.368 326.208L115.865 344.333C115.417 344.232 115.048 344.081 114.6 343.98L120.103 325.855L120.456 324.59L128.757 297.346L129.11 296.08L136.404 272.106L136.821 270.855L144.424 245.807L144.841 244.556L153.272 216.736L153.625 215.471L162.192 187.345L162.545 186.08L170.947 158.388C171.352 158.681 171.692 158.96 172.111 159.189Z" fill="white"/>
<path opacity="0.5" d="M193.626 184.824L190.463 194.668L190.046 195.918L180.981 223.864L180.564 225.115L171.543 252.869L171.126 254.12L168.452 262.393C168.184 261.794 167.901 261.259 167.633 260.661L169.876 253.703L170.293 252.452L179.314 224.698L179.731 223.447L188.796 195.501L189.213 194.251L192.778 183.22C193.061 183.755 193.358 184.225 193.626 184.824Z" fill="white"/>
<path opacity="0.17" d="M211.302 295.353C205.145 298.198 199.066 300.992 193.101 303.88C186.397 294.567 179.336 283.559 172.666 270.825C167.875 261.675 163.937 252.919 160.68 244.721C154.846 272.311 149.027 299.838 143.193 327.429C143.164 327.557 143.136 327.685 143.121 327.749L42.4792 299.968C38.026 295.869 33.4944 291.82 29.0412 287.721L32.5736 259.005L35.9448 231.598C32.375 239.061 28.7267 246.573 24.9854 254.198C23.4947 257.223 22.0041 260.248 20.5134 263.273C20.2987 263.627 20.1335 264.061 19.9188 264.416C15.3064 272.92 10.7085 281.361 6.03223 289.851L-2.4542 287.53L-10.4288 285.325C-10.4288 285.325 -10.3192 284.543 -10.0651 283.121C-7.57344 268.826 7.90797 189.631 43.4264 186.899C82.5032 183.896 68.38 239.531 148.542 221.07C196.063 210.159 208.818 256.068 211.302 295.353Z" fill="url(#paint1_linear_3_13497)"/>
<path opacity="0.32" d="M143.782 319.439C124.033 312.823 99.7541 302.157 87.1704 286.737C78.857 276.519 84.8629 253.801 96.112 228.705C110.256 229.481 124.4 230.257 138.558 230.97C143.384 203.951 148.275 176.947 153.101 149.928C155.843 150.884 158.443 151.875 160.758 152.936C157.85 178.304 150.366 244.466 146.267 288.798C145.529 298.315 144.647 308.471 143.782 319.439Z" fill="url(#paint2_linear_3_13497)"/>
<path d="M128.595 145.745C125.495 147.262 121.049 149.08 115.476 150.239C112.863 150.79 110.024 151.156 107.036 151.287C96.3719 151.765 87.7048 149.064 82.0317 146.503C80.7558 143.525 79.4571 140.946 78.3129 138.872C78.2634 138.793 78.2284 138.651 78.1149 138.558C78.7975 134.947 79.5441 131.352 80.3052 127.692C81.7115 120.883 83.1528 114.218 84.6931 107.709C84.8523 107.005 84.9971 106.366 85.1418 105.726C85.3337 105.769 85.4761 105.734 85.6679 105.778C96.4116 106.73 107.205 107.76 117.948 108.712C120.387 108.928 122.762 109.129 125.137 109.33C125.407 109.324 125.727 109.397 125.998 109.391C126.189 109.434 126.332 109.399 126.524 109.442C126.675 112.636 126.812 115.894 126.948 119.152C127.02 120.916 127.106 122.617 127.241 124.395C127.619 131.338 128.091 138.168 128.577 144.934L128.562 144.998C128.568 145.268 128.589 145.474 128.595 145.745Z" fill="#CD907F"/>
<path opacity="0.15" d="M96.0832 138.46C92.7447 139.251 88.7544 139.356 87.467 139.401C83.7471 139.501 80.5906 139.19 78.3233 138.811C78.2738 138.733 78.2388 138.59 78.1254 138.497C78.8079 134.886 79.5544 131.29 80.3153 127.63C81.7215 120.821 83.1626 114.154 84.7026 107.645L85.6774 105.714C89.8342 106.654 95.3714 107.437 101.823 107.149C106.432 106.982 110.474 106.35 113.813 105.559C114.483 107.055 118.38 116.275 113.863 125.54C109.06 135.48 98.2044 137.999 96.0832 138.46Z" fill="#19233D"/>
<path d="M130.117 99.0819C129.572 100.304 128.978 101.447 128.319 102.576C125.764 107.041 122.362 111.383 118.422 115.132C107.137 126.097 91.5556 132.864 80.2361 127.615C62.9659 119.543 65.1366 87.6217 65.8567 77.2944C65.9684 75.9075 66.0162 74.5062 66.1423 73.0553C66.2023 72.1947 66.2768 71.2701 66.4007 70.424C66.742 66.5337 67.2896 62.6229 68.3344 58.8917C69.9782 52.8078 72.8723 47.141 78.3024 42.451C88.9416 33.1554 105.702 30.6902 117.566 36.8014C125.454 40.8707 130.719 48.5161 133.375 57.5892C133.327 61.075 133.126 65.5349 132.685 71.3528C132.151 79.3686 131.328 88.6639 130.117 99.0819Z" fill="#CD907F"/>
<path d="M91.0063 107.061C84.6493 98.2964 78.8371 100.21 76.4201 101.681C73.9684 100.925 67.2692 100.218 63.7648 111.26C60.2314 122.429 72.6421 107.685 76.2794 103.196C80.8008 106.1 98.036 116.718 91.0063 107.061Z" fill="url(#paint3_linear_3_13497)"/>
<path d="M72.7712 113.362C72.0034 113.189 71.3286 112.902 70.7817 112.644C70.6042 112.537 70.5196 112.316 70.563 112.124C70.6703 111.947 70.8912 111.862 71.0831 111.905C72.1129 112.407 73.8114 112.925 75.8259 112.641C78.7299 112.288 80.501 110.403 81.1369 109.672C81.3082 109.509 81.5146 109.489 81.6921 109.596C81.8551 109.767 81.8757 109.974 81.7683 110.151C81.0396 110.995 79.1115 112.98 75.9227 113.402C74.7834 113.683 73.7308 113.579 72.7712 113.362Z" fill="black"/>
<path d="M85.1834 85.77C86.3136 86.0257 87.4373 85.3165 87.6931 84.186C87.949 83.0555 87.2402 81.9318 86.1099 81.6762C84.9797 81.4206 83.8561 82.1298 83.6002 83.2603C83.3443 84.3908 84.0531 85.5144 85.1834 85.77Z" fill="url(#paint4_linear_3_13497)"/>
<path d="M68.6619 84.1929C69.7922 84.4485 70.9158 83.7393 71.1717 82.6088C71.4275 81.4784 70.7187 80.3547 69.5885 80.0991C68.4582 79.8435 67.3346 80.5527 67.0787 81.6831C66.8228 82.8136 67.5317 83.9373 68.6619 84.1929Z" fill="url(#paint5_linear_3_13497)"/>
<path d="M77.9779 77.4876C76.5208 79.1756 74.4343 81.8646 72.1743 85.3213C68.6841 90.6518 66.9958 93.3635 67.9632 95.3306C69.5948 98.5238 77.2873 97.5056 77.7784 97.4148C77.8022 90.7628 77.89 84.1252 77.9779 77.4876Z" fill="#A2625E"/>
<path d="M97.7585 72.672L83.4058 69.2295L82.8704 71.596L97.2232 75.0385L97.7585 72.672Z" fill="url(#paint6_linear_3_13497)"/>
<path d="M73.4404 71.9582L66.1163 73.1262C66.1766 72.2658 66.2513 71.3414 66.3756 70.4955L73.0661 69.4532L73.4404 71.9582Z" fill="url(#paint7_linear_3_13497)"/>
<path d="M130.358 97.1171C130.277 97.7713 130.197 98.4255 130.116 99.0796C129.037 108.317 127.956 116.074 127.146 121.741L127.097 121.662C126.424 120.77 125.603 119.644 124.747 118.374C123.579 116.698 122.356 114.674 121.112 112.442C120.497 111.295 119.833 110.069 119.183 108.779C118.583 107.567 117.997 106.292 117.425 104.953C116.6 102.951 115.839 100.963 115.192 99.0685C113.517 93.9832 112.502 89.2489 111.864 84.9356C111.544 82.779 111.26 80.7647 111.039 78.765C109.879 69.022 109.365 61.7783 103.072 57.1957C99.6092 54.6649 92.1762 52.4471 85.0728 53.5312C76.0976 54.8647 73.1103 60.6445 68.6985 59.0422C68.5706 59.0133 68.4571 58.9204 68.3291 58.8915C62.669 56.2674 59.7143 43.1603 64.9222 37.0754C67.9441 33.5223 72.9816 33.2488 77.8973 33.2168C106.624 32.8509 122.929 32.7034 130.579 43.7787C132.539 46.7095 133.481 49.6794 133.375 57.5895C133.326 61.0751 133.125 65.5347 132.685 71.3522C132.67 71.4162 132.67 71.4162 132.67 71.4162L130.358 97.1171Z" fill="url(#paint8_linear_3_13497)"/>
<path d="M123.975 91.7737C122.332 97.2511 116.516 100.372 111.039 98.7295C106.826 97.44 104.023 93.7804 103.677 89.668C103.553 88.4299 103.715 87.1219 104.083 85.7932C105.726 80.3158 111.542 77.1946 117.019 78.8375C118.156 79.1619 119.121 79.6493 120.043 80.3286C123.583 82.8104 125.308 87.3691 123.975 91.7737Z" fill="#CD907F"/>
<path opacity="0.09" d="M120.053 80.2641L103.686 89.6032C103.563 88.3652 103.725 87.0572 104.093 85.7286C105.736 80.2513 111.552 77.1301 117.029 78.773C118.151 79.1614 119.181 79.6632 120.053 80.2641Z" fill="url(#paint9_linear_3_13497)"/>
</g>
<defs>
<linearGradient id="paint0_linear_3_13497" x1="74.5944" y1="153.717" x2="129.901" y2="170.321" gradientUnits="userSpaceOnUse">
<stop offset="0.00194495" stop-color="#19233D" stop-opacity="0.5"/>
<stop offset="0.8362" stop-color="#F07125"/>
</linearGradient>
<linearGradient id="paint1_linear_3_13497" x1="3.76985" y1="229.801" x2="212.202" y2="292.409" gradientUnits="userSpaceOnUse">
<stop offset="0.1948" stop-color="#87AEB4"/>
<stop offset="1" stop-color="#153E5C"/>
</linearGradient>
<linearGradient id="paint2_linear_3_13497" x1="96.9933" y1="219.296" x2="167.509" y2="240.464" gradientUnits="userSpaceOnUse">
<stop stop-color="#5A142A" stop-opacity="0.2"/>
<stop offset="1" stop-color="#FC860A" stop-opacity="0.2"/>
</linearGradient>
<linearGradient id="paint3_linear_3_13497" x1="65.4659" y1="105.688" x2="91.7495" y2="113.583" gradientUnits="userSpaceOnUse">
<stop offset="0.000555701"/>
<stop offset="0.8106"/>
</linearGradient>
<linearGradient id="paint4_linear_3_13497" x1="83.6341" y1="83.1444" x2="87.6076" y2="84.3389" gradientUnits="userSpaceOnUse">
<stop offset="0.000555701"/>
<stop offset="0.8106"/>
</linearGradient>
<linearGradient id="paint5_linear_3_13497" x1="67.1213" y1="81.5659" x2="71.0949" y2="82.7605" gradientUnits="userSpaceOnUse">
<stop offset="0.000555701"/>
<stop offset="0.8106"/>
</linearGradient>
<linearGradient id="paint6_linear_3_13497" x1="83.1933" y1="70.0018" x2="97.4375" y2="74.2831" gradientUnits="userSpaceOnUse">
<stop offset="0.000555701"/>
<stop offset="0.8106"/>
</linearGradient>
<linearGradient id="paint7_linear_3_13497" x1="66.4344" y1="70.3315" x2="73.3331" y2="72.4058" gradientUnits="userSpaceOnUse">
<stop offset="0.000555701"/>
<stop offset="0.8106"/>
</linearGradient>
<linearGradient id="paint8_linear_3_13497" x1="57.4344" y1="59.0705" x2="138.633" y2="83.456" gradientUnits="userSpaceOnUse">
<stop stop-color="#002544"/>
<stop offset="0.1924" stop-color="#00172A"/>
<stop offset="0.4174" stop-color="#000A13"/>
<stop offset="0.6287" stop-color="#000305"/>
<stop offset="0.8106"/>
</linearGradient>
<linearGradient id="paint9_linear_3_13497" x1="105.05" y1="82.6286" x2="113.365" y2="85.1284" gradientUnits="userSpaceOnUse">
<stop offset="0.00308041" stop-color="#F07125"/>
<stop offset="0.4448" stop-color="#19233D" stop-opacity="0.5"/>
</linearGradient>
<clipPath id="clip0_3_13497">
<path d="M0.290039 100.312C0.290039 45.4528 44.7623 0.980469 99.6217 0.980469V0.980469C154.481 0.980469 198.953 45.4528 198.953 100.312V100.312C198.953 155.172 154.481 199.644 99.6217 199.644V199.644C44.7623 199.644 0.290039 155.172 0.290039 100.312V100.312Z" fill="white"/>
</clipPath>
</defs>
</svg>
