<svg width="200" height="200" viewBox="0 0 200 200" fill="none" xmlns="http://www.w3.org/2000/svg">
<g clip-path="url(#clip0_3_13499)">
<path d="M0.579102 100.312C0.579102 45.4528 45.0514 0.980469 99.9108 0.980469V0.980469C154.77 0.980469 199.242 45.4528 199.242 100.312V100.312C199.242 155.172 154.77 199.644 99.9108 199.644V199.644C45.0514 199.644 0.579102 155.172 0.579102 100.312V100.312Z" fill="#8677A7"/>
<path d="M133.336 133.475C129.676 150.793 125.659 169.272 118.607 191.858C118.071 193.643 117.446 195.518 116.821 197.393C115.125 202.57 113.251 208.016 111.287 213.64C101.824 239.796 92.0041 261.043 84.3268 276.219C60.4023 269.166 36.4778 262.114 12.5532 255.061C12.9996 229.084 15.9455 191.411 27.7292 147.758C32.1035 131.779 38.531 107.765 47.5473 85.4472C48.1722 83.9296 48.7971 82.5012 49.422 80.9836C61.1165 53.2205 76.7388 29.2067 97.0033 27.7783C114.143 26.6178 130.301 41.9724 137.532 54.8274C141.014 60.987 146.102 73.0385 133.336 133.475Z" fill="#19233D"/>
<path opacity="0.35" d="M118.607 191.858C118.072 193.643 117.447 195.518 116.822 197.392C115.126 202.57 113.251 208.016 111.287 213.64C101.824 239.796 92.0046 261.042 84.3273 276.218C60.4028 269.166 36.4782 262.114 12.5537 255.061C13.0001 229.083 15.946 191.411 27.7297 147.758C32.104 131.778 38.5315 107.765 47.5478 85.4469C48.1727 83.9293 48.7976 82.501 49.4225 80.9834L118.607 191.858Z" fill="url(#paint0_linear_3_13499)"/>
<path d="M154.135 153.828L146.993 181.77C146.993 181.859 146.904 181.948 146.904 181.948C144.137 189.358 141.458 198.642 139.852 209.533C139.762 210.426 139.584 211.318 139.495 212.211C138.87 217.478 138.513 222.566 138.423 227.387C138.423 228.458 138.423 229.619 138.423 230.69C138.513 238.189 139.227 244.884 140.119 250.776C140.566 253.543 141.101 256.132 141.548 258.453C141.548 258.543 141.548 258.543 141.548 258.632L141.458 258.721C140.744 259.524 138.691 261.756 135.388 264.256C134.228 265.149 132.889 266.131 131.371 267.113C124.765 271.398 115.124 275.593 103.251 274.968C92.0026 274.433 83.3433 269.791 78.1656 266.131C75.9338 264.524 74.2377 263.095 73.345 262.203C73.7913 260.506 74.2377 258.9 74.5948 257.382H74.5055C75.2197 254.436 75.8446 251.669 76.2909 248.991C76.8265 245.777 77.2729 242.742 77.4514 239.974C77.5407 238.635 77.63 237.296 77.7192 235.957C77.7192 235.6 77.7192 235.332 77.7192 234.975C77.8085 233.636 77.8085 232.386 77.7192 231.136C77.63 224.084 76.648 218.728 75.666 214.8C74.0592 208.372 69.9527 196.499 65.8463 185.519C65.8463 185.43 65.757 185.341 65.757 185.251C65.6677 184.983 65.5784 184.716 65.3999 184.359C63.3467 179.359 61.9184 175.342 61.0256 172.753C57.9904 164.005 54.5982 154.721 55.2231 153.917C58.0797 151.775 60.6685 149.9 62.9896 148.293C62.9896 148.293 62.9896 148.293 63.0789 148.293C64.2394 147.49 65.3106 146.776 66.3819 146.151C68.8815 144.544 71.381 143.026 73.4343 141.776C74.2377 141.33 74.9519 140.884 75.5768 140.437C76.2016 140.08 76.8265 139.723 77.3622 139.366C79.3261 138.206 84.1467 134.724 87.9854 131.153L88.6103 130.528C90.485 128.743 92.0918 126.958 92.8953 125.529C95.7519 120.53 96.9124 115.352 97.1803 110.442C97.3588 107.943 97.2695 105.533 97.0017 103.212C96.3768 97.1411 94.6807 92.142 93.6987 89.4639C102.536 90.6244 111.464 91.7849 120.301 92.9454C120.034 96.2484 119.944 99.9085 120.123 103.747C120.301 107.139 120.658 110.71 121.373 114.281C122.087 117.763 123.069 121.334 124.497 124.904C124.497 124.994 124.586 125.083 124.586 125.083C125.3 126.868 126.104 128.654 127.086 130.35C127.443 130.975 127.8 131.689 128.246 132.314C128.425 132.582 128.514 132.849 128.693 133.117C129.318 134.01 129.943 134.903 130.567 135.795C133.335 139.545 135.924 141.419 138.959 143.205C139.137 143.294 139.405 143.473 139.584 143.562C140.119 143.919 140.655 144.187 141.191 144.544C141.458 144.722 141.637 144.812 141.905 144.99C145.476 146.776 149.225 149.186 154.135 153.828Z" fill="#E6A67F"/>
<path opacity="0.13" d="M124.854 124.905C121.461 124.637 116.998 123.834 112.356 121.78C104.5 118.388 99.7687 113.3 97.537 110.532C97.7155 108.033 97.6262 105.622 97.3584 103.301L120.569 103.837C120.301 106.069 120.212 109.907 121.819 114.371C122.443 117.852 123.425 121.423 124.854 124.905Z" fill="#002544"/>
<path opacity="0.25" d="M153.957 153.828L146.816 181.77C146.816 181.859 146.726 181.948 146.726 181.948C143.959 189.358 141.281 198.642 139.674 209.533L86.8257 200.159L127.265 130.35C128.337 132.224 129.497 134.01 130.747 135.795C133.514 139.544 136.103 141.419 139.138 143.205C139.317 143.294 139.585 143.472 139.763 143.562C140.299 143.919 140.834 144.187 141.37 144.544C141.638 144.722 141.816 144.811 142.084 144.99C145.298 146.775 149.137 149.186 153.957 153.828Z" fill="url(#paint1_linear_3_13499)"/>
<path opacity="0.64" d="M128.961 133.118C126.551 136.064 121.641 140.706 114.321 142.223C113.963 142.045 113.517 141.866 113.071 141.866C112.357 141.866 111.732 142.134 111.285 142.67C110.928 142.67 110.571 142.759 110.214 142.759C109.946 142.759 109.678 142.759 109.5 142.759C101.019 142.759 93.0741 138.295 88.3428 131.154L88.9677 130.529C93.699 137.76 101.823 142.134 110.214 141.866C119.766 141.598 125.926 135.617 128.604 132.314C128.604 132.582 128.782 132.85 128.961 133.118Z" fill="white"/>
<path opacity="0.64" d="M114.322 142.223C113.965 142.045 113.518 141.866 113.072 141.866C112.358 141.866 111.733 142.134 111.286 142.67C110.84 143.116 110.572 143.741 110.572 144.455C110.572 145.883 111.733 146.955 113.072 146.955C114.411 146.955 115.571 145.794 115.571 144.455C115.571 143.473 115.036 142.67 114.322 142.223Z" fill="white"/>
<path d="M132.441 60.0051C129.674 60.5407 122.622 61.612 114.677 58.309C103.964 53.7562 99.6791 44.3827 98.7864 42.2402C98.6971 42.2402 98.6078 42.3295 98.6078 42.3295C97.0902 49.0248 95.7512 55.9879 94.5014 63.3081C92.5374 74.9133 91.1984 85.8936 90.3057 96.249C94.9477 102.855 101.018 107.497 106.999 109.997C108.695 110.711 117.533 113.389 123.961 110.532C134.673 105.89 140.208 85.0009 132.441 60.0051Z" fill="#E6A67F"/>
<path d="M110.926 74.3773C112.109 74.3773 113.069 73.4181 113.069 72.2348C113.069 71.0515 112.109 70.0923 110.926 70.0923C109.743 70.0923 108.784 71.0515 108.784 72.2348C108.784 73.4181 109.743 74.3773 110.926 74.3773Z" fill="black"/>
<path d="M130.297 71.7884C131.481 71.7884 132.44 70.8292 132.44 69.6459C132.44 68.4626 131.481 67.5034 130.297 67.5034C129.114 67.5034 128.155 68.4626 128.155 69.6459C128.155 70.8292 129.114 71.7884 130.297 71.7884Z" fill="black"/>
<path d="M121.461 70.9854C122.354 73.6635 123.871 76.9665 126.549 80.2695C128.603 82.7691 130.299 84.0189 129.942 85.3579C129.674 86.5185 127.71 87.5897 121.461 87.8575C121.461 82.2335 121.461 76.6094 121.461 70.9854Z" fill="#C5856E"/>
<path d="M120.032 97.3198C118.693 97.3198 116.997 97.052 115.301 96.3378C111.373 94.5524 109.766 91.1601 109.32 89.8211C109.231 89.5532 109.32 89.1962 109.677 89.1069C109.945 89.0176 110.302 89.1069 110.391 89.464C110.748 90.446 112.176 93.6597 115.837 95.3559C118.961 96.7842 121.996 96.1593 123.068 95.8915C123.335 95.8022 123.692 95.9807 123.692 96.2486C123.782 96.5164 123.603 96.8734 123.335 96.8734C122.71 97.052 121.55 97.3198 120.032 97.3198Z" fill="black"/>
<path d="M112.265 59.469C110.658 59.9154 108.962 60.2724 107.355 60.7188C105.481 61.1651 103.517 61.7008 101.642 62.1471C102.178 61.5222 103.963 59.6476 106.998 59.0227C109.409 58.5763 111.373 59.1119 112.265 59.469Z" fill="black"/>
<path d="M135.475 64.647C133.868 64.2899 132.172 63.8435 130.565 63.4864C128.69 63.0401 126.726 62.5937 124.852 62.0581C125.655 61.7903 128.065 60.9868 131.011 61.7903C133.422 62.5044 134.85 63.9328 135.475 64.647Z" fill="black"/>
<path d="M141.457 258.632C141.457 258.721 141.457 258.81 141.546 258.9C140.743 259.792 137.529 263.274 132.351 266.755C132.173 266.934 131.994 267.023 131.726 267.202C129.584 268.63 127.173 269.969 124.495 271.219C123.335 271.755 122.174 272.201 120.924 272.647C115.836 274.433 109.944 275.593 103.249 275.325C102.088 275.236 100.928 275.147 99.8566 274.968C98.9638 274.879 98.1604 274.7 97.2677 274.611C93.3398 273.897 89.769 272.647 86.6445 271.308C86.1089 271.04 85.5732 270.773 85.0376 270.505C79.9492 268.005 76.2891 265.149 74.2359 263.363C73.7895 263.006 73.5217 262.738 73.2539 262.47C73.2539 262.47 73.2539 262.47 73.2539 262.381C73.2539 262.292 73.3432 262.292 73.3432 262.203C73.611 261.221 73.8788 260.328 74.1466 259.435C74.3251 258.721 74.5037 258.007 74.6822 257.382C76.2891 250.954 77.1818 245.152 77.6281 239.974C77.7174 238.635 77.8067 237.296 77.896 235.957C77.896 235.6 77.896 235.332 77.896 234.975C77.9852 233.636 77.9852 232.386 77.896 231.136C77.8067 224.263 76.8247 218.996 75.8427 215.157C75.8427 215.068 75.8427 215.068 75.8427 214.978C75.8427 214.978 75.8427 214.978 75.8427 214.889V214.8C75.7535 214.532 75.6642 214.264 75.5749 213.907C75.4857 213.729 75.4856 213.461 75.3964 213.193C75.3071 212.836 75.2178 212.568 75.1286 212.211C75.1286 212.032 75.0393 211.943 75.0393 211.765C74.95 211.586 74.95 211.318 74.8608 211.14C74.7715 210.872 74.6822 210.515 74.5929 210.247C74.5929 210.158 74.5929 210.158 74.5037 210.068C74.4144 209.711 74.3251 209.354 74.1466 208.997C74.0573 208.729 73.9681 208.462 73.8788 208.105C73.5217 207.033 73.1646 206.051 72.8075 204.891C72.8075 204.802 72.8075 204.802 72.7182 204.712C72.5397 204.266 72.4504 203.82 72.2719 203.462C72.2719 203.373 72.2719 203.373 72.1826 203.284L72.0041 202.838V202.748C71.4685 201.32 71.0221 199.802 70.4865 198.196C70.2187 197.481 70.0401 196.856 69.7723 196.142C68.6118 192.661 67.2727 189.179 66.0229 185.698L66.1122 185.608C67.2727 184.716 68.344 183.912 69.5045 183.109C70.0402 182.662 70.5758 182.305 71.2007 181.948C71.8256 181.591 72.2719 181.145 72.8968 180.788C73.0753 180.609 73.3432 180.52 73.5217 180.341C73.7895 180.163 73.968 179.984 74.2359 179.895C74.95 179.449 75.5749 179.002 76.1998 178.556C76.5569 178.288 77.0033 178.02 77.3603 177.842C77.5389 177.753 77.6281 177.663 77.8067 177.574C78.253 177.306 78.7887 176.949 79.235 176.681C79.7706 176.324 80.3063 176.056 80.7526 175.789C81.6453 175.253 82.538 174.807 83.4307 174.36C83.7878 174.182 84.2342 173.914 84.5913 173.735C84.6805 173.735 84.6805 173.646 84.7698 173.646H84.8591C85.0376 173.557 85.1269 173.468 85.3054 173.468C85.7518 173.289 86.1088 173.021 86.5552 172.843C86.6445 172.753 86.7338 172.753 86.9123 172.664C87.1801 172.486 87.5372 172.396 87.805 172.218C88.0728 172.039 88.4299 171.95 88.6977 171.771C89.3226 171.504 89.8582 171.236 90.4831 170.968C91.0188 170.7 91.6436 170.522 92.1793 170.254C92.4471 170.165 92.7149 170.075 92.8934 169.986C93.2505 169.897 93.5183 169.718 93.8754 169.629C94.2325 169.45 94.6788 169.361 95.0359 169.183C95.4823 169.004 95.9286 168.915 96.375 168.736C96.5535 168.647 96.8213 168.558 96.9999 168.558C97.1784 168.468 97.4462 168.468 97.6248 168.379C98.1604 168.201 98.696 168.111 99.1424 167.933C99.678 167.754 100.214 167.665 100.66 167.486C100.928 167.397 101.285 167.308 101.553 167.308C102.088 167.129 102.624 167.04 103.249 166.951C103.517 166.861 103.874 166.861 104.142 166.772C104.499 166.683 104.766 166.683 105.124 166.594C105.302 166.594 105.57 166.504 105.748 166.504C105.927 166.504 106.195 166.415 106.373 166.415C106.552 166.415 106.82 166.326 106.998 166.326C107.177 166.326 107.445 166.237 107.623 166.237C108.069 166.147 108.427 166.147 108.873 166.058C109.319 166.058 109.676 165.969 110.033 165.969C110.212 165.969 110.48 165.969 110.658 165.969C110.837 165.969 110.926 165.969 111.105 165.969H111.194C114.586 165.79 117.8 165.969 120.746 166.504C121.103 166.594 121.46 166.594 121.728 166.683C121.996 166.772 122.353 166.772 122.621 166.862C122.71 166.862 122.71 166.862 122.799 166.862C123.067 166.951 123.335 166.951 123.603 167.04C123.96 167.129 124.317 167.219 124.585 167.308C124.674 167.308 124.674 167.308 124.763 167.308C125.12 167.397 125.477 167.486 125.745 167.576C126.102 167.665 126.548 167.844 126.906 167.933C127.173 168.022 127.441 168.111 127.709 168.201C127.888 168.29 128.066 168.29 128.155 168.379C128.155 168.379 128.155 168.379 128.245 168.379C128.423 168.468 128.512 168.468 128.691 168.558C128.87 168.647 129.048 168.647 129.137 168.736C129.584 168.915 130.03 169.093 130.476 169.272C130.923 169.45 131.369 169.718 131.815 169.897C131.994 169.986 132.262 170.075 132.44 170.254C132.619 170.343 132.887 170.432 133.065 170.611C133.244 170.7 133.422 170.789 133.69 170.968C134.047 171.146 134.494 171.414 134.851 171.682C135.029 171.771 135.208 171.95 135.386 172.039C135.476 172.128 135.565 172.128 135.654 172.218C136.1 172.486 136.547 172.753 136.993 173.11C137.172 173.289 137.439 173.378 137.618 173.557C138.421 174.092 139.136 174.717 139.85 175.253C140.118 175.521 140.385 175.699 140.653 175.967C140.921 176.235 141.189 176.413 141.457 176.681C141.724 176.949 141.903 177.128 142.171 177.395C142.26 177.485 142.439 177.574 142.528 177.753C142.617 177.842 142.706 177.931 142.885 178.11C143.064 178.288 143.331 178.556 143.51 178.735C143.688 178.913 143.867 179.181 144.046 179.359C144.135 179.449 144.224 179.538 144.313 179.627C144.403 179.716 144.492 179.806 144.581 179.895C144.67 179.984 144.76 180.074 144.849 180.163C145.027 180.341 145.117 180.52 145.295 180.698C145.474 180.877 145.563 181.056 145.742 181.234C145.831 181.323 145.92 181.413 146.01 181.502C146.277 181.859 146.545 182.216 146.724 182.484L146.813 182.573C143.867 190.607 140.921 200.874 139.403 213.014C138.779 218.192 138.421 223.191 138.332 227.923C138.332 228.994 138.332 230.154 138.332 231.226C138.332 232.565 138.332 233.814 138.421 235.064C138.421 235.154 138.421 235.154 138.421 235.243C138.421 235.868 138.511 236.582 138.511 237.207C138.511 237.832 138.6 238.546 138.6 239.171C138.689 241.045 138.868 242.92 139.046 244.706C139.136 245.33 139.225 245.955 139.225 246.491C139.314 247.027 139.314 247.562 139.403 248.098C139.493 248.544 139.582 249.08 139.582 249.526C139.671 249.972 139.761 250.508 139.761 250.955C139.939 251.936 140.028 252.829 140.207 253.722C140.296 254.168 140.385 254.615 140.475 255.061C140.564 255.418 140.564 255.775 140.653 256.043C140.743 256.489 140.832 257.025 140.921 257.471C140.921 257.561 140.921 257.65 141.01 257.739C141.1 258.096 141.189 258.453 141.189 258.81C141.457 258.453 141.457 258.542 141.457 258.632Z" fill="#8677A7"/>
<path d="M76.2005 178.467C76.1112 179.449 75.2185 180.341 74.058 180.341C73.8794 180.341 73.7009 180.341 73.4331 180.252C73.7009 180.074 73.8794 179.895 74.1473 179.806C74.8614 179.27 75.4863 178.824 76.2005 178.467Z" fill="#004E5A"/>
<path d="M74.0575 192.125C75.2408 192.125 76.2 191.246 76.2 190.161C76.2 189.077 75.2408 188.197 74.0575 188.197C72.8743 188.197 71.915 189.077 71.915 190.161C71.915 191.246 72.8743 192.125 74.0575 192.125Z" fill="#87AEB4"/>
<path d="M86.7353 176.324C87.9185 176.324 88.8777 175.445 88.8777 174.36C88.8777 173.275 87.9185 172.396 86.7353 172.396C85.552 172.396 84.5928 173.275 84.5928 174.36C84.5928 175.445 85.552 176.324 86.7353 176.324Z" fill="#87AEB4"/>
<path d="M86.7353 188.197C87.9185 188.197 88.8777 187.318 88.8777 186.234C88.8777 185.149 87.9185 184.27 86.7353 184.27C85.552 184.27 84.5928 185.149 84.5928 186.234C84.5928 187.318 85.552 188.197 86.7353 188.197Z" fill="#004E5A"/>
<path d="M86.7353 200.071C87.9185 200.071 88.8777 199.191 88.8777 198.107C88.8777 197.022 87.9185 196.143 86.7353 196.143C85.552 196.143 84.5928 197.022 84.5928 198.107C84.5928 199.191 85.552 200.071 86.7353 200.071Z" fill="#87AEB4"/>
<path d="M100.838 167.219C100.481 167.933 99.7671 168.379 98.8744 168.379C98.428 168.379 98.071 168.29 97.7139 168.022C98.2495 167.844 98.7851 167.754 99.2315 167.576C99.7671 167.487 100.303 167.397 100.838 167.219Z" fill="#87AEB4"/>
<path d="M98.8754 180.252C100.059 180.252 101.018 179.373 101.018 178.288C101.018 177.204 100.059 176.324 98.8754 176.324C97.6921 176.324 96.7329 177.204 96.7329 178.288C96.7329 179.373 97.6921 180.252 98.8754 180.252Z" fill="#004E5A"/>
<path d="M98.8754 192.125C100.059 192.125 101.018 191.246 101.018 190.161C101.018 189.077 100.059 188.197 98.8754 188.197C97.6921 188.197 96.7329 189.077 96.7329 190.161C96.7329 191.246 97.6921 192.125 98.8754 192.125Z" fill="#87AEB4"/>
<path d="M111.016 175.789C112.199 175.789 113.158 174.909 113.158 173.825C113.158 172.74 112.199 171.861 111.016 171.861C109.832 171.861 108.873 172.74 108.873 173.825C108.873 174.909 109.832 175.789 111.016 175.789Z" fill="#87AEB4"/>
<path d="M111.016 187.662C112.199 187.662 113.158 186.783 113.158 185.698C113.158 184.613 112.199 183.734 111.016 183.734C109.832 183.734 108.873 184.613 108.873 185.698C108.873 186.783 109.832 187.662 111.016 187.662Z" fill="#004E5A"/>
<path d="M111.016 199.534C112.199 199.534 113.158 198.655 113.158 197.57C113.158 196.486 112.199 195.606 111.016 195.606C109.832 195.606 108.873 196.486 108.873 197.57C108.873 198.655 109.832 199.534 111.016 199.534Z" fill="#87AEB4"/>
<path d="M124.853 166.951C124.496 167.486 123.871 167.844 123.067 167.844C121.996 167.844 121.103 167.04 120.925 166.058C121.282 166.147 121.639 166.147 121.907 166.237C122.175 166.326 122.532 166.326 122.799 166.415C122.889 166.415 122.889 166.415 122.978 166.415C123.246 166.504 123.514 166.504 123.781 166.594C124.228 166.772 124.496 166.862 124.853 166.951Z" fill="#87AEB4"/>
<path d="M123.067 179.716C124.251 179.716 125.21 178.837 125.21 177.753C125.21 176.668 124.251 175.789 123.067 175.789C121.884 175.789 120.925 176.668 120.925 177.753C120.925 178.837 121.884 179.716 123.067 179.716Z" fill="#004E5A"/>
<path d="M123.067 191.59C124.251 191.59 125.21 190.71 125.21 189.626C125.21 188.541 124.251 187.662 123.067 187.662C121.884 187.662 120.925 188.541 120.925 189.626C120.925 190.71 121.884 191.59 123.067 191.59Z" fill="#87AEB4"/>
<path d="M123.067 203.463C124.251 203.463 125.21 202.583 125.21 201.499C125.21 200.414 124.251 199.535 123.067 199.535C121.884 199.535 120.925 200.414 120.925 201.499C120.925 202.583 121.884 203.463 123.067 203.463Z" fill="#004E5A"/>
<path d="M135.833 175.789C137.016 175.789 137.975 174.909 137.975 173.825C137.975 172.74 137.016 171.861 135.833 171.861C134.65 171.861 133.69 172.74 133.69 173.825C133.69 174.909 134.65 175.789 135.833 175.789Z" fill="#87AEB4"/>
<path d="M135.833 187.662C137.016 187.662 137.975 186.783 137.975 185.698C137.975 184.613 137.016 183.734 135.833 183.734C134.65 183.734 133.69 184.613 133.69 185.698C133.69 186.783 134.65 187.662 135.833 187.662Z" fill="#004E5A"/>
<path d="M135.833 199.534C137.016 199.534 137.975 198.655 137.975 197.57C137.975 196.486 137.016 195.606 135.833 195.606C134.65 195.606 133.69 196.486 133.69 197.57C133.69 198.655 134.65 199.534 135.833 199.534Z" fill="#87AEB4"/>
<path d="M93.9651 178.288C93.8758 178.377 93.6973 178.377 93.608 178.377C93.0724 178.467 92.5367 178.199 92.2689 177.663L73.6113 141.598C74.4148 141.151 75.129 140.705 75.7538 140.259L94.4114 176.324C94.7685 177.128 94.59 177.931 93.9651 178.288Z" fill="#8677A7"/>
<path d="M141.456 144.544L132.618 179.538C132.261 179.27 131.994 179.002 131.637 178.734C131.458 178.556 131.279 178.377 131.012 178.199C130.833 178.02 130.655 177.842 130.387 177.752L139.135 143.205L141.456 144.544Z" fill="#8677A7"/>
<path opacity="0.42" d="M141.458 258.632C141.458 258.721 141.458 258.81 141.547 258.899C140.744 259.881 137.53 263.274 132.353 266.755L111.285 268.541C114.498 254.793 117.355 236.671 117.177 215.335C116.998 195.607 114.32 178.645 111.285 165.522C115.213 165.255 121.819 165.433 129.05 168.29C139.583 172.485 145.297 179.895 146.725 181.948L146.814 182.037C143.868 190.072 140.923 200.338 139.405 212.479C138.78 217.656 138.423 222.656 138.334 227.387C138.334 228.458 138.334 229.619 138.334 230.69C138.423 241.67 139.851 251.044 141.369 258.275C141.458 258.453 141.458 258.542 141.458 258.632Z" fill="url(#paint2_linear_3_13499)"/>
<path d="M88.5218 256.757L56.2951 258.9L49.6891 259.346L55.581 192.661C48.1715 199.356 13.713 229.798 -5.92651 226.673C-7.8012 226.405 -9.58663 225.78 -11.1935 224.798C-17.621 220.781 -18.1566 212.568 -28.0657 163.112C-28.9584 158.738 -29.7618 154.632 -30.5652 150.882C-30.833 149.454 -31.1008 148.115 -31.3686 146.776C-32.3506 141.866 -33.2434 137.759 -33.9575 134.546V134.456C-33.779 134.278 -29.1369 132.314 -26.3695 131.064C-25.9232 130.886 -25.5661 130.707 -25.2983 130.529C-25.1197 130.439 -24.9412 130.35 -24.8519 130.261C-24.7626 130.35 -24.7626 130.439 -24.6733 130.529C-24.5841 130.707 -24.4948 130.796 -24.4055 130.975C-22.0845 134.367 -19.2278 138.92 -16.2819 144.544C-1.28444 173.557 -4.85528 193.018 3.17908 195.25C10.0529 197.124 16.1233 183.823 36.1199 164.808C47.9037 153.65 59.0625 145.705 67.3647 140.348C74.4171 179.092 81.4695 217.925 88.5218 256.757Z" fill="#BDD3DE"/>
<path d="M248.137 135.17C246.798 141.509 244.744 151.596 242.245 163.916C238.406 183.109 235.907 196.142 234.032 205.069C231.086 218.639 229.39 222.834 225.73 225.334C225.641 225.423 225.462 225.512 225.373 225.602C215.642 231.672 199.216 223.816 184.933 214.264C172.882 206.23 162.348 196.856 158.598 193.464C160.562 202.481 162.526 211.497 164.49 220.513C162.883 221.138 161.187 221.763 159.491 222.477C156.456 223.727 153.331 225.066 150.118 226.405C144.493 228.905 139.137 231.404 134.049 233.993C134.317 220.067 135.209 204.891 136.995 188.554C138.959 170.968 141.815 154.81 145.029 140.259C153.778 145.794 165.472 154.096 177.97 165.612C197.699 183.823 204.573 196.41 210.911 194.357C219.213 191.589 212.875 167.933 228.14 142.937C228.854 141.776 229.568 140.616 230.372 139.455C231.979 137.134 233.496 135.17 234.835 133.653C235.728 132.582 236.532 131.689 237.156 131.064C237.781 131.332 238.496 131.6 239.12 131.867C242.066 133.028 245.012 134.099 247.958 135.26C248.047 135.081 248.137 135.081 248.137 135.17Z" fill="#BDD3DE"/>
<path opacity="0.36" d="M65.7577 213.728C65.7577 223.28 60.1336 245.33 56.3843 258.899L49.7782 259.346L55.6701 192.661C48.2606 199.356 13.8021 229.797 -5.8374 226.673C5.4107 213.907 28.1747 191.857 44.6898 187.661C67.4538 181.591 65.7577 199.356 65.7577 213.728Z" fill="url(#paint3_linear_3_13499)"/>
<path opacity="0.36" d="M225.731 225.244C225.642 225.333 225.463 225.423 225.374 225.512C215.643 231.582 199.218 223.727 184.934 214.175C172.883 206.14 162.349 196.767 158.599 193.375C160.563 202.391 162.527 211.407 164.491 220.424C162.884 221.048 161.188 221.673 159.492 222.388C154.672 214.264 144.941 195.696 150.119 186.679C156.011 176.502 210.644 214.532 225.731 225.244Z" fill="url(#paint4_linear_3_13499)"/>
</g>
<defs>
<linearGradient id="paint0_linear_3_13499" x1="12.5192" y1="178.633" x2="118.604" y2="178.633" gradientUnits="userSpaceOnUse">
<stop stop-color="#153E5C"/>
<stop offset="1" stop-color="#271C41"/>
</linearGradient>
<linearGradient id="paint1_linear_3_13499" x1="138.817" y1="126.431" x2="117.469" y2="192.076" gradientUnits="userSpaceOnUse">
<stop offset="0.1545" stop-color="#691B26"/>
<stop offset="0.5166" stop-color="#CD907F" stop-opacity="0.5"/>
</linearGradient>
<linearGradient id="paint2_linear_3_13499" x1="111.338" y1="217.047" x2="146.854" y2="217.047" gradientUnits="userSpaceOnUse">
<stop stop-color="#9776A6"/>
<stop offset="1" stop-color="#271C41"/>
</linearGradient>
<linearGradient id="paint3_linear_3_13499" x1="-5.8865" y1="222.818" x2="65.7573" y2="222.818" gradientUnits="userSpaceOnUse">
<stop stop-color="#153E5C"/>
<stop offset="0.9956" stop-color="#AAC0DC"/>
</linearGradient>
<linearGradient id="paint4_linear_3_13499" x1="148.714" y1="206.291" x2="225.735" y2="206.291" gradientUnits="userSpaceOnUse">
<stop stop-color="#153E5C"/>
<stop offset="0.9956" stop-color="#AAC0DC"/>
</linearGradient>
<clipPath id="clip0_3_13499">
<path d="M0.579102 100.312C0.579102 45.4528 45.0514 0.980469 99.9108 0.980469V0.980469C154.77 0.980469 199.242 45.4528 199.242 100.312V100.312C199.242 155.172 154.77 199.644 99.9108 199.644V199.644C45.0514 199.644 0.579102 155.172 0.579102 100.312V100.312Z" fill="white"/>
</clipPath>
</defs>
</svg>
