<svg width="200" height="199" viewBox="0 0 200 199" fill="none" xmlns="http://www.w3.org/2000/svg">
<g clip-path="url(#clip0_3_12632)">
<rect x="0.446777" y="0.167969" width="198.663" height="198.663" rx="99.3317" fill="#FF7171"/>
<path d="M133.778 126.394L148.05 126.368C150.119 126.364 152.167 125.952 154.076 125.157C155.986 124.361 157.721 123.198 159.18 121.732C160.64 120.266 161.797 118.527 162.585 116.615C163.373 114.702 163.777 112.652 163.773 110.584V110.584C163.764 106.407 162.098 102.404 159.139 99.4553C156.18 96.5069 152.171 94.8545 147.994 94.8613L133.721 94.8872" fill="#FFE8D9"/>
<path d="M133.778 126.394L148.05 126.368C150.119 126.364 152.167 125.952 154.076 125.157C155.986 124.361 157.721 123.198 159.18 121.732C160.64 120.266 161.797 118.527 162.585 116.615C163.373 114.702 163.777 112.652 163.773 110.584V110.584C163.764 106.407 162.098 102.404 159.139 99.4553C156.18 96.5069 152.171 94.8545 147.994 94.8613L133.721 94.8872" stroke="#323854" stroke-width="3.30235" stroke-linecap="round" stroke-linejoin="round"/>
<path d="M149.341 192.11C154.739 192.069 159.083 187.543 159.073 181.981L158.872 75.6865C158.815 45.7589 144.171 22.4619 103.144 22.5393C65.7246 22.6115 47.541 45.9498 47.5978 75.8981L47.7939 181.924C47.7939 184.661 48.8811 187.286 50.8165 189.222C52.7518 191.157 55.3767 192.244 58.1137 192.244C79.4758 192.249 128.438 192.26 149.341 192.11Z" fill="#FFD371"/>
<path d="M109.571 22.7198C107.507 22.5908 105.35 22.5185 103.121 22.5237C65.7012 22.5959 47.5176 45.9343 47.5744 75.8825L47.7911 181.924C47.7891 184.366 48.6534 186.73 50.2303 188.595C51.8072 190.46 53.9944 191.706 56.403 192.11L56.1966 82.2034C56.1347 49.4224 73.5907 23.7724 109.571 22.7198Z" fill="#FFDD99"/>
<path d="M158.872 75.6714C158.821 47.9007 146.215 25.8678 111.648 22.875C111.736 23.0328 111.78 23.2107 111.777 23.391C111.731 39.6809 109.399 56.0688 103.424 71.2906C100.472 78.819 96.9788 86.208 92.0717 92.6579C87.7064 98.3751 82.5413 103.427 78.2534 109.206V192.245C102.046 192.245 133.635 192.245 149.357 192.1C154.755 192.059 159.099 187.533 159.089 181.971L158.872 75.6714Z" fill="#F4BA5D"/>
<path d="M149.341 192.11C154.739 192.069 159.083 187.543 159.073 181.981L158.872 75.6865C158.815 45.7589 144.171 22.4619 103.144 22.5393C65.7246 22.6115 47.541 45.9498 47.5978 75.8981L47.7939 181.924C47.7939 184.661 48.8811 187.286 50.8165 189.222C52.7518 191.157 55.3767 192.244 58.1137 192.244C79.4758 192.249 128.438 192.26 149.341 192.11Z" stroke="#323854" stroke-width="3.30235" stroke-linecap="round" stroke-linejoin="round"/>
<path d="M47.8794 181.791C49.4274 211.203 73.7668 228.633 103.565 228.576C133.364 228.519 157.652 211.032 159.071 181.579C149.891 172.24 128.436 165.713 103.447 165.759C78.4571 165.805 57.0228 172.436 47.8794 181.791Z" fill="white"/>
<path d="M103.55 221.238C76.0629 221.289 53.2199 206.465 48.6431 181.068C48.3799 181.315 48.1271 181.584 47.8794 181.811C49.4274 211.222 73.7668 228.653 103.565 228.596C133.364 228.539 157.652 211.052 159.071 181.599C158.828 181.352 158.555 181.083 158.307 180.861C153.823 206.274 131.037 221.186 103.55 221.238Z" fill="#EFEFEF"/>
<path d="M47.8794 181.791C49.4274 211.203 73.7668 228.633 103.565 228.576C133.364 228.519 157.652 211.032 159.071 181.579C149.891 172.24 128.436 165.713 103.447 165.759C78.4571 165.805 57.0228 172.436 47.8794 181.791Z" stroke="#323854" stroke-width="3.30235" stroke-linecap="round" stroke-linejoin="round"/>
<path d="M103.52 195.418C119.484 195.387 133.571 186.042 142.106 171.76C131.631 168.003 118.158 165.759 103.463 165.784C88.7674 165.81 75.3 168.112 64.8408 171.904C73.4115 186.151 87.5239 195.444 103.52 195.418Z" fill="#FFE8D9" stroke="#323854" stroke-width="3.30235" stroke-linecap="round" stroke-linejoin="round"/>
<path d="M93.5617 168.169L93.5049 140.068L113.293 140.026L113.345 168.127" fill="#FFE8D9"/>
<path d="M113.321 165.16L113.275 140.031L93.4917 140.067L93.533 162.967C97.1398 166.775 105.096 166.491 113.321 165.16Z" fill="#EABB9B"/>
<path d="M113.345 168.127L113.293 140.026L93.5049 140.068L93.5617 168.169" stroke="#323854" stroke-width="3.30235" stroke-linecap="round" stroke-linejoin="round"/>
<path d="M61.4937 165.02V173.194L61.5711 213.121C66.2929 217.69 71.8496 221.307 77.9384 223.776L77.8352 168.292L77.8042 152.115" fill="#FFD371"/>
<path d="M77.8481 168.292L77.9513 223.777C71.8626 221.308 66.3058 217.69 61.584 213.121C63.132 210.872 69.1639 215.903 72.1618 207.678C76.3311 196.238 77.4559 170.851 77.8481 168.292Z" fill="#F4BA5D"/>
<path d="M61.4937 165.02V173.194L61.5711 213.121C66.2929 217.69 71.8496 221.307 77.9384 223.776L77.8352 168.292L77.8042 152.115" stroke="#323854" stroke-width="3.30235" stroke-linecap="round" stroke-linejoin="round"/>
<path d="M67.58 126.517L51.8216 126.548C47.6444 126.555 43.6356 124.903 40.6766 121.954C37.7176 119.006 36.0507 115.003 36.0425 110.826C36.0357 106.649 37.6881 102.64 40.6365 99.6809C43.5848 96.7219 47.5877 95.0551 51.7648 95.0469L70.5418 95.0107" fill="#FFE8D9"/>
<path d="M38.7229 106.76C38.7198 104.504 39.2038 102.274 40.1419 100.223C38.089 102.481 36.7371 105.287 36.2511 108.3C35.7651 111.313 36.1658 114.402 37.4045 117.191C38.6432 119.981 40.6664 122.349 43.2276 124.009C45.7887 125.668 48.7773 126.547 51.8291 126.538L67.5875 126.507L67.9694 122.452H54.5071C50.3344 122.46 46.329 120.812 43.3697 117.87C40.4105 114.929 38.7393 110.933 38.7229 106.76V106.76Z" fill="#EABB9B"/>
<path d="M67.58 126.517L51.8216 126.548C47.6444 126.555 43.6356 124.903 40.6766 121.954C37.7176 119.006 36.0507 115.003 36.0425 110.826C36.0357 106.649 37.6881 102.64 40.6365 99.6809C43.5848 96.7219 47.5877 95.0551 51.7648 95.0469L70.5418 95.0107" stroke="#323854" stroke-width="3.30235" stroke-linecap="round" stroke-linejoin="round"/>
<path d="M43.0371 105.248H43.1506C45.7198 105.244 48.1854 106.26 50.0055 108.074C51.8255 109.887 52.851 112.349 52.8565 114.918V115.743" fill="#FFE8D9"/>
<path d="M43.0371 105.248H43.1506C45.7198 105.244 48.1854 106.26 50.0055 108.074C51.8255 109.887 52.851 112.349 52.8565 114.918V115.743" stroke="#323854" stroke-width="3.30235" stroke-linecap="round" stroke-linejoin="round"/>
<path d="M89.7221 56.4817C78.2464 56.4817 68.231 64.0978 65.4033 74.9491C64.4063 78.7821 63.9069 82.7274 63.9172 86.6879L57.9937 93.3958L58.0298 113.236C58.0762 139.164 79.9543 160.738 106.533 161.022C133.53 161.311 152.013 140.026 151.94 113.762L151.889 86.5228C151.885 82.3222 151.306 78.1418 150.171 74.0977C147.224 63.5611 137.204 56.4043 126.002 56.4043L89.7221 56.4817Z" fill="#FFE8D9"/>
<path d="M150.189 74.1029C147.222 63.5611 137.202 56.4043 126 56.4043L89.7202 56.4714C89.0288 56.4714 88.3425 56.5023 87.6562 56.5591C90.2362 80.5218 113.724 99.7477 141.918 100.016C145.266 100.049 148.611 99.8044 151.918 99.2833V86.5228C151.91 82.3234 151.328 78.1448 150.189 74.1029Z" fill="#EABB9B"/>
<path d="M108.443 154.381C81.5748 154.092 59.3355 132.874 58.0817 106.909L58.0249 107.023V113.215C58.0713 139.143 79.9494 160.717 106.528 161.001C127.065 161.223 142.648 148.957 148.933 131.517C140.997 145.407 126.569 154.577 108.443 154.381Z" fill="#EABB9B"/>
<path d="M64.1421 82.0234C63.9942 83.5164 63.9185 85.0282 63.915 86.559L64.1472 86.0998L64.1421 82.0234Z" fill="#EABB9B"/>
<path d="M89.7221 56.4817C78.2464 56.4817 68.231 64.0978 65.4033 74.9491C64.4063 78.7821 63.9069 82.7274 63.9172 86.6879L57.9937 93.3958L58.0298 113.236C58.0762 139.164 79.9543 160.738 106.533 161.022C133.53 161.311 152.013 140.026 151.94 113.762L151.889 86.5228C151.885 82.3222 151.306 78.1418 150.171 74.0977C147.224 63.5611 137.204 56.4043 126.002 56.4043L89.7221 56.4817Z" stroke="#323854" stroke-width="3.30235" stroke-linecap="round" stroke-linejoin="round"/>
<path d="M89.8877 111.605C91.8142 111.602 93.3728 110.037 93.3691 108.11C93.3654 106.184 91.8008 104.625 89.8743 104.629C87.9479 104.633 86.3892 106.197 86.3929 108.124C86.3966 110.05 87.9613 111.609 89.8877 111.605Z" fill="#444A54"/>
<path d="M138.731 111.511C140.657 111.508 142.216 109.943 142.212 108.017C142.209 106.09 140.644 104.532 138.718 104.535C136.791 104.539 135.232 106.104 135.236 108.03C135.24 109.957 136.805 111.515 138.731 111.511Z" fill="#444A54"/>
<path d="M78.8066 97.9363C83.0481 94.9848 88.9975 93.4678 97.0057 93.9889" stroke="#323854" stroke-width="3.30235" stroke-linecap="round" stroke-linejoin="round"/>
<path d="M147.38 97.8069C143.129 94.8709 137.174 93.3745 129.171 93.9266" stroke="#323854" stroke-width="3.30235" stroke-linecap="round" stroke-linejoin="round"/>
<path d="M97.0566 124.325C98.1067 127.861 100.273 130.963 103.231 133.167C106.189 135.371 109.781 136.559 113.47 136.554H114.213C117.902 136.545 121.49 135.344 124.44 133.128C127.39 130.913 129.544 127.803 130.581 124.263L97.0566 124.325Z" fill="#444A54" stroke="#323854" stroke-width="3.30235" stroke-miterlimit="10" stroke-linecap="round"/>
<path d="M89.2819 39.377L90.0146 52.7928C90.1858 58.4152 89.2275 64.0148 87.1965 69.2603C85.1655 74.5058 82.1031 79.2907 78.1903 83.3319C74.2776 87.3731 69.5941 90.5884 64.4169 92.7878C59.2397 94.9871 53.6739 96.1257 48.0489 96.1362H47.6104V88.2621" fill="#FFD371"/>
<path d="M90.0146 52.7928L89.2819 39.377L84.8496 47.1168C86.9961 86.3736 47.6104 96.1362 47.6104 96.1362H48.0489C53.6739 96.1257 59.2397 94.9871 64.4169 92.7878C69.5941 90.5884 74.2776 87.3731 78.1903 83.3319C82.1031 79.2907 85.1655 74.5058 87.1965 69.2603C89.2275 64.0148 90.1858 58.4152 90.0146 52.7928Z" fill="#F4BA5D"/>
<path d="M89.2819 39.377L90.0146 52.7928C90.1858 58.4152 89.2275 64.0148 87.1965 69.2603C85.1655 74.5058 82.1031 79.2907 78.1903 83.3319C74.2776 87.3731 69.5941 90.5884 64.4169 92.7878C59.2397 94.9871 53.6739 96.1257 48.0489 96.1362H47.6104V83.6182" stroke="#323854" stroke-width="3.30235" stroke-linecap="round" stroke-linejoin="round"/>
<path d="M158.905 94.7577L158.869 75.666C158.812 45.7384 144.169 22.4413 103.142 22.5187C89.107 22.5445 85.5983 32.7664 86.7386 45.5269C89.2154 73.7362 113.431 95.0622 141.743 94.8713L158.905 94.7577Z" fill="#FFD371"/>
<path d="M100.585 26.9199C111.127 28.0293 121.008 30.9085 130.441 36.2955C156.411 51.1303 158.867 75.6709 158.867 75.6709C158.81 45.7433 144.166 22.4462 103.139 22.5236C98.1188 22.5236 94.4501 23.8549 91.8599 26.1356C94.7443 26.3678 97.6699 26.6155 100.585 26.9199Z" fill="#FFDD99"/>
<path d="M99.6823 66.3882C93.8774 61.1302 89.4863 54.9899 87.0044 48.0137C90.6215 74.9795 114.249 95.0671 141.705 94.8761L158.882 94.7575L158.851 77.3737C138.48 83.0186 115.967 81.1714 99.6823 66.3882Z" fill="#F4BA5D"/>
<path d="M158.905 94.7577L158.869 75.666C158.812 45.7384 144.169 22.4413 103.142 22.5187C89.107 22.5445 85.5983 32.7664 86.7386 45.5269C89.2154 73.7362 113.431 95.0622 141.743 94.8713L158.905 94.7577Z" stroke="#323854" stroke-width="3.30235" stroke-linecap="round" stroke-linejoin="round"/>
<path d="M113.836 128.127C111.85 128.131 109.897 128.633 108.155 129.588C106.413 130.543 104.939 131.919 103.867 133.591C106.7 135.525 110.051 136.555 113.48 136.548H114.223C117.653 136.543 121 135.499 123.826 133.555C122.748 131.887 121.269 130.515 119.523 129.567C117.778 128.619 115.823 128.123 113.836 128.127Z" fill="#FF6161"/>
<path d="M113.836 128.127C111.85 128.131 109.897 128.633 108.155 129.588C106.413 130.543 104.939 131.919 103.867 133.591C106.7 135.525 110.051 136.555 113.48 136.548H114.223C117.653 136.543 121 135.499 123.826 133.555C122.748 131.887 121.269 130.515 119.523 129.567C117.778 128.619 115.823 128.123 113.836 128.127Z" stroke="#323854" stroke-width="3.30235" stroke-linecap="round" stroke-linejoin="round"/>
<path d="M148.696 76.7504C130.239 78.5873 109.424 69.6606 99.6768 57.3232C101.509 59.5265 132.757 75.8887 148.696 76.7504Z" fill="#F4BA5D"/>
<path d="M77.3298 113.292C75.6115 115.914 88.9396 125.846 90.6424 121.961C92.3452 118.076 79.0481 110.671 77.3298 113.292Z" fill="#FFF2EB"/>
</g>
<defs>
<clipPath id="clip0_3_12632">
<rect x="0.446777" y="0.167969" width="198.663" height="198.663" rx="99.3317" fill="white"/>
</clipPath>
</defs>
</svg>
