<svg width="199" height="199" viewBox="0 0 199 199" fill="none" xmlns="http://www.w3.org/2000/svg">
<g clip-path="url(#clip0_3_12676)">
<rect x="0.157715" y="0.167969" width="198.663" height="198.663" rx="99.3317" fill="#617AFF"/>
<path d="M129.766 133.126L142.926 133.102C144.833 133.1 146.722 132.722 148.484 131.99C150.246 131.258 151.847 130.186 153.194 128.836C154.542 127.485 155.61 125.882 156.338 124.119C157.066 122.355 157.439 120.465 157.437 118.557V118.557C157.429 114.706 155.892 111.015 153.164 108.296C150.435 105.578 146.739 104.054 142.888 104.061L129.728 104.084" fill="#FFE8D9"/>
<path d="M144.694 127.968L131.534 127.992L131.491 104.074H129.712L129.764 133.12L142.924 133.097C146.407 133.088 149.771 131.828 152.401 129.546C155.032 127.263 156.755 124.111 157.255 120.665C155.988 122.879 154.16 124.72 151.955 126.002C149.749 127.284 147.245 127.962 144.694 127.968V127.968Z" fill="#EABB9B"/>
<path d="M129.766 133.126L142.926 133.102C144.833 133.1 146.722 132.722 148.484 131.99C150.246 131.258 151.847 130.186 153.194 128.836C154.542 127.485 155.61 125.882 156.338 124.119C157.066 122.355 157.439 120.465 157.437 118.557V118.557C157.429 114.706 155.892 111.015 153.164 108.296C150.435 105.578 146.739 104.054 142.888 104.061L129.728 104.084" stroke="#323854" stroke-width="3.04497" stroke-linecap="round" stroke-linejoin="round"/>
<path d="M143.28 118.453C145.743 118.434 148.098 117.441 149.831 115.691C151.564 113.941 152.534 111.576 152.529 109.113L152.486 86.3568C152.434 58.7617 138.518 37.2804 99.5086 37.3517C63.949 37.4183 46.664 58.9425 46.6973 86.5519L46.7592 118.572C46.7592 118.572 117.469 118.653 143.28 118.453Z" fill="#FF6161"/>
<path d="M99.5077 44.5409C138.521 44.4695 152.433 65.9508 152.485 93.5459L152.514 109.389C152.514 109.299 152.514 109.213 152.514 109.118L152.471 86.3617C152.419 58.7666 138.502 37.2853 99.4934 37.3566C63.9339 37.4232 46.6489 58.9474 46.6822 86.5567V92.4183C47.2198 65.4465 64.5143 44.6075 99.5077 44.5409Z" fill="#FF8C80"/>
<path d="M143.28 118.453C145.743 118.434 148.098 117.441 149.831 115.691C151.564 113.941 152.534 111.576 152.529 109.113L152.486 86.3568C152.434 58.7617 138.518 37.2804 99.5086 37.3517C63.949 37.4183 46.664 58.9425 46.6973 86.5519L46.7592 118.572C46.7592 118.572 117.469 118.653 143.28 118.453Z" stroke="#323854" stroke-width="3.04497" stroke-linecap="round" stroke-linejoin="round"/>
<path d="M65.6869 133.249L51.1567 133.278C49.2476 133.283 47.3561 132.913 45.5904 132.187C43.8247 131.461 42.2194 130.394 40.8664 129.047C39.5133 127.7 38.439 126.1 37.705 124.337C36.9709 122.575 36.5915 120.685 36.5884 118.776V118.776C36.5821 114.924 38.1057 111.228 40.8243 108.5C43.5429 105.771 47.2338 104.234 51.0853 104.227L68.3989 104.193" fill="#FFE8D9"/>
<path d="M39.0697 115.032C39.0713 112.951 39.5225 110.895 40.3923 109.004C38.4994 111.086 37.2529 113.674 36.8048 116.452C36.3566 119.23 36.7262 122.078 37.8683 124.65C39.0105 127.222 40.876 129.406 43.2375 130.936C45.5991 132.466 48.3547 133.277 51.1687 133.269L65.6989 133.24L66.051 129.5H53.638C49.788 129.512 46.0911 127.994 43.3594 125.281C40.6277 122.568 39.0848 118.882 39.0697 115.032V115.032Z" fill="#EABB9B"/>
<path d="M65.6869 133.249L51.1567 133.278C49.2476 133.283 47.3561 132.913 45.5904 132.187C43.8247 131.461 42.2194 130.394 40.8664 129.047C39.5133 127.7 38.439 126.1 37.705 124.337C36.9709 122.575 36.5915 120.685 36.5884 118.776V118.776C36.5821 114.924 38.1057 111.228 40.8243 108.5C43.5429 105.771 47.2338 104.234 51.0853 104.227L68.3989 104.193" stroke="#323854" stroke-width="3.04497" stroke-linecap="round" stroke-linejoin="round"/>
<path d="M43.0449 113.633H43.1353C45.5042 113.629 47.7777 114.566 49.4559 116.238C51.1341 117.91 52.0796 120.18 52.0847 122.549V123.315" fill="#FFE8D9"/>
<path d="M43.0449 113.633H43.1353C45.5042 113.629 47.7777 114.566 49.4559 116.238C51.1341 117.91 52.0796 120.18 52.0847 122.549V123.315" stroke="#323854" stroke-width="3.04497" stroke-linecap="round" stroke-linejoin="round"/>
<path d="M46.9976 184.214C48.4249 211.334 70.8673 227.405 98.3434 227.353C125.82 227.301 148.214 211.177 149.523 184.019C141.059 175.427 121.276 169.408 98.234 169.465C75.1921 169.522 55.4283 175.588 46.9976 184.214Z" fill="white"/>
<path d="M98.3291 220.588C72.9845 220.636 51.9218 206.966 47.7017 183.549C47.4591 183.777 47.2259 184.024 46.9976 184.234C48.4249 211.353 70.8673 227.425 98.3434 227.373C125.82 227.32 148.214 211.196 149.523 184.039C149.299 183.81 149.047 183.563 148.819 183.358C144.684 206.79 123.655 220.54 98.3291 220.588Z" fill="#EFEFEF"/>
<path d="M46.9976 183.348C48.512 212.123 72.3242 229.175 101.477 229.12C130.631 229.064 154.392 211.956 155.781 183.141C146.8 174.024 125.81 167.638 101.361 167.699C76.913 167.759 55.9429 174.196 46.9976 183.348Z" stroke="#323854" stroke-width="3.23083" stroke-linecap="round" stroke-linejoin="round"/>
<path d="M99.8313 180.66L117.121 190.561L112.563 173.49C112.013 171.44 110.821 169.62 109.162 168.297C107.503 166.973 105.463 166.215 103.343 166.135C101.658 166.071 99.9535 166.041 98.228 166.044C96.9386 166.044 95.5303 166.106 94.1458 166.187C91.8188 166.331 89.6162 167.287 87.923 168.89C86.2297 170.493 85.1535 172.64 84.8824 174.955L82.9175 191.67L99.8313 180.66Z" fill="white" stroke="#323854" stroke-width="3.04497" stroke-linecap="round" stroke-linejoin="round"/>
<path d="M98.3443 180.665H98.1635C95.771 180.665 93.476 179.717 91.7815 178.028C90.087 176.339 89.1313 174.047 89.1238 171.654L89.0762 145.743L107.317 145.71L107.365 171.621C107.366 174.016 106.417 176.313 104.726 178.009C103.034 179.705 100.739 180.66 98.3443 180.665V180.665Z" fill="#FFE8D9"/>
<path d="M98.3443 180.665H98.1635C95.771 180.665 93.476 179.717 91.7815 178.028C90.087 176.339 89.1313 174.047 89.1238 171.654L89.0762 145.743L107.317 145.71L107.365 171.621C107.366 174.016 106.417 176.313 104.726 178.009C103.034 179.705 100.739 180.66 98.3443 180.665V180.665Z" fill="#EABB9B"/>
<path d="M98.3443 180.665H98.1635C95.771 180.665 93.476 179.717 91.7815 178.028C90.087 176.339 89.1313 174.047 89.1238 171.654L89.0762 145.743L107.317 145.71L107.365 171.621C107.366 174.016 106.417 176.313 104.726 178.009C103.034 179.705 100.739 180.66 98.3443 180.665V180.665Z" stroke="#323854" stroke-width="3.04497" stroke-linecap="round" stroke-linejoin="round"/>
<path d="M87.02 68.6672C75.7013 68.6672 65.8241 75.6944 63.0361 85.7C62.053 89.2237 61.5583 92.8657 61.5659 96.5239V104.512L55.7329 115.279V120.988C55.7757 144.896 77.3475 164.784 103.558 165.045C130.202 165.312 148.419 145.681 148.371 121.464L148.324 96.3479C148.319 92.467 147.748 88.6076 146.63 84.8912C143.714 75.1901 133.832 68.6006 122.784 68.6006L87.02 68.6672Z" fill="#FFE8D9"/>
<path d="M105.456 158.937C78.9603 158.675 57.027 139.116 55.79 115.165L55.7329 115.27V120.979C55.7757 144.887 77.3475 164.774 103.558 165.036C123.812 165.236 139.194 153.927 145.388 137.845C137.562 150.658 123.331 159.113 105.456 158.937Z" fill="#EABB9B"/>
<path d="M61.7744 92.2236C61.6272 93.6128 61.5525 95.0087 61.5508 96.4057L61.7791 95.9823L61.7744 92.2236Z" fill="#EABB9B"/>
<path d="M61.5479 96.528C61.5479 96.4852 61.5479 96.4424 61.5479 96.4043L55.7148 107.171V113.123C55.7148 113.813 55.7434 114.493 55.7767 115.174L61.5526 104.512L61.5479 96.528Z" fill="#EABB9B"/>
<path d="M87.02 68.6672C75.7013 68.6672 65.8241 75.6944 63.0361 85.7C62.053 89.2237 61.5583 92.8657 61.5659 96.5239V104.512L55.7329 115.279V120.988C55.7757 144.896 77.3475 164.784 103.558 165.045C130.202 165.312 148.419 145.681 148.371 121.464L148.324 96.3479C148.319 92.467 147.748 88.6076 146.63 84.8912C143.714 75.1901 133.832 68.6006 122.784 68.6006L87.02 68.6672Z" stroke="#323854" stroke-width="3.04497" stroke-linecap="round" stroke-linejoin="round"/>
<path d="M61.5899 95.7197L61.6137 108.452C61.6137 116.916 58.859 119.304 55.795 119.314L55.6475 100.002" fill="#FF6161"/>
<path d="M61.5899 95.7197L61.6137 108.452C61.6137 116.916 58.859 119.304 55.795 119.314L55.6475 100.002" stroke="#323854" stroke-width="3.04497" stroke-linecap="round" stroke-linejoin="round"/>
<path d="M86.8554 119.752C88.6317 119.752 90.0717 118.312 90.0717 116.536C90.0717 114.759 88.6317 113.319 86.8554 113.319C85.0791 113.319 83.6392 114.759 83.6392 116.536C83.6392 118.312 85.0791 119.752 86.8554 119.752Z" fill="#444A54"/>
<path d="M132.133 119.41C133.91 119.406 135.347 117.964 135.343 116.187C135.34 114.411 133.897 112.974 132.121 112.977C130.345 112.981 128.908 114.423 128.911 116.2C128.914 117.976 130.357 119.413 132.133 119.41Z" fill="#444A54"/>
<path d="M76.8848 106.896C80.7957 104.175 86.2814 102.776 93.6654 103.256" stroke="#323854" stroke-width="3.04497" stroke-linecap="round" stroke-linejoin="round"/>
<path d="M140.133 106.777C136.213 104.07 130.723 102.69 123.343 103.199" stroke="#323854" stroke-width="3.04497" stroke-linecap="round" stroke-linejoin="round"/>
<path d="M93.7119 131.227C94.6801 134.488 96.6773 137.348 99.405 139.38C102.133 141.413 105.445 142.508 108.846 142.503H109.532C112.933 142.495 116.241 141.387 118.961 139.345C121.681 137.302 123.667 134.434 124.623 131.17L93.7119 131.227Z" fill="#444A54" stroke="#323854" stroke-width="3.04497" stroke-miterlimit="10"/>
<path d="M99.9958 180.756C99.834 180.661 100.081 227.382 100.081 227.382Z" fill="#FFD371"/>
<path d="M99.9958 180.756C99.834 180.661 100.081 227.382 100.081 227.382" stroke="#323854" stroke-width="3.04497" stroke-linecap="round" stroke-linejoin="round"/>
<path d="M100.588 68.6436L95.626 73.6297" stroke="#323854" stroke-width="3.04497" stroke-linecap="round" stroke-linejoin="round"/>
<path d="M95.4456 68.6533L90.4785 73.6395" stroke="#323854" stroke-width="3.04497" stroke-linecap="round" stroke-linejoin="round"/>
<path d="M109.174 134.733C107.343 134.737 105.541 135.2 103.935 136.08C102.329 136.961 100.97 138.23 99.9819 139.772C102.594 141.555 105.684 142.505 108.846 142.498H109.531C112.693 142.493 115.78 141.531 118.385 139.739C117.391 138.2 116.027 136.936 114.418 136.061C112.809 135.187 111.005 134.73 109.174 134.733Z" fill="#FF6161"/>
<path d="M109.174 134.733C107.343 134.737 105.541 135.2 103.935 136.08C102.329 136.961 100.97 138.23 99.9819 139.772C102.594 141.555 105.684 142.505 108.846 142.498H109.531C112.693 142.493 115.78 141.531 118.385 139.739C117.391 138.2 116.027 136.936 114.418 136.061C112.809 135.187 111.005 134.73 109.174 134.733Z" stroke="#323854" stroke-width="3.04497" stroke-linecap="round" stroke-linejoin="round"/>
<path d="M74.2915 121.055C72.7072 123.472 84.9965 132.631 86.5666 129.048C88.1367 125.466 75.8759 118.638 74.2915 121.055Z" fill="#FFF2EB"/>
<path d="M123.338 76.3703C127.144 72.8828 143.953 83.3309 142.369 92.2184C140.784 101.106 116.677 84.7772 123.338 77.1601" fill="#FFF2EB"/>
</g>
<defs>
<clipPath id="clip0_3_12676">
<rect x="0.157715" y="0.167969" width="198.663" height="198.663" rx="99.3317" fill="white"/>
</clipPath>
</defs>
</svg>
