<svg width="200" height="200" viewBox="0 0 200 200" fill="none" xmlns="http://www.w3.org/2000/svg">
<g clip-path="url(#clip0_3_13045)">
<rect x="0.868164" y="0.791992" width="198.663" height="198.663" rx="99.3317" fill="#82ACFF"/>
<circle cx="115.431" cy="216.011" r="86.7497" fill="#23355F"/>
<path d="M190.011 153.051C187.693 147.257 182.892 144.111 180.409 142.787C182.064 141.794 184.63 139.89 186.7 136.662C191.335 129.543 189.68 121.845 189.183 119.941C187.445 112.987 182.727 109.097 180.574 107.276C174.697 102.475 168.406 101.482 165.84 101.233C172.793 90.8034 172.711 77.4764 165.84 68.1227C157.48 56.7823 143.408 56.8651 142.083 56.8651C141.835 54.6301 140.511 46.6836 133.889 41.5514C125.859 35.3432 113.277 35.6743 103.261 43.1242C102.102 41.6342 99.9502 39.1509 96.3908 37.6609C91.0103 35.3432 86.0438 36.7504 83.1466 37.4954C80.8288 38.1576 72.634 41.1375 67.6674 48.753C62.2869 57.0306 63.8597 65.8049 63.8597 65.8049C63.8597 65.8049 41.7584 56.9478 36.4607 83.7674C31.163 110.587 50.3671 112.905 50.3671 112.905C50.3671 112.905 20.7332 117.706 20.1537 137.655C19.4915 157.604 36.3779 163.398 36.3779 163.398C36.3779 163.398 18.8293 175.898 32.2391 189.638C39.5234 172.504 49.6222 155.121 69.3229 143.863C72.4684 142.042 75.2 140.8 76.9384 140.055C77.3522 142.042 80.5805 158.68 85.1332 182.023C86.8715 180.781 87.8648 179.954 87.8648 179.954C87.8648 179.954 85.3816 196.674 111.787 193.694C137.862 190.715 130.246 162.819 130.081 162.074C135.461 168.779 141.504 173.828 147.547 177.47C147.216 160.584 146.967 146.512 146.636 138.648C146.636 138.151 146.636 137.655 146.553 137.158C151.437 138.814 156.073 140.8 160.46 143.118C173.125 149.989 182.395 159.508 189.431 169.772C191.418 164.474 192.246 158.514 190.011 153.051Z" fill="black"/>
<path d="M141.505 82.0296C141.339 80.9535 141.008 79.1324 140.429 76.8975C140.015 75.4903 139.601 73.9175 138.939 72.1792C138.442 70.8548 137.863 69.5304 137.201 68.1232C132.896 68.2887 126.274 67.7921 119.818 63.9016C113.941 60.425 110.712 55.7895 109.139 53.1406C109.057 56.7 108.477 64.2327 105.001 73.007C102.435 79.4635 98.2958 86.5823 91.6737 93.4527C90.1009 95.1083 88.3626 96.681 86.4587 98.2538C86.2104 98.4193 86.0449 98.5849 85.7965 98.8332C84.9688 99.4954 84.141 100.158 83.2305 100.82C84.3066 103.22 85.7138 105.621 87.2865 107.856C87.8659 108.684 88.5282 109.511 89.1904 110.339L89.2731 111.084V111.25C89.2731 111.25 89.2731 111.25 89.2731 111.332C89.9353 115.223 90.5148 119.113 91.0942 123.004C91.6737 126.812 92.3359 130.619 92.9153 134.427C92.9153 134.593 92.9153 134.675 92.9981 134.841C93.412 135.42 93.9086 135.917 94.3225 136.496C94.4881 136.331 94.7364 136.414 94.9019 136.579L126.357 175.153L125.033 136.414C125.033 136.165 125.198 136 125.446 136C125.446 134.841 125.364 133.682 125.281 132.523C125.198 130.205 125.115 127.888 125.033 125.653C125.033 125.404 125.033 125.073 125.033 124.825C125.115 124.825 125.198 124.742 125.364 124.742C125.612 124.659 125.86 124.577 126.109 124.411C130.247 122.673 133.393 119.776 135.793 116.216C137.283 113.981 138.442 111.581 139.353 108.932C142.664 100.075 142.829 89.645 141.505 82.0296Z" fill="#FFC800"/>
<path d="M129.169 98.253C129.086 98.253 129.003 98.2529 128.92 98.1702C128.755 98.0046 128.755 97.7563 128.837 97.5907L133.142 92.6242L123.374 83.7671C123.209 83.6015 123.209 83.3532 123.374 83.1876C123.54 83.0221 123.788 83.0221 123.954 83.1876L134.052 92.293C134.218 92.4586 134.218 92.7069 134.052 92.8725L129.5 98.1702C129.417 98.1702 129.251 98.253 129.169 98.253Z" fill="black"/>
<path d="M111.624 88.8173C109.803 88.8173 108.395 88.1551 108.064 87.9067C107.899 87.824 107.816 87.5756 107.899 87.3273C107.981 87.1618 108.23 87.079 108.478 87.1618C108.892 87.4101 111.21 88.569 113.776 87.5756C116.59 86.4995 117.418 83.7679 117.501 83.5196C117.584 83.2713 117.832 83.1885 117.997 83.2713C118.246 83.3541 118.329 83.6024 118.246 83.7679C118.08 84.3474 117.087 87.1618 113.941 88.4034C113.196 88.7345 112.369 88.8173 111.624 88.8173Z" fill="black"/>
<path d="M133.226 84.3476C129.998 84.3476 127.763 81.6987 127.763 81.616C127.598 81.4504 127.68 81.2021 127.846 81.0365C128.011 80.871 128.26 80.9538 128.425 81.1193C128.591 81.2849 132.233 85.672 136.868 82.1954C137.034 82.0298 137.282 82.1126 137.448 82.2782C137.613 82.4437 137.531 82.6921 137.365 82.8576C135.875 84.0165 134.468 84.3476 133.226 84.3476Z" fill="black"/>
<path d="M109.642 78.8528C112.353 77.7524 114.286 76.2079 113.96 75.403C113.633 74.5982 111.17 74.8378 108.459 75.9382C105.748 77.0386 103.815 78.5831 104.142 79.388C104.468 80.1928 106.931 79.9532 109.642 78.8528Z" fill="black"/>
<path d="M136.491 72.4918C136.533 71.6242 134.198 70.8061 131.276 70.6645C128.354 70.5229 125.951 71.1114 125.909 71.9789C125.867 72.8465 128.202 73.6646 131.124 73.8062C134.046 73.9478 136.449 73.3594 136.491 72.4918Z" fill="black"/>
<path d="M125.196 108.186C117.747 108.186 116.339 102.475 116.339 102.475C116.257 102.226 116.422 102.061 116.671 101.978C116.919 101.895 117.084 102.061 117.167 102.309C117.25 102.558 118.574 107.855 126.024 107.359C126.273 107.359 126.438 107.524 126.438 107.772C126.438 108.021 126.273 108.186 126.024 108.186C125.776 108.186 125.445 108.186 125.196 108.186Z" fill="black"/>
<path d="M119.9 126.314C119.238 126.314 118.658 126.314 117.996 126.231C112.781 125.734 108.891 123.582 106.573 121.761C106.407 121.596 106.325 121.347 106.49 121.182C106.656 121.016 106.904 120.933 107.07 121.099C109.305 122.837 113.029 124.907 118.079 125.403C121.142 125.652 124.37 125.238 127.267 124.162C127.515 124.079 127.681 124.162 127.764 124.41C127.846 124.658 127.764 124.824 127.515 124.907C125.115 125.817 122.466 126.314 119.9 126.314Z" fill="black"/>
<path d="M81.4917 94.197C80.995 94.197 80.4984 93.8659 80.3328 93.452C75.2835 81.0355 77.9323 67.1291 87.0377 58.0237C99.7853 45.3589 117.913 49.9944 118.741 50.1599C124.37 51.6499 129.585 54.7126 133.889 58.9342C134.386 59.4309 134.386 60.1759 133.889 60.6725C133.392 61.1692 132.648 61.1692 132.151 60.6725C128.178 56.6993 123.294 53.8849 118.162 52.5605C117.417 52.3949 100.613 48.0905 88.8588 59.762C80.4984 68.1224 78.0978 80.9528 82.7333 92.4587C82.9817 93.1209 82.6506 93.7831 82.0711 94.1142C81.8228 94.1142 81.6572 94.197 81.4917 94.197Z" fill="#FF0090"/>
<path d="M84.2239 112.491C90.2584 112.491 95.1503 107.599 95.1503 101.564C95.1503 95.5297 90.2584 90.6377 84.2239 90.6377C78.1893 90.6377 73.2974 95.5297 73.2974 101.564C73.2974 107.599 78.1893 112.491 84.2239 112.491Z" fill="#FFC800"/>
<path d="M89.0251 106.034C88.9423 106.034 88.9423 106.034 88.8595 106.034C87.4523 105.537 86.6246 104.792 86.459 103.799C86.2107 102.475 87.2868 101.15 87.8662 100.571L80.8302 94.9419C80.6647 94.7764 80.5819 94.528 80.7475 94.3625C80.913 94.1969 81.1614 94.1141 81.3269 94.2797L88.694 100.157C88.7768 100.24 88.8595 100.322 88.8595 100.488C88.8595 100.571 88.7768 100.736 88.694 100.819C88.1973 101.233 87.0385 102.557 87.204 103.633C87.2868 104.296 87.949 104.875 89.1079 105.206C89.3562 105.289 89.439 105.537 89.3562 105.703C89.3562 105.951 89.1907 106.034 89.0251 106.034Z" fill="black"/>
<path d="M143.902 115.637C141.253 115.885 138.604 116.051 135.956 116.299C137.446 114.064 138.604 111.663 139.515 109.015C141.005 111.167 143.902 115.637 143.902 115.637Z" fill="#892BFF"/>
<path d="M89.2705 111.415C89.6844 111.084 89.9327 110.587 89.9327 110.008C90.0155 108.849 89.105 107.939 87.9461 107.856C86.7872 107.773 85.8767 108.684 85.7939 109.842C85.7939 110.587 86.125 111.25 86.7045 111.581C84.8006 115.554 81.2412 123.666 81.2412 123.666C81.2412 123.666 96.886 123.004 96.4721 122.673C96.3065 122.424 91.5882 115.057 89.2705 111.415Z" fill="#892BFF"/>
<path d="M148.705 287.894C148.705 286.9 148.705 285.907 148.705 284.914C148.622 277.712 148.539 269.517 148.457 260.66C148.457 259.501 148.457 258.425 148.457 257.266C148.374 249.486 148.291 241.291 148.208 232.93C148.208 231.689 148.208 230.447 148.125 229.205C148.043 220.1 147.877 210.912 147.794 201.972C147.794 200.647 147.794 199.323 147.712 197.999C147.629 189.804 147.463 181.857 147.38 174.573C147.38 173.166 147.298 171.841 147.298 170.517C147.132 161.246 146.967 153.051 146.718 146.594C146.636 145.27 146.636 143.946 146.636 142.787C146.553 141.131 146.553 139.724 146.47 138.4C146.47 137.903 146.47 137.406 146.387 136.91C139.682 134.675 132.646 133.185 125.362 132.522C125.445 133.681 125.445 134.84 125.528 135.999C125.279 135.999 125.114 136.165 125.114 136.413L126.438 175.152L94.983 136.579C94.8175 136.413 94.5691 136.413 94.4036 136.496C93.9897 135.999 93.493 135.42 93.0792 134.84C93.0792 134.675 92.9964 134.592 92.9964 134.426C90.927 134.923 88.8576 135.42 86.8709 136.082C84.1393 136.91 81.4905 137.82 78.8416 138.896C78.1794 139.145 77.5172 139.476 76.855 139.807C81.1594 161.908 89.3542 204.29 96.6386 241.705C96.8869 242.946 97.1352 244.105 97.3008 245.264C100.115 259.833 102.764 273.573 104.999 284.831C105.165 285.493 105.247 286.155 105.413 286.818C105.496 287.232 105.578 287.645 105.661 288.059C105.827 288.887 105.992 289.715 106.158 290.543C106.655 293.109 107.151 295.509 107.565 297.744C115.18 297.827 122.796 297.91 130.329 297.992C136.537 298.075 142.662 298.075 148.87 298.158C148.788 295.261 148.788 291.701 148.705 287.894Z" fill="#FF0090"/>
<path d="M86.2923 146.678C87.3895 146.678 88.2789 145.788 88.2789 144.691C88.2789 143.594 87.3895 142.705 86.2923 142.705C85.1951 142.705 84.3057 143.594 84.3057 144.691C84.3057 145.788 85.1951 146.678 86.2923 146.678Z" fill="#1F0D60"/>
<path d="M129.169 144.692C129.169 145.768 128.259 146.678 127.183 146.678C126.852 146.678 126.52 146.596 126.272 146.513C126.107 146.43 126.024 143.036 126.189 142.953C126.52 142.788 126.852 142.705 127.183 142.705C128.259 142.705 129.169 143.533 129.169 144.692Z" fill="#1F0D60"/>
<path d="M146.804 146.595C145.976 146.347 145.396 145.602 145.396 144.691C145.396 143.864 145.893 143.119 146.721 142.788C146.721 144.029 146.721 145.271 146.804 146.595Z" fill="#1F0D60"/>
<path d="M96.1419 159.426C97.2391 159.426 98.1285 158.536 98.1285 157.439C98.1285 156.342 97.2391 155.453 96.1419 155.453C95.0447 155.453 94.1553 156.342 94.1553 157.439C94.1553 158.536 95.0447 159.426 96.1419 159.426Z" fill="#1F0D60"/>
<path d="M137.036 159.426C138.133 159.426 139.023 158.536 139.023 157.439C139.023 156.342 138.133 155.453 137.036 155.453C135.939 155.453 135.049 156.342 135.049 157.439C135.049 158.536 135.939 159.426 137.036 159.426Z" fill="#1F0D60"/>
<path d="M86.2913 174.574C87.3885 174.574 88.278 173.685 88.278 172.588C88.278 171.491 87.3885 170.601 86.2913 170.601C85.1942 170.601 84.3047 171.491 84.3047 172.588C84.3047 173.685 85.1942 174.574 86.2913 174.574Z" fill="#1F0D60"/>
<path d="M106.492 174.574C107.589 174.574 108.478 173.685 108.478 172.588C108.478 171.491 107.589 170.601 106.492 170.601C105.394 170.601 104.505 171.491 104.505 172.588C104.505 173.685 105.394 174.574 106.492 174.574Z" fill="#1F0D60"/>
<path d="M129.171 172.587C129.171 173.663 128.343 174.574 127.267 174.574H127.184C127.102 174.574 126.936 174.574 126.853 174.574C126.688 174.574 126.605 170.6 126.688 170.6C126.853 170.6 126.936 170.518 127.102 170.518H127.184C128.26 170.518 129.171 171.428 129.171 172.587Z" fill="#1F0D60"/>
<path d="M147.383 174.574C146.224 174.574 145.396 173.664 145.396 172.588C145.396 171.512 146.224 170.601 147.383 170.601C147.3 171.843 147.383 173.25 147.383 174.574Z" fill="#1F0D60"/>
<path d="M96.6385 189.308C97.7357 189.308 98.6251 188.419 98.6251 187.322C98.6251 186.224 97.7357 185.335 96.6385 185.335C95.5413 185.335 94.6519 186.224 94.6519 187.322C94.6519 188.419 95.5413 189.308 96.6385 189.308Z" fill="#1F0D60"/>
<path d="M116.836 189.308C117.933 189.308 118.822 188.419 118.822 187.322C118.822 186.224 117.933 185.335 116.836 185.335C115.739 185.335 114.849 186.224 114.849 187.322C114.849 188.419 115.739 189.308 116.836 189.308Z" fill="#1F0D60"/>
<path d="M137.53 189.308C138.627 189.308 139.517 188.419 139.517 187.322C139.517 186.224 138.627 185.335 137.53 185.335C136.433 185.335 135.543 186.224 135.543 187.322C135.543 188.419 136.433 189.308 137.53 189.308Z" fill="#1F0D60"/>
<path d="M106.492 202.056C107.589 202.056 108.478 201.166 108.478 200.069C108.478 198.972 107.589 198.083 106.492 198.083C105.394 198.083 104.505 198.972 104.505 200.069C104.505 201.166 105.394 202.056 106.492 202.056Z" fill="#1F0D60"/>
<path d="M127.183 202.056C128.28 202.056 129.17 201.166 129.17 200.069C129.17 198.972 128.28 198.083 127.183 198.083C126.086 198.083 125.196 198.972 125.196 200.069C125.196 201.166 126.086 202.056 127.183 202.056Z" fill="#1F0D60"/>
<path d="M147.797 201.973C147.631 201.973 147.549 202.056 147.383 202.056C146.307 202.056 145.396 201.145 145.396 200.069C145.396 198.993 146.307 198.083 147.383 198.083C147.549 198.083 147.631 198.083 147.797 198.083C147.797 199.324 147.797 200.649 147.797 201.973Z" fill="#1F0D60"/>
<path d="M127.349 176.477C127.349 176.643 127.266 176.809 127.101 176.891C127.018 176.891 127.018 176.891 126.935 176.891C126.852 176.891 126.687 176.809 126.604 176.726L94.3212 137.159C94.1556 136.993 94.2384 136.745 94.404 136.579C94.5695 136.414 94.8179 136.496 94.9834 136.662L126.438 175.236V174.408L126.273 170.683L125.445 145.685L125.362 143.781L125.114 136.496C125.114 136.248 125.28 136.083 125.528 136.083C125.776 136.083 125.942 136.248 125.942 136.496L126.19 143.036L126.273 146.595L127.101 170.6L127.266 174.656L127.349 176.477Z" fill="#1F0D60"/>
<path d="M108.89 305.193L63.2803 301.882C60.1348 301.634 56.9893 301.468 53.8438 301.22C54.4232 295.343 55.0026 289.466 55.5821 283.589C55.5821 283.423 55.5821 283.34 55.5821 283.175C55.5821 283.009 55.5821 282.927 55.6648 282.761C57.072 268.523 58.3965 254.286 59.8037 240.048C51.1121 259.666 35.8813 275.063 17.7532 282.761C17.4221 282.927 17.091 283.009 16.7599 283.175C16.4288 283.34 16.0977 283.423 15.7666 283.589C10.9656 285.493 5.99899 286.817 0.866854 287.562C0.701301 287.562 0.618525 287.562 0.452972 287.645C0.287419 287.645 0.204643 287.645 0.0390899 287.728C-0.954227 287.893 -1.94755 287.976 -2.94087 288.059C-2.94087 288.059 -40.3558 291.701 -69.9897 257.018C-68.2514 252.216 -66.5131 247.415 -64.6921 242.614C-61.7121 235.578 -58.8149 228.542 -55.835 221.506C-55.835 221.506 -55.835 221.506 -55.9178 221.424C-25.7044 245.18 -8.65244 246.174 1.61184 241.869C17.7532 234.999 22.3887 212.567 32.1563 189.555C39.4407 172.42 49.5394 155.037 69.2402 143.779C72.3857 141.958 75.1173 140.717 76.8556 139.972C77.2695 141.958 80.4978 158.596 85.0505 181.939C88.3615 198.826 92.3348 219.271 96.3908 240.297C96.6392 241.456 100.199 259.749 104.668 282.844C104.668 283.009 104.751 283.092 104.751 283.258C104.751 283.423 104.834 283.506 104.834 283.672C105.331 286.403 105.91 289.218 106.49 292.032C107.152 296.336 108.062 300.723 108.89 305.193Z" stroke="#00DC99" stroke-width="1.68457" stroke-miterlimit="10" stroke-linecap="round" stroke-linejoin="round"/>
<path d="M252.093 316.782C240.504 322.99 228.916 329.199 217.327 335.407C217.327 335.407 217.244 335.407 217.244 335.49C214.513 328.785 211.781 322.163 209.049 315.458C208.967 315.292 208.967 315.21 208.884 315.044C208.801 314.878 208.801 314.796 208.718 314.63C204.497 304.283 200.275 294.019 196.054 283.754C195.971 283.589 195.971 283.506 195.888 283.341C195.805 283.175 195.805 283.092 195.722 282.927C190.011 269.02 184.382 255.114 178.671 241.29C179.664 255.197 180.574 269.103 181.568 282.927C181.568 283.092 181.568 283.175 181.568 283.341C181.568 283.506 181.568 283.589 181.568 283.754C182.23 292.612 182.809 301.551 183.389 310.408C181.568 310.574 179.664 310.657 177.76 310.822C168.075 311.485 158.39 312.147 148.705 312.892C148.705 312.064 148.705 306.766 148.623 298.489C148.623 296.336 148.623 293.936 148.54 291.37C148.54 289.052 148.54 286.486 148.457 283.92V283.506C148.457 283.341 148.457 283.258 148.457 283.092C148.209 254.369 147.795 210.58 147.215 177.552C146.884 160.666 146.636 146.594 146.305 138.73C146.305 138.234 146.305 137.737 146.222 137.24C151.106 138.896 155.741 140.882 160.129 143.2C172.793 150.071 182.064 159.59 189.1 169.854C196.881 181.112 202.096 193.197 206.483 203.627C211.781 216.126 217.079 228.874 222.376 241.787C222.79 242.78 223.204 243.856 223.618 244.85C224.032 245.843 224.446 246.919 224.86 247.912C226.929 252.962 228.916 258.011 230.985 263.143C231.151 263.557 231.316 263.971 231.482 264.385L231.979 265.626C234.296 271.421 236.614 277.215 238.932 283.175C239.015 283.341 239.015 283.423 239.097 283.589C239.18 283.754 239.18 283.837 239.263 284.003C243.236 294.102 247.209 304.449 251.183 314.878C251.265 315.044 251.265 315.127 251.348 315.292C251.431 315.458 251.431 315.541 251.514 315.706C251.762 315.872 251.928 316.286 252.093 316.782Z" stroke="#00DC99" stroke-width="1.68457" stroke-miterlimit="10" stroke-linecap="round" stroke-linejoin="round"/>
</g>
<defs>
<clipPath id="clip0_3_13045">
<rect x="0.868164" y="0.791992" width="198.663" height="198.663" rx="99.3317" fill="white"/>
</clipPath>
</defs>
</svg>
