<svg width="199" height="199" viewBox="0 0 199 199" fill="none" xmlns="http://www.w3.org/2000/svg">
<g clip-path="url(#clip0_3_13176)">
<rect x="0.290039" y="0.187988" width="198.663" height="198.663" rx="99.3317" fill="#E7FF57"/>
<path d="M256.315 275.089C255.984 274.675 255.652 274.178 255.321 273.764C248.285 264.659 239.925 254.726 230.074 243.137C228.005 240.654 225.936 238.336 223.949 236.018C223.452 235.439 222.956 234.942 222.459 234.363C199.116 208.537 179.746 195.292 173.124 190.988C165.674 186.104 158.638 182.048 152.099 178.654C151.602 178.406 151.106 178.158 150.609 177.909C145.063 175.095 139.931 172.694 135.461 170.791L137.365 156.47C137.365 156.47 131.322 155.56 122.631 154.318C118.575 153.739 113.939 153.076 109.138 152.414C108.559 152.331 107.897 152.249 107.317 152.166C95.3145 150.428 82.2359 148.606 73.0477 147.448C66.26 146.537 61.4589 146.04 60.7967 146.123C60.2173 149.269 59.6379 152.331 59.0584 155.477C52.2708 155.311 45.9798 155.394 40.4337 155.642C39.8543 155.642 39.3576 155.725 38.7782 155.725C25.2029 156.47 15.6836 158.126 12.4553 158.705C-2.60998 161.52 -20.4897 168.473 -37.3761 176.419C-37.8727 176.668 -38.3694 176.916 -38.866 177.164C-57.408 185.939 -74.7082 195.789 -85.9658 202.411C-86.4625 202.742 -86.9591 202.991 -87.4558 203.322C-89.0285 204.232 -90.5185 205.143 -91.7602 205.888C-105.336 214 -114.938 220.374 -125.699 228.982C-132.817 234.694 -140.184 241.233 -145.482 246.531C-145.896 246.945 -146.31 247.276 -146.641 247.69C-148.131 249.18 -149.455 250.587 -150.449 251.829C-174.619 279.807 -166.176 329.142 -162.948 344.952C-160.299 358.941 -157.567 374.172 -154.753 391.555C-154.587 392.3 -154.505 393.045 -154.339 393.873C-151.69 410.097 -148.876 428.142 -145.896 448.588C-126.361 445.443 -106.825 442.38 -87.2902 439.234C-88.3663 430.626 -89.4424 422.596 -90.4357 415.064C-90.5185 414.484 -90.6013 413.988 -90.6841 413.408C-93.9952 388.327 -96.644 369.123 -98.3823 356.624C-98.7134 354.306 -99.0445 352.071 -99.2928 349.836C-102.521 326.245 -104.011 313 -99.3756 302.322C-99.1273 301.743 -98.8789 301.163 -98.6306 300.667C-97.8856 299.094 -96.9751 297.604 -95.899 296.114C-91.5946 290.071 -84.062 285.105 -70.2383 277.075C-69.7417 276.744 -69.245 276.496 -68.7483 276.165C-66.1823 274.675 -63.3679 273.019 -60.3052 271.281C-48.3026 264.328 -37.9555 259.113 -30.5056 255.554C-41.0182 298.68 -51.5308 341.724 -62.0434 384.768C-61.5468 385.181 -61.0501 385.513 -60.719 385.761L-60.3052 386.092C-59.8085 386.506 -59.229 386.837 -58.7324 387.251C-58.0702 387.748 -57.408 388.161 -56.7458 388.658C-56.1663 389.072 -55.5869 389.486 -55.0074 389.9L-54.7591 390.065C-53.7658 390.727 -52.7725 391.39 -51.7792 392.052C-51.1998 392.466 -50.5375 392.88 -49.9581 393.211C-46.7298 395.28 -43.336 397.267 -39.8594 399.171C-39.0316 399.667 -38.2038 400.081 -37.3761 400.495C-35.8861 401.323 -34.3134 402.151 -32.3267 403.061C-31.4162 403.475 -30.5884 403.889 -29.6779 404.303C-27.8568 405.213 -26.1185 405.958 -24.463 406.621C-23.5524 407.034 -22.7247 407.366 -21.8141 407.779C-20.0758 408.524 -18.3375 409.187 -16.5164 409.849C-15.6059 410.18 -14.6953 410.511 -13.7848 410.842C-13.2054 411.09 -12.626 411.256 -12.0465 411.504C-10.8876 411.918 -9.72874 412.332 -8.48709 412.663C-7.7421 412.912 -6.91437 413.16 -6.08661 413.408C-5.25884 413.657 -4.43108 413.905 -3.60331 414.153C-2.85833 414.402 -2.11333 414.567 -1.36834 414.815C-0.375025 415.064 0.618292 415.395 1.52883 415.643C2.19104 415.809 2.93603 415.974 3.59824 416.14C4.34323 416.305 5.08823 416.554 5.83322 416.719C8.15095 417.299 10.5514 417.795 13.2003 418.292C13.9453 418.458 14.6903 418.54 15.5181 418.706C18.8291 419.285 22.2229 419.782 25.534 420.196C26.9412 420.361 28.5139 420.527 30.1694 420.693C33.5633 421.024 36.8743 421.272 40.1026 421.355C40.8476 421.355 41.5098 421.438 42.2548 421.438C43.2482 421.438 44.2415 421.52 45.2348 421.52C46.8903 421.52 48.3803 421.52 49.953 421.52C52.188 421.52 54.0919 421.438 55.913 421.355C56.4924 421.355 56.989 421.272 57.5685 421.272C58.3962 421.189 59.3068 421.189 60.1345 421.106C64.5217 420.858 68.9916 420.361 73.296 419.782C74.1238 419.699 74.9515 419.534 75.7793 419.451C78.097 419.12 80.4147 418.706 82.898 418.209H83.0636C83.643 418.126 84.2225 417.961 84.8019 417.878C85.4641 417.713 86.0436 417.63 86.7058 417.464C87.6163 417.299 88.444 417.05 89.3546 416.885C89.6029 416.802 89.8513 416.802 90.0996 416.719C90.8446 416.554 91.5896 416.305 92.4173 416.14C92.6657 416.057 92.914 415.974 93.0795 415.974C93.659 415.809 94.2384 415.643 94.8179 415.56C102.599 413.491 110.297 410.842 117.747 407.779L118.409 407.531C119.237 407.2 119.982 406.869 120.727 406.538C120.975 406.455 121.141 406.372 121.224 406.289C122.217 405.876 123.624 405.296 125.28 404.468C135.378 374.338 145.56 344.207 155.659 314.159C156.072 312.835 156.569 311.428 156.983 310.103C160.211 300.584 163.439 290.982 166.668 281.38C172.876 287.505 181.816 296.528 192.328 307.868C192.494 308.034 192.66 308.199 192.825 308.365C193.239 308.779 193.57 309.193 193.984 309.607C195.557 311.262 196.964 312.835 198.288 314.325C198.702 314.822 199.199 315.318 199.613 315.732C203.669 320.202 206.814 323.679 209.132 326.576C211.45 329.39 212.94 331.625 213.85 333.529C215.92 338.082 217.244 343.131 216.168 352.981C216.085 353.561 216.085 354.058 216.002 354.637C214.926 363.494 212.029 375.993 206.4 394.784C203.503 404.386 199.778 416.14 194.977 429.632C194.812 430.212 194.563 430.791 194.315 431.453C192.163 437.496 189.762 443.87 187.114 450.575C207.477 449.913 227.922 449.25 248.368 448.588C251.348 439.4 255.239 427.397 259.626 413.16C259.874 412.498 260.04 411.753 260.288 411.09C261.861 405.958 263.516 400.495 265.172 394.866C274.36 364.073 279.575 346.277 280.816 336.426C280.899 335.764 280.982 335.185 280.982 334.605C281.065 333.695 281.065 332.867 281.065 332.122C280.402 311.676 272.042 295.617 256.315 275.089Z" fill="#290060"/>
<path d="M-17.5087 316.228C-27.8557 341.972 -32.6568 377.152 -28.5179 404.799C-28.9318 404.634 -29.3457 404.385 -29.7596 404.22C-29.8424 404.137 -30.0079 404.137 -30.0907 404.054C-30.8357 399.253 -31.3323 394.204 -31.5807 388.906C-32.7395 364.57 -28.2696 338.495 -19.0815 315.566C-1.3673 271.529 -5.83721 255.305 -12.1282 232.79C-12.7904 230.306 -13.5354 227.823 -14.1976 225.091C-19.0814 206.467 -28.4352 189.994 -38.7822 176.998C-38.2856 176.75 -37.7889 176.502 -37.2923 176.253C-26.6141 189.912 -17.3431 206.881 -12.6249 224.678C-11.8799 227.326 -11.2177 229.893 -10.5554 232.376C-4.18166 255.222 0.371023 271.695 -17.5087 316.228Z" fill="#FFB800"/>
<path d="M33.8129 386.091C29.8396 400.329 25.8663 411.255 21.8931 419.616C21.3136 419.533 20.7342 419.45 20.1548 419.367C24.1281 411.09 28.1841 400.163 32.2401 385.595C51.7754 315.152 45.8155 250.255 41.4283 202.907C39.69 183.703 38.2 167.644 38.8622 155.642C39.3589 155.642 39.9383 155.559 40.5178 155.559C39.8555 167.396 41.3456 183.372 43.0839 202.742C47.471 250.255 53.4309 315.318 33.8129 386.091Z" fill="#FFB800"/>
<path d="M117.251 243.468V243.717C115.016 288.747 105.911 321.527 98.6262 347.849C90.8452 375.911 85.2164 396.108 91.7558 416.14C91.2591 416.223 90.6797 416.388 90.183 416.554C83.6437 395.943 89.438 374.834 97.0535 347.518C104.338 321.278 113.443 288.582 115.678 243.717V243.468C116.754 221.947 118.824 179.317 107.483 152.166C108.145 152.249 108.725 152.332 109.304 152.414C120.314 179.979 118.244 222.029 117.251 243.468Z" fill="#FFB800"/>
<path d="M152.762 261.679C154.086 276.413 155.576 292.389 156.901 309.855C156.487 311.179 155.99 312.587 155.493 313.911C154.169 294.873 152.596 277.572 151.106 261.762C147.381 221.036 144.733 192.809 150.692 177.827C151.189 178.075 151.686 178.323 152.182 178.572C146.471 193.14 149.037 221.119 152.762 261.679Z" fill="#FFB800"/>
<path d="M154.419 103.908C154.75 108.212 155.329 117.483 151.935 125.098C146.224 137.846 130.744 141.819 124.453 143.475L122.798 154.319C118.742 153.739 114.106 153.077 109.305 152.415C108.726 152.332 108.064 152.249 107.484 152.166C95.4817 150.428 82.403 148.607 73.2148 147.448L74.6221 138.425C76.0293 137.018 77.3537 135.528 78.5953 134.121C79.837 132.714 80.9958 131.307 82.0719 129.982C82.3203 129.651 82.5686 129.32 82.8169 128.989C86.9558 123.691 90.0185 118.807 92.1707 114.917C92.3362 114.586 92.5017 114.255 92.6673 114.006C93.5778 112.351 94.4884 110.695 95.3162 109.04C95.3989 108.874 95.4817 108.626 95.6473 108.378C97.0545 105.398 98.2961 102.335 99.2067 98.61C99.2894 98.2789 99.3722 97.865 99.455 97.5339C102.021 85.6969 99.5378 75.1843 97.1372 68.3966C98.8755 66.8239 100.779 65.2511 102.683 63.5956C106.905 60.0362 111.54 56.3941 116.507 52.8347C119.487 50.6825 122.384 48.6958 125.198 46.792C127.682 48.9442 129.917 51.2619 131.903 53.7452C131.903 53.7452 131.903 53.7452 131.986 53.828C135.794 58.4635 138.939 63.5128 141.754 68.2311C145.727 71.0455 149.7 73.9427 153.674 77.0054C156.653 79.2403 159.551 81.4753 162.365 83.6275C158.971 86.1936 155.577 88.7596 152.266 91.3257C152.266 91.3257 152.266 91.3257 152.266 91.2429C153.011 94.2229 154.087 98.61 154.419 103.908Z" fill="#FF1EAD"/>
<path d="M124.454 143.889C119.57 143.061 114.852 141.654 110.299 139.668C104.587 137.184 99.3725 133.873 94.6542 129.817C94.4887 129.652 94.4887 129.403 94.5715 129.238C94.6542 129.072 94.9853 129.072 95.1509 129.155C99.7863 133.211 105.001 136.439 110.63 138.84C115.017 140.744 119.735 142.151 124.454 142.979C124.702 142.979 124.868 143.227 124.785 143.475C124.868 143.724 124.702 143.889 124.454 143.889Z" fill="black"/>
<path d="M123.625 45.5504C123.377 45.3021 123.046 45.1366 122.797 44.8882C122.715 44.8055 122.549 44.7227 122.466 44.6399C122.135 44.3916 121.721 44.1432 121.39 43.8949L121.307 43.8121C120.894 43.5638 120.48 43.2327 120.066 42.9844L119.983 42.9016C119.569 42.6533 119.155 42.4049 118.741 42.1566C118.659 42.0738 118.493 42.0738 118.41 41.9911C118.327 41.9911 118.327 41.9083 118.245 41.9083C117.996 41.7427 117.665 41.5772 117.417 41.4944C117.417 41.4944 117.334 41.4944 117.334 41.4116C117.251 41.4116 117.169 41.3288 117.169 41.3288C117.169 41.3288 117.086 41.3288 117.003 41.2461C116.755 41.0805 116.424 40.9977 116.093 40.8322H116.01C116.01 40.8322 116.01 40.8322 115.927 40.8322C115.679 40.6666 115.43 40.5839 115.099 40.5011C114.768 40.3355 114.354 40.17 114.023 40.0044C114.023 40.0044 114.023 40.0044 113.94 40.0044C113.94 40.0044 113.858 40.0044 113.858 39.9216C113.775 39.8389 113.526 39.8389 113.361 39.7561C112.285 39.3422 110.05 38.5972 107.484 38.0178C107.318 38.0178 107.153 37.935 106.987 37.935C106.739 37.8522 106.49 37.8522 106.159 37.7695C105.828 37.6867 105.497 37.6867 105.249 37.6039C104.173 37.4384 103.179 37.2728 102.103 37.1072C75.6976 33.7962 62.8672 48.1165 62.8672 48.1165C61.7084 49.3582 59.7217 51.8414 57.9007 55.7319C56.5762 58.3808 55.4174 61.7746 54.7552 65.8307C53.0996 62.2713 51.0302 59.9535 49.2919 60.2019C49.1264 60.2019 48.4642 60.2846 48.2159 60.7813C47.4709 62.1057 50.5336 65.1684 53.5135 67.7345C47.3881 69.3073 43.332 71.7906 43.332 74.2739C43.332 74.8533 43.5804 75.5155 44.1598 75.9294C45.9809 77.171 49.9541 74.4394 53.0996 71.8733C52.6858 72.5355 52.1891 73.1978 51.7752 73.9427C50.9475 75.2672 50.2025 76.7571 49.4575 78.4127C48.0503 81.5582 46.9742 85.2831 46.6431 89.4219C45.4842 105.232 55.9968 121.125 73.2971 129.982C73.711 132.88 74.2076 135.694 74.6215 138.591C76.0287 137.184 77.3531 135.694 78.5948 134.287C79.8364 132.88 80.9953 131.472 82.0714 130.148C82.3197 129.817 82.5681 129.486 82.8164 129.155C86.9552 123.857 90.0179 118.973 92.1701 115.083C92.3357 114.752 92.5012 114.42 92.6668 114.172C93.5773 112.517 94.4879 110.861 95.3156 109.206C95.3984 109.04 95.4812 108.792 95.6467 108.543C97.0539 105.563 98.2956 102.501 99.2061 98.7757C99.2889 98.4446 99.3717 98.0307 99.4544 97.6996C102.021 85.8626 99.5372 75.3499 97.1367 68.5623C98.875 66.9895 100.779 65.4168 102.683 63.7613C106.904 60.2019 111.54 56.5597 116.506 53.0003C119.486 50.8481 122.384 48.8615 125.198 46.9576C124.619 46.3782 124.122 45.9643 123.625 45.5504Z" fill="black"/>
<path d="M135.88 79.9857C137.48 79.9857 138.777 78.6886 138.777 77.0886C138.777 75.4885 137.48 74.1914 135.88 74.1914C134.28 74.1914 132.982 75.4885 132.982 77.0886C132.982 78.6886 134.28 79.9857 135.88 79.9857Z" fill="black"/>
<path d="M127.978 69.9109C133.264 68.8358 137.291 66.6932 136.972 65.1253C136.653 63.5573 132.109 63.1579 126.823 64.233C121.537 65.3081 117.51 67.4507 117.829 69.0186C118.148 70.5865 122.692 70.986 127.978 69.9109Z" fill="black"/>
<path d="M152.352 99.7694L127.602 102.418C130.416 96.7067 144.405 94.7201 151.027 94.1406C151.524 95.9617 151.938 97.8656 152.352 99.7694Z" fill="black"/>
<path d="M146.141 114.752C139.85 114.752 135.629 107.551 135.546 107.468C135.463 107.302 135.463 107.054 135.712 106.888C135.877 106.806 136.126 106.806 136.291 107.054C136.539 107.468 142.334 117.318 150.363 112.765C150.529 112.683 150.777 112.683 150.942 112.931C151.025 113.097 151.025 113.345 150.777 113.51C149.121 114.421 147.549 114.752 146.141 114.752Z" fill="black"/>
<path d="M84.5556 129.072C94.8874 129.072 103.263 120.697 103.263 110.365C103.263 100.033 94.8874 91.6572 84.5556 91.6572C74.2237 91.6572 65.8481 100.033 65.8481 110.365C65.8481 120.697 74.2237 129.072 84.5556 129.072Z" fill="#FF1EAD"/>
<path d="M94.9025 117.235C94.8197 117.235 94.7369 117.235 94.7369 117.152C94.6541 117.07 92.2536 115.828 92.0053 113.345C91.8397 111.358 93.0814 109.454 95.068 108.544L77.7677 96.3755C77.6022 96.2099 77.5194 95.9616 77.685 95.7961C77.8505 95.6305 78.0989 95.5477 78.2644 95.7133L96.2269 108.378C96.3925 108.461 96.3924 108.626 96.3924 108.792C96.3924 108.958 96.2269 109.04 96.0613 109.123C94.0747 109.62 92.6675 111.441 92.833 113.262C92.9986 115.331 94.9852 116.407 95.068 116.407C95.2336 116.49 95.3164 116.739 95.2336 116.987C95.2336 117.152 95.068 117.235 94.9025 117.235Z" fill="black"/>
</g>
<defs>
<clipPath id="clip0_3_13176">
<rect x="0.290039" y="0.187988" width="198.663" height="198.663" rx="99.3317" fill="white"/>
</clipPath>
</defs>
</svg>
