<svg width="199" height="200" viewBox="0 0 199 200" fill="none" xmlns="http://www.w3.org/2000/svg">
<g clip-path="url(#clip0_3_14345)">
<rect x="0.157715" y="0.772461" width="198.663" height="198.663" rx="99.3317" fill="#FDA656"/>
<path d="M177.3 169.862V291.496C177.3 293.421 176.953 295.384 176.241 297.173C175.801 298.269 175.225 299.316 174.526 300.244C174.092 300.833 173.609 301.377 173.077 301.879C171.715 303.179 170.068 304.133 168.309 304.677C166.551 305.222 164.681 305.352 162.879 305.123L39.9519 289.613C38.0077 289.366 36.0883 288.691 34.3547 287.688C32.6148 286.685 31.0608 285.36 29.7543 283.787C28.4479 282.221 27.3892 280.413 26.6647 278.462C25.9341 276.512 25.5379 274.407 25.5379 272.32L24.9868 165.77C30.0453 162.234 35.3329 159.541 40.862 157.491C49.5117 154.29 58.7433 152.662 68.5817 151.832C78.7792 150.972 89.6207 150.972 101.137 150.972C112.802 150.972 124.51 151.981 135.463 153.987C145.06 155.733 154.075 158.247 161.969 161.516C167.752 163.9 172.928 166.68 177.3 169.862Z" fill="#9090DD"/>
<path d="M58.907 177.49C60.045 175.84 61.5502 173.752 62.4926 172.806C51.2425 168.627 44.537 163.179 44.8342 157.792C44.8651 157.185 44.989 156.591 45.1933 156.009C53.8429 152.808 63.0746 151.179 72.913 150.35L74.6776 153.551C74.337 154.746 74.1823 156.058 74.1823 157.47C74.1823 171.673 90.0698 195.096 90.4909 195.721C76.3524 194.021 64.2584 185.422 59.5064 181.615C58.2538 180.612 57.9956 178.81 58.907 177.49Z" fill="#6060B4"/>
<path d="M163.059 165.553C162.632 172.382 150.955 177.534 133.984 180.072C134.328 180.71 135.743 182.771 137.006 184.584C138.118 186.177 137.435 188.385 135.62 189.076C127.502 192.169 106.815 199.087 88.042 197.396C87.4229 197.341 86.7975 197.279 86.1846 197.205C106.159 184.735 126.801 163.399 135.463 153.987C145.06 155.733 154.075 158.247 161.969 161.516C162.762 162.829 163.14 164.179 163.059 165.553Z" fill="#6060B4"/>
<path d="M128.032 162.238C127.295 171.897 113.495 178.719 97.2083 177.476C80.9214 176.233 68.316 167.397 69.0522 157.739C69.789 148.081 83.5894 141.259 99.8763 142.502C116.163 143.744 128.769 152.581 128.032 162.238Z" fill="url(#paint0_linear_3_14345)"/>
<path d="M125.766 166.206C121.191 173.547 107.693 177.531 92.6024 175.344C75.8294 172.907 63.1001 163.728 62.9992 154.355C62.3175 155.5 61.8612 156.729 61.6445 158.028C60.5808 164.478 65.7613 171.136 74.4066 175.793C76.7742 180.748 81.0644 187.552 87.6516 190.332C87.6516 190.332 101.305 186.526 110.399 180.809C118.76 178.841 124.687 174.468 125.655 168.6C125.785 167.805 125.822 167.001 125.766 166.206Z" fill="white" stroke="#871C20" stroke-width="0.990652" stroke-miterlimit="10" stroke-linecap="round" stroke-linejoin="round"/>
<path d="M56.9292 177.323C56.9292 177.323 60.1365 172.4 61.6905 170.846C51.2639 166.97 45.0414 161.918 45.32 156.921C45.6296 151.213 54.3597 146.371 67.9317 143.808L70.5569 148.569L72.9902 152.984C72.6744 154.098 72.5258 155.312 72.5258 156.624C72.5258 166.778 81.2869 182.016 85.4724 188.721C86.7231 190.715 87.5589 191.953 87.6518 192.09C70.7055 190.053 56.9292 177.323 56.9292 177.323Z" fill="#9090DD" stroke="#871C20" stroke-width="0.990652" stroke-miterlimit="10" stroke-linecap="round" stroke-linejoin="round"/>
<path d="M66.2004 170.714L67.2951 169.619L65.8438 169.081" stroke="#871C20" stroke-width="0.990652" stroke-linecap="round" stroke-linejoin="round"/>
<path d="M63.0236 168.036L62.7691 167.942C51.9524 163.917 48.2746 159.583 48.4109 157.094C48.5576 154.401 56.3206 148.752 66.8104 147.516" stroke="#871C20" stroke-width="0.990652" stroke-linecap="round" stroke-linejoin="round" stroke-dasharray="4.81 4.81"/>
<path d="M68.3062 147.371C68.8157 147.332 69.3314 147.305 69.8522 147.289L70.5995 148.644" stroke="#871C20" stroke-width="0.990652" stroke-linecap="round" stroke-linejoin="round"/>
<path d="M72.1606 151.477L72.9909 152.982C72.6752 154.097 72.5266 155.31 72.5266 156.623C72.5266 165.582 79.3472 178.499 83.8274 186.021" stroke="#871C20" stroke-width="0.990652" stroke-linecap="round" stroke-linejoin="round" stroke-dasharray="5.17 5.17"/>
<path d="M84.6596 187.404C84.945 187.872 85.2168 188.312 85.4719 188.721C84.9753 188.609 84.4744 188.484 83.9717 188.348" stroke="#871C20" stroke-width="0.990652" stroke-linecap="round" stroke-linejoin="round"/>
<path d="M80.6636 187.311C74.1501 185.007 67.639 181.265 63.7173 178.647" stroke="#871C20" stroke-width="0.990652" stroke-linecap="round" stroke-linejoin="round" stroke-dasharray="5.55 5.55"/>
<path d="M62.291 177.665C61.8075 177.32 61.392 177.009 61.0527 176.74C61.3475 176.315 61.6503 175.887 61.9462 175.476" stroke="#871C20" stroke-width="0.990652" stroke-linecap="round" stroke-linejoin="round"/>
<path d="M63.2334 173.774C63.4835 173.465 63.7046 173.21 63.8835 173.031L65.4469 171.468" stroke="#871C20" stroke-width="0.990652" stroke-linecap="round" stroke-linejoin="round" stroke-dasharray="3.41 3.41"/>
<path d="M158.943 162.742C158.553 169.07 147.724 173.85 131.991 176.202C132.598 177.329 136.796 183.23 136.796 183.23C136.796 183.23 111.646 194.269 89.3931 192.263C88.8173 192.214 88.2415 192.152 87.6719 192.09C89.1888 191.143 90.7119 190.14 92.2289 189.093C110.698 176.363 128.833 157.046 135.037 150.185C136.486 148.582 137.285 147.659 137.285 147.659C150.671 151.51 159.296 156.903 158.943 162.742Z" fill="#9090DD" stroke="#871C20" stroke-width="0.990652" stroke-miterlimit="10" stroke-linecap="round" stroke-linejoin="round"/>
<path d="M128.712 173.562L127.181 173.793L127.915 175.156" stroke="#871C20" stroke-width="0.990652" stroke-linecap="round" stroke-linejoin="round"/>
<path d="M128.901 176.994L129.265 177.67C129.469 178.052 129.945 178.79 130.534 179.663" stroke="#871C20" stroke-width="0.990652" stroke-linecap="round" stroke-linejoin="round" stroke-dasharray="3.34 3.34"/>
<path d="M131.122 180.527C131.409 180.945 131.707 181.376 132.003 181.8C131.578 181.96 131.089 182.129 130.542 182.306" stroke="#871C20" stroke-width="0.990652" stroke-linecap="round" stroke-linejoin="round"/>
<path d="M127.784 183.123C120.05 185.262 106.438 187.975 95.2144 188.89" stroke="#871C20" stroke-width="0.990652" stroke-linecap="round" stroke-linejoin="round" stroke-dasharray="4.61 4.61"/>
<path d="M93.7726 188.999C93.2518 189.035 92.7367 189.067 92.229 189.093C92.6519 188.802 93.0754 188.506 93.4977 188.208" stroke="#871C20" stroke-width="0.990652" stroke-linecap="round" stroke-linejoin="round"/>
<path d="M96.1118 186.32C111.404 175.028 125.9 160.096 132.904 152.519" stroke="#871C20" stroke-width="0.990652" stroke-linecap="round" stroke-linejoin="round" stroke-dasharray="5.16 5.16"/>
<path d="M134 151.329C134.376 150.917 134.723 150.535 135.04 150.186C135.545 150.306 136.044 150.434 136.539 150.568" stroke="#871C20" stroke-width="0.990652" stroke-linecap="round" stroke-linejoin="round"/>
<path d="M139.57 151.492C149.133 154.725 156.004 160.122 155.853 162.557C155.637 166.042 148.033 170.674 131.533 173.138L130.28 173.327" stroke="#871C20" stroke-width="0.990652" stroke-linecap="round" stroke-linejoin="round" stroke-dasharray="5.07 5.07"/>
<path d="M45.9619 99.6408C45.2443 106.44 49.9245 114.367 56.0604 115.011C63.1033 115.751 67.9686 109.867 68.3506 103.741C68.776 96.9202 64.5069 89.151 58.3711 88.5034C52.2358 87.8557 46.6795 92.8424 45.9619 99.6408Z" fill="#FDE0CB"/>
<path d="M55.7676 114.975C49.6968 114.156 45.2451 106.44 45.9627 99.6408C46.6803 92.8418 52.2366 87.8557 58.3724 88.5034C61.784 88.8637 64.442 90.8952 66.006 93.7966C66.006 93.7966 67.2927 96.2756 67.7149 98.1362" stroke="#871C20" stroke-width="0.990652" stroke-miterlimit="10" stroke-linecap="round" stroke-linejoin="round"/>
<path d="M52.6694 94.5493C53.7313 93.9785 54.9257 93.7296 56.1627 93.8912C59.2418 94.2949 61.568 96.2719 62.0187 99.8035" stroke="#871C20" stroke-width="0.990652" stroke-miterlimit="10" stroke-linecap="round" stroke-linejoin="round"/>
<path d="M153.463 121.405C153.184 150.235 127.262 165.341 97.0489 162.522C68.4259 159.851 47.8116 142.017 50.3019 115.961C52.6887 90.988 78.2445 67.3696 105.652 69.8239C133.697 72.3352 153.753 91.4133 153.463 121.405Z" fill="url(#paint1_linear_3_14345)"/>
<path d="M153.463 121.405C153.184 150.235 127.262 165.341 97.0489 162.522C68.4259 159.851 47.8116 142.017 50.3019 115.961C52.6887 90.988 78.2445 67.3696 105.652 69.8239C133.697 72.3352 153.753 91.4133 153.463 121.405Z" stroke="#871C20" stroke-width="0.990652" stroke-miterlimit="10" stroke-linecap="round" stroke-linejoin="round"/>
<path d="M77.8978 99.8257C75.9914 102.411 75.7629 105.614 77.2836 108.442" stroke="#871C20" stroke-width="9.90652" stroke-miterlimit="10" stroke-linecap="round" stroke-linejoin="round"/>
<path d="M105.041 101.761C103.134 104.346 102.906 107.549 104.426 110.378" stroke="#871C20" stroke-width="9.90652" stroke-miterlimit="10" stroke-linecap="round" stroke-linejoin="round"/>
<path d="M101.161 124.979C99.3989 125.954 96.3985 126.824 94.7342 126.744C86.1291 126.331 85.367 121.403 85.367 121.403C83.0129 124.912 78.5989 125.927 76.1099 125.394C73.9782 124.938 72.2464 123.995 70.9152 123.14C70.1227 122.633 69.9493 121.561 70.5189 120.806C73.9119 116.311 79.9549 113.506 86.6542 113.915C93.3906 114.33 99.0683 117.871 101.879 122.787C102.331 123.58 101.96 124.537 101.161 124.979Z" fill="#871C20" stroke="#871C20" stroke-width="0.990652" stroke-miterlimit="10" stroke-linecap="round" stroke-linejoin="round"/>
<path d="M70.4578 127.141C72.8459 125.809 74.6978 123.679 75.5238 120.98C77.3391 115.051 73.5171 108.624 66.9868 106.625" fill="#FCDBC6"/>
<path d="M70.4578 127.141C72.8459 125.809 74.6978 123.679 75.5238 120.98C77.3391 115.051 73.5171 108.624 66.9868 106.625" stroke="#871C20" stroke-width="0.990652" stroke-miterlimit="10" stroke-linecap="round" stroke-linejoin="round"/>
<path d="M89.5346 113.306L79.9178 116.481C77.0938 117.378 74.0767 115.816 73.1795 112.992C72.2824 110.168 73.8445 107.151 76.6685 106.254L86.2852 103.079" fill="#FCDAC5"/>
<path d="M89.5346 113.306L79.9178 116.481C77.0938 117.378 74.0767 115.816 73.1795 112.992C72.2824 110.168 73.8445 107.151 76.6685 106.254L86.2852 103.079" stroke="#871C20" stroke-width="0.990652" stroke-miterlimit="10" stroke-linecap="round" stroke-linejoin="round"/>
<path d="M149.339 124.913C155.921 124.913 161.257 119.972 161.257 113.878C161.257 107.784 155.921 102.843 149.339 102.843C142.758 102.843 137.422 107.784 137.422 113.878C137.422 119.972 142.758 124.913 149.339 124.913Z" fill="white" stroke="#871C20" stroke-width="0.990652" stroke-miterlimit="10" stroke-linecap="round" stroke-linejoin="round"/>
<path d="M152.657 93.5719C151.618 84.0356 83.6595 56.1908 76.98 70.1151C77.0326 70.0055 74.1987 77.3388 74.1987 77.3388C77.2667 75.1489 86.6896 68.8081 91.4138 70.0371C96.7484 71.4252 102.941 80.7275 105.694 81.515C111.304 83.1044 116.851 84.8901 122.323 86.8664L129.491 99.8346C129.491 99.8346 139.906 103.82 147.258 102.956C147.258 102.956 149.496 102.903 149.974 101.795C150.26 100.933 152.306 94.8919 152.562 94.1316L152.551 94.1303C152.621 93.9539 152.673 93.762 152.657 93.5719Z" fill="#7272C4" stroke="#871C20" stroke-width="0.990652" stroke-miterlimit="10" stroke-linecap="round" stroke-linejoin="round"/>
<path d="M163.952 81.6761C162.142 66.937 147.757 55.7216 134.998 48.2781C121.518 40.4142 104.175 34.3359 88.0626 36.6701C78.5022 38.0552 72.8375 45.3383 74.6597 54.9087C74.5724 54.4505 76.2367 64.5 76.9791 70.1152C93.2679 60.5956 138.226 80.2285 151.802 96.378C162.29 93.1546 164.402 87.7048 163.952 81.6761Z" fill="#FDBF56" stroke="#871C20" stroke-width="0.990652" stroke-miterlimit="10"/>
<path d="M103.7 52.5175C106.207 56.8591 105.326 62.0612 101.732 64.136C98.1385 66.2108 93.1933 64.3732 90.6863 60.031C88.1794 55.6895 89.0604 50.4873 92.654 48.4125C96.2476 46.3377 101.193 48.176 103.7 52.5175Z" fill="#9090DD" stroke="#871C20" stroke-width="0.990652" stroke-miterlimit="10" stroke-linecap="round" stroke-linejoin="round"/>
<path d="M95.8117 70.8596C96.5212 72.8478 93.9065 75.5981 89.9711 77.0023C86.0357 78.4072 82.27 77.9341 81.5605 75.9466C80.8509 73.9591 83.4656 71.2089 87.401 69.804C91.3364 68.3991 95.1021 68.8721 95.8117 70.8596Z" fill="#871C20" stroke="#871C20" stroke-width="0.990652" stroke-miterlimit="10" stroke-linecap="round" stroke-linejoin="round"/>
<path d="M99.4546 77.6864C101.334 75.3141 101.516 72.3287 99.8612 71.0182C98.2067 69.7078 95.3423 70.5686 93.4633 72.9409C91.5843 75.3132 91.4022 78.2986 93.0567 79.6091C94.7111 80.9195 97.5756 80.0587 99.4546 77.6864Z" fill="#871C20" stroke="#871C20" stroke-width="0.990652" stroke-miterlimit="10" stroke-linecap="round" stroke-linejoin="round"/>
<path d="M162.945 114.83C161.946 121.922 154.372 128.675 147.069 127.644C138.687 126.46 134.621 119.156 135.828 112.84C137.172 105.805 144.226 99.0994 151.529 100.128C158.831 101.156 163.943 107.738 162.945 114.83Z" fill="#F9CAB6"/>
<path d="M147.419 127.687C154.693 128.524 161.945 121.922 162.943 114.83C163.942 107.738 158.831 101.156 151.527 100.127C147.466 99.556 143.831 100.886 141.231 103.398C141.231 103.398 139.069 105.559 138.076 107.33" stroke="#871C20" stroke-width="0.990652" stroke-miterlimit="10" stroke-linecap="round" stroke-linejoin="round"/>
<path d="M159.413 115.822C160.189 111.042 157.156 106.733 152.641 106.198C148.955 105.762 145.719 107.128 144.243 110.586C143.348 112.683 143.463 115.094 144.646 117.044C145.448 118.364 146.85 120.563 149.202 121.1" stroke="#871C20" stroke-width="0.990652" stroke-miterlimit="10" stroke-linecap="round" stroke-linejoin="round"/>
<path d="M146.302 119.323C146.302 119.323 145.02 118.093 144.6 117.438C143.37 115.518 143.215 113.031 144.11 110.933C144.742 109.451 145.742 108.262 146.912 107.331C146.912 107.331 150.197 112.666 146.302 119.323Z" fill="#871C20" stroke="#871C20" stroke-width="0.990652" stroke-miterlimit="10" stroke-linecap="round" stroke-linejoin="round"/>
<path d="M101.415 129.688C99.5212 127.516 98.3745 124.675 98.3745 121.567C98.3745 114.738 103.911 109.201 110.74 109.201C113.18 109.201 115.454 109.908 117.37 111.127" fill="#FAD0BC"/>
<path d="M101.415 129.688C99.5212 127.516 98.3745 124.675 98.3745 121.567C98.3745 114.738 103.911 109.201 110.74 109.201C113.18 109.201 115.454 109.908 117.37 111.127" stroke="#871C20" stroke-width="0.990652" stroke-miterlimit="10" stroke-linecap="round" stroke-linejoin="round"/>
<path d="M90.2458 71.1131C79.2614 74.3965 75.617 77.4316 72.2147 79.733C46.5401 73.4033 45.0108 59.7577 49.4564 55.2379C55.6479 48.9435 63.3936 53.0826 70.0372 56.3889C77.9679 60.3397 84.3948 65.6273 90.2458 71.1131Z" fill="url(#paint2_linear_3_14345)" stroke="#871C20" stroke-width="0.990652" stroke-miterlimit="10"/>
<path d="M118.214 77.3757C124.592 83.7604 127.872 91.9834 129.49 99.835C123.69 97.128 114.254 94.5523 106.057 86.2872C95.1454 75.2841 70.1847 48.0233 49.4565 55.2377C65.359 40.5203 109.397 68.5496 118.214 77.3757Z" fill="url(#paint3_linear_3_14345)"/>
<path d="M49.4565 55.2375C65.5057 40.4093 109.397 68.5488 118.214 77.3749C124.592 83.7596 127.872 91.9827 129.49 99.8342C123.69 97.1272 114.254 94.5516 106.057 86.2864C99.6993 79.8744 88.57 67.9426 76.2884 60.5288" stroke="#871C20" stroke-width="0.990652" stroke-miterlimit="10" stroke-linecap="round" stroke-linejoin="round"/>
<path d="M109.682 118.363C107.498 119.876 104.836 119.814 103.736 118.226C102.636 116.638 103.514 114.124 105.697 112.611C107.88 111.099 110.542 111.161 111.642 112.749C112.743 114.337 111.865 116.851 109.682 118.363Z" fill="#F6B7A4"/>
<path d="M70.5651 114.217C69.702 115.307 67.7783 115.222 66.2682 114.026C64.7587 112.829 64.2349 110.977 65.098 109.886C65.9611 108.797 67.8848 108.882 69.3949 110.078C70.9044 111.275 71.4282 113.128 70.5651 114.217Z" fill="#F6B7A4"/>
<path d="M74.3203 94.2815C76.2614 89.9356 82.4882 90.1059 84.1884 94.552" stroke="#871C20" stroke-width="0.990652" stroke-miterlimit="10" stroke-linecap="round" stroke-linejoin="round"/>
<path d="M99.5518 95.555C101.493 91.2091 107.72 91.3794 109.42 95.8249" stroke="#871C20" stroke-width="0.990652" stroke-miterlimit="10" stroke-linecap="round" stroke-linejoin="round"/>
</g>
<defs>
<linearGradient id="paint0_linear_3_14345" x1="115.337" y1="169.79" x2="25.5215" y2="131.759" gradientUnits="userSpaceOnUse">
<stop stop-color="#F2A290"/>
<stop offset="0.1701" stop-color="#F6B9A6"/>
<stop offset="0.3921" stop-color="#FACFBB"/>
<stop offset="0.6021" stop-color="#FCDDC8"/>
<stop offset="0.7858" stop-color="#FDE2CD"/>
</linearGradient>
<linearGradient id="paint1_linear_3_14345" x1="134.68" y1="178.942" x2="60.5284" y2="42.1147" gradientUnits="userSpaceOnUse">
<stop stop-color="#F2A290"/>
<stop offset="0.1701" stop-color="#F6B9A6"/>
<stop offset="0.3921" stop-color="#FACFBB"/>
<stop offset="0.6021" stop-color="#FCDDC8"/>
<stop offset="0.7858" stop-color="#FDE2CD"/>
</linearGradient>
<linearGradient id="paint2_linear_3_14345" x1="84.8756" y1="79.6708" x2="49.7937" y2="54.987" gradientUnits="userSpaceOnUse">
<stop offset="0.0564" stop-color="#6060B4"/>
<stop offset="0.2223" stop-color="#7777C8"/>
<stop offset="0.3981" stop-color="#8A8AD7"/>
<stop offset="0.5241" stop-color="#9090DD"/>
<stop offset="1" stop-color="#9090DD"/>
</linearGradient>
<linearGradient id="paint3_linear_3_14345" x1="131.265" y1="99.2922" x2="56.1811" y2="46.4628" gradientUnits="userSpaceOnUse">
<stop offset="0.0564" stop-color="#6060B4"/>
<stop offset="0.2283" stop-color="#7777C8"/>
<stop offset="0.4106" stop-color="#8A8AD7"/>
<stop offset="0.5411" stop-color="#9090DD"/>
<stop offset="1" stop-color="#9090DD"/>
</linearGradient>
<clipPath id="clip0_3_14345">
<rect x="0.157715" y="0.772461" width="198.663" height="198.663" rx="99.3317" fill="white"/>
</clipPath>
</defs>
</svg>
