<svg width="199" height="200" viewBox="0 0 199 200" fill="none" xmlns="http://www.w3.org/2000/svg">
<g clip-path="url(#clip0_3_12444)">
<rect x="0.157715" y="0.395996" width="198.663" height="198.663" rx="99.3317" fill="#3562FF"/>
<path d="M83.9006 75.6885C82.8209 73.2998 79.76 73.9488 78.4636 75.6137C78.2937 75.7979 78.1782 75.9973 78.0083 76.1815C76.125 74.5527 72.529 75.2256 72.7118 78.2901C74.2446 99.0591 52.5756 103.012 39.4977 90.8294C32.3517 84.1912 26.8451 76.3319 18.9957 70.3079C5.03944 59.5595 -15.0422 51.1509 -33.0119 55.0975C-46.278 57.9862 -58.4539 69.8146 -56.3729 84.1313C-54.4919 96.8853 -42.6054 103.983 -31.5337 108.997C-43.5401 122.496 -39.1743 143.827 -23.4615 153.561C-5.79741 164.479 14.5845 158.659 29.6531 146.772C30.6825 154.072 35.7954 160.43 43.615 162.853C54.828 166.342 84.0009 163.449 91.4762 155.345C110.141 134.962 94.6998 99.9812 83.9006 75.6885Z" fill="#FE4E4E"/>
<path d="M215.638 269.92C215.313 269.648 215.042 269.392 214.807 269.206C214.733 269.067 214.605 268.912 214.44 268.688C212.974 266.795 211.216 265.104 209.682 263.248C206.613 259.536 203.715 255.643 201.024 251.637C199.661 249.599 198.42 247.54 197.109 245.518C197.035 245.38 196.944 245.294 196.907 245.225C196.774 244.894 196.55 244.478 196.268 243.87C194.148 239.511 192.028 235.152 190.239 230.66C188.754 226.898 187.423 223.008 186.252 219.166C186.497 219.705 185.012 214.198 184.927 213.707C184.416 211.343 184.028 208.958 183.64 206.572C183.125 203.45 181.951 193.614 180.85 189.734C160.511 203.312 143.543 226.57 126.129 243.758C133.15 266.052 144.303 286.965 159.664 304.89C176.59 324.563 196.682 338.144 218.516 351.723C220.525 352.964 222.518 354.259 224.458 355.539C236.082 338.478 247.472 321.232 260.428 305.152C245.022 293.964 229.088 282.21 215.638 269.92Z" fill="#FFF8E6"/>
<path d="M165.683 300.985C165.653 287.811 164.571 274.666 165.44 261.589C165.46 260.547 165.549 259.467 165.568 258.424C164.985 244.382 165.351 229.289 175.352 219.45C176.153 210.314 177.023 201.14 177.664 191.956C172.626 176.504 162.825 162.635 149.946 153.076C147.105 156 143.72 158.41 140.116 159.996C128.492 165.148 115.498 164.758 103.351 161.712C94.0188 159.346 84.2902 154.995 76.9835 148.35C53.5822 159.948 36.4571 182.83 36.5083 211.157C36.5528 234.823 29.0206 297.258 27.3296 304.901C73.244 311.437 119.503 313.301 165.84 314.315C165.738 309.974 165.684 305.471 165.683 300.985Z" fill="#FFF8E6"/>
<path d="M163.044 194.835C162.146 193.79 160.696 195.288 161.556 196.262C168.587 204.341 167.591 215.834 159.415 222.567C158.374 223.424 159.822 224.935 160.795 224.115C169.793 216.693 170.757 203.715 163.044 194.835Z" fill="#23355F"/>
<path d="M59.8654 223.492C60.972 215.889 66.5637 205.621 71.6648 195.258C73.1486 181.828 74.1419 168.304 76.2373 154.946C73.7172 151.042 71.0071 147.609 70.803 147.722C55.9441 152.341 41.2344 160.715 31.7107 166.994C2.93515 185.944 -19.8434 213.588 -33.0206 246.102C-45.962 277.984 -49.367 313.538 -43.7818 347.768C-36.9106 345.197 -30.1521 342.413 -23.3033 339.717C-11.0795 334.867 1.61662 331.399 13.8475 326.728C13.8627 326.674 13.8404 326.549 13.8556 326.495C11.7468 270.33 20.6326 265.501 32.8744 247.529C40.3403 236.725 49.4355 229.724 59.8654 223.492Z" fill="#FFF8E6"/>
<path d="M63.7764 203.339C52.5435 215.852 42.5845 229.35 33.7939 243.8C33.1257 244.945 34.8753 246.078 35.5434 244.932C44.1826 230.612 54.0957 217.276 65.1771 204.892C66.0789 203.937 64.6782 202.383 63.7764 203.339Z" fill="#23355F"/>
<path d="M116.28 57.3336C115.468 54.9306 114.205 52.9251 112.668 51.3065C112.189 51.8116 111.751 52.3848 111.326 52.9042C112.636 54.2895 113.699 55.9542 114.355 57.8551C114.652 59.1425 116.699 58.596 116.28 57.3336Z" fill="#23355F"/>
<path d="M114.059 167.273C129.335 168.343 141.871 162.638 150.48 153.366C141.21 145.42 123.351 140.298 107.905 141.217C95.7836 141.943 84.0126 145.35 73.6648 150.914C81.8382 161.902 101.928 166.474 114.059 167.273Z" fill="#F7ACA9"/>
<path d="M129.581 144.49C128.891 138.496 128.255 132.515 127.564 126.521C134.135 120.477 137.157 110.909 134.507 101.65L125.912 71.2582C124.529 66.4097 121.854 62.3696 118.354 59.3235C112.739 66.0931 106.553 72.4165 99.9451 78.1601C93.706 84.4689 86.7245 90.1106 79.3626 95.0096C81.4209 100.565 82.8739 106.478 84.3522 111.178C88.2789 123.921 91.2015 136.796 91.7936 150.08C94.4948 158.25 101.052 164.511 110.372 164.444C120.041 164.355 130.773 155.209 129.581 144.49Z" fill="#F7ACA9"/>
<path d="M81.5111 93.822C81.4504 93.1733 105.825 83.6305 118.012 60.4866C112.247 54.5214 103.144 52.266 94.5986 54.7023L86.4476 56.9562C73.549 60.589 66.1037 74.0143 69.8202 86.9087L71.0076 90.9631C74.7764 91.3357 78.2823 92.2708 81.5111 93.822Z" fill="#FE4E4E"/>
<path d="M84.5413 94.3753C67.0031 89.7078 63.3285 92.1744 62.9123 99.0217C62.4961 105.869 65.7951 108.778 79.2646 111.249C92.6798 113.706 84.5413 94.3753 84.5413 94.3753Z" fill="#F7ACA9"/>
<path d="M83.5728 103.359C80.1581 100.052 75.6017 98.2126 70.7846 98.056C69.3945 97.9999 69.5055 100.054 70.8406 100.097C75.1347 100.239 79.0854 101.931 82.1283 104.867C83.1196 105.783 84.5641 104.276 83.5728 103.359Z" fill="#23355F"/>
<path d="M121.981 82.357C120.928 81.5514 119.515 83.0195 120.554 83.8792C123.42 86.101 129.845 92.2939 124.021 95.2862C122.833 95.8896 123.915 97.6866 125.104 97.0831C127.496 95.8221 128.532 93.153 128.144 90.4454C127.631 86.8941 124.646 84.4667 121.981 82.357Z" fill="#23355F"/>
<path d="M127.324 125.377C121.585 127.257 115.725 128.709 109.827 129.867C108.486 130.091 109.126 132.074 110.413 131.836C116.365 130.692 122.17 129.226 127.91 127.346C129.184 126.934 128.598 124.965 127.324 125.377Z" fill="#23355F"/>
<path d="M106.955 80.6071C105.771 81.3843 104.52 82.2007 103.336 82.9778C102.221 83.7156 103.309 85.5033 104.425 84.7655C105.608 83.9884 106.86 83.1719 108.044 82.3948C109.159 81.6571 108.071 79.8694 106.955 80.6071Z" fill="#23355F"/>
<path d="M126.31 71.5045L123.295 72.373C121.986 72.7162 122.565 74.6959 123.874 74.3527L126.889 73.4842C128.144 73.1268 127.565 71.1471 126.31 71.5045Z" fill="#23355F"/>
<path d="M123.455 106.626C123.17 109.683 119.887 112.194 116.768 111.446C113.649 110.698 111.907 106.948 113.063 104.116C113.565 102.88 111.731 101.894 111.229 103.131C109.585 107.145 111.752 112.371 116.301 113.431C120.85 114.491 125.166 110.938 125.612 106.614C125.732 105.279 123.616 105.359 123.455 106.626Z" fill="#23355F"/>
<path d="M114.036 85.862C113.289 84.7454 111.517 85.7677 112.264 86.8843C112.891 87.7969 112.741 89.2493 111.678 89.7711C110.67 90.3073 109.296 89.5982 108.996 88.5427C108.575 87.2832 106.592 87.7902 106.998 89.1034C107.693 91.2968 110.334 92.6862 112.512 91.6569C114.622 90.6669 115.384 87.7695 114.036 85.862Z" fill="#23355F"/>
<path d="M130.255 78.3187C129.508 77.2021 127.736 78.2244 128.483 79.3411C129.11 80.2537 128.959 81.7062 127.897 82.2281C126.889 82.7642 125.515 82.0551 125.215 80.9995C124.794 79.7399 122.811 80.247 123.218 81.5602C123.913 83.7538 126.553 85.1433 128.731 84.114C130.841 83.124 131.535 80.2657 130.255 78.3187Z" fill="#23355F"/>
<path d="M113.073 56.5521C113.747 56.3875 114.434 56.1689 115.122 55.9503C109.299 44.7765 92.3279 44.2894 82.3868 50.099C67.0355 59.0702 75.6959 78.9911 76.6405 92.6031C76.7471 93.9618 78.8173 93.9438 78.7107 92.5851C77.933 80.9841 71.1745 66.7817 78.6794 56.2077C85.7736 46.332 106.714 45.2333 113.073 56.5521Z" fill="#23355F"/>
<path d="M89.3522 105.641C88.3512 109.455 85.5863 112.513 82.1511 113.724C81.4589 113.942 80.7127 114.146 79.9948 114.242C78.8029 114.384 77.6134 114.297 76.3725 113.967C70.5453 112.414 66.2476 105.693 68.2018 100.005C70.5202 93.1499 75.7131 90.7396 81.5403 92.2922C87.3674 93.8449 90.8748 99.8381 89.3522 105.641Z" fill="#23355F"/>
<path d="M123.329 166.611C120.291 167.045 117.03 167.828 113.595 167.544C100.432 166.662 76.858 160.959 70.896 147.715C84.9664 142.899 99.0098 141.498 109.521 147.59C115.517 151.495 120.284 157.635 122.725 165.287C122.957 165.964 123.207 165.96 123.329 166.611Z" fill="#F7ACA9"/>
<path d="M63.6653 388.995C62.6381 389.82 61.1993 388.344 62.2412 387.465C78.9539 373.876 80.2011 351.004 78.7636 330.838C76.0309 293.377 73.6653 256.258 74.479 218.638C75.2662 182.602 78.1582 146.642 83.0958 110.974C83.8092 110.885 84.5375 110.741 85.242 110.472C82.1948 132.355 79.9085 154.397 78.4273 176.436C75.8345 214.9 75.681 253.477 77.9046 291.97C78.9897 310.679 82.1205 329.681 81.2459 348.415C80.4982 363.707 75.6803 379.184 63.6653 388.995Z" fill="#97B1FE"/>
</g>
<defs>
<clipPath id="clip0_3_12444">
<rect x="0.157715" y="0.395996" width="198.663" height="198.663" rx="99.3317" fill="white"/>
</clipPath>
</defs>
</svg>
