<svg width="199" height="200" viewBox="0 0 199 200" fill="none" xmlns="http://www.w3.org/2000/svg">
<g clip-path="url(#clip0_3_12505)">
<rect x="0.000976562" y="0.791992" width="198.663" height="198.663" rx="99.3317" fill="#C2F03F"/>
<path d="M183.81 187.303L183.345 189.665L181.969 196.341L3.23556 208.686C10.1886 191.701 22.5717 176.897 36.9399 165.104C58.2522 147.714 87.4279 142.851 114.285 145.457C139.308 147.882 166.076 164.531 181.114 183.634C182.03 184.81 182.954 186.052 183.81 187.303Z" fill="#FE4E4E"/>
<path d="M130.147 99.4511C128.199 98.1808 124.729 98.4882 123.581 100.847C121.515 105.191 119.44 109.467 117.305 113.819C116.217 116.101 116.357 118.848 118.687 120.415C120.636 121.685 124.106 121.378 125.254 119.019C127.32 114.675 129.395 110.4 131.53 106.047C132.609 103.697 132.469 100.95 130.147 99.4511Z" fill="#23355F"/>
<path d="M121.901 69.551C121.882 67.7508 121.795 65.9594 121.497 64.1258C121.463 63.8529 121.353 63.5204 121.319 63.2475C121.209 62.915 121.023 62.5231 120.947 62.4635C120.939 62.3953 120.82 61.9946 120.634 61.6026C120.466 61.3471 120.305 61.1599 120.137 60.9044C120.052 60.7766 119.714 60.2656 119.385 59.8229C119.309 59.7634 119.233 59.7038 119.158 59.6443C118.626 59.2277 116.964 57.4319 116.223 57.5278C117.842 58.4278 118.078 58.6746 117.117 58.1055C116.898 57.9952 116.755 57.9444 116.535 57.8341C115.887 57.5713 115.229 57.2403 114.504 56.918C113.788 56.664 113.139 56.4013 112.423 56.1473C112.204 56.037 111.917 55.9354 111.765 55.8163C110.771 55.5289 109.6 55.4724 108.766 55.3723C105.759 54.8599 102.777 54.5523 99.7527 54.4581C99.062 54.4088 98.3797 54.4277 97.6217 54.3871C95.7353 54.6311 95.9289 54.5367 96.6026 54.4496C95.4403 54.4612 94.2695 54.4046 93.1745 54.4076C88.0623 54.5835 82.9083 54.9729 77.8131 55.2852C74.795 59.0731 72.696 63.6434 71.9708 68.7986L66.8178 104.271C65.2335 115.154 70.0832 125.482 78.4722 131.261C78.6423 138.103 78.7451 144.954 78.9151 151.796C79.1437 164.039 92.7675 172.815 103.748 171.395C112.102 170.315 117.889 165.128 120.869 158.295C122.086 155.433 122.579 152.25 122.397 149.153C121.484 135.265 122.836 121.431 125.208 107.535C126.569 99.2467 127.647 88.1523 131.256 79.2266C126.707 78.4283 121.85 74.6192 121.901 69.551Z" fill="#F7ACA9"/>
<path d="M113.615 46.6432L104.03 45.2467C94.1645 43.817 84.7744 47.7582 78.7589 54.8464C78.9122 54.9644 79.1422 55.1415 79.3042 55.3273C88.8936 66.0045 104.87 55.6588 115.868 63.2699C123.075 68.2681 119.226 78.7939 120.819 85.8794C123.365 86.8626 124.881 87.3579 124.898 87.4932C128.282 85.2764 132.16 83.6843 136.329 82.743L137.037 77.9781C139.263 62.8457 128.767 48.846 113.615 46.6432Z" fill="#23355F"/>
<path d="M121.823 87.9366C140.801 79.9614 145.306 82.2084 146.849 89.987C148.392 97.7656 142.722 102.678 127.979 107.504C113.236 112.33 121.823 87.9366 121.823 87.9366Z" fill="#F7ACA9"/>
<path d="M124.396 98.072C127.666 93.7696 132.371 90.9272 137.736 89.9836C139.231 89.7284 139.523 92.0146 138.036 92.337C133.287 93.2038 129.171 95.7676 126.26 99.6153C125.363 100.752 123.509 99.276 124.396 98.072Z" fill="#23355F"/>
<path d="M77.9361 81.109C78.9693 80.0732 80.8555 81.494 79.7635 82.6068C76.8487 85.5513 70.593 93.5078 77.536 96.008C78.9667 96.5165 78.0109 98.7217 76.5802 98.2132C73.643 97.1367 72.1249 94.2806 72.1459 91.1558C72.2496 87.049 75.2734 83.8821 77.9361 81.109Z" fill="#23355F"/>
<path d="M79.128 130.035C85.9052 131.306 92.7601 132.093 99.6325 132.472C101.175 132.555 100.77 134.839 99.2959 134.749C92.4235 134.37 85.5602 133.515 78.7915 132.311C77.2921 132.02 77.6286 129.744 79.128 130.035Z" fill="#23355F"/>
<path d="M94.3048 76.6175C95.7786 77.3241 97.3206 78.022 98.7945 78.7285C100.192 79.3761 99.224 81.5602 97.8268 80.9126C96.353 80.2061 94.8111 79.5081 93.3373 78.8016C91.9997 78.0778 92.899 75.9023 94.3048 76.6175Z" fill="#23355F"/>
<path d="M71.1001 69.7142L74.6356 70.2287C76.1215 70.4528 75.7904 72.751 74.3044 72.5269L70.7689 72.0124C69.2233 71.8641 69.6141 69.4901 71.1001 69.7142Z" fill="#23355F"/>
<path d="M80.2624 108.416C81.1101 111.811 85.1504 114.184 88.513 112.866C91.8757 111.547 93.2411 107.048 91.5336 103.968C90.8165 102.685 92.7054 101.21 93.4312 102.56C95.9239 106.914 94.3563 113.088 89.4102 115.018C84.4641 116.949 79.0426 113.515 77.8694 108.65C77.5524 107.248 79.9369 106.946 80.2624 108.416Z" fill="#23355F"/>
<path d="M70.3176 77.8653C67.3569 78.4506 68.2214 83.0991 71.1821 82.5138C74.2193 81.9876 73.2783 77.28 70.3176 77.8653Z" fill="#23355F"/>
<path d="M92.4417 83.7661C89.4809 84.3514 90.3455 88.9998 93.3062 88.4145C96.3434 87.8884 95.411 83.2487 92.4417 83.7661Z" fill="#23355F"/>
<path d="M116.833 65.2807C117.222 72.3258 117.051 79.235 116.336 86.1453C115.705 92.071 123.156 93.0489 123.721 87.132C124.443 80.2901 124.606 73.3125 124.217 66.2674C123.888 60.2581 116.496 59.203 116.833 65.2807Z" fill="#23355F"/>
<path d="M21.5023 183.133L2.98932 184.311C-1.63892 184.606 -1.16642 191.589 3.46181 191.295L21.9748 190.117C26.603 189.822 26.1305 182.839 21.5023 183.133Z" fill="#97B1FE"/>
<rect width="100.159" height="35.5938" transform="translate(59.2412 196.014) rotate(-7.70874)" fill="#FE4E4E"/>
</g>
<defs>
<clipPath id="clip0_3_12505">
<rect x="0.000976562" y="0.791992" width="198.663" height="198.663" rx="99.3317" fill="white"/>
</clipPath>
</defs>
</svg>
