<svg width="200" height="200" viewBox="0 0 200 200" fill="none" xmlns="http://www.w3.org/2000/svg">
<g clip-path="url(#clip0_3_12580)">
<rect x="0.446777" y="0.395996" width="198.663" height="198.663" rx="99.3317" fill="#7C4EFE"/>
<path d="M23.721 260.05C24.0879 260.111 24.3936 260.294 24.6993 260.478C26.7168 259.5 29.7127 260.417 29.6515 263.351C29.407 274.295 28.8567 285.239 28.2454 296.183H168.804C168.682 286.34 168.56 276.557 168.56 266.714C168.56 263.84 171.494 262.862 173.512 263.779C181.766 259.316 189.958 254.731 198.151 250.206C198.09 248.433 198.029 246.599 197.967 244.826C197.234 220.065 187.879 195.487 170.21 177.818C153.764 161.371 126.802 149.021 103.202 150.061C53.1289 152.323 6.84666 191.757 8.43628 244.826C8.49742 247.883 8.61971 251.062 8.68085 254.242C13.5108 255.77 18.2185 257.604 22.8651 259.561C23.2319 259.683 23.4765 259.866 23.721 260.05Z" fill="white"/>
<path d="M82.1703 154.279H56.1862C32.6477 154.279 11.4936 169.014 3.79007 191.207C0.733121 199.95 -1.95701 208.754 -4.58599 217.742C-5.99219 222.388 -7.33725 227.035 -8.86572 231.62C12.3495 241.769 35.1544 248.495 57.2256 256.871C65.1126 234.433 69.4534 209.61 81.0087 190.107C87.6118 178.979 87.8563 165.223 82.1703 154.279Z" fill="white"/>
<path d="M204.753 214.807C204.631 214.379 204.509 213.951 204.325 213.462C201.635 204.536 198.945 195.67 195.949 186.927C188.246 164.734 167.092 150 143.553 150H117.569C111.883 160.943 112.128 174.639 118.792 185.827C129.185 203.313 133.71 225.139 140.252 245.682C161.65 235.227 182.621 223.733 204.753 214.807Z" fill="white"/>
<path d="M143.004 117.228C141.904 111.603 138.663 106.529 137.135 100.965C135.362 94.4232 134.934 87.8202 135.484 81.0949C135.545 80.5446 135.301 80.239 134.934 80.0555C125.518 59.146 101.613 44.656 80.8257 54.0103C80.5812 54.1325 80.4589 54.316 80.3366 54.4994C73.2445 56.3947 67.1917 61.1024 64.1347 68.0111C61.9949 72.9023 61.9949 78.0991 62.1783 83.357C62.3617 90.1435 61.6892 102.127 60.5275 108.791C59.1213 116.922 58.8768 125.421 65.6021 131.351C70.7378 135.875 77.7688 137.098 84.1272 134.653C92.2587 131.535 98.8006 122.486 108.094 122.792C117.57 123.097 124.234 132.819 134.2 131.473C141.415 130.434 144.227 123.831 143.004 117.228Z" fill="#23355F"/>
<path d="M133.468 58.3513C133.652 51.6871 136.892 44.4116 129.922 40.0096C122.891 35.5464 114.087 39.765 107.179 42.2106L85.1686 50.0975C84.435 51.198 83.7624 52.2985 83.0899 53.4602H83.1511C83.0899 53.827 83.0899 54.1327 83.0899 54.4995C81.0112 60.9191 84.2515 73.1469 87.6753 78.894C92.5664 86.9644 98.8026 95.8295 106.262 101.699C112.131 106.345 117.572 105.856 123.87 102.31C129.617 99.0699 136.587 94.6068 138.726 88.0037C141.478 79.2609 133.285 66.7885 133.468 58.3513Z" fill="#23355F"/>
<path d="M120.873 54.0718C116.96 54.1941 112.986 54.3775 109.073 54.622C104.977 54.9277 100.941 55.2334 96.8451 55.7225C95.8057 55.8448 94.7052 55.9671 93.6658 56.0894C93.2379 56.1505 92.6265 56.2116 92.3819 56.2728C90.4255 56.5173 88.469 56.823 86.5126 57.1287C83.3333 57.679 80.1541 58.2292 76.9748 58.9017C71.4112 65.9939 67.9263 75.2259 67.9263 83.7854V111.97C67.9263 120.285 71.1667 127.867 76.4246 133.491C82.1717 139.605 90.3032 143.457 99.3518 143.457H102.898C113.169 143.457 122.279 138.566 128.026 130.985C132 125.727 134.384 119.124 134.384 112.032V83.8465C134.384 73.086 129.065 61.4696 120.873 54.0718Z" fill="#F7ACA9"/>
<path d="M102.96 46.5513H99.4142C90.1211 46.5513 81.8062 50.5864 76.0591 56.9449C71.0457 62.5086 67.9888 69.9064 67.9888 77.9768V84.1518C72.6353 83.2959 74.6529 76.0814 76.8539 70.0898C78.3213 66.0546 81.7451 62.9977 85.9025 62.1417C95.3791 60.1241 105.773 59.2682 115.616 59.5739C121.302 59.7573 126.071 63.8536 127.355 69.4173C127.538 70.2733 130.779 88.9818 132.613 89.96C133.163 90.2657 138.115 93.6895 138.788 88.0036L134.508 78.0379C134.386 66.4215 120.324 46.5513 102.96 46.5513Z" fill="#23355F"/>
<path d="M125.885 123.892C109.622 124.442 93.3592 124.626 77.4019 127.927C78.5024 137.526 78.8692 147.125 78.1355 156.724C80.1531 166.628 87.123 174.821 98.1891 175.983C109.744 177.205 123.806 167.973 123.868 155.256C123.929 148.164 123.929 141.133 123.99 134.041C124.54 133.674 125.029 133.185 125.579 132.757C125.274 129.884 125.335 126.827 125.885 123.892Z" fill="#F7ACA9"/>
<path d="M77.953 94.6068C60.6506 84.152 55.9429 85.6804 53.314 93.0171C50.685 100.354 53.314 104.572 66.948 111.359C80.582 118.206 77.953 94.6068 77.953 94.6068Z" fill="#F7ACA9"/>
<path d="M123.319 94.6068C140.621 84.152 145.329 85.6804 147.958 93.0171C150.587 100.354 147.958 104.572 134.324 111.359C120.69 118.206 123.319 94.6068 123.319 94.6068Z" fill="#F7ACA9"/>
<path d="M107.179 88.6766C106.078 87.515 104.061 89.1046 105.222 90.2662C108.279 93.3843 115.004 101.883 107.484 104.512C105.956 105.062 106.934 107.385 108.463 106.835C111.581 105.734 113.293 102.677 113.293 99.376C113.231 95.0351 110.052 91.6113 107.179 88.6766Z" fill="#23355F"/>
<path d="M87.5508 87.3923C84.4327 88.0648 83.1488 92.2834 85.1664 94.6678C86.2057 95.8906 88.2845 94.4232 87.1839 93.2005C86.328 92.2222 86.5726 90.2047 88.0399 89.8378C89.3238 89.5321 90.6077 90.9383 90.4243 92.1611C90.1798 93.7507 92.6865 94.1787 92.931 92.5891C93.359 89.5933 90.6078 86.7197 87.5508 87.3923Z" fill="#23355F"/>
<path d="M88.2863 82.3182C86.6355 82.9296 84.9848 83.541 83.334 84.2135C81.8055 84.7637 82.6003 87.2093 84.1288 86.5979C85.7796 85.9865 87.4304 85.3751 89.0811 84.7026C90.6096 84.1524 89.8147 81.7679 88.2863 82.3182Z" fill="#23355F"/>
<path d="M117.938 75.1042L114.208 75.6544C112.619 75.899 112.924 78.4057 114.575 78.1611L118.305 77.6109C119.894 77.3663 119.527 74.8596 117.938 75.1042Z" fill="#23355F"/>
<path d="M102.713 119.735C101.796 123.403 97.4552 125.91 93.848 124.443C90.2408 123.036 88.8345 118.145 90.7299 114.905C91.5247 113.499 89.5071 111.97 88.7123 113.376C86.0833 118.023 87.6729 124.687 92.8697 126.766C98.0665 128.845 103.875 125.237 105.159 120.041C105.587 118.512 103.08 118.206 102.713 119.735Z" fill="#23355F"/>
<path d="M122.034 87.27C118.855 88.0648 120.139 92.9559 123.318 92.1611C126.437 91.3052 125.214 86.4141 122.034 87.27Z" fill="#23355F"/>
<path d="M123.256 134.53C116.225 139.299 108.338 141.378 99.9012 140.583C98.3116 140.461 98.3116 142.968 99.9012 143.09C108.705 143.885 117.204 141.684 124.54 136.67C125.824 135.814 124.601 133.613 123.256 134.53Z" fill="#23355F"/>
<path d="M139.154 93.6283C136.158 95.7681 134.079 98.8251 133.284 102.493C132.978 104.083 135.424 104.756 135.73 103.166C136.341 100.17 137.931 97.6023 140.437 95.8293C141.721 94.9122 140.499 92.7112 139.154 93.6283Z" fill="#23355F"/>
<path d="M67.7427 103.166C66.8867 99.3145 64.3189 96.013 60.7117 94.2399C59.2443 93.5063 57.9604 95.7073 59.4278 96.441C62.4847 97.9083 64.5634 100.537 65.2971 103.839C65.6639 105.428 68.1095 104.756 67.7427 103.166Z" fill="#23355F"/>
</g>
<defs>
<clipPath id="clip0_3_12580">
<rect x="0.446777" y="0.395996" width="198.663" height="198.663" rx="99.3317" fill="white"/>
</clipPath>
</defs>
</svg>
