<svg width="199" height="199" viewBox="0 0 199 199" fill="none" xmlns="http://www.w3.org/2000/svg">
<g clip-path="url(#clip0_3_14558)">
<path d="M0.000976562 99.4997C0.000976562 44.6403 44.4733 0.167969 99.3327 0.167969V0.167969C154.192 0.167969 198.664 44.6403 198.664 99.4997V99.4997C198.664 154.359 154.192 198.831 99.3327 198.831V198.831C44.4733 198.831 0.000976562 154.359 0.000976562 99.4997V99.4997Z" fill="#FDF646"/>
<path d="M286.841 222.067C267.063 267.002 208.409 246.242 194.596 233.959L215.833 192.422C223.234 196.6 239.964 203.579 248.045 197.216C258.116 189.274 271.846 134.854 272.193 131.643C273.713 118.662 269.728 108.693 267.384 93.8576C265.04 79.0223 265.442 74.3129 268.884 74.0713C272.326 73.8297 276.843 91.6825 280.812 94.2177C284.024 96.2508 286.284 94.0399 287.009 92.6704C290.448 81.8531 295.466 63.1883 297.61 59.628C299.299 56.8067 302.349 57.1031 303.289 59.0208C304.395 61.2848 304.36 63.9859 303.788 67.3196C305.942 61.112 307.324 53.4665 312.398 53.4258C317.432 53.3987 315.338 67.1599 315.338 67.1599C315.338 67.1599 316.234 64.8798 318.261 61.4942C320.274 58.0687 323.958 59.5365 324.537 62.2059C324.927 63.9542 324.245 69.5217 323.494 73.3649C324.018 71.9301 325.181 70.4099 327.25 70.3264C331.935 70.1952 330.914 80.271 329.837 85.3469C323.753 112.176 306.659 177.118 286.841 222.067Z" fill="#FF6B6B"/>
<path d="M-29.8178 274.948C13.8244 298.088 46.8753 245.813 50.0324 227.698L7.37099 208.12C4.21572 215.926 -4.58985 231.68 -14.874 231.629C-27.7492 231.572 -72.5788 197.278 -74.8609 194.969C-84.1907 185.672 -87.2858 175.442 -94.7288 162.359C-102.172 149.276 -105.434 145.826 -108.327 147.761C-111.18 149.683 -103.555 166.468 -105.084 170.892C-106.333 174.459 -109.491 174.11 -110.917 173.479C-120.385 167.098 -136.003 155.525 -139.914 154.045C-143.005 152.867 -145.214 154.97 -144.751 157.052C-144.203 159.508 -142.485 161.607 -139.95 163.873C-145.525 160.321 -151.394 155.167 -155.402 158.248C-159.411 161.328 -149.116 170.832 -149.116 170.832C-149.116 170.832 -151.247 169.592 -154.956 168.178C-158.68 166.724 -160.653 170.136 -159.437 172.586C-158.649 174.197 -154.63 178.149 -151.636 180.706C-152.945 179.901 -154.809 179.421 -156.485 180.624C-160.245 183.395 -153.139 190.679 -149.117 194.002C-127.554 211.33 -73.46 251.808 -29.8178 274.948Z" fill="#FF6B6B"/>
<path d="M72.1636 57.8215C104.435 28.654 127.335 49.3733 134.747 63.4143C136.591 65.9505 139.918 73.6222 138.377 84.2364C136.45 97.5042 114.968 114.346 115.404 116.798C121.63 133.103 135.024 142.638 140.93 145.349L123.069 184.814C112.189 177.172 90.335 161.609 90.1247 160.47C75.7789 139.14 72.7978 122.177 72.7978 122.177C62.0679 121.628 31.802 94.3115 72.1636 57.8215Z" fill="#FF6B6B"/>
<path d="M69.3133 85.9762C69.3133 85.9762 64.216 81.3858 65.5415 78.3454C66.3946 76.4032 77.7194 68.9106 77.7194 68.9106" stroke="black" stroke-width="3.42669" stroke-linecap="round"/>
<path d="M110.662 103.614C107.645 103.329 106.076 101.783 105.64 101.044C105.434 101.873 105.344 103.684 106.621 104.13C107.952 104.602 109.888 103.972 110.662 103.614Z" fill="#E34545"/>
<path d="M121.152 89.7972C117.638 88.5195 113.878 90.9448 112.404 92.2846C112.404 92.2846 116.603 91.1223 119.355 91.3788C121.973 91.6369 123.321 93.6948 123.321 93.6948C123.396 92.7424 123.112 90.6317 121.152 89.7972Z" fill="#E34545"/>
<path d="M99.6777 112.03C99.6777 112.03 93.8081 117.263 71.9771 121.715C71.9771 121.715 75.6628 135.945 81.0117 144.223C94.0693 123.837 99.6777 112.03 99.6777 112.03Z" fill="#E34545"/>
<path d="M76.0484 120.8C81.6707 119.938 99.06 114.264 105.744 108.105" stroke="black" stroke-width="3.42669" stroke-linecap="round"/>
<path d="M116.343 30.2432C112.008 19.3256 98.9053 1.3153 81.3634 16.5044C65.807 29.9529 101.878 55.1331 121.483 72.2705C123.997 74.4352 118.626 85.2962 118.626 85.2962C124.176 83.3225 132.909 86.9188 128.598 95.0188C124.887 102.006 113.895 104.835 112.802 104.235C112.802 104.235 113.505 108.393 117.016 116.365C127.415 109.833 149.18 93.8619 152.795 82.4109C157.297 68.0805 157.677 44.2413 144.205 33.2444C133.432 24.436 127.836 28.4951 126.394 31.5718C126.838 29.4798 126.569 25.0324 121.917 23.8979C118.568 23.065 116.265 27.6621 116.343 30.2432Z" fill="black"/>
<path d="M93.7131 74.4141C93.4807 73.0375 92.209 72.1094 90.8728 72.3412C89.5365 72.573 88.6417 73.8769 88.8741 75.2535C89.1065 76.6301 90.3782 77.5582 91.7145 77.3264C93.0507 77.0946 93.9456 75.7908 93.7131 74.4141Z" fill="black"/>
<path d="M73.1825 63.8124C73.9712 62.6796 73.9652 61.33 73.1691 60.7979C72.373 60.2658 71.0882 60.7528 70.2996 61.8855C69.5109 63.0183 69.517 64.3679 70.3131 64.8999C71.1092 65.432 72.3939 64.9451 73.1825 63.8124Z" fill="black"/>
<path d="M130.775 143.458L89.2552 162.959L77.3492 145.31C73.7262 144.821 62.1863 146.441 44.98 156.481C27.7738 166.522 -0.980368 192.274 -6.97992 209.237L38.6864 243.949L32.2962 296.494C87.9607 283.212 134.426 304.941 150.674 317.436C151.065 285.064 153.516 219.834 160.231 218.007C166.932 216.141 185.041 227.547 193.261 233.494L220.057 178.142C190.345 154.956 145.45 149.272 130.775 143.458Z" fill="#00C471"/>
<path d="M31.68 199.815C35.6219 198.444 37.7045 194.135 36.3316 190.192C34.9587 186.249 30.6502 184.164 26.7083 185.536C22.7664 186.908 20.6838 191.216 22.0567 195.159C23.4296 199.102 27.7381 201.187 31.68 199.815Z" fill="white"/>
<path d="M89.4061 194.26C93.348 192.888 95.4306 188.579 94.0577 184.636C92.6848 180.693 88.3763 178.609 84.4344 179.98C80.4924 181.352 78.4098 185.66 79.7827 189.604C81.1556 193.547 85.4642 195.631 89.4061 194.26Z" fill="white"/>
<path d="M145.802 176.411C149.744 175.039 151.827 170.731 150.454 166.788C149.081 162.844 144.772 160.76 140.83 162.132C136.888 163.503 134.806 167.812 136.179 171.755C137.552 175.698 141.86 177.783 145.802 176.411Z" fill="white"/>
<path d="M193.964 214.454C197.906 213.082 199.988 208.774 198.615 204.831C197.242 200.887 192.934 198.803 188.992 200.175C185.05 201.546 182.967 205.855 184.34 209.798C185.713 213.741 190.022 215.826 193.964 214.454Z" fill="white"/>
<path d="M76.9604 140.865L91.352 160.99L123.554 146.255" stroke="black" stroke-width="3.42669" stroke-linecap="round"/>
<path d="M166.605 188.545C164.816 195.234 163.085 204.704 163.456 215.821" stroke="black" stroke-width="3.42669" stroke-linecap="round"/>
<path d="M155.59 193.829C157.686 212.293 159.304 237.901 157.319 266.508" stroke="black" stroke-width="3.42669" stroke-linecap="round"/>
</g>
<defs>
<clipPath id="clip0_3_14558">
<path d="M0.000976562 99.4997C0.000976562 44.6403 44.4733 0.167969 99.3327 0.167969V0.167969C154.192 0.167969 198.664 44.6403 198.664 99.4997V99.4997C198.664 154.359 154.192 198.831 99.3327 198.831V198.831C44.4733 198.831 0.000976562 154.359 0.000976562 99.4997V99.4997Z" fill="white"/>
</clipPath>
</defs>
</svg>
