<svg width="199" height="199" viewBox="0 0 199 199" fill="none" xmlns="http://www.w3.org/2000/svg">
<g clip-path="url(#clip0_3_14559)">
<path d="M0.290039 99.4997C0.290039 44.6403 44.7623 0.167969 99.6217 0.167969V0.167969C154.481 0.167969 198.953 44.6403 198.953 99.4997V99.4997C198.953 154.359 154.481 198.831 99.6217 198.831V198.831C44.7623 198.831 0.290039 154.359 0.290039 99.4997V99.4997Z" fill="#9FA9FF"/>
<path d="M111.246 29.2943C118.721 29.2943 156.851 37.2711 168.671 105.513C172.346 132.158 176.439 145.188 177.942 148.445C178.151 148.445 178.318 148.445 178.443 148.404C178.652 149.49 178.443 149.573 177.942 148.445C168.963 148.905 116.8 152.747 78.5032 148.404C47.473 144.896 13.6445 116.663 13.6445 116.663C44.3824 92.6912 56.995 68.719 61.6725 54.1018C75.0786 25.6191 107.404 29.2943 111.246 29.2943Z" fill="black"/>
<path d="M73.3245 120.13C49.1852 110.859 54.1133 72.8956 66.1829 58.3619C95.5009 58.5707 112.833 38.9836 112.332 40.6959C106.819 59.3642 108.322 72.645 112.039 82.0418C112.039 82.0418 118.805 70.7656 125.905 80.5383C129.872 87.9304 121.394 96.2413 121.394 96.2413C121.394 96.2413 116.926 103.801 119.223 117.374C121.394 142.348 138.893 150.701 138.81 150.743C129.998 161.977 112.081 219.527 112.081 219.527C112.373 218.608 88.8605 174.673 94.4568 153.374L86.8141 120.005C84.7259 120.673 78.2526 122.009 73.3245 120.13Z" fill="#FF6B6B"/>
<path d="M121.604 81.332C118.973 80.2879 116.008 82.042 114.88 83.0861C114.88 83.0861 118.138 82.2926 120.184 82.5431C122.147 82.7937 123.15 84.4225 123.15 84.4225C123.275 83.7125 123.066 82.042 121.604 81.332Z" fill="#E34545"/>
<path d="M116.759 98.2871C114.462 98.5795 113 97.4519 112.541 96.8672C112.541 97.6607 112.75 99.3312 113.836 99.4983C114.88 99.6653 116.216 98.7465 116.759 98.2871Z" fill="#E34545"/>
<path d="M89.6124 99.7492C93.3951 99.7492 96.4616 96.6827 96.4616 92.9C96.4616 89.1173 93.3951 86.0508 89.6124 86.0508C85.8297 86.0508 82.7632 89.1173 82.7632 92.9C82.7632 96.6827 85.8297 99.7492 89.6124 99.7492Z" fill="#E34545"/>
<path d="M64.138 81.415C63.5115 85.132 59.9198 87.6378 56.1611 87.0113C56.1611 87.0113 56.3282 83.8791 57.0382 80.1621C57.6646 76.4452 58.7087 73.5635 58.7087 73.5635C62.4674 74.1482 64.7644 77.6981 64.138 81.415Z" fill="#E34545"/>
<path d="M86.7729 120.004C93.9563 117.54 110.202 110.023 118.889 99.9158L119.39 99.3311C119.223 99.5399 119.056 99.7487 118.889 99.9158L90.0722 134.204L86.7729 120.004Z" fill="#E34545"/>
<path d="M72.9909 91.8974C72.9909 91.8974 66.5176 89.6839 66.5176 86.3846C66.5176 84.2546 73.868 72.9785 73.868 72.9785" stroke="black" stroke-width="3.34108" stroke-linecap="round"/>
<path d="M116.384 102.547C113.21 106.598 104.022 115.118 92.5366 119.043" stroke="black" stroke-width="2.96233" stroke-linecap="round"/>
<path d="M91.2922 78.7217C92.4811 77.5955 92.7505 75.9495 91.894 75.0453C91.0374 74.141 89.3793 74.321 88.1903 75.4472C87.0014 76.5734 86.732 78.2194 87.5885 79.1236C88.4451 80.0279 90.1032 79.848 91.2922 78.7217Z" fill="black"/>
<path d="M68.0545 70.9822C68.9464 69.6087 68.8225 67.9454 67.7779 67.2671C66.7333 66.5887 65.1634 67.1523 64.2716 68.5258C63.3797 69.8993 63.5036 71.5626 64.5482 72.2409C65.5928 72.9192 67.1626 72.3557 68.0545 70.9822Z" fill="black"/>
<path d="M92.2436 144.312C78.5034 144.729 66.935 158.845 62.2157 167.114C62.2157 167.114 30.8931 229.133 27.0091 234.688C23.1251 240.242 6.67027 252.479 -12.7497 234.688C-32.1698 216.897 -42.0677 161.56 -44.6153 136.126L-92.1421 186.66C-83.5388 236.191 -59.9007 268.099 -39.5619 281.171C-19.2231 294.242 -4.56409 299.379 19.5752 299.379C46.1368 299.379 72.9907 260.289 84.2668 240.242L84.0162 292.363C137.139 289.983 181.325 302.261 209.39 309.277L188.425 219.987C192.309 219.987 211.186 230.094 255.664 270.521C300.142 310.948 327.455 363.528 335.516 384.744L388.096 314.498C354.226 286.85 275.376 221.574 230.898 181.565C186.42 141.513 146.87 146.274 134.759 147.778L111.121 213.89L92.2436 144.312Z" fill="#7432FF"/>
<path d="M93.7871 150.075L111.37 214.266L132.251 155.546" stroke="black" stroke-width="3.34108" stroke-linecap="round"/>
</g>
<defs>
<clipPath id="clip0_3_14559">
<path d="M0.290039 99.4997C0.290039 44.6403 44.7623 0.167969 99.6217 0.167969V0.167969C154.481 0.167969 198.953 44.6403 198.953 99.4997V99.4997C198.953 154.359 154.481 198.831 99.6217 198.831V198.831C44.7623 198.831 0.290039 154.359 0.290039 99.4997V99.4997Z" fill="white"/>
</clipPath>
</defs>
</svg>
