<svg width="200" height="200" viewBox="0 0 200 200" fill="none" xmlns="http://www.w3.org/2000/svg">
<g clip-path="url(#clip0_3_14405)">
<rect x="0.446777" y="0.772461" width="198.663" height="198.663" rx="99.3317" fill="#DB90DD"/>
<path d="M30.0452 188.901C5.55502 190.843 -4.85163 192.736 -18.7109 195.583C-16.4552 197.615 5.90184 213.342 16.6288 228.943C21.5317 236.072 -9.69072 257.013 -11.4861 255.987C-42.0017 238.528 -64.4937 217.612 -72.1339 206.402C-78.6435 196.851 -79.3297 182.958 -72.869 175.065C-61.4624 161.128 -32.7547 152.134 2.70336 147.532C24.9603 144.644 61.7229 140.736 84.2364 139.434C102.581 138.374 120.351 146.782 130.653 161.998C135.149 168.639 138.538 176.968 139.267 187.295C139.758 194.252 139.941 202.571 139.592 212.3C138.613 239.528 132.554 266.244 121.814 291.251C104.596 298.238 57.3209 308.473 4.82491 281.562C18.5782 261.606 24.4214 238.337 25.8493 214.269C26.3518 205.794 25.1399 197.466 23.3461 189.497" fill="url(#paint0_linear_3_14405)"/>
<path d="M23.3464 189.497C25.1402 197.466 26.352 205.794 25.8496 214.268C24.4225 238.336 18.5785 261.606 4.8252 281.561C4.8252 281.561 33.3731 298.622 72.3194 299.07C111.267 299.518 121.814 291.25 121.814 291.25C132.554 266.244 138.613 239.527 139.592 212.299C139.941 202.57 139.742 194.252 139.267 187.294" stroke="#871C20" stroke-width="1.32442" stroke-miterlimit="10" stroke-linecap="round" stroke-linejoin="round"/>
<path d="M-11.4862 255.986C-42.0017 238.528 -64.4937 217.612 -72.1339 206.402C-78.6435 196.851 -79.3297 182.958 -72.869 175.064C-61.4624 161.128 -32.7547 152.134 2.70337 147.532C32.0261 143.727 77.5804 144.884 91.5001 145.832" stroke="#871C20" stroke-width="1.32442" stroke-miterlimit="10" stroke-linecap="round" stroke-linejoin="round"/>
<path d="M30.0442 188.9C5.55399 190.843 -4.85266 192.735 -18.7119 195.583C-16.4563 197.615 5.90082 213.342 16.6278 228.943" stroke="#871C20" stroke-width="1.32442" stroke-miterlimit="10" stroke-linecap="round" stroke-linejoin="round"/>
<path d="M79.1814 208.857C79.8146 186.648 73.6163 172.826 73.6163 172.826C73.6163 172.826 48.5367 146.807 37.6227 144.894C22.3272 142.212 15.8723 146.21 15.8723 146.21C26.1689 149.696 34.2843 164.351 37.996 179.541C44.8557 207.613 32.6122 211.504 24.8527 211.375C22.16 211.331 20.3497 208.566 21.5102 205.106C18.9326 207.932 19.1064 211.886 19.1619 213.034C20.1072 232.491 6.37536 259.183 -0.366781 270.708C-4.06606 277.033 -6.94831 281.663 -6.78276 285.707C-6.61721 289.751 -3.40548 293.211 5.08159 297.196C17.1529 302.863 44.9624 308.147 51.6549 305.461C56.3624 303.573 77.6906 261.131 79.1814 208.857Z" fill="url(#paint1_linear_3_14405)"/>
<path d="M79.1814 208.857C79.8146 186.648 73.6163 172.826 73.6163 172.826C73.6163 172.826 48.5367 146.807 37.6227 144.894C22.3272 142.212 15.8723 146.21 15.8723 146.21C26.1689 149.696 34.2843 164.351 37.996 179.541C44.8557 207.613 32.6122 211.504 24.8527 211.375C22.16 211.331 20.3497 208.566 21.5102 205.106C18.9326 207.932 19.1064 211.886 19.1619 213.034C20.1072 232.491 6.37536 259.183 -0.366781 270.708C-4.06606 277.033 -6.94831 281.663 -6.78276 285.707C-6.61721 289.751 -3.40548 293.211 5.08159 297.196C17.1529 302.863 44.9624 308.147 51.6549 305.461C56.3624 303.573 77.6906 261.131 79.1814 208.857Z" stroke="#871C20" stroke-width="1.32442" stroke-miterlimit="10" stroke-linecap="round" stroke-linejoin="round"/>
<path d="M15.1585 232.865C14.7 229.777 17.0756 226.465 20.1632 226.007C26.1181 225.123 33.0291 222.264 36.1465 217.568C41.3655 209.707 42.0435 196.823 38.0561 181.289C32.4936 159.615 24.648 150.102 17.3496 146.63C14.5062 145.277 12.4203 144.894 13.0461 143.205C13.8134 141.134 16.7603 139.345 21.3825 139.345C37.7573 139.345 42.531 153.251 49.0058 178.479C53.8689 197.425 52.6786 213.103 45.564 223.82C40.671 231.191 33.313 236.221 24.1356 237.158C18.0747 237.777 15.5757 235.671 15.1585 232.865Z" fill="#FFD67B" stroke="#871C20" stroke-width="1.32442" stroke-miterlimit="10"/>
<path d="M141.045 291.37C133.566 289.693 121.08 288.781 112.973 290.351C110.215 288.198 111.723 285.164 111.723 285.164C133.52 228.311 116.232 174.662 116.232 174.662C114.768 161.838 121.375 151.702 125.739 147.89C129.174 144.894 127.611 144.229 132.798 157.278C140.836 177.507 143.775 202.827 144.585 213.534C146.244 235.364 147.91 284.412 141.045 291.37Z" fill="url(#paint2_linear_3_14405)" stroke="#871C20" stroke-width="1.32442" stroke-miterlimit="10"/>
<path d="M220.372 242.155C208.772 255.493 182.727 268.704 142.76 270.092C140.472 270.178 138.139 270.218 135.759 270.218C127.904 270.218 123.093 269.92 119.09 269.329C115.798 268.847 113.052 268.171 109.617 267.299C99.6388 264.771 109.382 227.356 119.663 227.785C121.636 227.866 123.66 227.952 125.718 228.02C132.296 228.261 139.245 228.422 146.138 228.273C159.785 227.975 173.22 226.478 183.135 221.988C177.733 219.339 157.965 212.378 143.709 204.563C142.344 193.043 139.77 177.247 134.979 162.353C133.969 159.217 132.955 157.06 132.369 155.478C136.389 156.165 142.324 158.202 150.959 161.946C157.135 164.624 163.747 167.267 170.708 170.415C190.939 179.573 218.714 197.882 224.73 204.752C233.865 215.176 233.034 227.596 220.372 242.155Z" fill="url(#paint3_linear_3_14405)"/>
<path d="M132.368 155.479C142.246 157.745 163.747 167.267 170.707 170.417C190.938 179.571 218.715 197.882 224.734 204.753C233.863 215.177 233.035 227.596 220.373 242.155C208.11 256.258 179.7 270.218 135.757 270.218C121.445 270.218 117.232 269.228 109.618 267.3C99.6412 264.773 109.386 227.358 119.666 227.788C140.424 228.657 166.652 229.447 183.135 221.989C177.737 219.344 157.964 212.378 143.711 204.563" stroke="#871C20" stroke-width="1.32442" stroke-miterlimit="10" stroke-linecap="round" stroke-linejoin="round"/>
<path d="M143.648 206.028C142.429 192.838 140.534 187.397 136.553 171.889C130.991 150.215 119.075 139.023 110.032 139.023C109.922 139.023 101.837 138.414 101.742 135.295C101.647 132.174 107.549 131.659 110.669 131.564C127.022 131.085 139.392 145.961 145.066 171.381C147.894 184.048 150.737 200.879 145.663 214.31C144.954 216.189 144.021 210.058 143.648 206.028Z" fill="#FFD67B" stroke="#871C20" stroke-width="1.32442" stroke-miterlimit="10"/>
<path d="M134.944 146.332C135.63 135.023 119.567 127.399 78.7274 129.071C36.2954 130.807 23.8748 135.358 32.7418 152.295C35.9535 158.43 50.4734 174.983 58.6724 180.324C62.4453 183.203 68.065 185.196 72.3362 184.048C79.2754 182.183 82.4606 178.337 79.9972 163.066C79.3325 158.945 76.2764 154.082 71.7312 150.993C70.0417 149.845 70.5458 145.521 86.5424 144.059C96.329 143.164 108.188 144.059 112.109 148.205L112.113 148.21C109.113 151.414 106.86 155.617 106.39 159.217C105.146 168.754 107.476 176.011 114.065 177.191C119.04 178.082 125.014 172.205 127.625 168.193V168.194C130.253 164.639 134.381 155.615 134.944 146.332Z" fill="#9090DD"/>
<path d="M128.818 166.364C128.396 167.076 127.999 167.689 127.626 168.193C125.011 172.208 119.042 178.077 114.067 177.191C107.478 176.008 105.144 168.756 106.386 159.221C106.858 155.62 109.109 151.415 112.114 148.211L112.106 148.203C111.501 147.557 110.698 146.994 109.747 146.506L116.336 144.834C116.336 144.834 109.264 156.433 110.78 164.719C113.589 180.061 128.274 166.907 128.818 166.364Z" fill="url(#paint4_linear_3_14405)"/>
<path d="M72.3401 184.045C68.0688 185.196 62.4483 183.201 58.6737 180.329C50.4706 174.981 35.9516 158.434 32.7399 152.292C26.2585 139.917 31.1506 134.156 50.8017 131.275C49.3862 131.631 36.7959 134.806 38.2031 143.477C39.6757 152.549 49.9913 166.987 61.8035 173.866C73.0776 180.431 80.775 174.973 80.775 170.006C81.2468 179.609 78.0765 182.506 72.3401 184.045Z" fill="url(#paint5_linear_3_14405)"/>
<path d="M112.104 148.205C108.186 144.06 96.329 143.162 86.539 144.06C71.1153 145.473 70.098 149.543 71.5614 150.855C71.28 150.639 70.6608 150.189 69.7776 149.705C66.844 148.096 67.0584 143.851 70.1476 142.565C74.0919 140.924 80.065 139.423 89.0314 138.949C100.427 138.35 107.237 139.854 111.193 141.498C113.945 142.642 114.429 146.341 112.104 148.205Z" fill="#7575C6" stroke="#7575C6" stroke-width="1.32442" stroke-miterlimit="10"/>
<path d="M131.412 161.068C132.019 159.654 132.796 157.281 132.796 157.281C133.88 153.916 134.712 150.145 134.944 146.331C135.63 135.022 119.567 127.398 78.7274 129.07C36.2954 130.806 23.8748 135.357 32.7418 152.294C32.7418 152.294 42.5491 167.473 51.6554 174.592" stroke="#871C20" stroke-width="1.32442" stroke-miterlimit="10" stroke-linecap="round" stroke-linejoin="round"/>
<path d="M72.3357 184.049C79.2748 182.184 82.4601 178.337 79.9967 163.067C79.332 158.946 76.2758 154.082 71.7306 150.994C70.0411 149.846 70.5452 145.522 86.5418 144.06C96.3284 143.165 108.187 144.06 112.109 148.206L112.112 148.211C109.112 151.415 106.859 155.618 106.39 159.218C105.145 168.754 107.476 176.012 114.064 177.192C117.174 177.748 121.227 175.289 123.82 172.734" stroke="#871C20" stroke-width="1.32442" stroke-miterlimit="10" stroke-linecap="round" stroke-linejoin="round"/>
<path d="M58.3867 148.284C69.8372 145.79 78.7994 155.641 79.9972 163.067" stroke="#871C20" stroke-width="1.32442" stroke-miterlimit="10" stroke-linecap="round" stroke-linejoin="round"/>
<path d="M117.975 144.059C111.943 146.414 107.374 153.618 106.389 159.217" stroke="#871C20" stroke-width="1.32442" stroke-miterlimit="10" stroke-linecap="round" stroke-linejoin="round"/>
<path d="M107.817 172.473C103.595 174.029 98.5125 175.056 92.9996 175.329C88.6042 175.544 84.4322 175.246 80.7156 174.542C81.0715 171.604 80.6328 167.912 80.6328 167.912C81.8 168.285 83.025 168.599 84.2998 168.856C84.3909 168.872 84.4819 168.889 84.5813 168.905C84.9703 168.98 85.3676 169.046 85.7732 169.104C86.1623 169.17 86.5596 169.22 86.9569 169.261C87.0894 169.286 87.2218 169.303 87.3543 169.303C87.6854 169.344 88.0165 169.377 88.3559 169.402C88.4386 169.41 88.5297 169.419 88.6125 169.427C88.9932 169.452 89.374 169.477 89.7548 169.493C89.8376 169.493 89.9203 169.501 90.0114 169.501C90.4667 169.518 90.9219 169.526 91.3855 169.526C91.7331 169.526 92.0808 169.518 92.4285 169.51C92.7761 169.501 93.1155 169.493 93.4632 169.468C93.7115 169.46 93.9598 169.443 94.2164 169.419C94.4813 169.402 94.7545 169.377 95.0194 169.352C95.4167 169.319 95.8057 169.27 96.1948 169.22C96.5259 169.178 96.857 169.137 97.1798 169.079C97.9165 168.972 98.6367 168.831 99.3485 168.674C99.5555 168.624 99.7541 168.583 99.9611 168.533C100.151 168.483 100.342 168.442 100.532 168.384C100.946 168.285 101.352 168.169 101.757 168.044C102.097 167.945 102.428 167.838 102.751 167.722C103.429 167.498 104.083 167.242 104.721 166.977C105.002 166.861 105.284 166.737 105.557 166.604C105.755 166.513 105.962 166.414 106.161 166.314C106.161 166.314 106.401 169.659 107.817 172.473Z" fill="#CFDCE2" stroke="#871C20" stroke-width="1.32442" stroke-miterlimit="10"/>
<path d="M106.385 159.22C106.054 161.77 105.979 164.162 106.161 166.314C105.963 166.413 105.756 166.513 105.557 166.604C105.284 166.736 105.003 166.86 104.721 166.976C104.084 167.241 103.43 167.498 102.751 167.721C102.428 167.837 102.097 167.945 101.758 168.044C101.352 168.168 100.947 168.284 100.533 168.384C100.342 168.441 100.152 168.483 99.9615 168.532C99.7545 168.582 99.5559 168.624 99.3489 168.673C98.6371 168.83 97.9169 168.971 97.1802 169.079C96.8574 169.137 96.5263 169.178 96.1952 169.22C95.8061 169.269 95.4171 169.319 95.0197 169.352C94.7549 169.377 94.4817 169.402 94.2168 169.418C93.9602 169.443 93.7119 169.46 93.4635 169.468C93.1159 169.493 92.7765 169.501 92.4288 169.509C92.0812 169.518 91.7335 169.526 91.3859 169.526C90.9223 169.526 90.4671 169.518 90.0118 169.501C89.9207 169.501 89.838 169.493 89.7552 169.493C89.3744 169.476 88.9936 169.451 88.6129 169.426C88.5301 169.418 88.439 169.41 88.3563 169.402C88.0169 169.377 87.6858 169.344 87.3546 169.302C87.2222 169.302 87.0898 169.286 86.9573 169.261C86.56 169.22 86.1627 169.17 85.7736 169.104C85.368 169.046 84.9707 168.979 84.5817 168.905C84.4823 168.888 84.3912 168.872 84.3002 168.855C83.0254 168.599 81.8004 168.284 80.6332 167.912C80.4925 166.438 80.2855 164.832 79.9958 163.069C79.3336 158.947 76.2792 154.08 71.7265 150.992C70.5345 150.181 70.4351 147.797 76.0556 145.951C76.0225 145.769 75.9977 145.579 75.9729 145.388C75.9481 145.198 75.915 144.999 75.8819 144.792C75.8819 144.767 75.8736 144.743 75.8736 144.718C75.8073 144.337 75.7494 143.948 75.6832 143.551L75.6583 143.377C74.6899 137.4 73.2247 129.346 73.2247 129.346L100.152 120.762L104.44 134.222C105.061 136.183 105.938 139.61 106.534 143.691C106.575 143.981 106.617 144.279 106.658 144.577C106.691 144.825 106.724 145.074 106.757 145.33C109.067 146.026 110.938 146.969 112.105 148.203L112.113 148.211C109.108 151.414 106.857 155.619 106.385 159.22Z" fill="url(#paint6_linear_3_14405)"/>
<path d="M76.459 148.986C76.1386 145.372 73.2266 129.345 73.2266 129.345L100.151 120.762L104.443 134.225C105.277 136.839 106.562 142.078 107.022 147.996" stroke="#871C20" stroke-width="1.32442" stroke-miterlimit="10" stroke-linecap="round" stroke-linejoin="round"/>
<path d="M75.5445 82.163C97.1508 74.1502 121.81 65.3138 121.81 65.3138C120.542 58.9715 115.244 51.2865 106 46.0278C94.8679 39.6945 81.0078 38.899 69.3636 44.9252C49.2862 55.3161 44.3619 77.4016 46.3717 94.1175C46.6945 96.7986 49.5023 98.5096 51.6603 98.5552H51.6669C51.6421 97.5693 51.6545 96.5892 51.7108 95.61C51.7108 95.5032 51.7356 95.3964 51.767 95.2896C51.8357 95.0703 51.9616 94.8815 52.1065 94.7061C54.0029 92.6582 56.7477 91.6226 59.2219 90.4422C61.307 89.5317 63.4294 88.7155 65.5709 87.9424C69.5839 86.4665 73.6722 85.2547 77.7787 84.0801C76.5718 83.7117 75.9104 82.9079 75.5445 82.163Z" fill="url(#paint7_linear_3_14405)" stroke="#871C20" stroke-width="1.32442" stroke-miterlimit="10"/>
<path d="M164.983 38.0855C163.827 37.0186 162.314 36.233 160.285 36.1138C150.401 35.536 139.737 41.0812 132.226 45.2887C122.047 50.9912 112.357 57.4908 103.188 64.6874C94.7477 70.8857 85.918 76.3117 76.1081 80.1988C75.8316 80.3056 75.4931 80.4373 75.0974 80.5755C74.7241 80.7063 75.0006 78.1667 75.0527 77.9863C76.3498 73.4807 80.9845 70.865 85.7723 67.4223C97.2459 59.1695 123.079 38.7519 141.826 33.6611C150.009 31.4386 159.095 31.0462 164.983 38.0855Z" fill="url(#paint8_linear_3_14405)"/>
<path d="M163.833 53.591C155.461 64.6442 130.605 79.5274 127.578 80.8402C126.712 79.0001 125.707 77.2229 124.57 75.54H124.563C119.156 69.1216 94.4072 79.553 86.8522 81.4809C83.8317 82.379 80.8045 83.2208 77.7774 84.0809C76.2096 83.6024 75.5565 82.3873 75.285 81.5231C75.1244 81.0099 75.4001 80.4619 75.8992 80.2608C77.1773 79.7459 79.5877 78.7485 80.7367 78.2212C88.7279 74.5583 96.0942 69.8955 103.186 64.6881C112.354 57.4915 122.045 50.9919 132.224 45.2894C139.736 41.0819 150.399 35.5367 160.283 36.1145C164.384 36.3537 166.399 39.3361 167.536 41.8484C169.071 46.0236 166.276 50.3694 163.833 53.591Z" fill="url(#paint9_linear_3_14405)" stroke="#4E9365" stroke-width="1.32442" stroke-miterlimit="10"/>
<path d="M128.884 83.9681C128.834 83.9929 128.801 84.0095 128.76 84.0261C127.891 82.1884 126.889 80.4087 125.755 78.7284H125.747C120.341 72.3049 95.5914 82.743 88.0339 84.6717C85.0125 85.5657 81.9829 86.41 78.9616 87.2709C77.2315 86.7411 76.6107 85.3091 76.3955 84.4565C77.9931 83.9929 79.599 83.546 81.2048 83.1155C83.1004 82.6023 84.9794 82.056 86.8502 81.4765C90.6082 80.3177 94.3497 79.134 98.0829 77.9089C99.9454 77.3129 101.824 76.7252 103.712 76.1706C104.407 75.9636 105.111 75.7567 105.823 75.5663C107.23 75.1773 108.653 74.8379 110.086 74.5316C110.797 74.3743 111.518 74.2336 112.246 74.1094C114.067 73.7866 115.905 73.5466 117.767 73.5052C119.058 73.4803 120.366 73.5383 121.633 73.828C122.353 74.0018 123.065 74.2336 123.677 74.6641C124.025 74.8958 124.331 75.1938 124.563 75.5415H124.571C125.705 77.2218 126.715 79.0015 127.576 80.8392C128.065 81.8573 128.495 82.9003 128.884 83.9681Z" fill="#4E9365" stroke="#871C20" stroke-width="1.32442" stroke-miterlimit="10" stroke-linecap="round" stroke-linejoin="round"/>
<path d="M77.7793 84.0802C80.8064 83.2201 83.8336 82.3783 86.8541 81.4802C94.4091 79.5523 119.158 69.1208 124.565 75.5393H124.572C125.708 77.2221 126.713 78.9994 127.58 80.8395C130.607 79.5275 155.463 64.6435 163.834 53.5911C166.277 50.3695 169.072 46.0237 167.54 41.8476C166.83 40.279 164.707 37.8305 164.983 38.0855C159.096 31.0453 150.01 31.4385 141.827 33.6602C125.43 38.1128 103.612 54.2914 90.723 63.7991" stroke="#871C20" stroke-width="1.32442" stroke-miterlimit="10" stroke-linecap="round" stroke-linejoin="round"/>
<path d="M131.17 93.9957C130.862 90.7054 130.141 87.4589 129.022 84.344C128.595 83.1512 128.118 81.9824 127.578 80.8401C126.711 79 125.706 77.2227 124.57 75.5399H124.563C124.331 75.1939 124.023 74.8992 123.677 74.6608C123.062 74.2337 122.352 74.0011 121.63 73.8314C120.362 73.5425 119.056 73.4796 117.762 73.5044C115.903 73.5483 114.063 73.7875 112.242 74.1071C111.52 74.2329 110.797 74.3711 110.081 74.5276C108.649 74.8355 107.231 75.1807 105.818 75.5705C105.108 75.7593 104.405 75.9596 103.708 76.1673C101.824 76.7261 99.9463 77.3105 98.0806 77.9131C94.3498 79.1316 90.6075 80.3186 86.8519 81.4799C84.9804 82.0577 83.0964 82.6041 81.2 83.1131C78.5627 83.8225 75.9437 84.57 73.3313 85.3737C72.6277 85.5873 71.9307 85.8067 71.2271 86.0326C69.3307 86.6353 67.4467 87.2693 65.5685 87.9415C63.4271 88.7138 61.3047 89.53 59.2195 90.4413C57.7626 91.082 56.3306 91.7666 54.9425 92.5513C54.2513 92.947 53.5734 93.3675 52.9583 93.8699C52.6446 94.1207 52.3491 94.3914 52.104 94.7051C51.96 94.8806 51.8342 95.0693 51.7647 95.2887C51.7332 95.3955 51.7084 95.5023 51.7084 95.609C51.6521 96.5891 51.6397 97.5684 51.6645 98.5542C51.6794 99.2959 51.7225 100.038 51.7796 100.779L51.7787 100.78C51.5991 100.876 51.4245 100.98 51.2523 101.087C51.1927 101.124 51.1323 101.161 51.0735 101.199C50.9079 101.306 50.7457 101.417 50.5876 101.533C50.5379 101.569 50.4899 101.608 50.4411 101.645C49.9502 102.02 49.4983 102.439 49.0877 102.896C49.0215 102.97 48.9561 103.042 48.8923 103.118C48.7847 103.245 48.6804 103.374 48.5794 103.507C48.5082 103.6 48.4404 103.696 48.3725 103.793C48.2831 103.92 48.1921 104.045 48.1085 104.176C47.9744 104.385 47.8477 104.6 47.7293 104.82C47.6706 104.93 47.6193 105.043 47.5646 105.155C47.4926 105.301 47.4223 105.449 47.3577 105.598C47.3089 105.713 47.2625 105.828 47.2186 105.944C47.1549 106.108 47.0969 106.276 47.0423 106.445C47.0092 106.547 46.9744 106.647 46.9446 106.751C46.8676 107.018 46.7997 107.29 46.7451 107.565C46.7335 107.623 46.7277 107.683 46.717 107.741C46.6756 107.973 46.6416 108.206 46.6176 108.442C46.6077 108.539 46.6011 108.636 46.5936 108.733C46.5779 108.944 46.5696 109.158 46.5672 109.372C46.5663 109.464 46.5638 109.555 46.5655 109.648C46.5713 109.949 46.5862 110.252 46.6201 110.558C46.6201 110.562 46.621 110.564 46.6218 110.567C47.226 115.973 51.8996 120.218 57.3389 120.131C57.6799 120.125 58.0888 120.095 58.53 120.045C60.3842 122.773 62.5529 125.285 65.0172 127.475C69.4764 131.431 74.8262 134.377 80.5725 136.003C86.3189 137.636 92.4542 137.95 98.2817 136.945C101.528 136.386 104.718 135.413 107.739 134.069C110.759 132.725 113.611 131.004 116.204 128.957C118.792 126.909 121.135 124.536 123.138 121.911C125.148 119.286 126.83 116.417 128.13 113.377C129.43 110.337 130.353 107.141 130.868 103.875C131.378 100.609 131.478 97.2803 131.17 93.9957Z" fill="url(#paint10_linear_3_14405)"/>
<path d="M128.884 83.9681C128.834 83.9929 128.801 84.0095 128.76 84.0261C127.891 82.1884 126.889 80.4087 125.755 78.7284H125.747C120.341 72.3049 95.5914 82.743 88.0339 84.6717C85.5522 85.4059 83.0648 86.107 80.5807 86.8106C78.7844 87.3197 76.8698 86.29 76.4021 84.4822L76.3955 84.4565C77.9931 83.9929 79.599 83.546 81.2048 83.1155C83.1004 82.6023 84.9794 82.056 86.8502 81.4765C90.6082 80.3177 94.3497 79.134 98.0829 77.9089C99.9454 77.3129 101.824 76.7252 103.712 76.1706C104.407 75.9636 105.111 75.7567 105.823 75.5663C107.23 75.1773 108.653 74.8379 110.086 74.5316C110.797 74.3743 111.518 74.2336 112.246 74.1094C114.067 73.7866 115.905 73.5466 117.767 73.5052C119.058 73.4803 120.366 73.5383 121.633 73.828C122.353 74.0018 123.065 74.2336 123.677 74.6641C124.025 74.8958 124.331 75.1938 124.563 75.5415H124.571C125.705 77.2218 126.715 79.0015 127.576 80.8392C128.065 81.8573 128.495 82.9003 128.884 83.9681Z" fill="#F8C3AF"/>
<path d="M131.17 93.9957C130.862 90.7054 130.141 87.4589 129.022 84.344C128.595 83.1512 128.118 81.9824 127.578 80.8401C126.711 79 125.706 77.2227 124.57 75.5399H124.563C124.331 75.1939 124.023 74.8992 123.677 74.6608C123.062 74.2337 122.352 74.0011 121.63 73.8314C120.362 73.5425 119.056 73.4796 117.762 73.5044C115.903 73.5483 114.063 73.7875 112.242 74.1071C111.52 74.2329 110.797 74.3711 110.081 74.5276C108.649 74.8355 107.231 75.1807 105.818 75.5705C105.108 75.7593 104.405 75.9596 103.708 76.1673C101.824 76.7261 99.9463 77.3105 98.0806 77.9131C94.3498 79.1316 90.6075 80.3186 86.8519 81.4799C84.9804 82.0577 83.0964 82.6041 81.2 83.1131C78.5627 83.8225 75.9437 84.57 73.3313 85.3737C72.6277 85.5873 71.9307 85.8067 71.2271 86.0326C69.3307 86.6353 67.4467 87.2693 65.5685 87.9415C63.4271 88.7138 61.3047 89.53 59.2195 90.4413C57.7626 91.082 56.3306 91.7666 54.9425 92.5513C54.2513 92.947 53.5734 93.3675 52.9583 93.8699C52.6446 94.1207 52.3491 94.3914 52.104 94.7051C51.96 94.8806 51.8342 95.0693 51.7647 95.2887C51.7332 95.3955 51.7084 95.5023 51.7084 95.609C51.6521 96.5891 51.6397 97.5684 51.6645 98.5542C51.6794 99.2959 51.7225 100.038 51.7796 100.779L51.7787 100.78C51.5991 100.876 51.4245 100.98 51.2523 101.087C51.1927 101.124 51.1323 101.161 51.0735 101.199C50.9079 101.306 50.7457 101.417 50.5876 101.533C50.5379 101.569 50.4899 101.608 50.4411 101.645C49.9502 102.02 49.4983 102.439 49.0877 102.896C49.0215 102.97 48.9561 103.042 48.8923 103.118C48.7847 103.245 48.6804 103.374 48.5794 103.507C48.5082 103.6 48.4404 103.696 48.3725 103.793C48.2831 103.92 48.1921 104.045 48.1085 104.176C47.9744 104.385 47.8477 104.6 47.7293 104.82C47.6706 104.93 47.6193 105.043 47.5646 105.155C47.4926 105.301 47.4223 105.449 47.3577 105.598C47.3089 105.713 47.2625 105.828 47.2186 105.944C47.1549 106.108 47.0969 106.276 47.0423 106.445C47.0092 106.547 46.9744 106.647 46.9446 106.751C46.8676 107.018 46.7997 107.29 46.7451 107.565C46.7335 107.623 46.7277 107.683 46.717 107.741C46.6756 107.973 46.6416 108.206 46.6176 108.442C46.6077 108.539 46.6011 108.636 46.5936 108.733C46.5779 108.944 46.5696 109.158 46.5672 109.372C46.5663 109.464 46.5638 109.555 46.5655 109.648C46.5713 109.949 46.5862 110.252 46.6201 110.558C46.6201 110.562 46.621 110.564 46.6218 110.567C47.226 115.973 51.8996 120.218 57.3389 120.131C57.6799 120.125 58.0888 120.095 58.53 120.045C60.3842 122.773 62.5529 125.285 65.0172 127.475C69.4764 131.431 74.8262 134.377 80.5725 136.003C86.3189 137.636 92.4542 137.95 98.2817 136.945C101.528 136.386 104.718 135.413 107.739 134.069C110.759 132.725 113.611 131.004 116.204 128.957C118.792 126.909 121.135 124.536 123.138 121.911C125.148 119.286 126.83 116.417 128.13 113.377C129.43 110.337 130.353 107.141 130.868 103.875C131.378 100.609 131.478 97.2803 131.17 93.9957Z" stroke="#871C20" stroke-width="1.32442" stroke-miterlimit="10" stroke-linecap="round" stroke-linejoin="round"/>
<path d="M102.832 90.5205C102.832 90.5205 104.814 94.2355 103.544 97.0242" stroke="#871C20" stroke-width="5.29769" stroke-miterlimit="10" stroke-linecap="round" stroke-linejoin="round"/>
<path d="M119.375 87.2681C119.375 87.2681 121.357 90.9831 120.086 93.7718" stroke="#871C20" stroke-width="5.29769" stroke-miterlimit="10" stroke-linecap="round" stroke-linejoin="round"/>
<path d="M116.682 95.3412C117.289 93.9498 118.854 92.7628 120.854 92.3505C122.685 91.9739 124.435 92.3381 125.568 93.1982" fill="#FCDFCA"/>
<path d="M116.682 95.3412C117.289 93.9498 118.854 92.7628 120.854 92.3505C122.685 91.9739 124.435 92.3381 125.568 93.1982" stroke="#871C20" stroke-width="1.32442" stroke-miterlimit="10" stroke-linecap="round" stroke-linejoin="round"/>
<path d="M115.543 116.293C111.454 117.086 107.056 116.248 103.875 113.865C101.468 112.062 100.975 108.762 103.024 106.57C105.177 104.266 108.855 104.28 110.991 106.31C111.54 106.831 112.902 107.326 114.559 107.2C114.59 107.198 114.62 107.195 114.65 107.193C116.154 107.058 117.352 106.123 118.028 104.851C118.892 103.225 120.7 102.505 122.405 103.157C124.315 103.889 125.436 106.126 124.992 108.217C124.173 112.067 120.574 115.319 115.543 116.293Z" fill="white" stroke="#871C20" stroke-width="1.32442" stroke-miterlimit="10" stroke-linecap="round" stroke-linejoin="round"/>
<path d="M113.531 95.2047L118.197 92.9003C119.934 92.0642 122.019 92.7951 122.855 94.5318C123.691 96.2692 122.96 98.3544 121.224 99.1904L116.558 101.495" fill="url(#paint11_linear_3_14405)"/>
<path d="M113.531 95.2047L118.197 92.9003C119.934 92.0642 122.019 92.7951 122.855 94.5318C123.691 96.2692 122.96 98.3544 121.224 99.1904L116.558 101.495" stroke="#871C20" stroke-width="1.32442" stroke-miterlimit="10" stroke-linecap="round" stroke-linejoin="round"/>
<path d="M116.038 106.803C116.038 106.803 119.123 110.982 118.364 115.453" stroke="#871C20" stroke-width="1.32442" stroke-miterlimit="10" stroke-linecap="round" stroke-linejoin="round"/>
<path d="M111.312 106.548C111.312 106.548 111.653 113.912 107.729 115.836" stroke="#871C20" stroke-width="1.32442" stroke-miterlimit="10" stroke-linecap="round" stroke-linejoin="round"/>
<path d="M118.029 104.851C118.029 104.851 122.63 104.89 124.223 110.356" stroke="#871C20" stroke-width="1.32442" stroke-miterlimit="10" stroke-linecap="round" stroke-linejoin="round"/>
<path d="M79.5315 83.5713C76.1045 89.2084 74.1014 95.7974 74.0269 102.866H74.0186C74.0186 105.209 72.1313 107.096 69.797 107.096C68.4063 107.096 67.1813 106.434 66.4114 105.391L66.4032 105.399H66.3949C65.534 104.282 64.4993 103.272 63.299 102.419C61.2627 100.433 58.3821 99.3402 55.3277 99.6796C55.2283 99.6879 55.1207 99.7044 55.0214 99.721C53.8874 99.7127 52.7864 99.87 51.7434 100.176L51.7351 100.168C51.702 99.6299 51.669 99.0919 51.669 98.5538C51.6441 97.5688 51.6524 96.592 51.7103 95.607C51.7103 95.5077 51.7352 95.4 51.7683 95.2924C51.8345 95.0689 51.9587 94.8786 52.1077 94.7047C52.3477 94.3902 52.6457 94.1253 52.9603 93.8687C53.5728 93.372 54.2516 92.9499 54.9469 92.5525C56.3292 91.7662 57.7613 91.0791 59.2182 90.4417C61.3041 89.5312 63.4315 88.7117 65.5671 87.9419C67.4461 87.2714 69.3335 86.634 71.229 86.0297C71.9326 85.8063 72.6279 85.591 73.3315 85.3758C75.3927 84.7384 77.4538 84.1424 79.5315 83.5713Z" fill="#871C20" stroke="#871C20" stroke-width="1.32442" stroke-miterlimit="10" stroke-linecap="round" stroke-linejoin="round"/>
<path d="M99.3608 99.9428C99.9684 98.5514 101.533 97.3643 103.534 96.9521C105.364 96.5755 107.115 96.9397 108.248 97.7997" fill="#FCDFCA"/>
<path d="M99.3608 99.9428C99.9684 98.5514 101.533 97.3643 103.534 96.9521C105.364 96.5755 107.115 96.9397 108.248 97.7997" stroke="#871C20" stroke-width="1.32442" stroke-miterlimit="10" stroke-linecap="round" stroke-linejoin="round"/>
<path d="M46.2969 110.246C46.9384 115.591 52.5275 120.783 58.0313 120.12C64.3497 119.359 67.5183 113.932 66.7079 109.166C65.8057 103.859 60.6073 98.7108 55.1027 99.3714C49.5972 100.031 45.6554 104.9 46.2969 110.246Z" fill="#F9C8B5"/>
<path d="M65.1012 104.99C64.3827 103.644 62.7901 101.987 62.7901 101.987C60.8755 100.058 58.1629 99.0028 55.1027 99.3703C49.598 100.031 45.6554 104.9 46.2969 110.245C46.9384 115.59 52.2361 120.55 57.7672 120.147C58.5255 120.092 59.8201 119.861 60.7282 119.453" stroke="#871C20" stroke-width="1.32442" stroke-miterlimit="10" stroke-linecap="round" stroke-linejoin="round"/>
<path d="M48.9344 111.045C48.4245 107.44 50.7696 104.249 54.1717 103.916C56.9488 103.644 59.3601 104.721 60.4155 107.342C61.0562 108.932 60.9328 110.742 60.0132 112.189C59.3907 113.169 58.303 114.801 56.5275 115.168" stroke="#871C20" stroke-width="1.32442" stroke-miterlimit="10" stroke-linecap="round" stroke-linejoin="round"/>
<path d="M58.7344 113.877C58.7344 113.877 59.7169 112.973 60.0422 112.487C60.9966 111.062 61.1506 109.196 60.5108 107.605C60.058 106.481 59.3254 105.573 58.4595 104.854C58.4595 104.855 55.9092 108.815 58.7344 113.877Z" fill="#871C20" stroke="#871C20" stroke-width="1.32442" stroke-miterlimit="10" stroke-linecap="round" stroke-linejoin="round"/>
<path d="M106.757 145.331C109.067 146.026 110.938 146.97 112.105 148.203L112.113 148.212C109.108 151.415 106.857 155.62 106.385 159.221C106.054 161.77 105.979 164.163 106.161 166.315C105.963 166.414 105.756 166.514 105.557 166.605C105.284 166.737 105.003 166.861 104.721 166.977C104.084 167.242 103.43 167.499 102.751 167.722C102.428 167.838 102.097 167.946 101.758 168.045C101.352 168.169 100.947 168.285 100.533 168.384C100.342 168.442 100.152 168.484 99.9615 168.533C99.7545 168.583 99.5559 168.624 99.3489 168.674C98.6371 168.831 97.9169 168.972 97.1802 169.08C96.8574 169.138 96.5263 169.179 96.1952 169.22C95.8061 169.27 95.4171 169.32 95.0197 169.353C94.7549 169.378 94.4817 169.402 94.2168 169.419C93.9602 169.444 93.7119 169.46 93.4635 169.469C93.1159 169.493 92.7765 169.502 92.4288 169.51C92.0812 169.518 91.7335 169.527 91.3859 169.527C90.9223 169.527 90.4671 169.518 90.0118 169.502C89.9207 169.502 89.838 169.493 89.7552 169.493C89.3744 169.477 88.9936 169.452 88.6129 169.427C88.5301 169.419 88.439 169.411 88.3563 169.402C88.0169 169.378 87.6858 169.344 87.3546 169.303C87.2222 169.303 87.0898 169.287 86.9573 169.262C86.56 169.22 86.1627 169.171 85.7736 169.104C85.368 169.046 84.9707 168.98 84.5817 168.906C84.4823 168.889 84.3912 168.873 84.3002 168.856C83.0254 168.608 81.8004 168.293 80.6332 167.912C80.4925 166.439 80.2855 164.833 79.9958 163.07C79.3336 158.948 76.2792 154.081 71.7265 150.993C70.5345 150.182 70.4351 147.798 76.0556 145.952" stroke="#871C20" stroke-width="1.32442" stroke-miterlimit="10" stroke-linecap="round" stroke-linejoin="round"/>
</g>
<defs>
<linearGradient id="paint0_linear_3_14405" x1="-5.32635" y1="312.698" x2="75.2491" y2="94.9521" gradientUnits="userSpaceOnUse">
<stop stop-color="#D6E0E5"/>
<stop offset="0.2803" stop-color="#E5EBEE"/>
<stop offset="0.6503" stop-color="white"/>
</linearGradient>
<linearGradient id="paint1_linear_3_14405" x1="-9.09611" y1="231.094" x2="68.4023" y2="220.866" gradientUnits="userSpaceOnUse">
<stop offset="0.0907" stop-color="#7575C6"/>
<stop offset="0.4681" stop-color="#8282D1"/>
<stop offset="1" stop-color="#9090DD"/>
</linearGradient>
<linearGradient id="paint2_linear_3_14405" x1="104.957" y1="222.63" x2="139.407" y2="218.084" gradientUnits="userSpaceOnUse">
<stop offset="0.0907" stop-color="#7575C6"/>
<stop offset="0.4681" stop-color="#8282D1"/>
<stop offset="1" stop-color="#9090DD"/>
</linearGradient>
<linearGradient id="paint3_linear_3_14405" x1="99.868" y1="280.248" x2="191.922" y2="182.292" gradientUnits="userSpaceOnUse">
<stop stop-color="#D6E0E5"/>
<stop offset="0.5008" stop-color="#F1F5F6"/>
<stop offset="0.72" stop-color="white"/>
</linearGradient>
<linearGradient id="paint4_linear_3_14405" x1="104.973" y1="168.573" x2="121.103" y2="156.506" gradientUnits="userSpaceOnUse">
<stop offset="0.0907" stop-color="#7575C6"/>
<stop offset="0.4681" stop-color="#8282D1"/>
<stop offset="1" stop-color="#9090DD"/>
</linearGradient>
<linearGradient id="paint5_linear_3_14405" x1="44.1517" y1="167.689" x2="63.4771" y2="153.232" gradientUnits="userSpaceOnUse">
<stop offset="0.0907" stop-color="#7575C6"/>
<stop offset="0.4681" stop-color="#8282D1"/>
<stop offset="1" stop-color="#9090DD"/>
</linearGradient>
<linearGradient id="paint6_linear_3_14405" x1="68.6867" y1="162.933" x2="103.986" y2="137.554" gradientUnits="userSpaceOnUse">
<stop stop-color="#F2A290"/>
<stop offset="0.6505" stop-color="#FACFBB"/>
<stop offset="0.9994" stop-color="#FDE2CD"/>
</linearGradient>
<linearGradient id="paint7_linear_3_14405" x1="-1.99823" y1="110.513" x2="138.665" y2="30.6379" gradientUnits="userSpaceOnUse">
<stop offset="0.2737" stop-color="#55A366"/>
<stop offset="0.2876" stop-color="#58A567"/>
<stop offset="0.4432" stop-color="#7CB571"/>
<stop offset="0.5708" stop-color="#91BF78"/>
<stop offset="0.6535" stop-color="#99C37A"/>
<stop offset="0.6808" stop-color="#A5C97D"/>
<stop offset="0.7767" stop-color="#CCDB86"/>
<stop offset="0.8651" stop-color="#E8E78D"/>
<stop offset="0.9423" stop-color="#F9EF91"/>
<stop offset="1" stop-color="#FFF292"/>
</linearGradient>
<linearGradient id="paint8_linear_3_14405" x1="21.4757" y1="109.607" x2="193.397" y2="11.9815" gradientUnits="userSpaceOnUse">
<stop offset="0.0082" stop-color="#55A366"/>
<stop offset="0.1564" stop-color="#6EAF6D"/>
<stop offset="0.3396" stop-color="#86BA74"/>
<stop offset="0.51" stop-color="#94C179"/>
<stop offset="0.6535" stop-color="#99C37A"/>
<stop offset="0.6808" stop-color="#A5C97D"/>
<stop offset="0.7767" stop-color="#CCDB86"/>
<stop offset="0.8651" stop-color="#E8E78D"/>
<stop offset="0.9423" stop-color="#F9EF91"/>
<stop offset="1" stop-color="#FFF292"/>
</linearGradient>
<linearGradient id="paint9_linear_3_14405" x1="99.5781" y1="83.3232" x2="167.635" y2="32.1821" gradientUnits="userSpaceOnUse">
<stop stop-color="#4E9365"/>
<stop offset="0.2221" stop-color="#599A68"/>
<stop offset="0.6104" stop-color="#76AC70"/>
<stop offset="1" stop-color="#99C37A"/>
</linearGradient>
<linearGradient id="paint10_linear_3_14405" x1="44.0868" y1="162.538" x2="124.609" y2="62.2522" gradientUnits="userSpaceOnUse">
<stop offset="0.1298" stop-color="#F2A290"/>
<stop offset="0.3466" stop-color="#F8C3B0"/>
<stop offset="0.5378" stop-color="#FCDAC5"/>
<stop offset="0.6594" stop-color="#FDE2CD"/>
</linearGradient>
<linearGradient id="paint11_linear_3_14405" x1="122.865" y1="94.5871" x2="114.296" y2="98.6636" gradientUnits="userSpaceOnUse">
<stop stop-color="#F2A290"/>
<stop offset="0.0057" stop-color="#F2A391"/>
<stop offset="0.2514" stop-color="#F7BEAB"/>
<stop offset="0.4991" stop-color="#FAD2BE"/>
<stop offset="0.748" stop-color="#FCDEC9"/>
<stop offset="1" stop-color="#FDE2CD"/>
</linearGradient>
<clipPath id="clip0_3_14405">
<rect x="0.446777" y="0.772461" width="198.663" height="198.663" rx="99.3317" fill="white"/>
</clipPath>
</defs>
</svg>
