<svg width="199" height="199" viewBox="0 0 199 199" fill="none" xmlns="http://www.w3.org/2000/svg">
<g clip-path="url(#clip0_3_11980)">
<rect x="0.290039" width="198.663" height="198.663" rx="99.3317" fill="#68A74B"/>
<path d="M108.293 236.388L99.74 113.512L67.5718 103.605C35.0451 141.663 22.0832 154.792 14.413 242.144C13.5945 251.002 13.0773 259.491 12.6807 267.592C44.6027 257.172 76.4207 246.703 108.293 236.388Z" fill="#2252B2"/>
<path d="M67.008 159.995C58.109 172.994 50.8451 190.883 54.9842 206.793C58.2324 219.195 68.8637 229.167 79.3429 235.536C84.0257 238.358 89.2137 240.908 94.6082 242.338C99.226 240.829 103.74 239.27 108.358 237.761L100.963 129.675C87.7883 137.352 75.6842 147.339 67.008 159.995Z" fill="black"/>
<path d="M263.319 366.588C266.376 365.874 269.383 365.262 272.468 364.624C284.03 362.338 295.45 359.417 306.842 356.419C312.824 354.864 324.981 349.63 330.935 347.999C325.8 280.26 328.726 230.048 273.756 230.72C217.147 231.444 106.495 254.291 106.495 254.291L105.809 244.157C73.601 251.355 41.3105 258.325 9.40947 266.617C4.86736 341.389 17.5497 383.117 54.3998 372.341C94.302 360.596 248.599 305.165 248.599 305.165C248.599 305.165 247.671 320.744 263.319 366.588Z" fill="#697CCC"/>
<path d="M113.746 87.959C112.81 88.7295 99.7687 129.044 99.7687 129.044L70.8378 103.785L92.3973 76.2533L113.746 87.959Z" fill="#FFA79B"/>
<path d="M109.644 101.469C112.021 94.3007 113.969 88.6014 114.37 88.2796L104.481 82.6419C104.357 89.4201 106.184 95.9193 109.644 101.469Z" fill="black"/>
<path d="M296.774 263.328C291.981 263.681 287.938 262.981 283.628 261.77C282.592 261.279 271.884 261.005 270.82 260.437C271.46 256.387 282.546 256.265 286.367 256.091C289.315 255.888 294.092 252.072 288.141 249.635C283.019 247.592 262.208 243.873 260.81 244.555C255.156 244.179 249.411 245.745 244.222 248.15C204.997 230.648 156.698 217.742 140.678 208.293C140.678 208.293 134.686 191.819 128.519 175.583C126.03 169.026 122.954 161.296 119.417 152.258C106.949 120.874 97.6172 104.225 76.9529 104.097C76.9529 104.097 55.3618 138.221 64.9074 167.197C74.4531 196.172 83.0754 254.282 110.345 266.758C137.718 279.284 218.401 285.199 237.65 286.449C242.335 288.478 251.48 290.188 254.507 291.43C263.483 296.324 275.664 297.105 285.463 292.852C287.271 292.109 288.142 290.665 288.395 289.185C288.484 288.459 289.091 287.978 289.806 287.805C290.854 287.598 291.902 287.391 292.924 287.107C295.528 286.421 296.411 284.279 296.038 282.246C295.892 281.345 296.412 280.375 297.28 280.146C297.28 280.146 297.28 280.146 297.357 280.119C301.441 278.982 301.248 274.282 298.817 272.041C298.97 271.986 299.046 271.958 299.199 271.903C306.67 269.363 302.746 262.894 296.774 263.328Z" fill="#FFA79B"/>
<path d="M89.1933 191.908C100.474 186.826 111.435 181.077 122.315 175.097C124.263 174.037 126.261 172.871 128.21 171.811C125.732 165.231 122.669 157.473 119.147 148.403C106.735 116.908 97.4419 100.199 76.8576 100.066C76.8576 100.066 55.3434 134.305 64.8463 163.383C67.9165 172.879 70.9697 185.515 74.544 198.656C79.3329 196.383 84.225 194.159 89.1933 191.908Z" fill="#2252B2"/>
<path d="M93.7122 39.7661C99.1778 31.7004 116.879 31.4852 127.236 36.7073C131.742 38.9957 134.979 36.2603 135.103 40.4794C135.449 50.8838 136.089 85.8094 131.226 91.2206C121.425 102.071 105.743 95.6392 99.0884 84.6416C92.5373 73.6936 85.9476 51.2728 93.7122 39.7661Z" fill="#FFA79B"/>
<path d="M136.612 32.1012C131.902 29.4397 123.588 31.5377 119.702 33.8223C109.798 31.753 98.1418 33.2898 93.887 39.3889C88.5935 46.9611 89.7432 59.3407 93.0725 70.0247C96.9506 68.6861 98.3701 65.3664 101.821 62.1173C113.931 58.4518 120.481 48.5593 121.428 43.6878C124.412 45.9162 134.434 44.6861 137.177 41.1669C140.749 36.0754 138.06 32.9733 136.612 32.1012Z" fill="#D24A43"/>
<path d="M117.598 59.5484C117.387 60.406 117.127 61.368 116.917 62.2256C116.63 63.1107 118.098 63.3646 118.385 62.4795C118.595 61.6219 118.855 60.6599 119.066 59.8023C119.325 58.8403 117.857 58.5864 117.598 59.5484Z" fill="black"/>
<path d="M132.505 58.5865C132.295 59.4441 132.035 60.4061 131.824 61.2637C131.537 62.1488 133.005 62.4027 133.292 61.5176C133.503 60.66 133.763 59.698 133.973 58.8404C134.233 57.8784 132.765 57.6244 132.505 58.5865Z" fill="black"/>
<path d="M130.222 67.8896C129.621 67.6695 129.25 68.5729 129.852 68.7929C131.159 69.2825 130.596 70.8554 129.674 71.4353C128.752 72.0152 127.533 72.011 126.468 71.9528C125.844 71.9125 125.683 72.9146 126.384 72.9279C128.15 72.9995 130.302 72.9361 131.33 71.2013C132.031 70.0103 131.53 68.3791 130.222 67.8896Z" fill="#952C28"/>
<path d="M120.24 55.2707C119.226 55.3629 118.135 55.4817 117.121 55.5738C115.847 55.6699 116.118 57.6334 117.392 57.5373C118.406 57.4452 119.498 57.3263 120.511 57.2342C121.835 57.0351 121.564 55.0717 120.24 55.2707Z" fill="#D24A43"/>
<path d="M133.797 53.0857C133.174 53.0457 132.551 53.0057 131.824 52.9162C130.578 52.8362 130.336 54.8154 131.581 54.8954C132.204 54.9355 132.827 54.9755 133.555 55.0649C134.878 55.1179 135.12 53.1387 133.797 53.0857Z" fill="#D24A43"/>
<path d="M123.753 83.4015C122.498 83.505 121.378 82.7787 120.89 81.6515C120.594 81.0631 119.705 81.4693 120.001 82.0576C120.73 83.6192 122.238 84.4668 123.93 84.38C124.595 84.3145 124.419 83.336 123.753 83.4015Z" fill="#952C28"/>
<path d="M96.3115 62.5891C96.0471 62.3374 95.6836 62.2928 95.4523 62.374C95.364 61.888 94.8627 61.461 94.1689 61.7048C87.5721 64.3674 83.3777 70.3221 83.0884 77.2313C65.5501 68.5724 43.7111 76.4184 36.9714 95.0729C36.0196 97.734 35.1496 98.212 32.6112 99.3625C30.8932 100.138 29.3131 101.297 27.8651 102.581C24.9968 105.226 22.9769 108.78 22.2844 112.642C20.9269 120.444 25.4676 127.982 32.3035 131.526C26.3738 136.281 22.7859 143.919 26.3132 151.296C30.4633 159.92 39.8806 159.541 47.5291 156.422C56.2293 152.848 65.5677 147.671 70.8298 139.618C75.4148 132.578 76.1658 123.094 71.0691 116.182C90.3564 118.366 89.9944 92.2974 90.3295 89.8531C101.948 84.7366 96.6635 76.339 97.3784 73.5027C99.1661 67.6181 100.702 66.8198 96.3115 62.5891Z" fill="#D24A43"/>
<path d="M88.3816 67.4647C88.346 72.6665 94.7608 77.9979 101.625 75.9051C103.722 70.6626 105.952 65.5461 108.259 60.4024C105.935 58.0281 100.128 55.5941 95.7475 56.891C90.8299 58.3788 88.3562 61.8522 88.3816 67.4647Z" fill="#FFA79B"/>
<path d="M98.5996 64.5505C99.8728 66.0113 101.146 67.472 102.446 69.0104C102.862 69.4714 102.14 70.0854 101.649 69.652C101.547 69.6019 101.493 69.4465 101.39 69.3964C101.363 69.3187 101.363 69.3187 101.336 69.241C100.193 67.9081 98.9735 66.6027 97.8027 65.1921C97.4357 64.6258 98.1572 64.0118 98.5996 64.5505Z" fill="#952C28"/>
</g>
<defs>
<clipPath id="clip0_3_11980">
<rect x="0.290039" width="198.663" height="198.663" rx="99.3317" fill="white"/>
</clipPath>
</defs>
</svg>
