<svg width="199" height="200" viewBox="0 0 199 200" fill="none" xmlns="http://www.w3.org/2000/svg">
<g clip-path="url(#clip0_3_12319)">
<rect x="0.290039" y="0.395996" width="198.663" height="198.663" rx="99.3317" fill="#FBED72"/>
<path d="M67.2668 100.62C71.8208 101.722 77.7875 100.394 82.3578 101.384C82.374 101.272 87.9006 102.168 88.0161 102.184C104.565 113.21 101.373 94.5884 101.421 94.2525C98.8193 88.6277 76.991 83.9403 73.7628 78.5698C67.8954 80.0254 64.9602 87.2667 68.4193 92.6699C68.5023 92.9102 67.1675 100.492 67.2668 100.62Z" fill="#952C28"/>
<path d="M17.3723 243.139C39.6174 133.234 33.9861 91.6513 91.0511 100.038C93.0643 100.386 94.9846 100.604 96.886 100.933C98.2282 101.165 99.5704 101.397 100.932 101.518C111.129 103.168 120.207 104.623 126.582 105.725C131.951 106.654 136.853 107.615 141.42 108.518C142.203 108.653 142.967 108.899 143.638 109.015C146.415 109.609 149.173 110.313 151.727 110.869C192.491 118.94 203.321 132.983 196.217 191.019C194.071 208.848 185.422 254.446 181.563 271.524L17.3723 243.139Z" fill="#2252B2"/>
<path d="M57.1076 196.907C47.1944 192.454 53.9314 175.252 56.0722 167.254L63.858 137.393C64.0776 136.474 62.9539 135.895 62.7343 136.814C59.4802 149.524 56.1287 162.216 52.8746 174.926C50.8771 182.592 48.3147 194.596 56.6167 198.374C57.299 198.507 57.7745 197.157 57.1076 196.907Z" fill="white"/>
<path d="M56.7362 196.658C56.7583 195.7 55.5922 195.478 55.5701 196.436C55.1461 202.128 54.7221 207.82 54.298 213.512C54.1788 214.452 55.4419 214.693 55.464 213.735C55.8881 208.043 56.3121 202.351 56.7362 196.658Z" fill="white"/>
<path d="M142.522 155.385L135.898 201.607C135.791 202.552 136.964 202.729 137.071 201.783L143.694 155.562C143.899 154.632 142.629 154.44 142.522 155.385Z" fill="white"/>
<path d="M137.641 105.091L95.5218 148.503C95.5218 148.503 97.0334 112.508 97.6944 97.7747C107.727 99.497 116.66 101.018 122.932 102.167C128.214 103.134 133.038 104.133 137.641 105.091Z" fill="#FFA79B"/>
<path d="M135.409 102.186L98.7464 107.679L95.7001 97.8282L91.8552 85.2245L85.2058 63.3808L112.132 56.8607C112.819 59.5942 135.409 102.186 135.409 102.186Z" fill="#FFA79B"/>
<path d="M94.5193 99.2646L94.66 99.7593C99.4907 95.8927 102.845 90.2227 104.576 83.6564C106.872 74.9769 105.282 67.0716 103.747 58.8261L84.7072 63.7069L91.004 86.1958L94.5193 99.2646Z" fill="black"/>
<path d="M110.92 35.1196C102.345 24.3855 70.3302 31.2775 70.8729 44.9153C71.3212 55.0646 72.694 83.3194 77.9582 88.2317C88.3586 98.1482 103.354 90.6381 108.943 79.4126C114.66 68.0953 119.404 45.7212 110.92 35.1196Z" fill="#FFA79B"/>
<path d="M161.384 92.4754C159.768 85.5792 152.744 81.699 146.39 83.4328C151.423 71.0357 140.855 57.913 126.616 60.1119L126.635 60.0028C127.683 55.2402 128.164 49.7083 124.252 46.0169C122.041 43.9597 119.475 43.3019 116.929 43.8824C116.225 40.508 114.88 37.4744 112.857 35C107.319 28.5641 92.7181 28.7934 82.3313 32.9897C79.7435 31.0934 76.4402 29.9745 73.3297 31.1332C70.2378 32.1829 68.1299 34.9704 68.3996 38.1593C68.7639 41.4763 71.6727 43.5391 74.9747 43.9843C77.0314 44.2192 79.6156 44.0942 81.8403 43.3472C86.6528 44.4964 92.0674 44.8492 95.82 44.0234C97.2617 48.5327 106.597 57.9671 112.005 54.2773C113.192 53.4674 112.797 54.4111 114.307 54.4414C115.368 57.0903 116.297 59.8292 117.358 62.4781C117.226 62.5681 117.189 62.7863 117.17 62.8954C117.133 63.1136 117.114 63.2227 117.077 63.441C113.107 69.6188 115.763 77.9255 123.276 80.9901C117.759 86.6821 116.359 94.8653 120.484 102.073C125.764 111.384 137.938 115.123 148.157 111.909C156.452 109.043 163.475 101.36 161.384 92.4754Z" fill="#952C28"/>
<path d="M125.642 53.47C123.283 49.2486 116.018 47.8116 111.767 52.7837C112.486 57.9704 113.075 63.2486 113.553 68.5067C116.366 69.3633 121.946 68.6549 124.735 65.6004C127.84 62.0285 128.166 58.0661 125.642 53.47Z" fill="#FFA79B"/>
<path d="M85.7833 80.0083C87.724 80.5952 89.9863 78.5904 89.4261 76.5282C89.2277 75.685 90.4393 75.216 90.7476 76.0794C91.5973 79.1168 88.6702 82.3826 85.6492 81.482C84.7888 81.2087 85.0327 79.7552 85.7833 80.0083Z" fill="#D24A43"/>
<path d="M76.1919 64.8843C76.5673 64.0467 77.733 64.6972 77.4891 65.4446C76.7008 67.3389 78.7691 68.8204 80.5353 67.9954C81.3057 67.5636 81.7763 68.8843 81.0059 69.3161C78.0936 70.734 75.0095 67.7257 76.1919 64.8843Z" fill="#D24A43"/>
<path d="M87.8224 55.1963C88.0869 56.2961 88.4407 57.5296 88.7052 58.6294C88.8989 59.4826 87.7098 59.9558 87.4082 59.0821C87.1437 57.9823 86.7898 56.7489 86.5253 55.649C86.4394 54.8164 87.6286 54.3432 87.8224 55.1963Z" fill="black"/>
<path d="M72.9085 56.0711C73.1732 57.1704 73.5273 58.4032 73.7921 59.5025C73.986 60.3553 72.7958 60.8283 72.494 59.9551C72.2292 58.8558 71.8751 57.6229 71.6103 56.5236C71.4164 55.6709 72.6066 55.1979 72.9085 56.0711Z" fill="black"/>
<path d="M83.9934 49.246C84.8116 49.2679 85.6482 49.1817 86.3522 49.185C87.0561 49.1883 87.8005 49.6424 87.8999 50.4359C88.0177 51.1213 87.4131 51.9114 86.5949 51.8896C85.7767 51.8677 84.9401 51.9539 84.2362 51.9505C83.5322 51.9472 82.7879 51.4932 82.6885 50.6997C82.6849 50.0329 83.1568 49.3322 83.9934 49.246Z" fill="#952C28"/>
<path d="M70.6972 49.5663C71.2818 49.5529 71.885 49.4302 72.3564 49.3976C74.1288 49.248 74.4915 51.8923 72.7004 52.1511C72.1158 52.1646 71.5126 52.2872 71.0412 52.3198C69.25 52.5786 68.9061 49.8251 70.6972 49.5663Z" fill="#952C28"/>
<path d="M116.07 58.1377C115.215 59.2551 114.341 60.4852 113.486 61.6026C112.922 62.3099 114.003 63.2112 114.567 62.5039C115.422 61.3865 116.296 60.1564 117.151 59.039C117.715 58.3317 116.634 57.4304 116.07 58.1377Z" fill="#D24A43"/>
</g>
<defs>
<clipPath id="clip0_3_12319">
<rect x="0.290039" y="0.395996" width="198.663" height="198.663" rx="99.3317" fill="white"/>
</clipPath>
</defs>
</svg>
