<svg width="200" height="200" viewBox="0 0 200 200" fill="none" xmlns="http://www.w3.org/2000/svg">
<g clip-path="url(#clip0_3_12356)">
<rect x="0.579102" y="0.395996" width="198.663" height="198.663" rx="99.3317" fill="#91D767"/>
<path d="M158.59 140.487L105.731 151.818L100.652 137.584L94.0652 119.388L82.7344 87.9071L121.304 75.8506C122.532 79.7578 158.59 140.487 158.59 140.487Z" fill="#FFA79B"/>
<path d="M100.594 137.64L100.873 138.366C107.906 132.338 112.483 123.909 114.549 114.365C117.284 101.694 114.325 90.6423 111.255 78.9766L82.7886 87.9073L94.1194 119.388L100.594 137.64Z" fill="black"/>
<path d="M129.507 81.4881C128.614 89.5258 123.088 107.052 122.418 108.504C114.939 125.249 93.3376 137.473 77.039 124.188C76.9274 124.077 76.8157 124.021 76.7041 123.909C76.5367 123.797 76.425 123.63 76.2576 123.463C76.1459 123.351 76.0343 123.183 75.8669 123.016C75.811 122.96 75.811 122.904 75.7552 122.849C75.5319 122.57 75.3645 122.29 75.1412 122.011C74.8621 121.621 74.6389 121.174 74.3598 120.672C74.2482 120.504 74.1923 120.337 74.0807 120.169C73.9691 119.946 73.8016 119.667 73.69 119.388C73.5783 119.22 73.5225 118.997 73.4109 118.774C73.2434 118.383 73.076 117.937 72.8527 117.49C72.6853 117.044 72.5178 116.597 72.3504 116.095C71.7364 114.476 71.1782 112.69 70.6758 110.792C70.6758 110.736 70.6758 110.736 70.6758 110.68C70.62 110.401 70.5084 110.122 70.4526 109.843C70.3968 109.564 70.2851 109.285 70.2293 109.006C69.727 106.997 69.2246 104.82 68.7222 102.587C67.9408 98.9589 67.271 95.1633 66.657 91.3678C66.657 91.3119 66.657 91.2561 66.6012 91.1445C64.9267 80.5951 63.7545 70.0456 63.0847 63.4592C63.0289 63.1243 63.0289 62.7894 62.9731 62.5103C62.9731 62.3987 62.9731 62.2871 62.9173 62.1754C60.9079 42.5836 108.073 29.5224 121.637 44.2023C129.619 52.7981 131.126 67.4222 129.507 81.4881Z" fill="#FFA79B"/>
<path d="M121.805 44.3143C113.767 35.6627 94.0639 36.6674 79.6631 42.9747C77.0955 42.9747 74.5838 43.198 72.072 43.5887C69.2811 44.0352 65.7647 44.4818 63.8669 46.8261C63.0296 47.8866 62.6389 49.1704 62.7506 50.3984C62.4715 50.5658 62.1924 50.7333 61.8575 50.9007C58.341 52.966 55.6618 57.9337 59.5131 61.1711C63.0296 64.0736 69.3369 62.399 73.1883 61.3385C73.4116 61.2827 73.6907 61.1711 73.914 61.1152C80.6678 61.8967 87.4775 60.6687 93.5058 57.6546C96.6873 58.1011 99.7573 57.9895 102.827 57.3755C103.106 57.4871 103.385 57.6546 103.664 57.822C105.004 58.6593 105.953 59.8873 106.734 61.2269C107.013 61.4502 114.158 77.5813 108.911 81.2652C95.571 90.7541 78.2119 93.3775 66.7694 91.4797C67.3833 95.2753 68.0532 99.1267 68.8346 102.699C69.2811 104.932 69.7835 107.053 70.3417 109.118C70.3975 109.397 70.5091 109.676 70.5649 109.955C70.6208 110.234 70.7324 110.513 70.7882 110.792C70.7882 110.848 70.7882 110.848 70.7882 110.904C71.3464 112.802 71.9045 114.588 72.4627 116.207C72.6302 116.653 72.7976 117.156 72.9651 117.602C73.1325 118.049 73.3 118.495 73.5232 118.886C73.6349 119.109 73.6907 119.277 73.8023 119.5C73.914 119.779 74.0814 120.058 74.1931 120.281C74.3047 120.449 74.3605 120.616 74.4721 120.784C74.7512 121.23 74.9745 121.677 75.2536 122.123C75.421 122.402 75.6443 122.682 75.8676 122.961C75.9234 123.016 75.9234 123.072 75.9792 123.128C76.0908 123.295 76.2025 123.407 76.3699 123.575C76.5374 123.742 76.649 123.909 76.8164 124.021C76.9281 124.133 77.0397 124.189 77.1514 124.3C93.4499 137.585 115.833 126.477 122.866 109.509C124.596 105.267 122.866 95.1079 121.972 91.2565C121.414 88.8005 126.773 85.1166 129.564 81.5443C131.126 67.4226 129.619 52.7985 121.805 44.3143Z" fill="#697CCC"/>
<path d="M85.2445 86.6233C83.7932 87.1815 82.2303 87.7954 80.6116 87.6838C78.7697 87.5722 76.5928 86.0651 77.4859 83.9999C77.8208 83.1626 76.5928 82.4928 76.2579 83.3301C75.4206 85.2837 76.2579 87.4605 78.1557 88.4652C80.5558 89.749 83.2909 88.856 85.691 87.9629C86.5282 87.6838 86.1375 86.3442 85.2445 86.6233Z" fill="#D24A43"/>
<path d="M94.7316 73.7853C95.0107 75.0691 95.2339 76.3529 95.513 77.6367C95.7921 78.9763 97.7457 78.3065 97.5225 77.0227C97.2434 75.7389 97.0201 74.4551 96.741 73.1713C96.4619 71.8317 94.5083 72.5015 94.7316 73.7853Z" fill="black"/>
<path d="M68.443 76.5764C68.7221 77.8602 68.9454 79.144 69.2245 80.4278C69.5036 81.7674 71.4571 81.0976 71.2339 79.8138C70.9548 78.53 70.7315 77.2462 70.4525 75.9624C70.1734 74.6786 68.1639 75.2926 68.443 76.5764Z" fill="black"/>
<path d="M70.2864 65.6923C68.8352 66.1388 67.3839 66.6412 65.9327 67.0877C65.2071 67.311 64.928 68.3157 65.2071 68.9855C65.542 69.7669 66.3234 69.9344 67.1048 69.7111C68.5561 69.2646 70.0073 68.7622 71.4586 68.3157C72.1842 68.0924 72.4633 67.0877 72.1842 66.4179C71.8493 65.6364 71.012 65.4132 70.2864 65.6923Z" fill="#697CCC"/>
<path d="M93.0589 62.5105C91.6634 62.8454 90.3238 63.2362 88.9284 63.5711C87.1423 64.0176 88.0353 66.6968 89.7657 66.2503C91.1611 65.9154 92.5007 65.5247 93.8961 65.1898C95.6823 64.799 94.7892 62.064 93.0589 62.5105Z" fill="#697CCC"/>
<path d="M104.389 105.546C103.328 108.448 100.984 110.625 97.9699 111.406C97.0768 111.63 97.3001 113.025 98.1932 112.802C101.654 111.853 104.445 109.453 105.673 106.048C106.008 105.211 104.668 104.708 104.389 105.546Z" fill="#FFA79B"/>
<path d="M138.549 68.1479C134.81 62.1755 123.981 60.8359 118.064 68.3712C119.516 75.9065 120.8 83.4418 121.916 91.0329C126.214 92.0376 134.307 90.4189 138.103 85.7303C142.457 80.3161 142.568 74.5669 138.549 68.1479Z" fill="#FFA79B"/>
<path d="M128.502 73.004C127.106 75.4041 125.767 77.8601 124.371 80.2602C123.925 81.0416 125.153 81.6556 125.655 80.8742C125.767 80.7067 125.878 80.5393 125.934 80.3718C125.99 80.316 125.99 80.2602 125.99 80.2044C127.218 78.0275 128.502 75.7948 129.73 73.618C130.232 72.8365 128.948 72.2225 128.502 73.004Z" fill="#D24A43"/>
<path d="M195.933 139.873V215.114H12.8527C12.6853 206.574 12.9644 189.55 15.9785 164.767C20.0531 131.891 44.222 135.798 94.0108 138.087C99.8716 138.366 106.067 138.589 112.654 138.757C125.994 139.092 144.581 139.371 162.108 139.538C174.722 139.706 186.779 139.817 195.933 139.873Z" fill="#EBF4FF"/>
<path d="M115.946 168.842C110.532 170.684 105.117 172.526 99.703 174.424C100.15 163.484 100.596 152.544 101.043 141.604C101.098 140.822 99.8147 140.822 99.8147 141.604C99.3682 152.823 98.9216 164.098 98.4751 175.317C98.4751 175.708 98.8658 176.043 99.2565 175.931L116.337 170.07C117.006 169.791 116.671 168.563 115.946 168.842Z" fill="white"/>
<path d="M154.181 146.236C146.758 158.013 139.334 169.791 131.91 181.512C128.338 177.717 124.821 173.921 121.249 170.181C120.691 169.623 119.854 170.46 120.356 171.074C124.096 175.037 127.836 179 131.575 183.019C131.854 183.298 132.357 183.243 132.524 182.908C140.115 170.907 147.651 158.906 155.242 146.906C155.688 146.18 154.628 145.51 154.181 146.236Z" fill="white"/>
<path d="M120.022 174.591C120.022 173.81 118.738 173.81 118.794 174.591L119.854 213.44C119.854 214.222 121.138 214.222 121.082 213.44L120.022 174.591Z" fill="white"/>
<path d="M41.375 170.573V178.834C41.375 179.615 42.603 179.615 42.603 178.834V170.573C42.6588 169.791 41.375 169.791 41.375 170.573Z" fill="white"/>
<path d="M112.653 138.757C108.746 138.645 104.504 138.478 100.876 138.366L119.463 169.233L157.977 139.538C141.957 139.259 125.045 139.036 112.653 138.757Z" fill="#FFA79B"/>
<path d="M71.2313 224.157C69.8358 222.371 68.3846 220.64 66.9334 218.854C63.5844 212.603 60.2911 206.351 56.8305 200.1C52.9791 193.123 47.0067 184.694 34.6153 184.917C34.1129 184.917 33.6106 184.973 33.1082 184.973C33.0524 195.913 35.9549 206.909 40.4203 216.845C41.6482 219.636 43.0437 222.371 44.4949 225.05V224.994C44.774 221.813 45.0531 218.631 45.2763 215.449C47.6765 217.236 49.5742 219.859 52.2535 221.199C53.7047 224.827 56.9421 226.892 60.1795 229.18C63.1378 231.301 70.4499 234.93 73.0733 230.353C74.4687 228.12 72.6825 225.943 71.2313 224.157Z" fill="#FFA79B"/>
<path d="M50.3021 191.057C46.6181 187.485 41.6504 184.805 34.6733 184.973C27.417 185.14 19.7701 186.759 14.0768 191.615C8.32763 194.294 5.25767 199.876 4.25296 206.072C2.91335 214.221 3.02501 223.096 4.02971 231.301C4.69952 236.715 8.43925 242.632 14.1326 241.348C14.3559 242.688 14.6908 243.971 15.1931 245.144C16.4211 247.767 19.5469 249.386 22.0586 248.772C22.9517 252.288 25.6309 255.47 29.4265 254.465C29.4265 254.744 29.2032 262.67 31.8824 264.847C33.8918 266.466 37.5758 266.019 39.1945 262.893C41.8179 257.758 43.4366 237.776 44.3297 227.226C44.1064 226.054 47.0647 196.304 50.3021 191.057Z" fill="#FFA79B"/>
</g>
<defs>
<clipPath id="clip0_3_12356">
<rect x="0.579102" y="0.395996" width="198.663" height="198.663" rx="99.3317" fill="white"/>
</clipPath>
</defs>
</svg>
