<svg width="199" height="200" viewBox="0 0 199 200" fill="none" xmlns="http://www.w3.org/2000/svg">
<g clip-path="url(#clip0_3_12400)">
<rect x="0.000976562" y="0.395996" width="198.663" height="198.663" rx="99.3317" fill="#81AD6C"/>
<path d="M49.3854 115.268L93.9076 126.241L98.4523 117.067L104.24 105.32L114.315 84.9681L86.0901 72.3922C84.9187 74.8663 49.3854 115.268 49.3854 115.268Z" fill="#FFA79B"/>
<path d="M105.937 105.323L115.155 85.6106L100.22 78.9801C99.4413 87.7221 101.384 97.75 105.937 105.323Z" fill="black"/>
<path d="M77.6616 49.9471C80.8089 36.6152 112.936 28.4173 118.222 40.7572C122.264 49.9537 133.169 75.5482 130.629 82.2115C125.479 95.6393 108.627 95.6706 98.6579 88.2541C88.5887 80.767 74.5698 63.0916 77.6616 49.9471Z" fill="#FFA79B"/>
<path d="M97.1574 46.2957C106.668 45.1671 115.738 39.4818 117.735 38.1729C123.777 29.4296 116.094 21.1484 101.651 30.7401C89.5081 33.113 75.3211 39.0759 74.9015 50.4264C70.4298 64.5793 79.4417 64.674 84.5681 72.0881C87.3411 70.1199 86.3521 65.4835 89.7301 63.4102C94.7033 60.2728 96.4365 57.9608 97.1574 46.2957Z" fill="#952C28"/>
<path d="M118.351 65.7217C119.387 65.5409 120.524 65.43 121.486 64.8246C122.519 64.1191 123.318 62.5792 122.089 61.6556C121.583 61.3062 122.155 60.5062 122.661 60.8556C123.789 61.7093 124.071 63.3232 123.213 64.5233C122.242 66.0933 120.256 66.4398 118.529 66.741C117.91 66.7615 117.732 65.7422 118.351 65.7217Z" fill="#D24A43"/>
<path d="M107.168 55.1579C107.653 55.9612 108.122 56.6779 108.606 57.4812C109.09 58.2845 107.8 58.8788 107.316 58.0755C106.832 57.2722 106.362 56.5555 105.878 55.7522C105.493 55.0199 106.699 54.4411 107.168 55.1579Z" fill="black"/>
<path d="M121.148 49.5589C121.632 50.3623 122.102 51.0791 122.586 51.8824C123.07 52.6857 121.78 53.2801 121.296 52.4767C120.812 51.6734 120.342 50.9566 119.858 50.1533C119.389 49.4365 120.664 48.7556 121.148 49.5589Z" fill="black"/>
<path d="M102.926 51.1341C103.738 50.6506 104.638 50.1524 105.465 49.753C106.523 49.1414 107.443 50.8045 106.297 51.4309C105.485 51.9144 104.585 52.4126 103.758 52.8119C102.7 53.4236 101.78 51.7605 102.926 51.1341Z" fill="#952C28"/>
<path d="M116.724 45.5589C117.536 45.0754 118.435 44.5772 119.262 44.1779C120.321 43.5662 121.241 45.2293 120.095 45.8557C119.282 46.3392 118.383 46.8374 117.556 47.2367C116.498 47.8484 115.578 46.1853 116.724 45.5589Z" fill="#952C28"/>
<path d="M109.886 75.4754C111.238 77.0706 113.182 77.9556 115.309 77.8522C115.932 77.8326 116.095 78.7616 115.472 78.7812C112.997 78.9441 110.677 77.9496 109.107 76.1308C108.743 75.5842 109.537 75.0133 109.886 75.4754Z" fill="#D24A43"/>
<path d="M76.5163 70.4404C76.7403 65.6244 82.6661 61.1993 88.7238 63.6489C90.367 68.5717 92.1958 73.5497 93.995 78.3561C91.8005 80.4306 86.4693 82.184 82.5979 80.6684C78.255 78.9721 76.2662 75.6148 76.5163 70.4404Z" fill="#FFA79B"/>
<path d="M83.6011 70.0212C85.1887 70.9702 86.8774 71.9892 88.465 72.9382C88.9704 73.288 88.4707 73.989 87.8939 73.7394C87.7928 73.6694 87.6917 73.5995 87.5907 73.5296L87.4896 73.4596C86.0031 72.5805 84.5166 71.7014 83.0301 70.8223C82.4385 70.4877 83.0244 69.7716 83.6011 70.0212Z" fill="#D24A43"/>
<path d="M101.363 246.729C106.616 208.923 117.76 99.4142 69.9708 99.7974C40.3453 100.038 10.9398 138.081 -9.95622 205.748C-16.4001 226.565 -22.2521 250.275 -25.5236 273.086C17.072 265.687 60.3341 259.582 101.363 246.729Z" fill="#D24A43"/>
<path d="M52.2537 261.466C52.3274 242.717 52.9946 223.948 53.6619 205.178C54.5757 179.606 60.4574 166.613 61.5367 141.01C41.9005 160.099 23.2044 175.049 22.2935 203.232C21.5061 226.978 30.7669 248.027 46.8897 262.563C48.7244 262.309 50.4477 261.895 52.2537 261.466Z" fill="black"/>
<path d="M197.324 281.805C202.415 269.778 208.814 258.313 214.551 246.523C195.508 237.448 175.278 231.632 156.554 221.873C155.794 221.477 154.088 220.095 154.088 220.095C154.088 220.095 110.347 140.422 98.2587 125.768C98.2587 125.768 110.644 247.989 111.72 251.812C112.865 255.532 191.084 280.28 191.084 280.28L197.324 281.805Z" fill="#D24A43"/>
<path d="M187.207 264.323C154.381 252.424 121.186 243.981 121.186 243.981C121.186 243.981 117.998 233.418 109.28 180.615C100.478 127.828 101.918 112.758 72.2892 104.82C72.2892 104.82 63.9946 106.7 51.1094 126.1C38.2241 145.5 37.17 223.732 40.3254 264.802C42.5923 293.996 117.748 313.82 164.715 310.638C171.281 295.519 181.559 279.719 187.207 264.323Z" fill="#D24A43"/>
<path d="M105.991 139.386C108.373 168.411 110.755 197.436 113.137 226.461C113.185 226.818 113.163 227.276 113.21 227.633C112.848 227.418 112.579 227.28 112.217 227.065C112.169 226.708 112.11 226.263 112.144 225.893C109.785 197.046 107.439 168.289 105.093 139.531C105.009 138.907 105.989 138.749 105.991 139.386Z" fill="black"/>
</g>
<defs>
<clipPath id="clip0_3_12400">
<rect x="0.000976562" y="0.395996" width="198.663" height="198.663" rx="99.3317" fill="white"/>
</clipPath>
</defs>
</svg>
