<svg width="200" height="200" viewBox="0 0 200 200" fill="none" xmlns="http://www.w3.org/2000/svg">
<g clip-path="url(#clip0_3_14525)">
<rect x="0.868164" y="0.772461" width="198.663" height="198.663" rx="99.3317" fill="#9AB78D"/>
<path d="M199.36 121.847V302.691C199.36 305.058 198.911 307.469 197.979 309.66C197.409 311.008 196.653 312.29 195.744 313.441C195.185 314.164 194.549 314.832 193.859 315.446C192.084 317.035 189.936 318.208 187.646 318.876C185.345 319.544 182.912 319.709 180.556 319.424L20.2695 300.389C17.7272 300.083 15.2396 299.261 12.9713 298.023C10.7029 296.795 8.67565 295.162 6.96617 293.234C5.26764 291.305 3.88685 289.092 2.94444 286.692C1.99107 284.303 1.47607 281.728 1.47607 279.163V110.406C12.511 102.736 25.9677 98.2427 40.4984 98.2427C65.1763 98.2427 86.7751 111.228 98.6319 130.624C111.004 114.34 130.74 103.809 152.985 103.809C170.923 103.809 187.229 110.669 199.36 121.847Z" fill="#FBD5BE"/>
<path d="M199.532 268.94L199.36 302.691C199.36 305.058 198.911 307.468 197.979 309.66C197.409 311.008 196.653 312.29 195.744 313.441C195.185 314.164 194.549 314.832 193.859 315.446C192.084 317.035 189.936 318.207 187.646 318.876C185.345 319.544 182.912 319.709 180.556 319.424L20.2695 300.389C17.7272 300.083 15.2396 299.261 12.9713 298.022C10.7029 296.795 8.67565 295.162 6.96617 293.234C5.26764 291.305 3.88685 289.091 2.94444 286.692C1.99107 284.303 1.47607 281.727 1.47607 279.163V201.557C19.8509 192.775 12.5604 178.062 17.6614 130.383C19.2438 115.597 25.7256 101.574 25.8681 101.256C26.3612 100.149 28.0421 97.6498 34.2335 96.7183C37.9374 96.1594 40.0151 96.8728 41.3082 98.5494C41.2973 98.5823 27.034 172.745 84.2108 178.214C130.273 182.619 139.711 148.687 142.757 137.571C145.699 126.837 153.467 107.772 156.185 103.882C156.185 103.882 159.391 100.041 166.682 102.222C170.101 103.244 171.848 104.626 171.837 106.422C171.837 106.422 163.004 144.512 163.004 167.24C163.004 191.468 158.267 293.991 180.385 291.723C195.617 290.162 199.532 268.94 199.532 268.94Z" fill="#EBF0F3" stroke="#871C20" stroke-width="1.54382" stroke-miterlimit="10"/>
<path d="M35.0128 79.492C34.2862 86.4998 39.0049 92.7307 45.5514 93.4101C52.0979 94.0895 57.9944 88.9578 58.721 81.95C59.4475 74.9422 54.7289 68.7113 48.1825 68.0319C41.636 67.3536 35.7393 72.4842 35.0128 79.492Z" fill="#FBD5BE"/>
<path d="M57.5616 74.9148C55.8192 71.1791 52.3762 68.4669 48.1825 68.0319C41.636 67.3536 35.7393 72.4842 35.0128 79.492C34.2862 86.4998 39.0049 92.7307 45.5514 93.4101C47.582 93.6205 49.5501 93.2721 51.3209 92.482" stroke="#871C20" stroke-width="1.54382" stroke-miterlimit="10" stroke-linecap="round" stroke-linejoin="round"/>
<path d="M156.21 100.862C156.834 131.63 131.617 150.613 99.8892 150.613C68.1618 150.613 41.313 131.637 41.313 100.862C41.313 70.0864 68.1618 40.8794 99.8892 40.8794C131.617 40.8794 155.692 75.2806 156.21 100.862Z" fill="#FBD5BE"/>
<path d="M80.8117 62.0231C78.3023 64.5325 75.1374 65.4365 73.7435 64.0415C72.3497 62.6477 73.2527 59.4829 75.7621 56.9735C78.2715 54.464 81.4362 53.56 82.8301 54.955C84.2251 56.35 83.3211 59.5136 80.8117 62.0231Z" fill="#871C20" stroke="#871C20" stroke-width="1.54382" stroke-miterlimit="10" stroke-linecap="round" stroke-linejoin="round"/>
<path d="M89.2312 57.1397C91.5762 59.8036 92.2764 63.0187 90.796 64.3217C89.3155 65.6246 86.2155 64.5211 83.8704 61.8572C81.5253 59.1932 80.825 55.9781 82.3055 54.6751C83.7859 53.3722 86.8861 54.4757 89.2312 57.1397Z" fill="#871C20" stroke="#871C20" stroke-width="1.54382" stroke-miterlimit="10" stroke-linecap="round" stroke-linejoin="round"/>
<path d="M156.21 100.862C156.834 131.63 131.617 150.613 99.8892 150.613C68.1618 150.613 41.313 131.637 41.313 100.862C41.313 70.0864 68.1618 40.8794 99.8892 40.8794C131.617 40.8794 155.692 75.2806 156.21 100.862Z" stroke="#871C20" stroke-width="1.54382" stroke-miterlimit="10" stroke-linecap="round" stroke-linejoin="round"/>
<path d="M72.2221 77.4043C69.8134 80.671 69.5252 84.7178 71.4462 88.2924" stroke="#871C20" stroke-width="7.71911" stroke-miterlimit="10" stroke-linecap="round" stroke-linejoin="round"/>
<path d="M100.806 79.1484C98.3974 82.414 98.1092 86.4619 100.03 90.0365" stroke="#871C20" stroke-width="7.71911" stroke-miterlimit="10" stroke-linecap="round" stroke-linejoin="round"/>
<path d="M79.6816 99.4676L73.1583 96.3938C70.5502 95.1413 69.451 92.0127 70.7035 89.4057C71.955 86.7977 75.0847 85.6986 77.6917 86.9511L84.2151 90.0249" fill="#FBD5BE"/>
<path d="M79.6816 99.4676L73.1583 96.3938C70.5502 95.1413 69.451 92.0127 70.7035 89.4057C71.955 86.7977 75.0847 85.6986 77.6917 86.9511L84.2151 90.0249" stroke="#871C20" stroke-width="1.54382" stroke-miterlimit="10" stroke-linecap="round" stroke-linejoin="round"/>
<path d="M93.5692 118.262C92.5961 118.22 91.6328 117.974 90.7441 117.532C88.5503 116.443 86.2392 116.443 82.9769 117.423C80.3502 118.212 77.3663 117.414 75.5056 115.091C73.1156 112.107 73.8838 107.553 76.8173 105.101C83.1578 99.804 92.5358 100.187 98.4225 105.972C101.545 109.04 101.627 114.038 98.199 116.76C96.8457 117.835 95.1954 118.331 93.5692 118.262Z" fill="#871C20" stroke="#871C20" stroke-width="1.54382" stroke-miterlimit="10" stroke-linecap="round" stroke-linejoin="round"/>
<path d="M83.7578 115.931C83.7578 115.931 79.529 118.762 74.8268 121.716V121.727C69.9438 124.794 64.5765 128.03 62.8856 128.425C60.98 128.864 58.9615 127.816 58.3073 125.978C57.5183 123.791 58.7467 121.433 60.946 120.79C60.98 120.779 61.0249 120.779 61.0589 120.779L72.2221 117.183C72.2221 117.183 72.2221 117.183 72.2331 117.183L82.788 113.789C84.1293 113.35 84.9643 115.21 83.7578 115.931Z" fill="white" stroke="#871C20" stroke-width="1.54382" stroke-miterlimit="10" stroke-linecap="round" stroke-linejoin="round"/>
<path d="M83.7572 115.932C83.7572 115.932 79.5284 118.762 74.8262 121.717C75.4015 117.646 72.4812 117.217 72.2324 117.183L82.7874 113.789C84.1287 113.35 84.9637 115.211 83.7572 115.932Z" fill="#F4736C" stroke="#871C20" stroke-width="1.54382" stroke-miterlimit="10" stroke-linecap="round" stroke-linejoin="round"/>
<path d="M64.4205 123.827C65.0747 125.526 64.312 127.401 62.7176 128.014C61.1232 128.629 59.2997 127.75 58.6455 126.052C57.9912 124.353 58.7539 122.478 60.3483 121.863C61.9427 121.251 63.7663 122.13 64.4205 123.827Z" fill="#871C20"/>
<path d="M112.58 80.7203C108.106 82.4517 105.218 81.93 100.716 81.7755C94.6306 81.5662 91.65 80.3531 91.3991 80.2194C90.1027 79.528 89.0201 77.7133 89.2929 76.1824C89.2929 76.1824 92.1552 74.0609 98.1845 74.2614C104.213 74.463 112.58 80.7203 112.58 80.7203Z" fill="#FBD5BE"/>
<path d="M80.121 76.3196C80.0727 78.1409 78.8596 79.6115 77.2345 80.201C74.3109 81.2618 71.0672 81.0591 68.8274 80.6668C63.8501 79.7934 59.7211 79.2937 59.3813 78.8302C59.3813 78.8302 64.0484 72.4623 70.951 72.2421C77.8526 72.0218 80.121 76.3196 80.121 76.3196Z" fill="#FBD5BE"/>
<path d="M62.333 80.5704C65.4725 80.6208 73.8501 81.0427 77.2351 80.2022C78.8975 79.7913 80.0734 78.1421 80.1216 76.3208" stroke="#871C20" stroke-width="1.54382" stroke-miterlimit="10" stroke-linecap="round" stroke-linejoin="round"/>
<path d="M111.786 81.5221C104.685 82.0142 94.8794 82.3812 91.7037 80.6421C89.5942 79.4861 89.0212 77.713 89.2929 76.1821" stroke="#871C20" stroke-width="1.54382" stroke-miterlimit="10" stroke-linecap="round" stroke-linejoin="round"/>
<path d="M88.7931 101.453V107.798C88.1246 107.798 87.4452 107.776 86.7548 107.754C82.525 107.579 78.6677 107.031 75.709 106.253C76.0268 105.837 76.3994 105.453 76.8158 105.102C80.2567 102.22 84.5961 101.015 88.7931 101.453Z" fill="white" stroke="#871C20" stroke-width="1.54382" stroke-miterlimit="10" stroke-linecap="round" stroke-linejoin="round"/>
<path d="M99.2135 106.911C97.252 107.349 94.7974 107.645 92.0469 107.765V102.133C94.37 102.867 96.5616 104.149 98.4136 105.968C98.7204 106.264 98.9943 106.582 99.2135 106.911Z" fill="white" stroke="#871C20" stroke-width="1.54382" stroke-miterlimit="10" stroke-linecap="round" stroke-linejoin="round"/>
<path d="M153.154 61.0305C153.631 62.6326 153.992 64.2687 154.251 65.9245C123.178 64.25 73.7275 53.7016 64.6245 42.8584C90.1397 16.2814 143.904 27.2802 153.154 61.0305Z" fill="#8D95B7" stroke="#871C20" stroke-width="1.54382" stroke-miterlimit="10"/>
<path d="M160.842 78.1101C159.409 82.3433 157.023 88.7516 152.038 90.5411C150.975 86.9753 150.089 85.153 148.599 81.997C141.619 64.4715 80.7061 50.1293 59.835 60.4794C57.2181 61.7768 54.6485 63.7613 52.2136 67.0477C49.3403 63.9147 50.0766 58.5759 51.3324 52.8086C52.7767 46.1778 56.8982 43.779 58.0686 43.1884C81.4842 31.3666 140.324 47.0566 157.606 62.4387C163.069 67.4784 162.262 73.9087 160.842 78.1101Z" fill="#8D95B7" stroke="#871C20" stroke-width="1.54382" stroke-miterlimit="10"/>
<path d="M166.103 92.3038C167.3 84.9283 162.292 77.979 154.916 76.782C147.541 75.585 140.591 80.5936 139.394 87.9691C138.197 95.3446 143.206 102.294 150.582 103.491C157.957 104.688 164.906 99.6793 166.103 92.3038Z" fill="#FBD5BE"/>
<path d="M141.322 82.8454C143.727 79.0955 147.932 76.6113 152.718 76.6113C160.191 76.6113 166.248 82.669 166.248 90.1403C166.248 97.6128 160.19 103.669 152.718 103.669C150.401 103.669 148.219 103.086 146.312 102.06" stroke="#871C20" stroke-width="1.54382" stroke-miterlimit="10" stroke-linecap="round" stroke-linejoin="round"/>
<path d="M152.148 98.894C151.088 98.894 150.072 98.6912 149.148 98.3186C146.138 97.1231 144.007 94.1918 144.007 90.752C144.007 89.0042 144.559 87.3801 145.518 86.0498C146.984 83.9754 149.408 82.6221 152.149 82.6221C153.949 82.6221 155.613 83.205 156.961 84.1934" stroke="#871C20" stroke-width="1.54382" stroke-miterlimit="10" stroke-linecap="round" stroke-linejoin="round"/>
<path d="M150.649 93.6055C150.649 95.3534 150.096 96.9883 149.148 98.3186C146.138 97.1231 144.007 94.1918 144.007 90.752C144.007 89.0042 144.559 87.3801 145.518 86.0498C148.529 87.2344 150.649 90.1657 150.649 93.6055Z" fill="#871C20" stroke="#871C20" stroke-width="1.54382" stroke-miterlimit="10" stroke-linecap="round" stroke-linejoin="round"/>
<path d="M88.963 159.659C90.8336 162.883 89.7356 167.013 86.5117 168.884C83.9321 170.38 80.6282 169.502 79.1324 166.923C77.9358 164.86 78.6382 162.217 80.7016 161.02C82.352 160.062 84.4668 160.625 85.4246 162.275C86.1906 163.595 85.7412 165.287 84.4208 166.053C83.3644 166.666 82.0111 166.306 81.3986 165.25" stroke="#871C20" stroke-width="1.54382" stroke-miterlimit="10" stroke-linecap="round" stroke-linejoin="round"/>
</g>
<defs>
<clipPath id="clip0_3_14525">
<rect x="0.868164" y="0.772461" width="198.663" height="198.663" rx="99.3317" fill="white"/>
</clipPath>
</defs>
</svg>
