<svg width="200" height="200" viewBox="0 0 200 200" fill="none" xmlns="http://www.w3.org/2000/svg">
<g clip-path="url(#clip0_3_14580)">
<path d="M0.868164 100.293C0.868164 45.4332 45.3405 0.960938 100.2 0.960938V0.960938C155.059 0.960938 199.532 45.4332 199.532 100.293V100.293C199.532 155.152 155.059 199.624 100.2 199.624V199.624C45.3405 199.624 0.868164 155.152 0.868164 100.293V100.293Z" fill="#A495FF"/>
<path d="M145.39 75.4058C145.401 75.4733 145.411 75.5407 145.422 75.6081L148.136 93.0321L151.404 105.095L146.655 105.594L146.032 119.282C145.542 130.026 138.096 139.192 127.679 141.873C121.382 143.493 114.865 143.558 108.658 142.157L111.731 174.552L125.222 178.351C118.802 185.12 111.127 188.249 102.198 187.738C93.2686 187.226 79.9368 182.895 62.2011 174.742L70.1014 112.376C63.8679 100.28 61.0975 86.6883 62.1074 73.1043L62.1741 72.2054C63.1452 59.1489 72.9512 48.4654 85.8768 46.3804L101.677 43.8329C122.466 40.4801 142.037 54.6156 145.39 75.4058Z" fill="white"/>
<path d="M145.39 75.4058C145.401 75.4733 145.411 75.5407 145.422 75.6081L148.136 93.0321L151.404 105.095L146.655 105.594L146.032 119.282C145.542 130.026 138.096 139.192 127.679 141.873C121.382 143.493 114.865 143.558 108.658 142.157L111.731 174.552L125.222 178.351C118.802 185.12 111.127 188.249 102.198 187.738C93.2686 187.226 79.9368 182.895 62.2011 174.742L70.1014 112.376C63.8679 100.28 61.0975 86.6883 62.1074 73.1043L62.1741 72.2054C63.1452 59.1489 72.9512 48.4654 85.8768 46.3804L101.677 43.8329C122.466 40.4801 142.037 54.6156 145.39 75.4058Z" fill="#F8B097" stroke="#030507" stroke-width="1.32442" stroke-linejoin="round"/>
<path fill-rule="evenodd" clip-rule="evenodd" d="M142.657 66.1186L120.692 64.1042L105.576 84.7112L86.2267 95.908L69.412 117.818L70.1015 112.376C63.8679 100.28 61.0975 86.6883 62.1074 73.1042L62.1741 72.2053C63.1452 59.1488 72.9504 48.4653 85.8768 46.3803L101.677 43.8328C119.191 41.0084 135.841 50.5963 142.657 66.1186Z" fill="black"/>
<path d="M142.657 66.1183L142.567 67.106C142.917 67.1385 143.257 66.983 143.462 66.6982C143.667 66.4134 143.706 66.0413 143.566 65.72L142.657 66.1183ZM120.693 64.1039L120.783 63.1162C120.437 63.0844 120.099 63.2367 119.893 63.5176L120.693 64.1039ZM105.577 84.7109L106.074 85.5693C106.193 85.5011 106.296 85.4082 106.377 85.298L105.577 84.7109ZM86.2274 95.9077L85.7308 95.0493C85.6189 95.1143 85.5198 95.2008 85.4412 95.3039L86.2274 95.9077ZM69.4128 117.818L68.429 117.694C68.3727 118.138 68.621 118.565 69.0351 118.735C69.4493 118.906 69.9269 118.777 70.199 118.422L69.4128 117.818ZM70.1022 112.376L71.086 112.5C71.1114 112.301 71.0757 112.1 70.9836 111.921L70.1022 112.376ZM62.1082 73.1039L61.1189 73.0301L62.1082 73.1039ZM62.1749 72.205L63.1642 72.2788L62.1749 72.205ZM85.8776 46.38L85.7197 45.401L85.8776 46.38ZM101.678 43.8325L101.835 44.8115L101.678 43.8325ZM142.748 65.1313L120.783 63.1162L120.603 65.0916L142.567 67.106L142.748 65.1313ZM119.893 63.5176L104.777 84.1246L106.377 85.298L121.493 64.6902L119.893 63.5176ZM105.08 83.8532L85.7308 95.0493L86.7241 96.7661L106.074 85.5693L105.08 83.8532ZM85.4412 95.3039L68.6258 117.214L70.199 118.422L87.0145 96.5114L85.4412 95.3039ZM70.3965 117.943L71.086 112.5L69.1184 112.251L68.429 117.694L70.3965 117.943ZM70.9836 111.921C64.8334 99.988 62.1003 86.5792 63.0968 73.1776L61.1189 73.0301C60.0955 86.7974 62.9032 100.571 69.2208 112.829L70.9836 111.921ZM63.0968 73.1776L63.1642 72.2788L61.1863 72.1312L61.1189 73.0301L63.0968 73.1776ZM63.1642 72.2788C64.1011 59.6793 73.5629 49.371 86.0354 47.359L85.7197 45.401C72.3403 47.559 62.1907 58.6169 61.1863 72.1312L63.1642 72.2788ZM86.0354 47.359L101.835 44.8115L101.52 42.8535L85.7197 45.401L86.0354 47.359ZM101.835 44.8115C118.893 42.0609 135.111 51.3981 141.75 66.5173L143.566 65.72C136.573 49.7939 119.491 39.9553 101.52 42.8535L101.835 44.8115Z" fill="#030507"/>
<path fill-rule="evenodd" clip-rule="evenodd" d="M114.325 143.525C109.645 141.433 106.228 139.65 104.072 138.175C103.189 137.57 101.982 137.797 101.377 138.681C100.989 139.249 100.93 139.979 101.223 140.602L111.981 163.44L114.325 143.525Z" fill="#030507"/>
<path d="M141.906 94.6675C143.436 94.5064 144.546 93.1363 144.386 91.6075C144.225 90.0779 142.854 88.9687 141.325 89.1298C139.795 89.2909 138.685 90.6602 138.845 92.1898C139.007 93.7186 140.377 94.8286 141.906 94.6675Z" fill="#030507"/>
<path d="M137.965 109.896C139.992 113.949 142.505 115.875 145.505 115.672" stroke="#030507" stroke-width="1.32442" stroke-linecap="round" stroke-linejoin="round"/>
<path fill-rule="evenodd" clip-rule="evenodd" d="M106.665 83.9578C97.12 76.174 89.779 75.752 84.6403 82.6908C76.9335 93.099 85.1909 104.212 91.0627 106.793C94.9779 108.515 98.1181 108.858 100.483 107.82" fill="#F8B097"/>
<path d="M106.665 83.9578C97.12 76.174 89.779 75.752 84.6403 82.6908C76.9335 93.099 85.1909 104.212 91.0627 106.793C94.9779 108.515 98.1181 108.858 100.483 107.82" stroke="#030507" stroke-width="1.32442" stroke-linecap="round" stroke-linejoin="round"/>
<path d="M95.2782 83.5713C89.5858 85.2358 87.523 89.7183 89.0907 97.0189" stroke="#030507" stroke-width="1.32442" stroke-linecap="round" stroke-linejoin="round"/>
<path fill-rule="evenodd" clip-rule="evenodd" d="M62.3335 157.042C41.214 227.017 24.466 286.597 12.0894 335.779C-0.287152 384.963 -4.61814 414.258 -0.902788 423.666L172.64 417.121C172.64 364.764 172.64 335.468 172.64 329.235C172.64 319.885 151.629 170.758 128.428 165.148C125.628 164.47 114.686 158.875 111.372 158.323C108.631 157.865 115.635 162.588 100.284 166.428C90.0507 168.987 77.4004 165.859 62.3335 157.042Z" fill="white" stroke="#030507" stroke-width="1.32442" stroke-linecap="round" stroke-linejoin="round"/>
<path fill-rule="evenodd" clip-rule="evenodd" d="M62.1755 156.894C67.4871 164.734 71.3214 170.684 73.6793 174.744C81.2227 187.737 80.423 210.157 80.423 227.107C80.423 255.775 84.4398 330.538 92.4751 451.396L-3.39175 456.087C-13.1589 442.812 -13.1589 409.964 -3.39175 357.544C2.0944 328.104 -1.0259 275.635 -12.7519 200.137C-15.8453 180.22 -2.20644 161.567 17.7103 158.473C19.213 158.24 20.7283 158.101 22.2484 158.057L62.1755 156.894Z" fill="#AA8981" stroke="black" stroke-width="1.32442"/>
<path fill-rule="evenodd" clip-rule="evenodd" d="M87.5035 168.124L105.345 165.616C106.213 165.495 107.015 166.099 107.137 166.966C107.15 167.058 107.154 167.15 107.151 167.241L106.647 182.173C106.622 182.928 106.068 183.561 105.322 183.685L95.7585 185.275C95.096 185.385 94.436 185.066 94.1107 184.479L86.3372 170.464C85.912 169.698 86.1888 168.732 86.9552 168.307C87.125 168.213 87.3115 168.151 87.5035 168.124Z" fill="black"/>
<path fill-rule="evenodd" clip-rule="evenodd" d="M64.1571 155.703C57.8101 153.587 52.7857 155.042 49.083 160.067C45.3812 165.091 45.3812 172.364 49.083 181.884L94.7018 167.207C87.2822 166.321 81.5961 165.131 77.6443 163.637C73.6934 162.143 69.1973 159.499 64.1571 155.703Z" fill="white" stroke="#030507" stroke-width="1.32442" stroke-linecap="round" stroke-linejoin="round"/>
<path d="M148.257 172.364C173.537 222.516 189.334 254.591 195.646 268.588C199.926 278.076 246.098 214.755 271.579 210.836C277.032 209.998 298.377 234.257 298.157 239.398C297.128 263.387 224.612 349.641 195.646 349.641C152.863 349.641 137.066 290.549 148.257 172.364Z" fill="white"/>
<path d="M148.257 172.364C173.537 222.516 189.334 254.591 195.646 268.588C199.926 278.076 246.098 214.755 271.579 210.836C277.032 209.998 298.377 234.257 298.157 239.398C297.128 263.387 224.612 349.641 195.646 349.641C152.863 349.641 137.066 290.549 148.257 172.364Z" fill="#AA8981" stroke="black" stroke-width="1.32442" stroke-linejoin="round"/>
<path fill-rule="evenodd" clip-rule="evenodd" d="M185.709 356.196C185.709 379.295 190.647 418.648 200.524 474.256C191.735 519.855 181.858 513.012 170.895 453.724C159.93 394.437 154.236 303.295 153.81 180.298L206.965 286.258C192.795 309.784 185.709 333.098 185.709 356.196Z" fill="black"/>
<path fill-rule="evenodd" clip-rule="evenodd" d="M114.536 159.272C122.205 181.487 127.097 202.511 129.213 222.345C131.329 242.18 137.676 317.417 148.254 448.059L164.892 451.043C175.979 442.784 176.406 392.801 166.171 301.094C159.816 244.142 159.361 187.437 148.254 172.363C143.838 166.37 132.598 162.006 114.536 159.272Z" fill="#AA8981" stroke="black" stroke-width="1.32442"/>
<path fill-rule="evenodd" clip-rule="evenodd" d="M110.515 156.517C116.983 157.121 122.158 158.569 126.041 160.86C129.924 163.152 132.304 168.705 133.182 177.521L94.7031 167.207C99.9917 166.414 103.959 165.224 106.604 163.637C109.248 162.05 110.552 159.677 110.515 156.517Z" fill="white" stroke="#030507" stroke-width="1.32442" stroke-linecap="round" stroke-linejoin="round"/>
<path fill-rule="evenodd" clip-rule="evenodd" d="M96.686 183.867V273.444C96.686 275.304 97.2311 277.123 98.2529 278.676L111.102 298.207C112.547 300.404 115.499 301.012 117.695 299.567C118.593 298.977 119.265 298.1 119.601 297.079L125.606 278.822C126.15 277.169 126.23 275.398 125.838 273.703L104.62 181.884L96.686 183.867Z" fill="black"/>
<path d="M370.795 778.498C481.867 778.498 571.914 630.376 571.914 447.663C571.914 264.948 481.867 116.828 370.795 116.828C259.72 116.828 169.676 264.948 169.676 447.663C169.676 630.376 259.72 778.498 370.795 778.498Z" fill="#77ACB7" stroke="#030507" stroke-width="1.32442" stroke-linecap="round" stroke-linejoin="round"/>
<path fill-rule="evenodd" clip-rule="evenodd" d="M106.783 84.2998L151.211 85.0932L106.783 84.2998Z" stroke="#030507" stroke-width="1.32442" stroke-linecap="round" stroke-linejoin="round"/>
<path fill-rule="evenodd" clip-rule="evenodd" d="M151.155 98.9241C152.582 98.1657 153.445 96.6543 153.374 95.0406L152.913 84.6315C152.877 83.8255 152.194 83.2011 151.388 83.2368C151.171 83.2463 150.959 83.3043 150.767 83.4058C149.511 84.0738 148.729 85.3837 148.738 86.8062L148.804 97.5206C148.809 98.4045 149.53 99.1169 150.414 99.1113C150.673 99.1098 150.927 99.0455 151.155 98.9241Z" fill="black"/>
<path fill-rule="evenodd" clip-rule="evenodd" d="M-12.7987 187.438L-31.193 324.247C-34.3459 347.697 -17.8922 369.263 5.55825 372.416C8.41279 372.8 11.2991 372.895 14.1735 372.699L160.156 362.772L156.982 311.997L41.9438 308.03L53.8443 267.568" fill="#AA8981"/>
<path d="M-12.7987 187.438L-31.193 324.247C-34.3459 347.697 -17.8922 369.263 5.55825 372.416C8.41279 372.8 11.2991 372.895 14.1735 372.699L160.156 362.772L156.982 311.997L41.9438 308.03L53.8443 267.568" stroke="black" stroke-width="1.32442"/>
</g>
<defs>
<clipPath id="clip0_3_14580">
<path d="M0.868164 100.293C0.868164 45.4332 45.3405 0.960938 100.2 0.960938V0.960938C155.059 0.960938 199.532 45.4332 199.532 100.293V100.293C199.532 155.152 155.059 199.624 100.2 199.624V199.624C45.3405 199.624 0.868164 155.152 0.868164 100.293V100.293Z" fill="white"/>
</clipPath>
</defs>
</svg>
