<svg width="200" height="200" viewBox="0 0 200 200" fill="none" xmlns="http://www.w3.org/2000/svg">
<g clip-path="url(#clip0_3_14581)">
<path d="M0.579102 100.293C0.579102 45.4332 45.0514 0.960938 99.9108 0.960938V0.960938C154.77 0.960938 199.242 45.4332 199.242 100.293V100.293C199.242 155.152 154.77 199.624 99.9108 199.624V199.624C45.0514 199.624 0.579102 155.152 0.579102 100.293V100.293Z" fill="#85FF67"/>
<path d="M-74.6649 732.532C80.9031 732.532 207.013 606.598 207.013 451.255C207.013 295.91 80.9031 169.978 -74.6649 169.978C-230.233 169.978 -356.343 295.91 -356.343 451.255C-356.343 606.598 -230.233 732.532 -74.6649 732.532Z" fill="white"/>
<path d="M207.013 451.255C207.013 606.598 80.9031 732.532 -74.6649 732.532C-230.233 732.532 -356.343 606.598 -356.343 451.255C-356.343 295.911 -230.233 169.978 -74.6649 169.978C80.9031 169.978 207.013 295.911 207.013 451.255Z" stroke="#030507" stroke-width="1.32442"/>
<path fill-rule="evenodd" clip-rule="evenodd" d="M52.8638 86.0569C54.9393 85.4615 57.143 86.4793 58.0325 88.4474L63.1773 99.8483L72.4089 98.1206C75.4541 97.55 78.387 99.5566 78.956 102.602C78.964 102.638 78.964 102.674 78.972 102.711L86.1843 145.937C82.3057 152.313 79.6291 155.919 78.1707 156.755C76.7202 157.591 71.2389 158.66 61.7428 159.961L59.8676 156.712C58.0085 153.499 56.7744 149.966 56.2214 146.297L50.0109 105.101L49.4099 90.8515C49.3137 88.6469 50.7402 86.6652 52.8638 86.0569Z" fill="#F8B097" stroke="#030507" stroke-width="1.32442" stroke-linecap="round" stroke-linejoin="round"/>
<path d="M76.8396 85.8039L57.7993 88.4805C56.9178 88.6039 56.3087 89.4141 56.437 90.2907L63.5691 141.079C63.6973 141.955 64.5067 142.566 65.3802 142.442L84.4285 139.766C85.302 139.643 85.911 138.832 85.7908 137.956L78.6506 87.1678C78.5304 86.2912 77.7211 85.6805 76.8396 85.8039Z" fill="black" stroke="#030507" stroke-width="1.32442" stroke-linecap="round" stroke-linejoin="round"/>
<path d="M110.61 30.7572L97.0832 30.145C77.1935 29.245 60.3489 44.6367 59.4434 64.5233C59.4354 64.7573 59.4274 64.9905 59.4193 65.2245C59.0427 79.9262 59.1389 90.6596 59.7158 97.4231C60.1245 102.222 60.942 106.784 62.16 111.109C64.9648 121.03 73.2749 128.419 83.4601 130.038L90.8648 131.216C92.8522 131.531 94.8314 131.682 96.8028 131.676L93.7817 163.582L80.1505 167.42C86.6335 174.257 94.3907 177.418 103.406 176.902C112.429 176.385 124.586 173.276 139.876 167.573L134.683 97.968L136.534 89.238C138.289 80.948 138.626 72.4191 137.512 64.0184L136.222 54.2466C134.499 41.2478 123.712 31.3502 110.61 30.7572Z" fill="white"/>
<path d="M110.61 30.7572L97.0832 30.145C77.1935 29.245 60.3489 44.6367 59.4434 64.5233C59.4354 64.7573 59.4274 64.9905 59.4193 65.2245C59.0427 79.9262 59.1389 90.6596 59.7158 97.4231C60.1245 102.222 60.942 106.784 62.16 111.109C64.9648 121.03 73.2749 128.419 83.4601 130.038L90.8648 131.216C92.8522 131.531 94.8314 131.682 96.8028 131.676L93.7817 163.582L80.1505 167.42C86.6335 174.257 94.3907 177.418 103.406 176.902C112.429 176.385 124.586 173.276 139.876 167.573L134.683 97.968L136.534 89.238C138.289 80.948 138.626 72.4191 137.512 64.0184L136.222 54.2466C134.499 41.2478 123.712 31.3502 110.61 30.7572Z" fill="#F8B097" stroke="#030507" stroke-width="1.32442" stroke-linejoin="round"/>
<path fill-rule="evenodd" clip-rule="evenodd" d="M62.0312 52.6239H107.324L107.645 76.2183L112.789 72.2572H116.139L134.763 98.9866L134.683 97.968L136.534 89.238C138.289 80.948 138.625 72.4191 137.511 64.0185L136.221 54.2475C134.498 41.2478 123.712 31.3502 110.61 30.7572L97.0827 30.145C81.4001 29.435 67.6087 38.8566 62.0312 52.6239Z" fill="black"/>
<path d="M62.031 52.6239V53.6256C61.7024 53.6256 61.3899 53.4597 61.2056 53.184C61.0133 52.9076 60.9812 52.5566 61.1014 52.248L62.031 52.6239ZM107.324 52.6239V51.6222C107.869 51.6222 108.317 52.0621 108.326 52.6103L107.324 52.6239ZM107.644 76.2183L108.253 77.0117C107.957 77.2432 107.548 77.2849 107.212 77.1198C106.867 76.9548 106.651 76.611 106.643 76.2319L107.644 76.2183ZM112.789 72.2572L112.18 71.4638C112.356 71.3284 112.565 71.2555 112.789 71.2555V72.2572ZM116.139 72.2572V71.2555C116.467 71.2555 116.772 71.4158 116.964 71.6842L116.139 72.2572ZM134.762 98.9865L135.764 98.912C135.796 99.3624 135.524 99.7791 135.099 99.9305C134.674 100.082 134.201 99.9298 133.937 99.5595L134.762 98.9865ZM134.682 97.968L133.689 98.0425C133.681 97.948 133.689 97.8526 133.705 97.7605L134.682 97.968ZM136.533 89.238L135.556 89.0305L136.533 89.238ZM137.511 64.0184L136.517 64.1498L137.511 64.0184ZM136.221 54.2474L137.215 54.116L136.221 54.2474ZM110.609 30.7572L110.657 29.7571L110.609 30.7572ZM97.0824 30.1449L97.0344 31.1458L97.0824 30.1449ZM62.031 51.6222H107.324V53.6256H62.031V51.6222ZM108.326 52.6103L108.646 76.2047L106.643 76.2319L106.322 52.6375L108.326 52.6103ZM107.035 75.425L112.18 71.4638L113.398 73.0505L108.253 77.0117L107.035 75.425ZM112.789 71.2555H116.139V73.2589H112.789V71.2555ZM116.964 71.6842L135.588 98.4144L133.937 99.5595L115.313 72.8302L116.964 71.6842ZM133.761 99.0611L133.689 98.0425L135.684 97.8935L135.764 98.912L133.761 99.0611ZM133.705 97.7605L135.556 89.0305L137.519 89.4456L135.668 98.1756L133.705 97.7605ZM135.556 89.0305C137.287 80.8518 137.615 72.4375 136.517 64.1498L138.505 63.887C139.627 72.4006 139.298 81.0441 137.519 89.4456L135.556 89.0305ZM136.517 64.1498L135.227 54.3781L137.215 54.116L138.505 63.887L136.517 64.1498ZM135.227 54.3781C133.568 41.86 123.183 32.3295 110.561 31.7581L110.657 29.7571C124.241 30.3717 135.428 40.6355 137.215 54.116L135.227 54.3781ZM110.561 31.7581L97.0344 31.1458L97.1305 29.144L110.657 29.7571L110.561 31.7581ZM97.0344 31.1458C81.7925 30.4559 68.3778 39.6138 62.9606 52.9997L61.1014 52.248C66.8312 38.0992 81.0072 28.4148 97.1305 29.144L97.0344 31.1458Z" fill="#030507"/>
<path fill-rule="evenodd" clip-rule="evenodd" d="M91.1602 132.245C96.5613 131.062 100.248 130.15 102.211 129.509C106.61 128.074 109.327 126.393 110.625 125.502C110.946 125.286 111.378 125.367 111.595 125.683C111.755 125.921 111.755 126.235 111.587 126.472L93.5241 152.36L91.1602 132.245Z" fill="#030507"/>
<path d="M63.2972 82.8943C61.7506 82.7317 60.6287 81.3477 60.797 79.8035C60.9573 78.2585 62.3436 77.1382 63.8822 77.3009C65.4288 77.4627 66.5507 78.8467 66.3905 80.3917C66.2302 81.9359 64.8438 83.0562 63.2972 82.8943Z" fill="#030507"/>
<path d="M73.3379 100.033C71.1262 102.041 68.8583 102.071 66.5264 100.125" stroke="#030507" stroke-width="1.32442" stroke-linecap="round" stroke-linejoin="round"/>
<path fill-rule="evenodd" clip-rule="evenodd" d="M113.102 72.0766C122.742 64.2144 130.154 63.7881 135.347 70.7968C143.128 81.3099 134.786 92.5337 128.856 95.1421C124.906 96.8811 121.732 97.2265 119.344 96.1791" fill="#F8B097"/>
<path d="M113.102 72.0766C122.742 64.2144 130.154 63.7881 135.347 70.7968C143.128 81.3099 134.786 92.5337 128.856 95.1421C124.906 96.8811 121.732 97.2265 119.344 96.1791" stroke="#030507" stroke-width="1.32442" stroke-linecap="round" stroke-linejoin="round"/>
<path d="M124.601 71.6865C130.347 73.3678 132.43 77.8955 130.852 85.2696" stroke="#030507" stroke-width="1.32442" stroke-linecap="round" stroke-linejoin="round"/>
<path d="M69.7572 77.0205L66.5518 94.2497L72.4899 94.3844" stroke="#030507" stroke-width="1.32442" stroke-linecap="round" stroke-linejoin="round"/>
<path fill-rule="evenodd" clip-rule="evenodd" d="M48.407 148.341C45.466 148.341 42.7254 149.801 41.0906 152.236C6.54397 203.59 -14.4837 238.353 -22.0004 256.524C-44.0378 309.815 -27.8985 330.571 -22.0004 334.256C1.51145 348.948 22.6112 340.4 41.307 308.613L43.7111 402.372H58.9369L188.741 401.617L216.404 412.389L279.183 317.751C289.576 302.081 290.233 281.883 280.881 265.57L231.726 179.863C222.294 163.422 204.568 153.521 185.624 154.116L139.874 155.553L139.426 157.363C138.296 157.439 137.174 157.783 136.164 158.394C126.435 164.301 116.995 166.109 107.844 163.82C92.3777 159.951 96.5607 155.493 93.796 155.954C93.0588 156.077 88.2506 156.077 79.3716 155.954V155.553C79.3716 151.569 76.1421 148.341 72.1593 148.341H48.407ZM221.613 292.185L199.311 337.496L204.215 275.009C209.577 280.395 215.378 286.121 221.613 292.185Z" fill="white" stroke="#030507" stroke-width="1.32442" stroke-linecap="round" stroke-linejoin="round"/>
<path fill-rule="evenodd" clip-rule="evenodd" d="M104.174 164.212L122.477 164.532C123.358 164.547 124.063 165.277 124.047 166.163C124.047 166.262 124.039 166.361 124.015 166.458L120.906 181.53C120.754 182.271 120.105 182.804 119.351 182.809L108.806 182.885C108.1 182.89 107.467 182.425 107.259 181.744L102.611 166.276C102.355 165.429 102.835 164.535 103.677 164.28C103.837 164.232 104.005 164.21 104.174 164.212Z" fill="black"/>
<path fill-rule="evenodd" clip-rule="evenodd" d="M110.09 181.728L99.3274 288.599C99.119 290.666 99.5919 292.746 100.666 294.527L112.422 314.042C113.8 316.316 116.749 317.049 119.025 315.678C119.722 315.257 120.307 314.665 120.708 313.958L131.831 294.628C132.896 292.784 133.313 290.641 133.025 288.533L118.239 180.06L110.09 181.728Z" fill="black"/>
<path fill-rule="evenodd" clip-rule="evenodd" d="M94.1988 148.341C90.192 149.954 87.7879 151.29 86.9866 152.348C83.8452 156.523 84.6306 162.424 82.5791 164.368C79.7583 167.052 75.487 171.993 69.7573 179.193L113.832 165.169L154.301 181.197C152.378 176.036 150.502 171.895 148.691 168.775C147.321 166.416 146.303 162.252 145.63 156.284C145.197 152.445 142.425 149.278 138.674 148.341C136.374 153.759 134.235 157.232 132.263 158.758C124.891 164.48 116.332 165.169 113.832 165.169C111.725 165.169 108.639 164.452 104.576 163.017C98.3579 160.819 94.1988 154.938 94.1988 148.341Z" fill="white" stroke="#030507" stroke-width="1.32442" stroke-linecap="round" stroke-linejoin="round"/>
<path fill-rule="evenodd" clip-rule="evenodd" d="M56.1333 76.6191H93.9895H111.427H56.1333Z" stroke="#030507" stroke-width="1.32442" stroke-linecap="round" stroke-linejoin="round"/>
<path fill-rule="evenodd" clip-rule="evenodd" d="M69.7573 77.0205L74.4693 84.2816C75.8957 86.4749 78.2999 87.8365 80.9123 87.9286L85.1915 88.0801C87.9963 88.1794 90.6407 86.8099 92.1794 84.4675L97.0036 77.1079L69.7573 77.0205Z" fill="black"/>
<path fill-rule="evenodd" clip-rule="evenodd" d="M56.9904 88.2395H58.2806C61.0453 88.2395 63.6016 86.8219 65.0681 84.4868L69.756 77.0205L55.3315 77.4693L56.9904 88.2395Z" fill="black"/>
<path d="M64.5477 194.82L32.894 272.151" stroke="#030507" stroke-width="1.32442" stroke-linecap="round" stroke-linejoin="round"/>
</g>
<defs>
<clipPath id="clip0_3_14581">
<path d="M0.579102 100.293C0.579102 45.4332 45.0514 0.960938 99.9108 0.960938V0.960938C154.77 0.960938 199.242 45.4332 199.242 100.293V100.293C199.242 155.152 154.77 199.624 99.9108 199.624V199.624C45.0514 199.624 0.579102 155.152 0.579102 100.293V100.293Z" fill="white"/>
</clipPath>
</defs>
</svg>
