<svg width="199" height="200" viewBox="0 0 199 200" fill="none" xmlns="http://www.w3.org/2000/svg">
<g clip-path="url(#clip0_3_14582)">
<path d="M0.157715 100.293C0.157715 45.4332 44.63 0.960938 99.4894 0.960938V0.960938C154.349 0.960938 198.821 45.4332 198.821 100.293V100.293C198.821 155.152 154.349 199.624 99.4894 199.624V199.624C44.63 199.624 0.157715 155.152 0.157715 100.293V100.293Z" fill="#F97575"/>
<path fill-rule="evenodd" clip-rule="evenodd" d="M100.088 206.752C103.3 206.695 109.321 206.59 118.153 206.436C126.984 206.282 137.029 216.33 148.287 236.582C169.687 213.579 172.903 192.569 157.933 173.551C135.48 145.024 138.953 155.823 116.016 118.537C109.871 108.546 107.098 92.1104 107.697 69.2285L96.2144 122.808L100.088 206.752Z" fill="black" stroke="black" stroke-width="1.32442" stroke-linejoin="round"/>
<path d="M89.4971 41.2358L102.765 42.0214C122.075 43.1645 136.803 59.7454 135.66 79.0563C135.646 79.2956 135.629 79.5348 135.61 79.7732C134.488 93.8361 133.307 104.074 132.068 110.487C131.73 112.236 131.4 113.935 131.08 115.583C128.612 128.259 117.605 137.475 104.692 137.676L104.664 137.677C101.426 137.727 98.2267 137.415 95.1193 136.768L96.0158 158.934L99.7275 159.116C98.0893 166.402 92.1568 170.403 81.9306 171.119C71.7035 171.833 64.079 168.631 59.0562 161.512L67.4472 117.937L66.1311 116.191L62.2306 101.319C58.9973 88.9928 58.8749 76.0573 61.8739 63.6723L62.4624 61.2404C65.4481 48.91 76.8324 40.4858 89.4971 41.2358Z" fill="#F8B097"/>
<path fill-rule="evenodd" clip-rule="evenodd" d="M89.5583 40.2025C82.9759 39.8126 76.7262 41.8067 71.7348 45.501C66.7426 49.1945 63.0085 54.5882 61.4565 60.9967L60.8679 63.4287C57.8292 75.9801 57.9534 89.0894 61.2297 101.581L65.1823 116.651L66.3444 118.193L57.9575 161.743C63.1774 169.401 71.172 172.907 82.0024 172.151C87.3357 171.777 91.5374 170.523 94.6275 168.439C98.1347 166.074 100.253 162.645 100.966 158.14L97.0114 157.946L96.206 138.031C98.9782 138.523 101.817 138.755 104.709 138.711C111.41 138.606 117.615 136.163 122.467 132.101C127.318 128.038 130.815 122.358 132.095 115.781C132.416 114.133 132.745 112.433 133.084 110.682C134.327 104.246 135.514 93.9707 136.641 79.8557C136.661 79.6099 136.678 79.3632 136.693 79.1173C137.281 69.1767 133.785 59.9381 127.656 53.0387C121.527 46.1384 112.766 41.5766 102.826 40.988L89.5583 40.2025Z" stroke="#030507" stroke-width="1.32442"/>
<path d="M130.648 98.7036C132.157 98.6241 133.317 97.3444 133.238 95.8453C133.159 94.3454 131.872 93.1939 130.363 93.2734C128.854 93.352 127.695 94.6318 127.773 96.1317C127.852 97.6308 129.139 98.7822 130.648 98.7036Z" fill="#030507"/>
<path d="M112.64 97.3714C114.149 97.2928 115.309 96.0131 115.23 94.5132C115.151 93.0141 113.864 91.8627 112.355 91.9413C110.846 92.0208 109.687 93.3005 109.766 94.7996C109.845 96.2995 111.131 97.4509 112.64 97.3714Z" fill="#030507"/>
<path fill-rule="evenodd" clip-rule="evenodd" d="M92.8051 61.5685C94.5417 63.3059 94.6734 79.0169 118.114 79.0169C121.63 79.0169 146.116 83.606 150.397 79.0169C153.051 76.1718 152.557 70.2227 144.602 61.6338C139.147 55.7435 134.496 54.1922 132.186 52.9423C131.312 52.4697 124.881 49.2348 112.892 43.2368C93.3051 33.4385 69.4828 41.3735 59.6838 60.9617C56.2038 67.9182 54.8463 75.7455 55.7809 83.4686L65.9649 119.163L79.2091 84.8112C85.9148 83.9495 91.0039 78.348 91.2216 71.591C91.4633 64.0939 91.9906 60.7531 92.8051 61.5685Z" fill="black" stroke="black" stroke-width="1.32442" stroke-linejoin="round"/>
<path fill-rule="evenodd" clip-rule="evenodd" d="M80.6451 86.6316C71.6846 78.556 64.5045 77.7712 59.1059 84.2766C51.007 94.036 58.5322 105.293 64.1593 108.11C67.9108 109.987 70.9735 110.48 73.3476 109.589" fill="#F8B097"/>
<path d="M80.6451 86.6316C71.6846 78.556 64.5045 77.7712 59.1059 84.2766C51.007 94.036 58.5322 105.293 64.1593 108.11C67.9108 109.987 70.9735 110.48 73.3476 109.589" stroke="#030507" stroke-width="1.32442" stroke-linecap="round" stroke-linejoin="round"/>
<path d="M69.4965 85.6777C63.8264 87.0121 61.5707 91.2792 62.7312 98.4783" stroke="#030507" stroke-width="1.32442" stroke-linecap="round" stroke-linejoin="round"/>
<path d="M122.79 89.1143L123.547 106.04L117.811 105.37" stroke="#030507" stroke-width="1.32442" stroke-linecap="round" stroke-linejoin="round"/>
<path fill-rule="evenodd" clip-rule="evenodd" d="M117.849 111.996C119.021 114.266 121.189 112.733 121.914 111.397C122.638 110.061 116.279 108.953 117.849 111.996Z" fill="black" stroke="#030507" stroke-width="1.32442" stroke-linecap="round" stroke-linejoin="round"/>
<path fill-rule="evenodd" clip-rule="evenodd" d="M148.741 247.881C145.199 241.439 141.94 223.145 138.964 192.997C136.946 172.56 120.247 156.693 99.7343 155.722L97.1922 155.602C95.9646 164.144 90.5221 168.415 80.8646 168.415C66.3787 168.415 60.2475 154.77 58.7211 155.137C49.119 157.45 34.7151 160.92 15.511 165.546C-7.39162 175.568 -17.511 214.465 -14.8481 282.235C-12.0271 301.172 -10.0015 315.476 -8.77066 325.144C-8.02982 330.955 -8.10842 340.06 -9.00489 352.444C-10.1919 368.825 1.43073 383.369 17.6756 385.819C35.1919 388.46 43.9496 389.776 43.9496 389.776L190.543 370.39V344.588C190.543 331.642 187.313 318.895 181.145 307.513C163.624 275.182 152.823 255.304 148.741 247.881Z" fill="white" stroke="#030507" stroke-width="1.32442" stroke-linecap="round" stroke-linejoin="round"/>
<path d="M84.1763 195.731C82.3478 195.731 80.8652 194.249 80.8652 192.42C80.8652 190.592 82.3478 189.109 84.1763 189.109C86.0048 189.109 87.4873 190.592 87.4873 192.42C87.4873 194.249 86.0048 195.731 84.1763 195.731Z" stroke="#030507" stroke-width="1.32442" stroke-linejoin="round"/>
<path d="M81.6929 169.799L111.492 217.667C113.026 181.143 112.058 160.862 108.588 156.826" stroke="#030507" stroke-width="1.32442" stroke-linecap="round" stroke-linejoin="round"/>
<path d="M81.6927 169.035L52.721 229.669C47.2023 190.419 44.4434 166.69 44.4434 158.481" stroke="#030507" stroke-width="1.32442" stroke-linejoin="round"/>
</g>
<defs>
<clipPath id="clip0_3_14582">
<path d="M0.157715 100.293C0.157715 45.4332 44.63 0.960938 99.4894 0.960938V0.960938C154.349 0.960938 198.821 45.4332 198.821 100.293V100.293C198.821 155.152 154.349 199.624 99.4894 199.624V199.624C44.63 199.624 0.157715 155.152 0.157715 100.293V100.293Z" fill="white"/>
</clipPath>
</defs>
</svg>
