<svg width="200" height="199" viewBox="0 0 200 199" fill="none" xmlns="http://www.w3.org/2000/svg">
<g clip-path="url(#clip0_3_13213)">
<rect x="0.579102" y="0.187988" width="198.663" height="198.663" rx="99.3317" fill="#FFC121"/>
<path d="M98.2789 36.9399C76.481 36.9399 58.8019 57.8346 58.8019 83.6187C58.8019 93.5783 44.6031 118.688 49.0952 126.263H147.619C152.111 118.688 137.744 93.5662 137.744 83.6187C137.744 57.8346 120.077 36.9399 98.2789 36.9399Z" fill="black"/>
<path d="M124.676 51.4159C131.866 52.1144 142.62 57.9432 147.534 49.0795C149.774 45.0331 153.869 38.7707 159.866 37.2774M124.676 51.4159C124.881 46.3699 127.109 35.8443 134.395 34.1101C141.681 32.3759 130.951 44.9247 124.676 51.4159ZM124.676 51.4159C133.034 44.2744 149.352 31.7978 147.727 39.0116C146.101 46.2374 131.673 50.2838 124.676 51.4159ZM124.676 51.4159C131.721 54.812 141.741 67.1441 150.737 56.2933C159.746 45.4425 170.066 46.695 170.934 52.8008L124.676 51.4159Z" stroke="black" stroke-width="1.15613" stroke-linecap="round"/>
<path d="M51.2134 117.809L152.748 115.87C162.154 115.413 183.458 119.748 193.417 140.763C193.116 140.101 230.281 205.94 233.364 215.406C243.456 234.362 228.33 264.072 199.535 253.871C196.043 253.125 167.477 237.348 167.477 237.348L167.26 251.933C167.26 251.933 161.238 248.681 149.99 249.596C138.742 250.523 125.687 262.506 125.687 262.506C128.228 239.456 101.493 251.005 92.9665 262.506C92.9665 262.506 85.0181 254.281 76.5278 252.86C64.9424 250.909 48.6 264.06 48.6 264.06V249.62L22.7316 256.413C5.06449 261.495 -14.3368 268.997 -20.3704 269.467C-43.3846 271.262 -68.8797 247.79 -49.7554 221.705C-44.5287 216.056 1.01803 154.806 1.01803 154.806C23.972 125.83 34.4254 117.809 51.2134 117.809Z" fill="#FF85D2"/>
<path d="M152.747 115.87L51.2124 117.809C34.4364 117.809 23.9711 125.83 1.01705 154.806C1.01705 154.806 -6.94338 165.512 -16.5898 178.374L28.2584 210.613L174.148 205.013L215.455 180.421C204.725 160.731 193.236 140.402 193.404 140.775C183.445 119.748 162.153 115.413 152.747 115.87Z" fill="white"/>
<path d="M51.2135 117.809L152.748 115.87C162.154 115.413 183.458 119.748 193.417 140.775C193.153 140.233 204.69 160.646 215.468 180.421L174.161 205.013L28.2716 210.613L-16.5767 178.374C-6.9302 165.5 1.03024 154.806 1.03024 154.806C23.9722 125.83 34.4255 117.809 51.2135 117.809Z" stroke="black" stroke-width="0.770754"/>
<path d="M48.6003 264.084V249.62L22.7319 256.412L28.2717 210.613L51.2257 117.809L67.6645 117.496L71.8795 160.056L125.688 161.79L134.467 116.232L152.76 115.882L174.173 205.025L167.465 237.445L167.248 251.956C167.248 251.956 161.227 248.705 149.979 249.62C138.73 250.547 125.676 262.53 125.676 262.53C128.217 239.48 101.481 251.029 92.9548 262.53C92.9548 262.53 85.0064 254.305 76.5161 252.884C64.9307 250.933 48.6003 264.084 48.6003 264.084Z" fill="#6983FF"/>
<path d="M180.361 201.388L215.249 180.517L181.926 205.759L178.783 204.41L180.361 201.388Z" fill="black"/>
<path d="M16.9985 202.17L-16.2402 178.759L15.1078 206.422L18.3353 205.314L16.9985 202.17Z" fill="black"/>
<path d="M119.738 171.244C119.521 168.546 119.774 163.271 122.544 163.765C126 164.379 130.468 171.244 134.31 168.679C136.225 167.137 134.141 160.682 135.623 158.839" stroke="white" stroke-width="0.770754" stroke-linecap="round"/>
<path d="M49.2981 149.867C49.0813 147.17 49.3342 141.895 52.1041 142.388C55.5604 143.003 60.0284 149.867 63.8701 147.302C65.785 145.761 63.7015 139.305 65.1828 137.463" stroke="white" stroke-width="0.770754" stroke-linecap="round"/>
<path d="M179.953 183.66C179.736 180.963 179.989 175.688 182.759 176.181C186.215 176.796 190.683 183.66 194.525 181.095C196.44 179.554 194.356 173.098 195.838 171.256" stroke="white" stroke-width="0.770754" stroke-linecap="round"/>
<path d="M135.406 129.058C135.19 126.36 135.443 121.085 138.212 121.579C141.669 122.193 146.137 129.058 149.979 126.492C151.893 124.951 149.81 118.496 151.291 116.653" stroke="white" stroke-width="1.15613" stroke-linecap="round"/>
<path d="M50.6355 130.828C50.4187 128.13 50.6716 122.855 53.4415 123.349C56.8978 123.963 61.3658 130.828 65.1955 128.262C67.1103 126.721 65.0269 120.266 66.5082 118.423" stroke="white" stroke-width="1.15613" stroke-linecap="round"/>
<path d="M69.7953 92.4224L70.0964 93.6628C70.6142 95.7944 71.9871 97.6129 73.8899 98.6968C71.9871 99.7807 70.6142 101.599 70.0964 103.731L69.7953 104.971L69.4942 103.731C68.9764 101.599 67.6035 99.7807 65.7007 98.6968C67.6035 97.6129 68.9764 95.7944 69.4942 93.6628L69.7953 92.4224Z" fill="#FECB4B"/>
<path d="M74.3119 76.7667L71.1325 71.1667C72.1562 55.4265 81.8388 50.9946 91.2203 50.9946C93.1472 57.2329 110.598 72.9852 116.8 75.2131L118.161 81.4514C123.833 76.7667 131.589 77.5977 133.467 83.2338C136.008 93.2175 127.903 96.1559 119.1 95.7826V104.911V120.639C119.1 120.639 115.872 124.674 112.235 126.492C100.012 133.273 88.4865 125.023 85.5119 120.639V106.116C81.899 106.116 74.3239 106.573 71.1446 100.214C67.8689 93.6871 71.2289 82.3065 74.3119 76.7667Z" fill="#FF85D2"/>
<path d="M123.76 92.4224L124.061 93.6628C124.579 95.7944 125.952 97.6129 127.855 98.6968C125.952 99.7807 124.579 101.599 124.061 103.731L123.76 104.971L123.459 103.731C122.941 101.599 121.568 99.7807 119.666 98.6968C121.568 97.6129 122.941 95.7944 123.459 93.6628L123.76 92.4224Z" fill="#FECB4B"/>
<path d="M85.4393 112.414L96.7356 104.959C96.7356 104.959 93.2311 105.561 90.9911 105.778C88.8113 105.995 85.4272 106.103 85.4272 106.103V112.414H85.4393Z" fill="black"/>
<path d="M86.1521 71.4917C85.0442 77.2001 89.4158 80.548 89.4158 80.548L84.2012 89.761H90.3551" stroke="black" stroke-width="1.15613" stroke-linecap="round"/>
<path d="M96.9639 71.4193C98.7703 71.1062 100.601 71.1423 101.865 71.5036" stroke="black" stroke-width="1.15613" stroke-linecap="round"/>
<path d="M77.5635 70.3358C79.3699 70.0227 81.2005 70.0588 82.465 70.4201" stroke="black" stroke-width="1.15613" stroke-linecap="round"/>
<path d="M94.147 95.3963C95.7728 94.5413 97.1939 93.3851 97.9767 92.3374" stroke="black" stroke-width="1.15613" stroke-linecap="round"/>
<path d="M122.136 87.3043L128.687 81.9692" stroke="black" stroke-width="1.15613" stroke-linecap="round"/>
<path d="M126.929 83.8955L130.41 87.3037" stroke="black" stroke-width="1.15613" stroke-linecap="round"/>
<path d="M99.6741 79.8496C100.279 79.8496 100.77 79.3589 100.77 78.7536C100.77 78.1484 100.279 77.6577 99.6741 77.6577C99.0688 77.6577 98.5781 78.1484 98.5781 78.7536C98.5781 79.3589 99.0688 79.8496 99.6741 79.8496Z" fill="black"/>
<path d="M80.2736 78.7651C80.8789 78.7651 81.3696 78.2744 81.3696 77.6692C81.3696 77.0639 80.8789 76.5732 80.2736 76.5732C79.6684 76.5732 79.1777 77.0639 79.1777 77.6692C79.1777 78.2744 79.6684 78.7651 80.2736 78.7651Z" fill="black"/>
</g>
<defs>
<clipPath id="clip0_3_13213">
<rect x="0.579102" y="0.187988" width="198.663" height="198.663" rx="99.3317" fill="white"/>
</clipPath>
</defs>
</svg>
