<svg width="200" height="200" viewBox="0 0 200 200" fill="none" xmlns="http://www.w3.org/2000/svg">
<g clip-path="url(#clip0_3_13402)">
<rect x="0.868164" y="0.583984" width="198.663" height="198.663" rx="99.3317" fill="#FFA5A5"/>
<path d="M43.0802 144.011C46.0962 174.482 76.2718 168.528 90.9787 161.734C90.9787 164.004 92.0981 168.994 96.5599 170.736C104.535 173.347 106.836 163.304 106.992 157.956C108.282 160.288 111.842 165.465 115.713 167.455C131.042 173.938 139.748 159.045 142.189 150.789C148.516 153.23 162.212 156.215 166.332 148.613C170.452 141.011 166.596 130.704 164.156 126.49C175.365 121.5 170.281 112.996 166.332 109.358C168.882 105.674 172.784 97.0144 168.042 91.9152C159.072 83.5668 150.708 85.4324 147.645 87.4068C149.355 84.3441 151.75 76.0734 147.645 67.4763C143.541 58.8791 134.617 57.5577 130.669 57.9774C132.659 46.1466 124.015 44.6386 119.46 45.3537C119.879 41.9802 118.651 33.6473 111.671 31.5174C101.566 27.8951 96.0468 33.8805 94.5388 36.4767C85.3198 30.8645 79.692 38.8087 78.0285 43.4882C75.3857 43.4882 71.1726 43.6436 66.975 47.7013C61.8603 53.811 63.7103 61.2577 65.2649 64.2115C52.6879 64.4603 53.3719 76.1512 55.2997 81.9655C40.8415 87.9509 46.1584 101.678 50.6358 107.804C30.4099 115.048 37.1726 134.963 43.0802 144.011Z" fill="black"/>
<path d="M64.8468 123.708L152.326 122.045C160.426 121.656 178.786 125.387 187.368 143.499C195.95 161.61 211.449 209.291 211.449 209.291L241.609 171.078C241.609 171.078 248.745 159.807 251.808 152.282C254.886 144.758 258.835 139.425 262.1 142.504C264.416 144.696 261.587 150.774 260.918 154.288L269.826 142.923C272.454 139.348 276.527 138.959 277.693 141.711C277.941 142.923 277.802 143.421 277.522 144.245C277.522 144.245 275.159 148.722 274.661 149.515L280.615 142.504C282.092 140.809 285.808 139.161 287.005 142.923C287.098 143.297 287.005 143.794 286.803 144.245C286.803 144.245 285.419 147.136 284.72 148.116L287.176 145.66C290.176 143.623 293.224 145.131 290.534 150.292C289.166 152.376 287.938 154.226 287.502 154.879C287.502 154.879 288.311 153.961 290.534 151.894C292.757 149.826 297.514 150.557 294.965 156.216C294.965 156.216 247.673 224.06 224.617 256.708C220.264 261.62 205.604 272.767 190.166 256.708C184.554 252.152 169.77 215.307 163.069 205.84V225.521C163.069 225.521 88.2442 203.85 62.577 230.901L62.8724 205.84L10.3567 260.128C3.59399 265.103 -14.5642 272.067 -33.1577 260.128C-51.7357 248.188 -107.438 202.217 -109.708 200.523C-111.978 198.828 -112.631 193.496 -106.661 195.766C-104.858 196.527 -101.671 198.035 -100.769 198.471C-100.769 198.471 -106.412 194.833 -108.76 192.998C-111.092 191.164 -111.574 189.19 -110.657 187.479C-109.739 185.769 -106.552 186.313 -105.791 186.671L-97.8463 190.853L-105.791 184.743C-106.661 183.873 -107.951 181.23 -106.226 179.737C-104.407 178.167 -102.137 179.038 -100.334 180.577L-91.5811 186.36C-91.5811 186.36 -97.2245 177.576 -97.5354 175.726C-97.8463 173.876 -95.561 172.353 -93.7732 173.674C-91.9698 174.996 -86.855 182.271 -84.4919 185.536L-77.4028 188.614C-77.4028 188.614 -81.0096 183.826 -82.9529 180.577C-84.7096 177.654 -82.2844 173.363 -77.9936 175.96C-77.2629 176.41 -77.1385 176.752 -76.6099 177.157C-76.6099 177.157 -62.2606 194.444 -58.1252 200.196L-13.9579 225.211L31.4998 155.485C38.3558 145.846 46.8596 129.227 64.8468 123.708Z" fill="#6983FF"/>
<path d="M44.6974 224.635L13.3403 184.245L39.1163 230.418L44.6974 224.635Z" fill="black"/>
<path d="M174.542 227.931L205.79 192.081L177.62 234.352L174.542 227.931Z" fill="black"/>
<path d="M62.437 246.415L63.7118 123.785C92.7214 123.194 151.456 122.029 154.332 122.029C157.099 121.857 161.328 122.697 163.1 123.132V245.141L160.581 242.451C159.167 241.176 155.669 238.627 152.933 238.627C146.263 238.129 141.506 242.762 139.967 245.141C139.718 243.011 138.941 238.067 137.79 235.315C136.36 231.895 132.909 226.345 125.167 227.666C111.051 229.765 101.256 246.897 98.3803 253.567C98.2715 250.504 96.9967 245.638 96.3748 244.767C95.7685 243.104 92.3328 237.243 83.2847 235.315C74.2523 233.372 65.6396 242.715 62.437 246.415Z" fill="#FF85D2"/>
<path d="M143.606 187.51C141.274 188.909 135.677 193.2 131.868 199.139" stroke="white" stroke-width="1.49246" stroke-linecap="round"/>
<path d="M90.6545 172.415C88.3226 173.814 82.7103 178.105 78.917 184.043" stroke="white" stroke-width="1.49246" stroke-linecap="round"/>
<path d="M155.108 163.553C153.087 161.719 147.366 157.584 140.604 155.656" stroke="white" stroke-width="1.49246" stroke-linecap="round"/>
<path d="M44.4966 224.883C44.4966 224.883 56.4363 212.555 62.8569 205.901L65.2355 123.676C54.322 124.547 42.8953 137.652 38.5423 144.089L12.5332 183.545L44.4966 224.883Z" fill="white" stroke="black" stroke-width="1.49246"/>
<path d="M174.559 228.04L162.961 205.886V123.164C173.875 124.034 182.954 133.953 187.307 140.405L209.849 187.464L174.559 228.04Z" fill="white" stroke="black" stroke-width="1.49246"/>
<path d="M119.897 122.682L85.5859 123.241L109.294 236.963C114.222 232.517 119.975 229.066 122.4 228.273L119.897 122.682Z" fill="white" stroke="black" stroke-width="0.99497"/>
<path d="M78.6996 85.4324L75.9634 80.613C82.6328 78.5298 81.0937 73.2285 79.4769 70.8343C88.7581 72.8087 92.0384 64.3515 92.5048 59.8896C95.5985 69.9326 103.139 69.4196 106.03 68.549C103.216 78.25 110.088 82.2298 115.296 84.111L116.462 89.49C121.343 85.4479 128.028 86.1786 129.645 91.0136C131.837 99.6107 124.841 102.145 117.255 101.818V109.685V123.241C117.255 123.241 114.472 126.724 111.347 128.278C100.822 134.124 90.888 127.019 88.3228 123.241V110.726C85.198 110.726 78.684 111.115 75.9323 105.643C73.1495 100.015 76.0411 90.2052 78.6996 85.4324Z" fill="#6983FF"/>
<path d="M88.2915 116.152L98.0236 109.731C98.0236 109.731 95.0076 110.244 93.0798 110.447C91.1987 110.633 88.2915 110.726 88.2915 110.726V116.152Z" fill="black"/>
<path d="M88.8973 80.8931C87.949 85.8057 91.7112 88.6974 91.7112 88.6974L87.2183 96.6416H92.5196" stroke="black" stroke-width="1.49246" stroke-linecap="round"/>
<path d="M98.2095 80.8306C99.7641 80.5663 101.35 80.5974 102.438 80.8928" stroke="black" stroke-width="1.49246" stroke-linecap="round"/>
<path d="M81.4961 79.8819C83.0507 79.6176 84.6365 79.6487 85.7247 79.9441" stroke="black" stroke-width="1.49246" stroke-linecap="round"/>
<path d="M95.8008 101.492C97.2 100.745 98.4281 99.7659 99.0966 98.8486" stroke="black" stroke-width="1.49246" stroke-linecap="round"/>
<path d="M119.912 94.5114L125.555 89.9097" stroke="black" stroke-width="1.49246" stroke-linecap="round"/>
<path d="M124.033 91.5732L127.033 94.5115" stroke="black" stroke-width="1.49246" stroke-linecap="round"/>
<path d="M83.8446 87.5934C84.6087 87.5934 85.2282 86.974 85.2282 86.2098C85.2282 85.4456 84.6087 84.8262 83.8446 84.8262C83.0804 84.8262 82.4609 85.4456 82.4609 86.2098C82.4609 86.974 83.0804 87.5934 83.8446 87.5934Z" fill="black"/>
<path d="M99.6082 87.5934C100.372 87.5934 100.992 86.974 100.992 86.2098C100.992 85.4456 100.372 84.8262 99.6082 84.8262C98.8441 84.8262 98.2246 85.4456 98.2246 86.2098C98.2246 86.974 98.8441 87.5934 99.6082 87.5934Z" fill="black"/>
<path d="M121.746 145.768L130.887 152.92L146.263 123.148" stroke="white" stroke-width="1.49246" stroke-linecap="round"/>
<path d="M89.8611 147.804L80.7199 154.955L66.7437 125.635" stroke="white" stroke-width="1.49246" stroke-linecap="round"/>
</g>
<defs>
<clipPath id="clip0_3_13402">
<rect x="0.868164" y="0.583984" width="198.663" height="198.663" rx="99.3317" fill="white"/>
</clipPath>
</defs>
</svg>
